<svg width="283" height="283" fill="none" xmlns="http://www.w3.org/2000/svg">
  <path d="M182.308 55.094a5.118 5.118 0 0 1-2.003.985c-2.01.447-7.358.221-8.264 2.678a5.316 5.316 0 0 1-3.345 3.124s-4.239.226-4.466 1.132c-.226.905-1.783 2.456-1.783 2.456h73.009s2.456-3.792-1.563-7.358c-3.514-3.124-9.938 1.608-10.754-2.264M222.478 50.165c-.815-2.938-2.53-6.9-6.011-8.371-5.807-2.457-10.714.894-12.056 4.239-1.341 3.345-2.23 5.58-7.358 2.677-5.128-2.904-9.622-2.677-11.161 1.132a17.41 17.41 0 0 1-1.659 3.147M58.326 94.013h25.351s1.483-2.264-.945-4.455c-2.428-2.19-7.16 1.89-6.48-2.7 0 0-.567-5.66-4.053-7.154a5.66 5.66 0 0 0-5.604.51" stroke="#263238" stroke-linecap="round" stroke-linejoin="round"/>
  <path d="M64.909 82.268c-.81 2.027-1.353 3.396-4.455 1.62-3.101-1.778-5.807-1.62-6.752.678-.945 2.298-2.162 3.51-3.396 3.775-1.234.267-4.454.136-4.998 1.625a3.23 3.23 0 0 1-2.026 1.89s-2.564.13-2.7.674a5.224 5.224 0 0 1-1.081 1.483h14.835M185.223 94.013h11.971s1.483-2.264-.945-4.455c-2.428-2.19-7.154 1.89-6.481-2.7 0 0-.537-5.66-4.052-7.154-3.515-1.494-6.475.566-7.29 2.564-.815 1.998-1.347 3.396-4.455 1.619-3.107-1.778-5.807-1.619-6.746.679-.94 2.298-2.163 3.51-3.396 3.775-1.234.266-4.455.136-4.993 1.625a3.233 3.233 0 0 1-2.026 1.89s-2.564.13-2.7.674a5.224 5.224 0 0 1-1.081 1.483h28.198" stroke="#263238" stroke-linecap="round" stroke-linejoin="round"/>
  <g opacity=".1" fill="#000">
    <path opacity=".1" d="M13.149 131.408c2.23.442 7.182-.753 7.182-.753s-1.777-3.028-1.913-3.203c-1.59-2.049-5.87-5.094-8.592-4.076a3.454 3.454 0 0 0-1.955 2.002 3.441 3.441 0 0 0 .178 2.793c.888 1.845 3.203 2.858 5.1 3.237Z"/>
    <path opacity=".1" d="M18.01 145.462c2.174-.153 6.334-2.406 6.668-2.587a61.019 61.019 0 0 0 4.318 6.866 106.12 106.12 0 0 0 2.87 3.792 44.62 44.62 0 0 0-1.092-1.007c-2.072-1.551-6.996-3.334-9.362-1.659a3.438 3.438 0 0 0-1.183 3.868c.156.456.407.873.736 1.226 1.347 1.54 3.843 1.908 5.773 1.772 1.93-.136 5.547-1.993 6.486-2.491.385.476.759.957 1.132 1.432 1.846 2.264 3.696 4.528 5.445 6.826.617.804 1.189 1.619 1.772 2.428-.476-.447-.877-.82-.945-.871-2.078-1.557-6.996-3.34-9.362-1.659a3.438 3.438 0 0 0-1.363 2.447 3.433 3.433 0 0 0 .916 2.647c1.347 1.546 3.843 1.908 5.773 1.772 1.93-.136 5.196-1.811 6.317-2.4a80.867 80.867 0 0 1 1.652 2.547c.34.566.702 1.132 1.008 1.738l.94 1.771a106.478 106.478 0 0 1 1.646 3.464c.363.787.697 1.54 1.03 2.304-.605-.809-1.816-2.366-1.935-2.485-1.811-1.845-6.407-4.352-9.005-3.056a3.435 3.435 0 0 0-1.212 4.964c1.099 1.732 3.51 2.467 5.44 2.626 2.122.175 6.413-1.342 6.945-1.534a109.03 109.03 0 0 1 1.55 3.662c.359.86.693 1.692 1.002 2.496l1.766-.385-1.183-2.785a198.335 198.335 0 0 0-1.822-4.024 36.552 36.552 0 0 0 3.48-2.671c1.795 1.256 5.915 2.264 6.447 2.416a166.302 166.302 0 0 1-.724 3.906c-.13.656-.26 1.273-.39 1.89l1.867-.407c.074-.385.142-.764.21-1.166.249-1.376.48-2.83.707-4.364.566 0 5.094-.074 7.047-.974 1.754-.82 3.758-2.348 4.188-4.352a3.438 3.438 0 0 0-2.864-4.234c-2.88-.317-6.322 3.628-7.358 5.994-.062.142-.566 1.732-.871 2.74.084-.623.18-1.223.26-1.863.175-1.262.311-2.524.464-3.888l.153-1.998c.05-.673.05-1.375.08-2.071 0-1.619 0-3.255-.103-4.902 1.132.147 5.043.623 6.905.079 1.863-.543 4.076-1.754 4.8-3.667a3.436 3.436 0 0 0-.06-2.798 3.43 3.43 0 0 0-2.125-1.821c-2.83-.753-6.792 2.626-8.207 4.805-.085.136-.917 1.812-1.358 2.74a89.57 89.57 0 0 0-.204-2.977c-.266-2.887-.622-5.802-.962-8.711-.108-.894-.204-1.783-.3-2.672.39.057 5.06.725 7.149.114 1.856-.566 4.07-1.755 4.8-3.668a3.437 3.437 0 0 0-2.191-4.619c-2.83-.752-6.792 2.632-8.201 4.806-.108.164-1.302 2.581-1.574 3.209-.215-1.964-.413-3.917-.526-5.853a60.457 60.457 0 0 1 0-7.844c.18.028 5.048.747 7.188.119 1.856-.566 4.075-1.749 4.8-3.668a3.436 3.436 0 0 0-2.185-4.619c-2.83-.747-6.792 2.632-8.207 4.811-.108.17-1.393 2.762-1.59 3.255v-.464a44.145 44.145 0 0 1 1.42-7.732c.368-1.404.804-2.722 1.25-3.996.895.227 4.987 1.217 6.974.866 1.987-.351 4.24-1.296 5.173-3.119a3.432 3.432 0 0 0-.497-4.01 3.455 3.455 0 0 0-1.172-.818c-2.706-1.058-7.047 1.868-8.683 3.878-.085.107-.866 1.318-1.426 2.207.215-.566.419-1.166.634-1.698.798-2.043 1.652-3.866 2.422-5.479.447-.911.866-1.698 1.268-2.485.99-.232 4.98-1.228 6.554-2.433 1.574-1.206 3.164-3.102 3.153-5.151a3.433 3.433 0 0 0-2.289-3.335 3.438 3.438 0 0 0-1.418-.186c-2.887.312-5.394 4.902-5.915 7.443-.045.215-.362 3.73-.311 3.719h.056c-.402.724-.82 1.5-1.268 2.36-.803 1.596-1.698 3.396-2.547 5.439a60.804 60.804 0 0 0-2.394 6.645 44.551 44.551 0 0 0-1.607 7.8.57.57 0 0 0 0 .096c-.17-.832-.713-3.147-.776-3.322-.871-2.44-3.99-6.64-6.894-6.549a3.43 3.43 0 0 0-2.476 1.292 3.429 3.429 0 0 0-.699 2.704c.272 2.026 2.15 3.707 3.838 4.664 1.901 1.069 6.616 1.483 6.99 1.517a61.12 61.12 0 0 0-.187 8.11c.062 1.574.17 3.159.3 4.749a36.77 36.77 0 0 0-.351-1.443c-.872-2.44-3.996-6.639-6.894-6.549a3.426 3.426 0 0 0-2.482 1.288 3.428 3.428 0 0 0-.699 2.708c.272 2.032 2.151 3.713 3.838 4.664 1.686.951 5.722 1.404 6.792 1.506.056.605.102 1.216.164 1.822.277 2.921.566 5.83.77 8.7.073 1.007.102 2.003.141 2.999a35.273 35.273 0 0 0-.311-1.245c-.872-2.445-3.962-6.645-6.894-6.554a3.443 3.443 0 0 0-2.483 1.291 3.441 3.441 0 0 0-.698 2.71c.272 2.032 2.156 3.713 3.837 4.664 1.681.951 5.332 1.359 6.594 1.483v3.034c-.045.679-.04 1.33-.118 2.009-.08.679-.13 1.336-.193 1.993-.175 1.267-.34 2.569-.566 3.797-.13.855-.272 1.67-.413 2.491-.057-1.008-.215-2.977-.244-3.136a13.341 13.341 0 0 0-3.152-5.954 3.693 3.693 0 0 0-.21-.73 3.432 3.432 0 0 0-3.33-2.29 3.435 3.435 0 0 0-1.39.337c-2.58 1.324-3.272 6.515-2.83 9.056 0 .147.481 1.755.781 2.762-.266-.566-.52-1.132-.804-1.698a521.338 521.338 0 0 0-1.76-3.498l-.973-1.749c-.317-.566-.72-1.177-1.082-1.771a69.158 69.158 0 0 0-2.79-4.03c1.008-.487 4.528-2.264 5.807-3.747 1.28-1.483 2.428-3.707 1.981-5.705a3.437 3.437 0 0 0-2.952-2.754 3.44 3.44 0 0 0-1.423.122c-2.75.922-4.217 5.948-4.188 8.535 0 .164.232 2.021.373 3.039a56.617 56.617 0 0 0-1.81-2.377c-1.812-2.264-3.72-4.494-5.61-6.73-.566-.684-1.132-1.375-1.698-2.06.357-.17 4.619-2.19 6.022-3.854 1.251-1.477 2.428-3.708 1.981-5.706a3.436 3.436 0 0 0-1.596-2.299 3.433 3.433 0 0 0-2.779-.344c-2.75.917-4.217 5.943-4.188 8.536 0 .192.34 2.864.453 3.537-1.257-1.511-2.502-3.034-3.663-4.585a60.953 60.953 0 0 1-4.324-6.543c.164-.079 4.619-2.167 6.056-3.871 1.251-1.477 2.434-3.707 1.981-5.705a3.43 3.43 0 0 0-4.37-2.643c-2.755.916-4.221 5.943-4.193 8.535 0 .204.368 3.079.47 3.594-.074-.136-.17-.26-.244-.396a44.87 44.87 0 0 1-3.079-7.234 40.802 40.802 0 0 1-1.132-4.024c.872-.3 4.828-1.732 6.294-3.124 1.466-1.393 2.83-3.396 2.592-5.451a3.43 3.43 0 0 0-4.052-3.113c-2.83.611-4.845 5.445-5.094 8.026 0 .141 0 1.579.034 2.632-.142-.594-.294-1.206-.419-1.777-.464-2.146-.758-4.138-1.002-5.904a92.34 92.34 0 0 1-.311-2.773c.696-.742 3.47-3.775 4.12-5.66.651-1.885.929-4.336-.21-6.034a3.443 3.443 0 0 0-5.037-.894c-2.23 1.851-1.788 7.069-.826 9.475.08.209 1.755 3.311 1.789 3.271l.045-.045c.062.826.142 1.698.243 2.672.21 1.771.459 3.775.878 5.943a61.352 61.352 0 0 0 1.698 6.916 44.616 44.616 0 0 0 2.96 7.386s.034.057.045.085c-.566-.605-2.326-2.235-2.473-2.343-2.078-1.556-6.996-3.339-9.362-1.658a3.427 3.427 0 0 0-.447 5.094c1.245 1.551 3.741 1.913 5.671 1.794Z"/>
    <path opacity=".1" d="M63.72 121.526c.051 0 .187-3.504.17-3.725-.198-2.586-2.1-7.459-4.919-8.139a3.438 3.438 0 0 0-4.126 3.017c-.271 2.032 1.098 4.149 2.468 5.513 1.613 1.602 6.407 3.334 6.407 3.334Z"/>
  </g>
  <g opacity=".1" fill="#000">
    <path opacity=".1" d="M265.49 180.152c-1.914.068-5.87-1.585-5.87-1.585s1.879-2.264 2.021-2.405c1.59-1.489 5.547-3.425 7.68-2.264a2.89 2.89 0 0 1 1.342 3.129 2.886 2.886 0 0 1-.504 1.093c-.99 1.438-3.045 1.97-4.669 2.032Z"/>
    <path opacity=".1" d="M259.574 191.166c-1.788-.413-4.941-2.83-5.196-3.039a50.446 50.446 0 0 1-4.528 5.128 90.267 90.267 0 0 1-2.886 2.773c.509-.351.968-.656 1.041-.69 1.93-1.019 6.254-1.84 7.998-.13a2.893 2.893 0 0 1-.306 4.29c-1.324 1.104-3.447 1.07-5.032.702-1.585-.368-4.347-2.394-5.06-2.938-.385.346-.758.696-1.132 1.036-1.834 1.653-3.673 3.289-5.433 4.953-.617.566-1.206 1.183-1.795 1.777.453-.306.838-.566.9-.6 1.93-1.013 6.26-1.834 8.004-.125a2.891 2.891 0 0 1-.306 4.285c-1.324 1.132-3.447 1.075-5.037.707-1.591-.367-4.076-2.201-4.93-2.83-.566.629-1.172 1.263-1.698 1.897-.363.441-.736.843-1.07 1.313l-1.019 1.347c-.611.877-1.251 1.783-1.828 2.654-.408.606-.781 1.189-1.166 1.778.611-.595 1.828-1.698 1.941-1.806 1.755-1.296 5.904-2.762 7.89-1.341a2.888 2.888 0 0 1 .972 3.262 2.893 2.893 0 0 1-.626 1.028c-1.132 1.29-3.249 1.585-4.874 1.454-1.782-.135-5.145-1.969-5.563-2.201-.629.973-1.229 1.924-1.778 2.83-.407.668-.798 1.319-1.166 1.941l-1.415-.566c.425-.69.878-1.404 1.353-2.156.634-.991 1.33-2.032 2.055-3.102a30.323 30.323 0 0 1-2.536-2.683c-1.658.804-5.218 1.132-5.66 1.132 0 1.132.04 2.264.085 3.34 0 .566.045 1.098.068 1.624l-1.494-.566v-4.72c-.464-.08-4.245-.742-5.728-1.749-1.347-.917-2.83-2.457-2.898-4.178a2.882 2.882 0 0 1 1.76-2.912 2.89 2.89 0 0 1 1.183-.223c2.434.124 4.766 3.86 5.332 5.965.034.125.243 1.512.362 2.395 0-.532 0-1.042.028-1.585 0-1.07.08-2.14.13-3.289.051-.566.097-1.132.142-1.698.045-.566.141-1.132.215-1.732a57.74 57.74 0 0 1 .736-4.058c-.94 0-4.273-.153-5.751-.854-1.477-.702-3.147-1.998-3.498-3.691a2.899 2.899 0 0 1 1.301-3.141 2.884 2.884 0 0 1 1.133-.402c2.428-.249 5.298 3.09 6.175 5.094.057.125.527 1.63.764 2.457.181-.816.357-1.631.566-2.446.606-2.365 1.291-4.737 1.964-7.109.21-.73.402-1.454.606-2.179-.334 0-4.302-.073-5.954-.86-1.472-.702-3.153-2.004-3.498-3.69a2.876 2.876 0 0 1 1.297-3.145 2.885 2.885 0 0 1 1.137-.398c2.428-.249 5.297 3.09 6.175 5.094.062.147.735 2.314.877 2.869.441-1.596.866-3.198 1.217-4.788.49-2.147.84-4.323 1.047-6.515-.159 0-4.296-.056-5.988-.866-1.472-.696-3.153-1.998-3.504-3.684a2.897 2.897 0 0 1 2.434-3.549c2.434-.249 5.298 3.096 6.175 5.094.074.158.792 2.49.894 2.92 0-.13.034-.26.046-.385.146-2.205.095-4.42-.153-6.616a42.664 42.664 0 0 0-.504-3.487c-.77.068-4.302.346-5.909-.209-1.607-.555-3.351-1.642-3.883-3.283a2.882 2.882 0 0 1 .171-2.349 2.894 2.894 0 0 1 1.861-1.443c2.383-.515 5.604 2.49 6.696 4.381.057.102.566 1.211.889 2.026-.097-.504-.193-1.024-.295-1.506-.39-1.805-.86-3.435-1.285-4.873-.249-.815-.492-1.551-.724-2.264-.792-.328-3.962-1.698-5.094-2.898-1.132-1.2-2.219-3-1.936-4.698a2.886 2.886 0 0 1 3.549-2.433c2.355.645 3.826 4.794 3.928 6.973 0 .192-.198 3.147-.238 3.13h-.051c.238.656.487 1.358.742 2.134.458 1.432.962 3.056 1.392 4.856.49 1.939.868 3.904 1.132 5.886.297 2.219.397 4.46.3 6.696a.348.348 0 0 0 0 .079c.249-.673 1.013-2.524 1.087-2.66 1.047-1.907 4.2-4.986 6.599-4.528a2.889 2.889 0 0 1 2.25 2.552c.039.403-.009.811-.138 1.195-.498 1.653-2.264 2.83-3.81 3.396-1.726.64-5.699.351-6.01.328a51.75 51.75 0 0 1-1.031 6.747 95.732 95.732 0 0 1-.883 3.905c.233-.566.448-1.081.487-1.132 1.053-1.913 4.206-4.986 6.6-4.528.396.088.77.258 1.096.499a2.897 2.897 0 0 1 1.015 3.248c-.498 1.647-2.264 2.796-3.809 3.362-1.545.566-4.941.402-5.841.34-.125.498-.249 1.002-.38 1.494-.622 2.389-1.25 4.772-1.799 7.126a64.666 64.666 0 0 0-.515 2.479c.209-.509.384-.934.418-.996 1.053-1.913 4.206-4.986 6.606-4.528a2.892 2.892 0 0 1 2.111 3.747c-.498 1.647-2.264 2.796-3.815 3.362-1.551.566-4.607.413-5.66.351a59.026 59.026 0 0 0-.385 2.53c-.051.566-.141 1.132-.17 1.698l-.102 1.698c-.028 1.075-.062 2.179-.062 3.226v2.123c.181-.827.566-2.44.623-2.57a11.206 11.206 0 0 1 3.396-4.528 3.27 3.27 0 0 1 .271-.566 2.901 2.901 0 0 1 1.871-1.426 2.887 2.887 0 0 1 2.312.435c1.97 1.449 1.851 5.853 1.132 7.924-.04.119-.628 1.399-1.013 2.197.3-.436.566-.861.894-1.308a123.5 123.5 0 0 1 1.93-2.671l1.042-1.325c.339-.447.753-.883 1.132-1.33a63.787 63.787 0 0 1 2.858-2.977c-.775-.538-3.481-2.485-4.324-3.883-.844-1.398-1.528-3.396-.883-5.009a2.888 2.888 0 0 1 3.962-1.613c2.162 1.132 2.711 5.501 2.343 7.652 0 .13-.464 1.647-.719 2.468.6-.566 1.195-1.16 1.823-1.726 1.811-1.642 3.69-3.243 5.558-4.845l1.698-1.489c-.277-.187-3.549-2.434-4.494-4.001-.843-1.393-1.523-3.396-.883-5.004a2.897 2.897 0 0 1 1.623-1.686 2.89 2.89 0 0 1 2.339.067c2.162 1.132 2.711 5.502 2.343 7.653 0 .164-.662 2.337-.849 2.881a94.177 94.177 0 0 0 3.657-3.323 50.293 50.293 0 0 0 4.539-4.907c-.13-.091-3.549-2.417-4.528-4.024-.843-1.398-1.528-3.396-.889-5.009a2.894 2.894 0 0 1 1.637-1.694 2.896 2.896 0 0 1 2.354.081c2.162 1.132 2.711 5.501 2.343 7.652-.029.17-.713 2.507-.866 2.92.079-.096.17-.192.249-.294a37.344 37.344 0 0 0 3.526-5.598 45.612 45.612 0 0 0 1.5-3.186c-.685-.368-3.781-2.089-4.811-3.436-1.03-1.347-1.891-3.22-1.432-4.879a2.884 2.884 0 0 1 3.786-2.043c2.264.889 3.3 5.168 3.17 7.358 0 .119-.215 1.313-.373 2.179.192-.47.401-.956.566-1.415.667-1.698 1.177-3.339 1.618-4.777.244-.815.447-1.562.629-2.264-.482-.713-2.383-3.6-2.672-5.241-.289-1.642-.192-3.73.979-4.987a2.894 2.894 0 0 1 4.302-.073c1.613 1.839.566 6.113-.566 7.98-.096.165-1.902 2.519-1.925 2.485l-.034-.045a50.013 50.013 0 0 1-.566 2.185 50.428 50.428 0 0 1-1.488 4.805 51.102 51.102 0 0 1-2.321 5.524 37.312 37.312 0 0 1-3.447 5.745.431.431 0 0 1-.051.062 61.843 61.843 0 0 1 2.372-1.618c1.93-1.014 6.26-1.84 8.003-.131a2.893 2.893 0 0 1-.305 4.291c-1.325 1.103-3.453 1.075-5.038.701Z"/>
    <path opacity=".1" d="M224.782 165.198c-.045 0 .312-2.937.357-3.124.509-2.117 2.739-5.915 5.173-6.102.405-.019.81.046 1.188.193a2.9 2.9 0 0 1 1.655 1.674c.143.38.204.785.18 1.19-.04 1.698-1.461 3.3-2.785 4.251-1.557 1.115-5.768 1.913-5.768 1.918Z"/>
  </g>
  <path d="m118.096 18.882 7.075 67.235" stroke="#263238" stroke-linecap="round" stroke-linejoin="round"/>
  <path d="m139.315 33.168-5.275 1.211-4.828 9.548-7.646-2.184-.215 2.082 9.508 3.945 3.402-4.72v8.235l10.211.442 2.088-9.333 3.73 3.294v8.67h2.196l1.319-10.866-5.818-9.441-8.672-.883Z" fill="#fff" stroke="#263238" stroke-linecap="round" stroke-linejoin="round"/>
  <path d="m134.262 43.05-.079-4.647" stroke="#263238" stroke-linecap="round" stroke-linejoin="round"/>
  <path d="m139.236 36.224 1.432 2.688s3.962 1.257 4.664 1.432c.702.176 2.87-.537 4.658-.894 1.789-.357 7.534 2.508 7.534 2.508l5.02.18-2.688-3.226-9.685-1.437-5.02 1.618-3.396-.9.725-1.403-1.614-2.513-1.63 1.947Z" fill="#000" stroke="#263238" stroke-linecap="round" stroke-linejoin="round"/>
  <path d="M139.753 32.398a1.131 1.131 0 0 0-1.319.883c-.215 1.098-.436 3.843-.436 3.843l2.632-.77 3.079 1.319s.985-2.858.436-3.843c-.549-.985-3.074-2.31-4.392-1.432Z" fill="#fff" stroke="#263238" stroke-linecap="round" stroke-linejoin="round"/>
  <path d="M139.202 30.864s.328 3.073.442 4.171c.113 1.099.769 2.746 1.205 2.417.436-.328 1.976-3.396 1.976-3.396l.769-2.083-4.392-1.109ZM139.237 26.376s-.963-.085-.963 1.488c0 1.574.697 1.659.697 1.659l.266-3.147ZM145.673 27.689a.857.857 0 0 1 .791.677.871.871 0 0 1-.004.37c-.176.962-1.834 2.264-1.834 2.264l1.047-3.311Z" fill="#fff" stroke="#263238" stroke-linecap="round" stroke-linejoin="round"/>
  <path d="M142.496 23.206s-1.755-.441-2.746 1.647c-.99 2.089-.769 4.613-.566 6.04.204 1.426 1.54 2.082 2.859 2.082s3.288-2.74 3.73-4.828c.441-2.088.124-4.941-3.277-4.941ZM119.443 40.525l.436 3.294 1.976.221-.329-3.735-2.083.22ZM121.565 40.475l.798-.108.159 1.755-.798.107-.159-1.754ZM150.291 54.359l-1.2 1.879.311 1.885 1.047-.102 1.783-.629.255-3.033h-2.196Z" fill="#fff" stroke="#263238" stroke-linecap="round" stroke-linejoin="round"/>
  <path d="m134.261 51.285-.776 3.385-8.591 11.309 5.761 16.238 1.466-.317-1.256-15.502 7.018-7.438.838.527.023 8.297 8.042 13.596 1.676-.425-3.77-13.091.21-13.93-.43-2.207-10.211-.442Z" fill="#263238" stroke="#263238" stroke-linecap="round" stroke-linejoin="round"/>
  <path d="m130.656 82.217-1.256 1.778s-1.992.945-2.304 1.465c-.311.521 1.698.42 1.698.42l2.304-.21 2.411-1.568-1.364-2.202-1.489.317Z" fill="#fff" stroke="#263238" stroke-linecap="round" stroke-linejoin="round"/>
  <path d="M118.396 21.276s-1.053 2.4-5.399 4.047c-4.347 1.647-10.641 2.547-12.288 5.994-1.647 3.447-1.647 3.153-1.947 5.094a5.258 5.258 0 0 1-1.5 2.994s1.5.153 2.264-.894c.764-1.047 1.052-4.047 2.264-4.5a129.121 129.121 0 0 1 3.413-1.183s-2.095 1.8-2.264 2.7c-.17.9-.3 3-.6 4.347a3.576 3.576 0 0 1-1.025 1.936s1.947 0 2.547-1.347c.6-1.348 0-3.147 1.947-4.5 1.947-1.353 4.047-.747 7.358-.6 3.311.147 6.447-1.794 6.447-1.794l-1.217-12.294Z" fill="#000" stroke="#263238" stroke-linecap="round" stroke-linejoin="round"/>
  <path d="m146.787 81.38-1.443 4.794 3.583-.142-.465-5.077-1.675.425Z" fill="#fff" stroke="#263238" stroke-linecap="round" stroke-linejoin="round"/>
  <path d="M141.297 27.411c-.062.283-.261.481-.453.442-.192-.04-.294-.306-.232-.566.062-.26.26-.481.453-.442.192.04.288.283.232.566ZM143.918 28.023c-.062.283-.26.48-.453.441-.192-.04-.294-.305-.232-.566.062-.26.26-.48.453-.441.192.04.289.277.232.566Z" fill="#263238"/>
  <path d="m142.174 27.774-.696 2.1h1.137M140.606 30.485s.612 1.047 2.185.436M140.516 25.94a1.13 1.13 0 0 1 1.398.26M143.227 26.551a1.24 1.24 0 0 1 1.743.617" stroke="#263238" stroke-linecap="round" stroke-linejoin="round"/>
  <path d="m138.857 25.68 6.289-.776s-.261 1.047.09 1.308c.351.26.436 1.488.436 1.488l-.26 1.398 1.398-2.445s.436-1.924.085-2.536a1.541 1.541 0 0 0-1.047-.702 3.581 3.581 0 0 0-3.498-1.567c-2.445.26-3.493 1.483-3.493 2.445v1.386Z" fill="#263238" stroke="#263238" stroke-linecap="round" stroke-linejoin="round"/>
  <path d="m134.215 263.303 11.093-63.658-41.872-38.425 15.197-51.778-16.267.362-6.871 6.147-14.36-.351-1.941 7.001-3.94-.492-1.358 2.456-6.718 13.415-3.492 13.397-13.019 16.272-1.426 38.398-20.987 30.292-6.6 26.964h112.561Z" fill="gray" stroke="#39515E" stroke-linecap="round" stroke-linejoin="round"/>
  <path d="m228.697 263.303-13.896-30.467 22.64 15.083V223.78l-13.306-15.764 1.969-17.732-20.206-38.426-1.007-13.301-6.894-6.407-35.387 2.558-2.524-12.424-22.64-12.808-13.584 32.89-12.514 5.536 8.818 12.089-1.426 9.583 2.949 14.795-49.242 10.839s-.493 23.647-.493 25.617c0 1.97-9.854 13.301-9.854 13.301l-.458 29.177h167.055Z" fill="#ABABAB" stroke="#39515E" stroke-linecap="round" stroke-linejoin="round"/>
  <path d="m256.12 263.303-5.881-2.575-7.392-15.763-8.869-6.402-3.939-9.361-3.94-7.392-21.055-10.284 3.266 51.777h47.81ZM35.743 263.241h26.325l.475-15.322-2.462-8.863v-23.648l-5.91-.984-4.929 5.416-7.879 4.438-17.076 39.025h11.456v-.062Z" fill="#CCC" stroke="#39515E" stroke-linecap="round" stroke-linejoin="round"/>
  <path d="m44.849 237.59.577-2.456M35.743 263.303l3.51-13.861 3.31-2.106 1.936-8.252M30.06 263.45l5.575-15.814M54.25 220.967l-.543 2.569M55.513 214.956l-1.03 4.907" stroke="#39515E" stroke-miterlimit="10"/>
  <path d="m62.067 263.241.475-15.322-2.462-8.863v-23.648l-4.924 31.527-4.438 1.477-1.477 8.869-.917 5.96h13.743ZM146.372 245.768a32.232 32.232 0 0 0 8.145-2.218 13.266 13.266 0 0 0 5.32-3.962c.164-.221.317-.453.464-.685l-3.888-17.546-7.669-6.69-1.28-5.74-7.358-5.739-2.547 8.932-4.148 5.739-.317 21.05 3.962 7.573a68.837 68.837 0 0 0 9.316-.714Z" fill="#fff" stroke="#39515E" stroke-linecap="round" stroke-linejoin="round"/>
  <path d="m146.373 245.769-.781-6.555 2.303-6.209v-3.679l-.464-5.75M151.042 225.845l1.223 6.928 2.298.459-.459 5.75.917 2.994M150.192 221.046l.408 2.309M142.603 206.324l1.839 18.859" stroke="#39515E" stroke-miterlimit="10"/>
  <path d="M120.133 245.299a104.742 104.742 0 0 0 15.989 1.188c1.076 0 2.128-.028 3.164-.068l-.113-5.92-1.913-2.547v-18.18l3.192-3.192-.323-13.386-3.826 7.018-5.094 4.461-3.192 9.248-5.094 6.062-1.279 6.379-6.056 5.094-2.417 2.575c2.283.487 4.603.909 6.962 1.268Z" fill="#CCC" stroke="#39515E" stroke-linecap="round" stroke-linejoin="round"/>
  <path d="m212.306 263.303 26.743-.051-34.628-20.749-8.371-20.201-6.899-.985-5.909-7.878-2.96 2.954 1.969 17.241-7.386 12.316v7.884l-3.447 8.864 16.663.605h24.225Z" fill="#fff" stroke="#39515E" stroke-linecap="round" stroke-linejoin="round"/>
  <path d="m198.892 263.269-1.262-7.046 1.987-4.16-.544-8.134 1.63 1.63 11.026 17.71h-12.837Z" fill="#CCC" stroke="#39515E" stroke-linecap="round" stroke-linejoin="round"/>
  <path d="m199.072 243.929 7.777 3.798 3.068 3.792 8.858 4.523 6.147 3.797 3.775 3.464-16.969-.034-12.656-19.34Z" fill="#fff" stroke="#39515E" stroke-linecap="round" stroke-linejoin="round"/>
  <path d="M174.865 245.95v7.884l-3.713 9.311 14.065.181-2.965-16.884 5.914-5.417-7.884-24.632 1.97 17.24-7.387 12.317Z" fill="#CCC" stroke="#39515E" stroke-linecap="round" stroke-linejoin="round"/>
  <path d="m189.15 221.317 5.202 10.998 2.298.232 1.839 5.518M192.644 254.587l.792 2.569M189.523 234.613l1.608 6.214 2.762 4.596-3.221 2.762 1.393 4.523" stroke="#39515E" stroke-miterlimit="10"/>
  <path d="m123.806 108.248-11.547 12.627-.396-23.15 11.496-13.957.447 24.48ZM115.791 158.803l11.807-10.42a12.427 12.427 0 0 1 2.801-1.834 21.06 21.06 0 0 1 3.962-1.415 36.306 36.306 0 0 1 5.321-.883 61.598 61.598 0 0 1 6.792-.249c5.481.072 10.948.555 16.357 1.443 4.496.744 8.94 1.771 13.307 3.074 3.928 1.171 7.358 2.428 10.318 3.588 2.96 1.16 5.405 2.224 7.386 3.005l-15.321 9.934c-1.874-.736-4.2-1.738-6.99-2.83a132.41 132.41 0 0 0-9.764-3.396 101.36 101.36 0 0 0-12.588-2.881 103.66 103.66 0 0 0-15.485-1.336 57.701 57.701 0 0 0-6.441.249 34.41 34.41 0 0 0-5.032.843c-1.301.32-2.566.771-3.775 1.348a11.802 11.802 0 0 0-2.655 1.76ZM153.386 244.008l-13.324 5.094a17.668 17.668 0 0 0 3.328-1.652 11.126 11.126 0 0 0 2.479-2.157 8.435 8.435 0 0 0 1.54-2.688 9.397 9.397 0 0 0 .486-3.255 9.56 9.56 0 0 0-1.698-5.394 16.044 16.044 0 0 0-5.263-4.499 51.754 51.754 0 0 0-9.317-3.962c-3.849-1.297-8.49-2.576-13.952-3.906a139.562 139.562 0 0 1-21.78-6.996 74.899 74.899 0 0 1-17.777-10.335 44.88 44.88 0 0 1-12.04-14.376 42.203 42.203 0 0 1-4.527-19.148c-.028-2.701.16-5.4.566-8.071a45.462 45.462 0 0 1 1.811-7.562 43.337 43.337 0 0 1 3.04-6.99 43.852 43.852 0 0 1 4.239-6.356l9.175-11.507a45.277 45.277 0 0 0-7.687 14.116 47.609 47.609 0 0 0-1.935 7.998 52.867 52.867 0 0 0-.566 8.546 44.837 44.837 0 0 0 4.839 20.291 47.71 47.71 0 0 0 12.758 15.248c5.365 4.319 11.744 7.924 18.836 10.941a147.9 147.9 0 0 0 23.048 7.437c5.801 1.415 10.686 2.779 14.755 4.155a54.43 54.43 0 0 1 9.854 4.239c2.536 1.477 4.353 3.04 5.553 4.76a10.106 10.106 0 0 1 1.817 5.711 9.773 9.773 0 0 1-.51 3.447 8.895 8.895 0 0 1-1.619 2.83 11.688 11.688 0 0 1-2.62 2.264 18.68 18.68 0 0 1-3.509 1.777Z" fill="#CCC" stroke="#39515E" stroke-linecap="round" stroke-linejoin="round"/>
  <path d="M87.78 196.447c5.366 4.319 11.745 7.924 18.837 10.941a147.889 147.889 0 0 0 23.047 7.437c5.802 1.415 10.686 2.779 14.756 4.155a54.43 54.43 0 0 1 9.854 4.239c2.536 1.477 4.352 3.04 5.552 4.76a10.099 10.099 0 0 1 1.817 5.711 9.185 9.185 0 0 1-1.822 5.909 13.253 13.253 0 0 1-5.321 3.962 32.238 32.238 0 0 1-8.127 2.219 69.906 69.906 0 0 1-10.251.719 104.743 104.743 0 0 1-15.989-1.189 126.45 126.45 0 0 1-15.061-3.232 153.045 153.045 0 0 1-13.658-4.528c-4.268-1.635-8.23-3.396-11.801-5.094l-7.234 30.734h130.005a48.54 48.54 0 0 0 9.345-15.423 49.985 49.985 0 0 0 3.045-18.922c-.193-6.888-1.24-13.018-3.294-18.514a41.59 41.59 0 0 0-9.339-14.67c-4.228-4.336-9.622-8.156-16.335-11.564-6.713-3.407-14.795-6.424-24.338-9.146-6.143-1.789-11.515-3.506-16.114-5.151a92.32 92.32 0 0 1-11.467-4.856c-3.057-1.602-5.349-3.192-6.877-4.823-1.529-1.63-2.31-3.288-2.344-5.031a8.725 8.725 0 0 1 .895-4.121 9.335 9.335 0 0 1 3.396-3.611 19.653 19.653 0 0 1 6.712-2.519 50.812 50.812 0 0 1 10.851-.843c5.481.073 10.948.555 16.357 1.443a108.67 108.67 0 0 1 13.307 3.074c3.928 1.171 7.358 2.428 10.318 3.588 2.96 1.161 5.405 2.225 7.386 3.006l8.422-37.922a128.194 128.194 0 0 0-8.614-3.34 115.388 115.388 0 0 0-10.245-2.994c-3.73-.911-7.805-1.698-12.288-2.383-4.482-.685-9.39-1.171-14.767-1.488l-.492-22.425-32.517-.787.447 24.48a85.554 85.554 0 0 0-22.923 6.514 57.573 57.573 0 0 0-16.94 11.456 46.09 46.09 0 0 0-10.392 15.633 49.483 49.483 0 0 0-3.396 19.057 44.837 44.837 0 0 0 4.84 20.291 47.71 47.71 0 0 0 12.757 15.248Z" fill="#fff" stroke="#39515E" stroke-linecap="round" stroke-linejoin="round"/>
  <path d="m72.379 263.19 7.233-30.751-9.265 5.796-5.898 24.955h7.93Z" fill="#CCC" stroke="#39515E" stroke-linecap="round" stroke-linejoin="round"/>
  <path d="M228.75 255.77a2.26 2.26 0 0 0-1.647.323l2.535 1.522a1.413 1.413 0 0 0-.888-1.845ZM229.463 235.733s.34-1.426.351-1.516c.113-1.07-.3-3.21-1.404-3.702a1.43 1.43 0 0 0-1.633.402c-.13.154-.225.333-.28.526-.266.81.136 1.777.595 2.44.543.781 2.371 1.845 2.371 1.85ZM246.244 244.438c.691-.832 1.523-2.83.872-3.86a1.42 1.42 0 0 0-2.106-.283 2.967 2.967 0 0 0-.849 2.366c0 .945.957 2.83.962 2.83.006 0 1.087-.979 1.121-1.053Z" fill="#263238"/>
  <path d="M222.925 252.306c.8.511 1.674.893 2.593 1.132-.074.419-.148.838-.238 1.239 0 .102-.051.204-.074.312l.532.317c.034-.164.068-.334.108-.498.13-.663.238-1.336.322-2.015a9.285 9.285 0 0 0 2.83.566 2.988 2.988 0 0 0 2.264-1.132 1.434 1.434 0 0 0-.099-1.687 1.438 1.438 0 0 0-.467-.374c-1.092-.515-2.982.566-3.724 1.353-.045.051-.509.674-.758 1.025.051-.414.102-.821.141-1.24.108-1.2.181-2.422.255-3.639 0-.368.051-.742.079-1.132.159.056 2.015.679 2.921.566.798-.085 1.8-.413 2.264-1.132a1.44 1.44 0 0 0 .175-1.154 1.418 1.418 0 0 0-.275-.529 1.416 1.416 0 0 0-.466-.372c-1.093-.515-2.983.566-3.725 1.353-.051.062-.724.962-.883 1.194.057-.815.125-1.63.221-2.434.122-1.08.311-2.152.566-3.209.074 0 2.015.685 2.938.566.803-.085 1.8-.413 2.264-1.132a1.434 1.434 0 0 0-.566-2.054c-1.093-.521-2.983.566-3.719 1.352-.062.063-.781 1.03-.9 1.212 0-.063.028-.125.045-.187a18.65 18.65 0 0 1 1.161-3.057c.254-.566.532-1.058.809-1.545.351.159 1.953.872 2.79.877.838.006 1.834-.209 2.355-.888a1.442 1.442 0 0 0 .308-1.125 1.421 1.421 0 0 0-.631-.981c-1.024-.634-3.022.238-3.843.94-.045.039-.458.475-.752.798.13-.221.26-.447.39-.657a35.644 35.644 0 0 1 2.106-2.982 9.504 9.504 0 0 0 2.869-.504c.713-.368 1.528-1.036 1.698-1.874a1.438 1.438 0 0 0-.252-1.123 1.433 1.433 0 0 0-.999-.575c-1.205-.085-2.575 1.608-2.982 2.604-.034.091-.431 1.5-.408 1.5h.028c-.22.266-.453.566-.696.871a32.462 32.462 0 0 0-1.455 2.038 26.736 26.736 0 0 0-1.488 2.558 18.525 18.525 0 0 0-1.245 3.074v.039c0-.356-.051-1.341-.063-1.42-.175-1.064-1.132-3.017-2.331-3.198a1.431 1.431 0 0 0-1.114.343 1.432 1.432 0 0 0-.494 1.055c-.039.855.606 1.698 1.223 2.202.702.566 2.598 1.132 2.75 1.132a25.636 25.636 0 0 0-.684 3.305c-.097.651-.17 1.308-.232 1.97 0-.306-.034-.566-.04-.617-.176-1.064-1.132-3.023-2.332-3.198a1.417 1.417 0 0 0-1.113.341 1.414 1.414 0 0 0-.489 1.057c-.039.849.606 1.698 1.223 2.196a9.5 9.5 0 0 0 2.666 1.132c0 .249-.051.504-.068.758-.108 1.217-.204 2.429-.34 3.617a27.02 27.02 0 0 1-.17 1.24v-.532c-.175-1.064-1.132-3.017-2.332-3.198a1.427 1.427 0 0 0-1.601 1.398c-.108.815.537 1.647 1.154 2.162ZM254.536 242.276c-.957-.741-3.034-.084-3.923.527-.079.051-1.188 1.013-1.166 1.024-.328.097-.679.21-1.064.34a33.49 33.49 0 0 0-2.332.9c-.911.382-1.797.821-2.654 1.313a18.68 18.68 0 0 0-2.734 1.873l-.028.029c.186-.3.696-1.132.724-1.217.442-.985.719-3.147-.181-3.962a1.434 1.434 0 0 0-1.116-.329 1.438 1.438 0 0 0-.99.612c-.503.685-.424 1.732-.198 2.507.266.872 1.557 2.355 1.664 2.474a23.77 23.77 0 0 0-2.394 2.377 41.43 41.43 0 0 0-1.285 1.511c.159-.26.295-.498.312-.532.441-.985.719-3.147-.181-3.962a1.425 1.425 0 0 0-2.106.283c-.504.685-.424 1.738-.192 2.507.407.88.947 1.691 1.601 2.406l-.475.566c-.758.962-1.511 1.919-2.264 2.83-.266.323-.566.634-.821.939l.266-.464c.442-.979.719-3.141-.181-3.962a1.424 1.424 0 0 0-1.676-.128c-.17.105-.317.246-.429.411-.504.685-.425 1.732-.193 2.508a8.952 8.952 0 0 0 1.54 2.439l-.566.611.498.3c.345-.356.679-.73 1.013-1.132a9.347 9.347 0 0 0 2.049 2.015 2.979 2.979 0 0 0 2.502.283 1.418 1.418 0 0 0 .786-.857 1.428 1.428 0 0 0-.113-1.158c-.628-1.035-2.83-1.171-3.849-.922-.068 0-.798.277-1.2.43.266-.317.538-.628.798-.957.753-.939 1.489-1.918 2.225-2.892l.679-.883c.102.13 1.313 1.698 2.117 2.094a2.982 2.982 0 0 0 2.496.283 1.432 1.432 0 0 0 .787-.857 1.43 1.43 0 0 0-.114-1.158c-.622-1.035-2.796-1.177-3.848-.928-.08 0-1.132.402-1.393.51a45.41 45.41 0 0 1 1.529-1.908 24.08 24.08 0 0 1 2.264-2.354c.045.062 1.296 1.698 2.122 2.111.713.373 1.726.651 2.496.283.185-.079.35-.196.486-.344a1.427 1.427 0 0 0 .193-1.671c-.628-1.036-2.801-1.172-3.849-.928-.084 0-1.216.43-1.42.52l.141-.135a18.38 18.38 0 0 1 2.655-1.908c.515-.317 1.024-.566 1.528-.838.204.323 1.132 1.8 1.845 2.264.713.465 1.647.832 2.451.566a1.427 1.427 0 0 0 1.009-1.346c.003-.2-.036-.399-.115-.584-.509-1.098-2.654-1.471-3.724-1.341-.062 0-.645.147-1.07.255.232-.114.464-.232.685-.334a32.772 32.772 0 0 1 2.309-.946l1.098-.379c.825.52 1.724.911 2.666 1.161a2.976 2.976 0 0 0 2.434-.64 1.42 1.42 0 0 0-.124-2.106ZM225.676 263.281l.651.402.402-.295.152-.113-1.205.006ZM38.154 225.834a1.432 1.432 0 0 0-.334 2.1c.405.468.97.767 1.585.838l1.217-2.779c-.855-.385-1.84-.566-2.468-.159ZM43.786 222.183a2.075 2.075 0 0 0-.77 1.161l2.134-1.195a1.359 1.359 0 0 0-1.364.034ZM44.148 201.955c.725.611 2.768 1.166 2.768 1.166s-.04-1.461-.056-1.551c-.17-1.064-1.133-3.023-2.316-3.21a1.423 1.423 0 0 0-1.607 1.393c-.023.849.645 1.681 1.211 2.202ZM29.245 208.373s-.843-1.194-.905-1.262c-.725-.793-2.604-1.902-3.702-1.398a1.421 1.421 0 0 0-.776 1.492c.03.198.102.388.21.557.43.736 1.42 1.075 2.225 1.171.933.108 2.948-.554 2.948-.56Z" fill="#263238"/>
  <path d="M28.181 203.856a32.087 32.087 0 0 0 .758 3.532c.253.961.563 1.906.929 2.83.404 1.03.898 2.023 1.477 2.966v.034c-.266-.226-1.041-.849-1.132-.889-.911-.566-3.017-1.132-3.962-.373a1.431 1.431 0 0 0-.352 1.647c.082.183.202.347.352.481.611.594 1.658.662 2.456.566.9-.136 2.547-1.217 2.678-1.302a26.525 26.525 0 0 0 2.026 2.706c.424.498.866.99 1.319 1.477l-.487-.385c-.911-.566-3.017-1.132-3.962-.368a1.432 1.432 0 0 0 0 2.128 2.986 2.986 0 0 0 2.456.538 9.587 9.587 0 0 0 2.61-1.251c.175.181.345.368.52.566.844.883 1.698 1.76 2.49 2.649.284.311.567.628.821.945l-.424-.328c-.911-.566-3.017-1.132-3.962-.374a1.444 1.444 0 0 0-.474 1.064 1.433 1.433 0 0 0 .474 1.065c.611.594 1.664.662 2.456.566a9.157 9.157 0 0 0 2.542-1.212c.266.329.532.663.775 1.002.159.232.328.442.476.685v.034l.215-.487.124-.073-.368-.498a28.07 28.07 0 0 0-1.296-1.58 9.426 9.426 0 0 0 2.264-1.749 2.991 2.991 0 0 0 .628-2.439 1.422 1.422 0 0 0-1.315-1.045c-.2-.008-.4.026-.586.1-1.132.475-1.551 2.609-1.45 3.679 0 .068.165.832.261 1.251-.277-.312-.566-.623-.832-.929-.832-.877-1.698-1.737-2.558-2.603l-.782-.793c.142-.085 1.84-1.064 2.366-1.805a2.99 2.99 0 0 0 .776-2.502 1.424 1.424 0 0 0-.74-.898 1.425 1.425 0 0 0-1.162-.053c-1.132.476-1.55 2.609-1.449 3.685 0 .079.232 1.177.306 1.455-.566-.566-1.132-1.178-1.698-1.778a24.717 24.717 0 0 1-2.015-2.569c.068-.04 1.845-1.059 2.383-1.812a2.98 2.98 0 0 0 .628-2.433 1.435 1.435 0 0 0-1.32-1.073 1.436 1.436 0 0 0-.593.099c-1.132.476-1.551 2.609-1.45 3.685 0 .085.256 1.262.312 1.471l-.113-.152c-.591-.92-1.1-1.89-1.523-2.898a24.696 24.696 0 0 1-.616-1.63 9.505 9.505 0 0 0 2.507-1.512 2.97 2.97 0 0 0 .883-2.349 1.427 1.427 0 0 0-.645-.96 1.434 1.434 0 0 0-1.144-.172c-1.132.351-1.822 2.423-1.845 3.504 0 .057.057.657.102 1.092-.074-.243-.159-.492-.232-.724a30.943 30.943 0 0 1-.611-2.417c-.09-.413-.165-.787-.227-1.132a9.449 9.449 0 0 0 1.517-2.485 2.964 2.964 0 0 0-.288-2.496 1.435 1.435 0 0 0-1.015-.572 1.43 1.43 0 0 0-1.102.374c-.866.843-.51 2.989 0 3.962.034.034.832 1.279.843 1.262ZM43.124 208.05c.827.38 2.796.391 2.955.397a25.267 25.267 0 0 0 .193 3.396c.079.65.18 1.307.288 1.958-.096-.289-.181-.566-.198-.566-.442-.985-1.88-2.621-3.079-2.485a1.438 1.438 0 0 0-.988.618 1.436 1.436 0 0 0-.2 1.148c.18.832 1.018 1.466 1.754 1.806a9.412 9.412 0 0 0 2.864.396c.045.249.085.498.13.747.215 1.206.436 2.4.617 3.583.062.419.108.832.158 1.245l-.17-.509c-.446-.985-1.884-2.621-3.084-2.485a1.422 1.422 0 0 0-1.199 1.155c-.035.195-.03.395.016.588.181.832 1.019 1.466 1.749 1.806a6.356 6.356 0 0 0 1.936.356l1.319-.741 1.041-.566 2.847-3.119a1.362 1.362 0 0 0-.198-.057c-1.189-.215-2.734 1.319-3.243 2.264 0 .063-.317.787-.47 1.183-.057-.407-.113-.815-.187-1.228-.204-1.188-.453-2.383-.69-3.583-.08-.362-.148-.73-.215-1.098.164 0 2.122.131 2.965-.192.753-.289 1.636-.866 1.868-1.698a1.428 1.428 0 0 0-1.087-1.817c-1.188-.215-2.728 1.319-3.237 2.264-.04.074-.453 1.132-.566 1.387-.153-.81-.3-1.613-.413-2.411a24.819 24.819 0 0 1-.266-3.255c.079 0 2.122.136 2.988-.192a3 3 0 0 0 1.868-1.698 1.43 1.43 0 0 0-1.064-1.84c-1.189-.221-2.734 1.319-3.243 2.264-.04.074-.481 1.194-.566 1.404v-.193c.017-1.092.126-2.181.328-3.254.108-.594.243-1.132.385-1.698.38.062 2.111.334 2.92.119.81-.215 1.698-.679 2.044-1.466a1.434 1.434 0 0 0-.855-1.947c-1.132-.345-2.83 1.013-3.47 1.902-.033.045-.316.566-.52.962.068-.244.136-.498.203-.73.267-.872.567-1.659.821-2.355.159-.39.306-.741.442-1.07.407-.136 2.026-.679 2.637-1.234.611-.554 1.212-1.398 1.132-2.264a1.434 1.434 0 0 0-1.658-1.335c-1.189.226-2.072 2.218-2.207 3.288v1.557c-.142.317-.29.651-.448 1.024a57.332 57.332 0 0 0-.871 2.343 26.021 26.021 0 0 0-.776 2.859 18.916 18.916 0 0 0-.35 3.305v.04a37.311 37.311 0 0 0-.43-1.353c-.448-.985-1.886-2.621-3.085-2.485a1.436 1.436 0 0 0-.987.619 1.423 1.423 0 0 0-.196 1.147c.18.821 1.018 1.466 1.748 1.794ZM125.211 220.604a1.434 1.434 0 0 0-.986.619 1.42 1.42 0 0 0-.197 1.147 2.97 2.97 0 0 0 1.749 1.806c.557.2 1.141.314 1.732.339l.504-.6.283-.82c-.448-.991-1.885-2.627-3.085-2.491ZM119.001 229.156a1.44 1.44 0 0 0-.634.976 1.435 1.435 0 0 0 .3 1.124c.51.685 1.54.906 2.343.906a5.21 5.21 0 0 0 1.534-.351l.329-1.653-.034-.034c-.815-.707-2.808-1.59-3.838-.968ZM124.633 225.534c-.922.566-1.103 2.389-.939 3.509l2.711-3.22a1.391 1.391 0 0 0-1.772-.289Z" fill="#263238"/>
  <path d="M116.275 221.487c.175.181.345.368.521.566.843.883 1.698 1.761 2.49 2.649.283.312.566.629.821.945l-.425-.328c-.911-.566-3.017-1.132-3.962-.373a1.437 1.437 0 0 0-.474 1.064 1.442 1.442 0 0 0 .474 1.064c.611.594 1.664.662 2.457.566a9.166 9.166 0 0 0 2.541-1.211c.266.333.532.662.775 1.001.159.232.329.442.476.685l.447.702c.204.351.413.702.611 1.047l.436-.515c-.17-.283-.345-.566-.532-.866l-.464-.696c-.147-.232-.334-.464-.504-.696-.407-.566-.843-1.064-1.296-1.579a9.48 9.48 0 0 0 2.264-1.749 2.983 2.983 0 0 0 .628-2.44 1.436 1.436 0 0 0-.263-.527 1.441 1.441 0 0 0-1.021-.535 1.434 1.434 0 0 0-.584.083c-1.132.475-1.55 2.609-1.449 3.679 0 .068.165.832.261 1.251-.278-.311-.566-.623-.832-.923-.832-.877-1.698-1.743-2.559-2.609l-.781-.792c.142-.085 1.84-1.064 2.366-1.806a2.982 2.982 0 0 0 .629-2.434 1.433 1.433 0 0 0-1.902-.951c-1.132.476-1.551 2.61-1.449 3.685 0 .079.232 1.177.305 1.455-.566-.566-1.132-1.178-1.698-1.778a24.721 24.721 0 0 1-2.014-2.569c.067-.04 1.845-1.059 2.382-1.811a2.985 2.985 0 0 0 .629-2.434 1.436 1.436 0 0 0-1.315-1.048 1.431 1.431 0 0 0-.587.097c-1.132.475-1.551 2.609-1.449 3.685 0 .085.255 1.262.311 1.471l-.113-.153a18.782 18.782 0 0 1-1.523-2.898 25.07 25.07 0 0 1-.616-1.63 9.612 9.612 0 0 0 2.507-1.505c.538-.606 1.053-1.517.889-2.355a1.433 1.433 0 0 0-1.789-1.132c-1.132.351-1.823 2.428-1.845 3.504 0 .056.056.656.102 1.092-.074-.243-.159-.492-.232-.724a31.241 31.241 0 0 1-.612-2.417c-.09-.413-.164-.787-.226-1.132a9.439 9.439 0 0 0 1.517-2.485 2.972 2.972 0 0 0-.289-2.496 1.416 1.416 0 0 0-1.014-.572 1.427 1.427 0 0 0-1.103.374c-.866.843-.509 2.994 0 3.962.046.085.844 1.313.855 1.296a32.592 32.592 0 0 0 .758 3.532c.253.961.563 1.906.929 2.83a19.03 19.03 0 0 0 1.477 2.971.07.07 0 0 1 0 .029 37.027 37.027 0 0 0-1.104-.889c-.911-.566-3.017-1.132-3.962-.368a1.426 1.426 0 0 0 0 2.123c.612.6 1.659.662 2.457.566.9-.136 2.547-1.217 2.677-1.302a26.43 26.43 0 0 0 2.026 2.705c.425.499.866.991 1.319 1.478l-.487-.385c-.911-.566-3.017-1.132-3.962-.368a1.429 1.429 0 0 0 0 2.128c.606.594 1.659.662 2.451.538a9.597 9.597 0 0 0 2.649-1.342ZM125.018 205.305c.725.611 2.768 1.166 2.768 1.166s-.04-1.46-.057-1.551c-.169-1.064-1.132-3.022-2.315-3.209a1.432 1.432 0 0 0-1.115.337 1.432 1.432 0 0 0-.492 1.055c-.045.849.594 1.681 1.211 2.202Z" fill="#263238"/>
  <path d="M110.093 211.729s-.843-1.199-.906-1.267c-.724-.793-2.603-1.902-3.701-1.398a1.41 1.41 0 0 0-.466.37 1.406 1.406 0 0 0-.275.528 1.42 1.42 0 0 0 .175 1.151c.43.735 1.42 1.075 2.224 1.171.962.108 2.949-.555 2.949-.555ZM123.954 211.401c.826.379 2.796.396 2.954.396-.01 1.126.054 2.251.193 3.368.079.651.181 1.307.289 1.964-.097-.294-.182-.566-.199-.566-.441-.985-1.879-2.621-3.079-2.485a1.44 1.44 0 0 0-.987.618 1.438 1.438 0 0 0-.201 1.148c.181.832 1.019 1.466 1.754 1.806a9.416 9.416 0 0 0 2.864.396c.046.249.085.498.131.747.215 1.206.435 2.405.617 3.583 0 .175.039.351.062.526l.356-1.019c-.192-1.052-.407-2.111-.617-3.169-.073-.363-.147-.73-.215-1.093.772.047 1.546.03 2.315-.051l.996-2.881.787-.684a1.226 1.226 0 0 0-.328-.108c-1.189-.215-2.728 1.319-3.238 2.264-.039.074-.452 1.132-.566 1.387-.152-.81-.3-1.613-.413-2.411a24.802 24.802 0 0 1-.266-3.255c.079 0 2.123.136 2.989-.192a2.994 2.994 0 0 0 1.867-1.698c.063-.191.084-.393.063-.592a1.425 1.425 0 0 0-1.127-1.248c-1.188-.221-2.733 1.319-3.243 2.264-.039.074-.481 1.194-.566 1.404v-.193a19.31 19.31 0 0 1 .328-3.254c.108-.566.244-1.132.385-1.698.38.062 2.112.334 2.921.119.809-.215 1.698-.679 2.043-1.466a1.439 1.439 0 0 0-.341-1.647 1.428 1.428 0 0 0-.513-.3c-1.132-.346-2.83 1.013-3.47 1.902-.034.045-.317.566-.521.962.068-.244.136-.498.204-.73.266-.872.566-1.659.821-2.355.158-.391.305-.741.441-1.07.408-.136 2.026-.679 2.638-1.234.611-.554 1.211-1.398 1.132-2.264a1.43 1.43 0 0 0-1.064-1.306 1.438 1.438 0 0 0-.595-.029c-1.188.226-2.071 2.218-2.201 3.288 0 .096-.029 1.562 0 1.557-.142.317-.289.651-.442 1.024a32.99 32.99 0 0 0-.877 2.343 25.957 25.957 0 0 0-.776 2.859 18.909 18.909 0 0 0-.401 3.294v.062a37.009 37.009 0 0 0-.431-1.353c-.447-.985-1.884-2.62-3.084-2.484a1.403 1.403 0 0 0-.559.204 1.424 1.424 0 0 0-.624 1.561c.243.815 1.081 1.449 1.794 1.789Z" fill="#263238"/>
  <path d="m209.784 161.966-2.259-2.801 2.032-1.602 1.364 1.704-.464 1.081.385.86-.798.572" fill="#fff"/>
  <path d="m209.784 161.966-2.259-2.801 2.032-1.602 1.364 1.704-.464 1.081.385.86-.798.572" stroke="#263238" stroke-linecap="round" stroke-linejoin="round"/>
  <path d="M228.098 166.829s-1.545-1.381-2.122-1.291c-.577.091-8.151 1.359-8.151 1.359l-6.967-5.689-1.064.759 6.667 8.365 7.245-.453-1.556 7.924-6.594 5.015 10.754 6.424 2.168-6.837 8.563-8.433-3.328-4.172-5.615-2.971Z" fill="#000" stroke="#263238" stroke-linecap="round" stroke-linejoin="round"/>
  <path d="m230.306 165-1.217 2.559-.447-.408-.855 6.22 5.932-3.594-.595-.939.136-1.942-2.954-1.896Z" fill="#fff" stroke="#263238" stroke-linecap="round" stroke-linejoin="round"/>
  <path d="m227.787 173.372 3.47-2.106-2.898-2.037-.572 4.143Z" fill="#fff" stroke="#263238" stroke-linecap="round" stroke-linejoin="round"/>
  <path d="M237.154 158.905s2.621-3.068 5.287-1.132c2.665 1.935 1.93 3.826 3.831 2.79 1.902-1.036 5.474-3.668 7.624-.317 2.151 3.351.493 6.86-.86 7.664-1.353.803-.996-.731-.968-1.472.028-.741-2.19-1.698-2.683-.17-.492 1.528-3.079 3.883-6.361 3.662-3.283-.22-3.917-4.256-3.844-6.628a4.098 4.098 0 0 0-2.032-3.515l.006-.882Z" fill="#263238" stroke="#263238" stroke-linecap="round" stroke-linejoin="round"/>
  <path d="M230.871 158.27s-1.641 3.657-1.301 5.813c.339 2.157.158 3.815 1.256 4.234 1.098.419 4.738-1.783 5.541-3.238.804-1.454 1.953-3.554 1.636-5.569-.317-2.015-4.177-4.947-7.132-1.24Z" fill="#fff" stroke="#263238" stroke-linecap="round" stroke-linejoin="round"/>
  <path d="M231.494 162.108c-.085.283-.266.475-.408.43-.141-.045-.187-.306-.102-.566.085-.26.266-.475.408-.43.141.045.164.283.102.566ZM234.109 163.195c-.085.283-.272.481-.414.436-.141-.046-.186-.306-.101-.566.084-.261.271-.476.413-.436.141.039.187.283.102.566Z" fill="#263238"/>
  <path d="M232.157 162.578s.169.124-.068.566c-.238.441-.81.283-.747.662.062.379.781.566.781.566M230.838 165.029s.911.86 1.726.651M234.97 162.289l-1.693-.43M231.942 161.219l-.809-.724" stroke="#263238" stroke-linecap="round" stroke-linejoin="round"/>
  <path d="M230.871 158.27s-.243.566-.526 1.342c.956-.498 2.603-1.059 4.109-.13 1.505.928 2.264 3.062 2.57 4.369.639-1.296 1.211-2.83.979-4.341-.317-2.015-4.177-4.947-7.132-1.24Z" fill="#263238" stroke="#263238" stroke-linecap="round" stroke-linejoin="round"/>
  <path d="M236.633 163.795s1.177-1.081 1.132-.096c-.046.984-1.398 1.567-1.698 1.613-.3.045-.278-.334-.278-.334" fill="#fff"/>
  <path d="M236.633 163.795s1.177-1.081 1.132-.096c-.046.984-1.398 1.567-1.698 1.613-.3.045-.278-.334-.278-.334" stroke="#263238" stroke-linecap="round" stroke-linejoin="round"/>
  <path d="m237.036 173.977-1.811 12.911a1.185 1.185 0 0 1-1.132 1.013h-.39a1.179 1.179 0 0 1-1.217-1.07l-.708-7.766 5.258-5.088Z" fill="#000" stroke="#263238" stroke-linecap="round" stroke-linejoin="round"/>
  <path d="m233.758 185.116-5.813-5.128-1.301 1.092 5.58 6.459a1.18 1.18 0 0 0 .968.373h.459a1.184 1.184 0 0 0 1.098-1.472" fill="#000"/>
  <path d="m233.758 185.116-5.813-5.128-1.301 1.092 5.58 6.459a1.18 1.18 0 0 0 .968.373h.459a1.184 1.184 0 0 0 1.098-1.472v0" stroke="#263238" stroke-linecap="round" stroke-linejoin="round"/>
  <path d="m227.945 179.982-1.364-2.179-3.067-.339.017 1.828 1.471 1.228.934.13.708.425 1.301-1.093ZM211.52 186.78s-6.407 8.337-6.056 9.718c.351 1.381 9.713 16.001 9.713 16.001l1.301-.861-5.144-16.063 10.34-4.114-10.154-4.681Z" fill="#fff" stroke="#263238" stroke-linecap="round" stroke-linejoin="round"/>
  <path d="m216.683 189.87.758 3.334 3.424-1.313-4.182-2.021Z" fill="#263238" stroke="#263238" stroke-miterlimit="10"/>
  <path d="m215.176 212.471-1.698 2.83s-1.352 2.026-.956 2.15c.866.278 3.107-1.194 3.747-1.647.639-.452 1.324-.752 1.749-1.052.424-.3 1.273-.476.113-1.551-.391-.357-1.63-1.591-1.63-1.591l-1.325.861Z" fill="#fff" stroke="#263238" stroke-linecap="round" stroke-linejoin="round"/>
  <path d="M225.754 184.12a77.71 77.71 0 0 0-8.835-2.926c-5.19-1.41-9.028-2.502-8.954-1.206.073 1.296 9.514 22.176 9.514 22.176l1.619-.515-2.468-11.513s3.962 2.774 6.889 1.398c2.926-1.375 4.041-5.094 3.837-6.361" fill="#263238"/>
  <path d="M225.754 184.12a77.71 77.71 0 0 0-8.835-2.926c-5.19-1.41-9.028-2.502-8.954-1.206.073 1.296 9.514 22.176 9.514 22.176l1.619-.515-2.468-11.513s3.962 2.774 6.889 1.398c2.926-1.375 4.041-5.094 3.837-6.361" stroke="#263238" stroke-linecap="round" stroke-linejoin="round"/>
  <path d="M215.816 180.894c-4.619-1.251-7.925-2.112-7.851-.906.074 1.296 9.515 22.176 9.515 22.176l1.618-.515-2.467-11.513c.843-2.054-.051-6.373-.815-9.242Z" fill="#fff" stroke="#263238" stroke-linecap="round" stroke-linejoin="round"/>
  <path d="m216.63 190.136-4.069-5.903" stroke="#263238" stroke-linecap="round" stroke-linejoin="round"/>
  <path d="m217.48 202.164-1.516 2.858s-3.062 2.966-2.383 3.119c.679.153 6.435-2.321 6.865-2.909.43-.589-1.347-3.583-1.347-3.583l-1.619.515Z" fill="#fff" stroke="#263238" stroke-linecap="round" stroke-linejoin="round"/>
  <path d="m210.439 160.585 14.275 16.997M166.518 107.948l41.889 50.124M225.937 180.645v82.635M89.614 157.682s3.011 17.619-.26 23.206c-3.272 5.586-11.479 1.568-11.479 1.568v80.258" stroke="#263238" stroke-miterlimit="10"/>
  <path d="M71.536 164.276s2.666-.306 2.87.311a3.547 3.547 0 0 1 0 1.534s1.533 1.641 1.533 2.768c0 1.126-1.635 1.641-1.635 1.641l-.306 2.66-4.098.204-.515-3.175s-1.54-6.045 2.15-5.943Z" fill="#fff" stroke="#263238" stroke-linecap="round" stroke-linejoin="round"/>
  <path d="m72.356 168.668-1.132-1.641c.38-.618.591-1.324.612-2.049 0-1.132-.102-3.176-2.457-3.176-2.354 0-3.894 1.846-4.403 5.842-.51 3.996 1.84 5.943 5.224 5.224 3.385-.719 2.156-4.2 2.156-4.2Z" fill="#263238" stroke="#263238" stroke-linecap="round" stroke-linejoin="round"/>
  <path d="M72.255 167.966s-1.743-.203-1.641 1.132a1.423 1.423 0 0 0 1.035 1.241 1.434 1.434 0 0 0 1.529-.522" fill="#fff"/>
  <path d="M72.255 167.966s-1.743-.203-1.641 1.132a1.423 1.423 0 0 0 1.035 1.241 1.434 1.434 0 0 0 1.529-.522" stroke="#263238" stroke-linecap="round" stroke-linejoin="round"/>
  <path d="m69.826 174.396-3.775 1.064s-.294.736-.736 1.698c-.594 1.308-2.23 3.962-2.23 3.962l-7.556 2.157-2.428 7.827-.538 3.238 4.313-2.162.272-7.551 6.792-1.047 2.915-7.358 2.971-1.828Z" fill="#263238" stroke="#263238" stroke-linecap="round" stroke-linejoin="round"/>
  <path d="M75.843 173.292s-2.971-1.33-5.224-1.024c-2.253.305-2.049 1.437-2.049 1.437l.102 1.534s3.775-1.126 7.171-1.947ZM65.694 180.775l2.123 9.814a.744.744 0 0 0 .392.56.75.75 0 0 0 .683.006l4.794-2.394-7.992-7.986Z" fill="#000" stroke="#263238" stroke-linecap="round" stroke-linejoin="round"/>
  <path d="m71.027 185.999-1.127 2.253" stroke="#263238" stroke-linecap="round" stroke-linejoin="round"/>
  <path d="m80.96 195.938 6.186 10.233-.82 13.839 2.971-.102 2.972-16.505-4.342-11.563-6.967 4.098Z" fill="#263238" stroke="#263238" stroke-linecap="round" stroke-linejoin="round"/>
  <path d="M68.666 175.24s-2.972 5.122-2.972 5.535c0 .413 11.58 11.575 11.58 11.575l8.813-5.841-5.535-9.622 7.97-7.822.61-10.556-1.432-.102-2.564 7.686-8.49 6.69-7.98 2.457Z" fill="#000" stroke="#263238" stroke-linecap="round" stroke-linejoin="round"/>
  <path d="m87.7 158.406.102-2.354 2.558-1.947.21.509v1.54l.102 1.228-1.54 1.126-1.432-.102Z" fill="#fff" stroke="#263238" stroke-linecap="round" stroke-linejoin="round"/>
  <path d="M77.274 192.35s1.948 3.277 3.396 4.301c1.45 1.025 5.926-2.151 7.058-3.079 1.132-.928 5.434-6.452 5.434-6.452l3.996 17.025 2.462-1.024s-1.443-22.64-2.156-23.274c-.713-.634-11.784 6.554-11.784 6.554l-8.406 5.949Z" fill="#263238" stroke="#263238" stroke-linecap="round" stroke-linejoin="round"/>
  <path d="M99.616 203.126h3.481c.616 0 2.15-.922 2.264-.204.113.719-2.972 2.661-4.206 3.278-1.185.46-2.423.77-3.684.922l-.312-2.971 2.457-1.025ZM89.297 219.908l1.743 3.175s2.151.923 2.151 1.336c0 .413-3.48.204-3.792.204-.311 0-3.787-3.396-3.787-3.396l.714-1.234 2.971-.085Z" fill="#fff" stroke="#263238" stroke-linecap="round" stroke-linejoin="round"/>
  <path d="m90.361 154.105 33.445-45.857" stroke="#263238" stroke-miterlimit="10"/>
  <path d="M6.792 263.303h268.284" stroke="#263238" stroke-linecap="round" stroke-linejoin="round"/>
</svg>
