<svg width="253" height="228" fill="none" xmlns="http://www.w3.org/2000/svg">
  <path d="M113.46 109.733c-5.217.348-10.288-1.887-12.172-3.048h-.87l-.87 4.79v5.225l2.174 5.661s1.739 2.177 2.174 2.177c.435 0-6.086 13.499-6.086 13.499v24.385l-1.304 11.757 1.739 4.79c-1.594-.436-2.348-.523 7.39 2.613 9.737 3.135 14.2-6.532 15.215-11.758.434-5.806 1.304-17.069 1.304-15.676 0 1.394 6.086 4.065 9.129 5.226 7.245 2.322 22.431 6.967 25.213 6.967s6.086-1.161 7.39-1.742c4.347-3.919 1.739-14.805 1.304-16.111-.348-1.046-2.463-2.758-3.478-3.484-1.403-.806-2.449-1.279-5.216-2.177l-11.737-3.048-.87 2.177c-.044-.4-.316-.688-1.304-1.306l-1.739-3.049-1.739 2.178-1.738.871v-1.307l.869-2.613-.869-1.306c-.29-.145-.957-.522-1.305-.871-.347-.348-.724-1.016-.869-1.306l-.435-3.919c1.056-2.012 3.252-7.037 4.782-10.451 1.541-3.438 1.739-10.305 1.304-13.499l-3.477-4.79c-14.346 10.016-17.389 8.709-23.909 9.145Z" fill="#263238"/>
  <path d="M103.208 125.339a.52.52 0 0 1-.409-.209c-1.364-1.916-3.86-7.507-4.12-10.085-.261-2.578 1.208-8.709 1.269-8.987a.504.504 0 0 1 .982.226c0 .07-1.487 6.253-1.252 8.709.235 2.456 2.669 7.838 3.939 9.58a.504.504 0 0 1-.113.705.527.527 0 0 1-.296.061Z" fill="#263238"/>
  <path d="m110.364 182.269-3.312-.235c3.59-.967 5.816-6.758 7.207-10.738.261-.749.513-1.463.765-2.116 1.235-3.231 1.348-13.29 1.278-17.157-.513-1.82-1.895-6.253-2.869-7.69a2.62 2.62 0 0 1-.417-2.02c.304-1.463 1.8-2.413 3.112-3.24.444-.263.871-.554 1.278-.871.296-1.864 2.461-2.447 4.069-2.874.505-.139.983-.27 1.357-.409 1.556-1.428 8.372-14.474 9.868-21.485 1.269-5.914-.87-8.004-.87-8.021l1.965-2.299c.365.305 3.538 3.222 1.887 10.956-1.287 6.009-8.738 22.469-11.572 23.61-.598.223-1.207.412-1.826.566a9.374 9.374 0 0 0-1.887.635c-.191 1.22-1.373 1.969-2.608 2.761-.611.338-1.187.735-1.721 1.185 1.425 2.316 3.016 7.907 3.199 8.56l.052.375c0 1.428.226 14.056-1.478 18.498-.235.627-.478 1.306-.73 2.02-1.556 4.511-1.609 8.613-6.747 9.989ZM166.398 152.067c-2.374-1.167-8.555-2.387-12.259-3.17a160.069 160.069 0 0 1-3.973-.871 7.347 7.347 0 0 0-5.051.609 10.46 10.46 0 0 1-1.426.506c-1.878.47-3.156-1.377-4.078-2.726-.104-.148-.217-.323-.339-.479-1.174.688-2.791 1.628-4.347 1.184a2.737 2.737 0 0 1-1.669-1.42 11.747 11.747 0 0 1-.87-2.682c-.287-1.21-.487-1.977-1.087-2.456-2.051-1.637-2.043-2.412-2.086-2.612l1.539-2.517a15.49 15.49 0 0 0 2.434 2.804 6.691 6.691 0 0 1 2.139 4.128 10.2 10.2 0 0 0 .574 1.872 8.357 8.357 0 0 0 1.825-.871 5.687 5.687 0 0 1 1.374-.661c1.365-.34 2.2.87 3 2.029.327.508.7.986 1.113 1.428a9.6 9.6 0 0 0 .765-.296 10.237 10.237 0 0 1 6.955-.732c.965.244 2.304.523 3.851.871a49.225 49.225 0 0 1 10.712 3.345l.904 2.717Z" fill="#fff"/>
  <path d="M183.525 168.457a.535.535 0 0 1-.278-.078c-5.616-3.667-18.258-4.703-18.397-4.712a.503.503 0 0 1-.516-.544.496.496 0 0 1 .195-.361.5.5 0 0 1 .399-.096c.531 0 13.042 1.062 18.867 4.868a.497.497 0 0 1-.033.862.492.492 0 0 1-.237.061ZM179.005 158.546a4.17 4.17 0 0 1-1.157-.191c-1.799-.514-11.302-5.626-11.684-5.844a.503.503 0 1 1 .478-.888c3.382 1.828 10.128 5.373 11.476 5.765.361.147.756.186 1.139.113a.503.503 0 0 1 .858-.212.503.503 0 0 1 .133.325.883.883 0 0 1-.103.383.89.89 0 0 1-.262.297 1.424 1.424 0 0 1-.878.252Z" fill="#263238"/>
  <path d="M184.317 151.814s-4.782 4.668-4.782 5.173c0 .505 3.4 3.527 3.652 4.538.252 1.01 2.521-.253 3.147 0 .626.252.504 2.02-1.261 2.394-1.765.375-1.634 4.921-1.008 5.548.626.627 6.086 3.405 9.068 6.558 2.982 3.153 4.66 6.305 5.912 6.81 1.252.505 2.521.871 2.895-1.637.374-2.508.756-7.943-2.513-11.853s-4.66-4.293-5.668-4.293c-1.009 0-2.608.13-2.009-1.254.6-1.385 2.009-2.613 1.505-3.789-.505-1.176-4.443-8.569-8.938-8.195Z" fill="#263238"/>
  <path d="M201.775 184.682a2.011 2.011 0 0 1-1.835-.993.517.517 0 0 1-.052-.189.487.487 0 0 1 .279-.482.5.5 0 0 1 .669.218c.043.07.383.636 1.443.375 1.452-.366 2.608-.784 2.904-2.509a18.305 18.305 0 0 0-2.2-10.868 22.472 22.472 0 0 0-3.982-4.546c-1.364-1.281-2.434-2.291-2.512-3.371 0-.392 0-.784-.044-1.193a9.89 9.89 0 0 0-.869-4.546c-1.139-2.273-3.843-5.225-6.408-6.314-2.356-.967-3.425-.54-4.347 1.742a.507.507 0 0 1-.66.27.502.502 0 0 1-.27-.662c1.174-2.804 2.826-3.484 5.695-2.29 2.869 1.193 5.72 4.354 6.955 6.801a10.75 10.75 0 0 1 1.009 4.964c0 .395.017.778.052 1.15.043.679 1.043 1.62 2.191 2.7a23.25 23.25 0 0 1 4.155 4.763 19.188 19.188 0 0 1 2.331 11.575c-.435 2.307-2.044 2.9-3.652 3.3a2.993 2.993 0 0 1-.852.105ZM112.155 105.674c-2.478 0-6.955-.322-9.294-2.5a14.567 14.567 0 0 1-2.434-2.926 9.923 9.923 0 0 0-1.626-2.029 3.738 3.738 0 0 1-1.104-4.006.505.505 0 0 1 .652-.279.495.495 0 0 1 .287.653 2.732 2.732 0 0 0 .869 2.892c.671.66 1.256 1.403 1.739 2.212a13.5 13.5 0 0 0 2.278 2.743c2.417 2.247 7.825 2.273 9.372 2.221a.504.504 0 1 1 0 1.01l-.739.009Z" fill="#263238"/>
  <path d="M115.859 110.168a37.62 37.62 0 0 1-12.329-1.933c-5.33-2.09-5.216-4.355-4.999-4.973a6.64 6.64 0 0 1 .235-.671c.209-.522.287-.714 0-1.184-.713-1.08-.13-3.423-.06-3.684a.505.505 0 0 1 .608-.366.514.514 0 0 1 .365.619c-.235.87-.409 2.368-.07 2.874a1.95 1.95 0 0 1 .13 2.116c-.082.183-.149.372-.2.566-.234.871.775 2.343 4.348 3.762 4.347 1.742 15.441 3.188 22.005 0 10.65-5.138 11.406-7.037 11.38-7.498-.026-.462-.069-.871-.121-1.394a9.418 9.418 0 0 1 .156-4.197c.591-1.533 1.183-3.057.574-4.964a23.948 23.948 0 0 1-.617-5.322c-.061-1.184-.113-2.307-.235-3.16a10.557 10.557 0 0 0-1.417-4.355.498.498 0 0 1-.07-.706.514.514 0 0 1 .713-.07c.73.619 1.478 3.04 1.739 5.026.139.87.191 2.046.252 3.257a22.87 22.87 0 0 0 .574 5.068c.713 2.247 0 4.015-.574 5.574a8.728 8.728 0 0 0-.122 3.788c.053.506.105.993.131 1.446.052 1.132-1.122 3.24-11.955 8.456-2.903 1.394-6.703 1.925-10.441 1.925Z" fill="#263238"/>
  <path d="M161.164 111.039a32.768 32.768 0 0 1-6.703-.871c-2.026-.47-2.426-3.126-2.722-5.068a6.202 6.202 0 0 0-.478-1.96c-1.2-.801-1.391-1.507-1.391-3.353a4.275 4.275 0 0 0-1.182-2.526 11.041 11.041 0 0 1-1.113-1.741c-.704-1.411-3.147-8.309-2.556-10.294.417-1.385-1.27-4.52-4.052-5.6-3.025-1.184-9.068-4.93-9.32-5.086a.501.501 0 0 1-.234-.512.494.494 0 0 1 .069-.185.513.513 0 0 1 .695-.165c.061 0 6.217 3.858 9.155 5.007 3.174 1.237 5.217 4.851 4.652 6.828-.426 1.446 1.608 7.786 2.486 9.58.309.556.667 1.084 1.07 1.576a5.234 5.234 0 0 1 1.382 3.136c0 1.741.165 1.994.948 2.516.556.375.704 1.324.869 2.613.27 1.742.6 3.919 1.948 4.233 4.66 1.071 9.928 1.35 10.485-.549.469-1.594.269-4.119.087-6.349a21.862 21.862 0 0 1-.105-4.171c.218-1.542-2.608-12.263-4.347-18.664-.826-3.117-1.478-5.573-1.686-6.549-.609-2.874-18.189-15.624-22.692-17.418-3.878-1.576-9.668-3.649-15.232-3.483a.455.455 0 0 1-.392-.166 19.19 19.19 0 0 0-2.764-2.656l-.305.331c-1.199 1.298-4.008 4.354-8.033 3.832a22.998 22.998 0 0 1-6.434-1.655c.015.463-.147.915-.452 1.263l-.078.061c-.087.06-2.147 1.35-7.825.87-5.477-.495-8.485-.765-13.737-6.026-1.469-1.471-3.173-3.266-4.99-5.173-4.19-4.502-8.972-9.527-10.798-10.442-2.087-1.045-5.842-1.463-7.199-1.585-.148 1.594-.921 6.244-4.851 7.838 0 .627.278 2.474 2.686 5.635l1.33 1.742c4.06 5.382 13.58 17.984 16.598 19.281.973.418 2.608 1.002 4.468 1.672 5.086 1.83 11.425 4.102 13.311 6 1.6 1.595 2.974 7.682 4.19 13.064.714 3.135 1.453 6.384 1.887 6.906.893.848 1.93 1.53 3.061 2.012a5.55 5.55 0 0 1 2.008 1.315.506.506 0 0 1-.843.557 7.17 7.17 0 0 0-1.617-.975 11.03 11.03 0 0 1-3.382-2.264c-.566-.67-1.13-3.1-2.096-7.324-1.043-4.755-2.53-11.2-3.92-12.602-1.74-1.742-8.208-4.067-12.938-5.766-1.886-.679-3.477-1.262-4.53-1.741-3.26-1.402-12.545-13.69-16.996-19.595l-1.33-1.742c-3.322-4.355-2.913-6.506-2.852-6.732a.479.479 0 0 1 .322-.357c4.346-1.463 4.52-7.464 4.53-7.525a.505.505 0 0 1 .53-.488c.217 0 5.338.358 8.085 1.742 1.974 1.028 6.616 5.896 11.103 10.608 1.808 1.898 3.477 3.692 4.972 5.155 4.991 5 7.704 5.226 13.111 5.74 4.765.435 6.764-.47 7.103-.653.104-.239.149-.499.131-.758 0-.288 0-.95.617-.95.217.028.426.096.617.2a21.667 21.667 0 0 0 6.321 1.656c3.478.444 6.086-2.334 7.173-3.484.193-.244.422-.459.678-.636.295-.14.869-.41 3.721 2.805 5.669-.105 11.502 1.976 15.415 3.57 4.529 1.855 22.544 14.631 23.291 18.184.2.95.87 3.397 1.678 6.497 2.53 9.476 4.6 17.418 4.347 19.064a21.324 21.324 0 0 0 .113 3.954c.183 2.317.392 4.938-.13 6.706-.452 1.602-2.582 2.09-4.938 2.09Z" fill="#263238"/>
  <path d="M109.625 57.54a14.013 14.013 0 0 1-4.564-.74c-5.025-1.742-4.973-3.44-4.912-3.762a.506.506 0 1 1 1 .156c0 .087.2 1.254 4.242 2.613 2.739.879 5.681.899 8.431.057a14.11 14.11 0 0 0 6.958-4.769.495.495 0 0 1 .704-.078.515.515 0 0 1 .079.714 15.273 15.273 0 0 1-11.938 5.809Z" fill="#263238"/>
  <path d="M65.615 17.653 3.348 6.723l57.564 2.02 4.703 8.91Z" fill="#E8E8E8"/>
  <path d="M55.365 8.543v-2.83L3.348 6.723l52.017 1.82Z" fill="#D9D9D9"/>
  <path d="M58.738 5.652 47.992 0 3.348 6.723l55.39-1.07Z" fill="#E8E8E8"/>
  <path d="M52.861 38.58a.468.468 0 0 1-.382-.174c-.079-.087-7.72-8.979-9.999-10.773-.47-.366-.956-.766-1.46-1.175a30.134 30.134 0 0 0-6.738-4.581c-3.13-1.324-7.13-7.769-7.295-8.047a.507.507 0 0 1 .87-.523c0 .061 3.999 6.436 6.842 7.646 2.486 1.054 4.869 3.005 6.955 4.72l1.444 1.168c2.364 1.855 9.824 10.538 10.146 10.912a.498.498 0 0 1-.383.827Z" fill="#263238"/>
  <path d="M37.603 12.663 4.687 6.723 38.802 17l-1.2-4.337ZM43.82 18.506l12.232 3.684.87-6.052-14.537-2.613s.322 1.89.504 2.613c.254.81.565 1.602.93 2.368Z" fill="#9E9E9E"/>
  <path d="M105.2 52.332h-.139a.508.508 0 0 1-.365-.43.507.507 0 0 1 .017-.197s.947-3.353 0-5.661a.496.496 0 0 1-.029-.41.504.504 0 0 1 .959.035c1.069 2.613.061 6.166 0 6.314a.506.506 0 0 1-.443.349ZM116.432 50.573a.505.505 0 0 1-.408-.21c-1.374-1.898-3.669-5.224-3.582-6.156a.513.513 0 0 1 .548-.453.522.522 0 0 1 .46.549c0 .53 1.739 3.257 3.391 5.469a.498.498 0 0 1 .089.376.491.491 0 0 1-.202.33.522.522 0 0 1-.296.095ZM172.692 129.023a1.786 1.786 0 0 1-.357-.043c-1.391-.305-6.833-5.888-7.824-7.246a8.057 8.057 0 0 0-2.861-2.282 5.545 5.545 0 0 0-1.008 2.613c-.105 1.289-.304 2.551-1.052 3.065a1.389 1.389 0 0 1-1.226.148c-1.548-.47-1.313-1.907-.982-3.893l.113-.705a15.167 15.167 0 0 1 1.738-4.415c.139-.262.287-.549.366-.723-.4-.671-2.035-3.371-3.156-5.226a.51.51 0 0 1 .35-.766.504.504 0 0 1 .51.235c.531.871 3.156 5.165 3.278 5.417.122.253 0 .601-.461 1.498a14.29 14.29 0 0 0-1.626 4.111l-.121.705c-.339 2.073-.357 2.569.278 2.761.243.078.33 0 .374 0 .452-.305.574-1.812.617-2.308a5.62 5.62 0 0 1 1.539-3.484.749.749 0 0 1 .626-.104 8.97 8.97 0 0 1 3.477 2.7c1.339 1.741 6.417 6.688 7.26 6.871.096 0 .261.044.304-.044.044-.087 0-.783-.747-1.489-1-.871-4.295-5.225-4.008-6.227a.607.607 0 0 1 .469-.435c.47-.096.939.244 3.626 2.613 1.382 1.228 3.477 3.074 3.999 3.178.201.04.404.069.609.087a5.238 5.238 0 0 0-.366-.557c-.417-.583-1.243-1.489-2.043-2.369a23.25 23.25 0 0 1-2.651-3.205.503.503 0 0 1 .208-.679.513.513 0 0 1 .687.2 23.994 23.994 0 0 0 2.495 3.005c.87.94 1.67 1.829 2.122 2.456.452.627.869 1.28.513 1.742-.357.461-1.061.418-1.739.27-.678-.148-2.182-1.385-4.469-3.406-.609-.54-1.339-1.193-1.93-1.68a23.68 23.68 0 0 0 3.182 4.223c.965.871 1.356 1.951.974 2.691a1.15 1.15 0 0 1-1.087.697Z" fill="#263238"/>
  <path d="M177.787 124.808a4.829 4.829 0 0 1-2.035-.575.507.507 0 0 1 .496-.871c.527.305 1.13.453 1.739.427l.043-.053s0-.296-.965-1.175a51.117 51.117 0 0 1-4.347-5.226.594.594 0 0 1 0-.688c.6-.731 5.73 1.673 5.782 1.742a.26.26 0 0 0 .104 0s0-.409-.643-.949c-.8-.653-5.278-2.299-11.99-4.407l-.121-.043c-1.426-.445-2.026-2.474-2.087-2.7a.506.506 0 0 1 .72-.533.5.5 0 0 1 .245.263c.139.47.652 1.742 1.417 2.012h.122c4.973 1.567 11.155 3.631 12.328 4.589 1.174.958 1.148 1.812.87 2.299a1.037 1.037 0 0 1-1.374.314c-.522-.261-2.452-1.028-3.738-1.472a41.384 41.384 0 0 0 3.477 4.05c.913.871 1.296 1.454 1.278 1.977a1.088 1.088 0 0 1-.452.81 1.247 1.247 0 0 1-.869.209ZM98.018 8.552s-6.225 1.603-7.06 5.017c-.834 3.414 0 6.967 2.687 6.61 2.687-.357 6.208-2.691 8.555-2.526 2.348.166 1.852 1.054 1.009 2.543-.844 1.49.669 4.015 4.868 2.84 4.2-1.176 4.347-3.362 7.382-2.526 3.034.836.269 7.733.973 8.709.705.975.87 2.351 2.452 0 1.583-2.352 3.965-5.548 6.477-4.703 2.513.845-2.347 5.713-4.86 6.723l-2.521 1.01s-1.008 7.055-2.521 8.065c0 0 10.076-1.341 13.91-4.877 3.835-3.536.505-3.484 1.174-5.374.67-1.89 4.53-1.985 4.53-4.276 0-2.29-.505-1.95-4.026-3.631-3.521-1.681-2.521-2.517-2.017-3.362.505-.845 1.009-2.351-1.843-3.196-2.852-.845-9.563-2.857-8.329-4.703 1.235-1.846 1.878-5.548-2.452-5.225-4.329.322-8.468 3.144-10.928 2.839-2.461-.305-4.73-.958-7.46.043Z" fill="#263238"/>
  <path d="M106.234 46.566h-.121l-1.131-.252c-2.93-.645-9.024-1.977-12.276-4.285-3.973-2.822-3.251-9.841-2.538-12.08.712-2.237 2.32-9.806 2.338-9.919a.49.49 0 0 1 .226-.322.46.46 0 0 1 .383-.06c.101.009.203.009.304 0a.52.52 0 0 1 .165-.053c1.32-.256 2.605-.67 3.826-1.237 1.739-.714 3.425-1.393 4.825-1.289.774.061 1.739.2 2.052.871.313.67-.078 1.455-.635 2.439a1.393 1.393 0 0 0 .165 1.524c.696.87 2.243 1.123 4.121.592a11.775 11.775 0 0 0 3.565-1.68c1.2-.776 2.139-1.386 4.095-.872 2.417.68 1.86 4.137 1.461 6.671a8.221 8.221 0 0 0-.209 2.282c.13.183.243.383.356.575.088.188.206.362.348.514.34-.323.633-.693.869-1.098 1.418-2.064 4.052-5.904 7.06-4.894a1.388 1.388 0 0 1 1.043 1.324c.061 1.994-3.677 5.46-5.886 6.34l-2.277.914c-.305 1.22-1.609 6.323-2.504 7.943l-.174.33c-.557 1.098-1.739 3.397-3.973 4.582a.504.504 0 0 1-.714-.596.512.512 0 0 1 .244-.301c1.965-1.037 3.034-3.136 3.547-4.146l.192-.357c.921-1.69 2.451-7.838 2.469-7.943a.503.503 0 0 1 .295-.348l2.522-1.01c1.938-.775 5.294-4.015 5.216-5.382 0-.13 0-.288-.356-.4-2.009-.671-4.026 1.74-5.904 4.52-.773 1.122-1.312 1.54-1.834 1.523-.522-.017-.87-.549-1.139-1.019-.096-.165-.191-.34-.304-.505-.348-.488-.226-1.367 0-3.013.347-2.151.817-5.095-.731-5.53-1.547-.436-2.138 0-3.277.714a12.635 12.635 0 0 1-3.721 1.88c-3.296.924-4.73-.348-5.217-.94a2.367 2.367 0 0 1-.252-2.612c.304-.549.722-1.29.617-1.48 0 0-.156-.236-1.226-.314-1.069-.079-2.8.574-4.347 1.219a19.023 19.023 0 0 1-3.982 1.289c-.133.05-.275.073-.417.07-.374 1.741-1.66 7.611-2.27 9.51-.608 1.898-1.303 8.482 2.166 10.956 3.077 2.185 9.042 3.483 11.902 4.119l1.156.252a.506.506 0 0 1 .374.61.495.495 0 0 1-.487.374Z" fill="#263238"/>
  <path d="M91.437 27.599a.452.452 0 0 1-.235-.061 9.892 9.892 0 0 1-4.634-6.201 3.55 3.55 0 0 1 0-2.325 1.27 1.27 0 0 1 1.226-.54c.87.078 2 .87 2.8 2.743a16.693 16.693 0 0 0 1.738 3.335.507.507 0 0 1-.464.812.505.505 0 0 1-.336-.193 16.972 16.972 0 0 1-1.904-3.553c-.678-1.612-1.556-2.108-1.973-2.143-.2 0-.27.07-.287.096-.287.636.73 5.225 4.277 7.08a.504.504 0 0 1-.234.95h.026ZM111.964 26.205h-.261a1.065 1.065 0 0 1-.869-.871c-.139-.592-1.391-1.437-2.243-1.846a.501.501 0 0 1-.235-.68.497.497 0 0 1 .669-.235c.418.2 2.495 1.272 2.791 2.535 0 .078 0 .078.07.087a.671.671 0 0 0 .565-.28.502.502 0 0 0 0-.556c-.661-1.228-1.113-1.917-1.67-2.065a.5.5 0 0 1-.334-.224.513.513 0 0 1-.063-.399.496.496 0 0 1 .248-.318.504.504 0 0 1 .402-.034c1.008.261 1.617 1.272 2.304 2.57a1.48 1.48 0 0 1-.113 1.637 1.674 1.674 0 0 1-1.261.679ZM93.898 22.696a.551.551 0 0 1-.165 0 1.538 1.538 0 0 1-1.13-1.02 1.743 1.743 0 0 1 .417-1.428.513.513 0 0 1 .713 0 .506.506 0 0 1 0 .706c-.087.104-.235.357-.192.496.044.14.13.174.296.253a8.233 8.233 0 0 1 2.939-.732.721.721 0 0 0 .66-.505c.131-.3.156-.634.07-.95a.504.504 0 0 1-.278-.957.868.868 0 0 1 .947.183 2.032 2.032 0 0 1 .218 2.046 1.742 1.742 0 0 1-1.574 1.193 7.19 7.19 0 0 0-2.721.715.453.453 0 0 1-.2 0Z" fill="#263238"/>
  <path d="M95.157 25.7a10.952 10.952 0 0 0-1.564-.514 6.632 6.632 0 0 0-.705-.148c-.27-.052-.556-.079-.93-.183a1.74 1.74 0 0 1 1.904-.749 1.633 1.633 0 0 1 1.296 1.594ZM104.33 27.093a2.357 2.357 0 0 1 1.269-.87 3.204 3.204 0 0 1 1.574-.053c.514.119.991.36 1.391.705.402.332.703.77.87 1.263-.496-.174-.87-.374-1.305-.522a6.985 6.985 0 0 0-1.182-.357 6.12 6.12 0 0 0-1.217-.175c-.47 0-.913 0-1.4.01ZM98.097 33.094H98a14.615 14.615 0 0 1-2.608-.784 1.131 1.131 0 0 1-.644-.74 2.45 2.45 0 0 1 .435-1.742l2.487-4.903.086-.122a1.618 1.618 0 0 1 1.348-.566 1.953 1.953 0 0 1 1.296.932.55.55 0 0 1 .06.33s-.565 3.71-.626 5.226a2.39 2.39 0 0 1-1.59 2.37h-.148Zm.408-7.664-2.478 4.886c-.213.28-.33.623-.33.975 0 0 0 .061.096.096.73.3 1.486.527 2.26.68a1.471 1.471 0 0 0 .748-1.394c.06-1.393.487-4.354.608-5.147a.868.868 0 0 0-.452-.314.625.625 0 0 0-.452.227v-.009ZM91.958 27.068a1.474 1.474 0 0 1 1.191.121 2.967 2.967 0 0 1 1.478 3.188c-.278.714-1.182-.096-2.486-.61-.426-.165-.47 0-.87-.139l.687-2.56ZM102.261 31.936c-.147.87 1.461.662 3.348.967 1.886.304 3.321 1.045 3.477.139.157-.906-1.06-3.135-2.938-3.44-1.878-.305-3.739 1.428-3.887 2.334ZM97.558 36.9c1.139-.348 2.104-.523 3.025-.81.462-.133.916-.296 1.356-.488.461-.183.87-.444 1.444-.714a2.854 2.854 0 0 1-.87 1.56 3.914 3.914 0 0 1-1.565.87 4.45 4.45 0 0 1-1.738.148 3.473 3.473 0 0 1-1.652-.566Z" fill="#263238"/>
  <path d="M119.658 79.033c0 4.825-2.017 8.71-9.242 8.71-5.095 0-8.164-3.902-8.164-8.71 0-4.807 2.052-8.709 8.164-8.709s9.242 3.893 9.242 8.71Z" fill="#E8E8E8"/>
  <path d="M109.547 80.123h-.165c-.278 0-.809 0-.965-.48-.157-.478.2-.705.443-.87a2.41 2.41 0 0 0 .339-.331l-.078-.052c-.652-.453-5.016-.314-8.859.087a.498.498 0 0 1-.557-.444.514.514 0 0 1 .452-.558c1.365-.14 8.251-.81 9.564.087a1.061 1.061 0 0 1 .513.871 1.047 1.047 0 0 1-.287.75c.417 0 .991-.097 1.652-.175 2.912-.348 7.825-.932 12.085.209a.505.505 0 0 1-.261.975c-4.112-1.088-8.859-.522-11.702-.182-.992.017-1.713.113-2.174.113ZM39.263 21.18a.495.495 0 0 1-.46-.305 12.125 12.125 0 0 1-.505-3.806l-1.191-4.197a.515.515 0 0 1 .574-.636l4.208.74c.208 0 1.217.331 1.4 2.613.083.967.412 1.896.956 2.7a.486.486 0 0 1-.174.688.495.495 0 0 1-.687-.175 6.591 6.591 0 0 1-1.095-3.126c-.122-1.507-.609-1.742-.618-1.742l-3.373-.592.991 3.483a.872.872 0 0 1 0 .149c-.039 1.175.102 2.35.417 3.483a.506.506 0 0 1-.26.662.54.54 0 0 1-.183.06ZM57.729 30.594a.452.452 0 0 1-.26-.07c-1.148-.678-11.251-6.757-12.607-9.266a.515.515 0 0 1 0-.513c.281-.51.45-1.074.495-1.655a.508.508 0 0 1 .738-.407.505.505 0 0 1 .27.494 5.53 5.53 0 0 1-.495 1.82c1.478 2.064 9.155 6.906 12.094 8.71a.487.487 0 0 1 .174.687.505.505 0 0 1-.409.2ZM108.868 203.249s-.478-7.367-.869-7.724c-.391-.357-5.391.322-6.417-.192-1.025-.514-1.59 2.299-2.251 2.613-.661.313-2.052-1.028-1.104-2.778.947-1.751-2.948-4.895-3.922-4.816-.973.078-7.18 2.612-11.98 2.908-4.8.296-8.616-.609-9.938.087-1.321.697-2.547 1.481-.704 3.606 1.843 2.125 6.086 6.331 11.72 6.384 5.634.052 6.955-.871 7.65-1.69.696-.819 1.74-2.308 2.496-.784.756 1.524.774 3.588 2.087 3.98 1.313.392 10.302 2.482 13.232-1.594Z" fill="#263238"/>
  <path d="M100.47 210.757c-1.316.01-2.63-.133-3.912-.427a11.918 11.918 0 0 1-4.86-2.7c-.33-.27-.661-.54-.992-.784-.626-.461-2.138-.296-3.877-.104a25.357 25.357 0 0 1-6.955.069 20.939 20.939 0 0 1-11.303-6.314c-1.608-1.994-.947-3.744-.139-5.373a2.338 2.338 0 0 1 2.539-1.498.506.506 0 0 1-.235.975c-.087 0-.87-.139-1.409.976-.739 1.489-1.208 2.752 0 4.285a20.113 20.113 0 0 0 10.703 5.957c2.22.274 4.465.247 6.677-.079 2.026-.226 3.634-.4 4.573.296.348.253.687.532 1.035.81a10.915 10.915 0 0 0 4.469 2.508c2.73.68 7.19.54 9.92-.87 2.53-1.307 2.938-2.526 1.739-5.008a.503.503 0 0 1 .585-.605c.11.021.21.077.284.161 1.478 2.961.869 4.798-2.139 6.34a15.205 15.205 0 0 1-6.703 1.385ZM96.114 193.826a.485.485 0 0 1-.443-.279.485.485 0 0 1 .058-.542.487.487 0 0 1 .15-.12c.07-.052 2.339-1.602 4.817-11.809a.506.506 0 0 1 .619-.431.501.501 0 0 1 .326.254.496.496 0 0 1 .029.412c-2.609 10.834-5.06 12.332-5.33 12.463a.506.506 0 0 1-.226.052ZM106.33 197.345a.497.497 0 0 1-.495-.471c-.244-3.797 4.764-14.317 4.982-14.761a.505.505 0 0 1 .869.435c-.052.105-5.104 10.73-4.886 14.257a.502.502 0 0 1-.279.488.508.508 0 0 1-.191.052Z" fill="#263238"/>
  <path d="M110.259 182.887c-3.304 0-9.242-1.741-12.085-3.422-2.973-1.742-2.069-8.169-1.278-13.848.096-.696.192-1.384.279-2.037.347-2.7.26-7.891.165-12.916-.105-5.931-.2-11.539.347-13.864 1.009-4.355 9.747-20.379 10.121-21.059a.478.478 0 0 1 .296-.246.498.498 0 0 1 .382.046.502.502 0 0 1 .242.298.512.512 0 0 1-.042.381c-.087.166-9.042 16.634-10.025 20.806-.513 2.203-.408 8.012-.313 13.621.087 5.06.183 10.294-.174 13.063-.087.662-.182 1.35-.287 2.047-.704 5.095-1.59 11.443.792 12.837 2.964 1.742 9.928 3.684 12.493 3.213 1.261-.226 5.538-1.463 7.929-7.751 1.948-5.112 2.487-22.024 2.487-23.784a11.336 11.336 0 0 0-1.435-2.882c-1.208-2.038-1.739-3.04-1.252-3.606.487-.566 1.122-.139 1.383 0a14.653 14.653 0 0 1 3.034 2.038l.591.462v-.148a29.354 29.354 0 0 0-.661-2.064c-.417-1.228-.652-1.908-.26-2.361a1 1 0 0 1 .999-.235c1.322.262 2.043.166 2.609-.365.678-.732 12.615-20.031 13.458-24.211.956-4.634.87-9.789-.182-11.479a63.68 63.68 0 0 0-2.748-3.997.505.505 0 0 1 .105-.706.507.507 0 0 1 .372-.101.492.492 0 0 1 .332.197s1.539 2.056 2.791 4.067c1.382 2.221 1.199 7.952.321 12.193-.878 4.241-13.067 24.01-13.815 24.759-.973.976-2.234.871-3.477.645.102.432.233.856.391 1.271.2.584.452 1.307.678 2.134.174.653.304 1.315-.157 1.611-.46.296-1.034-.096-1.999-.871-.86-.75-1.809-1.39-2.826-1.907h-.052c.354.766.758 1.508 1.209 2.221.973 1.654 1.573 2.708 1.573 3.396 0 .174-.391 18.463-2.547 24.141-2.608 6.785-7.303 8.135-8.694 8.387-.355.041-.713.05-1.07.026Z" fill="#263238"/>
  <path d="M155.991 166.994c-.443 0-.869 0-1.208-.052-2.087-.157-9.338-2.543-15.737-4.642-3.843-1.263-7.468-2.456-9.276-2.935a16.763 16.763 0 0 1-8.069-5.225.52.52 0 0 1-.148-.386.504.504 0 0 1 .931-.241 16.086 16.086 0 0 0 7.538 4.868c1.843.488 5.486 1.681 9.337 2.952 6.034 1.977 13.537 4.451 15.502 4.599 2.939.226 7.92-.401 9.563-3.049 1.644-2.647 1.904-9.1 1.452-10.685l-.06-.218c-.54-1.907-1.8-6.392-5.913-7.76-5.146-1.742-14.127-4.189-15.084-4.023-.2 0-.417.54-.548.827-.2.453-.408.914-.869.923-.461.009-.765-.531-.869-.757a18.747 18.747 0 0 1-.548-1.237c-.278-.671-.87-2.064-1.191-2.143a8.52 8.52 0 0 0-1.122 1.263c-.8 1.028-1.339 1.742-1.947 1.489-.609-.252-.539-.87-.539-1.114.017-.61.093-1.217.226-1.812.278-1.411.287-1.898-.652-2.255-2.226-.871-2.722-4.538-2.722-5.888a.508.508 0 0 1 .505-.505.502.502 0 0 1 .504.505c0 .871.356 4.303 2.069 4.947 1.713.645 1.53 2.116 1.287 3.388-.093.5-.148 1.007-.165 1.515.217-.244.478-.583.678-.871a8.258 8.258 0 0 1 1.278-1.428 1.022 1.022 0 0 1 .869-.192c.8.218 1.287 1.385 1.852 2.726.157.375.313.749.461 1.072.235-.523.556-1.228 1.234-1.403 1.287-.313 12.251 2.918 15.65 4.05 4.608 1.542 6.025 6.558 6.555 8.448l.061.209c.522 1.811.331 8.517-1.565 11.504-1.799 2.813-6.364 3.536-9.32 3.536ZM223.188 199.949a3.906 3.906 0 0 1-.53 0 .51.51 0 0 1-.427-.575.508.508 0 0 1 .574-.427c.07 0 6.086.732 11.381-9.423 4.564-8.709 4.782-11.321 4.712-11.983-.165.122-.382.322-.582.505a6.137 6.137 0 0 1-1.791 1.271c-1 .401-11.79 9.58-13.998 19.247a.496.496 0 0 1-.6.374.484.484 0 0 1-.318-.219.493.493 0 0 1-.064-.381c2.312-10.12 13.423-19.482 14.606-19.961a5.015 5.015 0 0 0 1.478-1.072c.337-.402.78-.704 1.278-.87a.74.74 0 0 1 .765.304c1.2 1.603-2.365 8.979-4.599 13.229-4.825 9.197-10.198 9.981-11.885 9.981Z" fill="#263238"/>
  <path d="M223.953 198.764a.498.498 0 0 1-.382-.183.499.499 0 0 1-.118-.369.512.512 0 0 1 .179-.345c.069-.052 6.877-5.844 9.824-12.114a.508.508 0 0 1 .66-.223.505.505 0 0 1 .253.65c-3.043 6.479-9.798 12.192-10.085 12.462a.509.509 0 0 1-.331.122ZM222.762 186.598h-.043a.503.503 0 0 1-.344-.173.494.494 0 0 1-.117-.367c.687-8.283 4.721-16.826 11.989-25.378.304-.366.513-.61.6-.732a8.97 8.97 0 0 0 .478-.871c.591-1.114 1.07-1.985 1.739-1.794.669.192.869.871.687 4.355-.365 6.967-5.104 20.448-5.304 21.014a.507.507 0 0 1-.248.326.503.503 0 0 1-.408.033.511.511 0 0 1-.291-.689c.052-.14 4.895-13.891 5.216-20.736.079-1 .079-2.005 0-3.005-.182.287-.4.697-.539.958s-.382.723-.539.949c-.156.227-.33.41-.669.81-7.129 8.396-11.077 16.739-11.746 24.803a.507.507 0 0 1-.461.497Z" fill="#263238"/>
  <path d="M223.014 191.597h-.139a.506.506 0 0 1-.339-.627c2.93-10.051 9.764-22.644 9.833-22.8a.497.497 0 0 1 .83-.076c.041.051.072.11.091.173a.514.514 0 0 1-.042.382c-.07.13-6.843 12.662-9.747 22.643a.491.491 0 0 1-.487.305Z" fill="#263238"/>
  <path d="M219.962 198.93a.494.494 0 0 1-.347-.139c-.348-.331-8.486-8.317-7.538-18.289.826-8.709 2.938-16.904 4.608-17.975a.862.862 0 0 1 .782-.122c1 .348 1.209 1.82 1.469 3.692.143 1.488.476 2.952.992 4.355 1.399 3.3 4.781 18.419 2.964 26.605a.505.505 0 0 1-.982-.217c1.739-7.986-1.539-22.765-2.913-25.996a18.578 18.578 0 0 1-1.06-4.581c-.166-1.159-.366-2.613-.739-2.848-.939.592-3.2 7.524-4.121 17.209-.87 9.458 7.155 17.357 7.233 17.418a.5.5 0 0 1-.056.792.495.495 0 0 1-.292.078v.018Z" fill="#263238"/>
  <path d="M220.658 197.736a.516.516 0 0 1-.461-.296c-4.347-9.632-5.051-23.157-5.051-23.288a.492.492 0 0 1 .279-.482.486.486 0 0 1 .19-.049.499.499 0 0 1 .505.479c0 .131.739 13.473 4.973 22.931a.505.505 0 0 1-.435.705ZM220.066 172.812a.505.505 0 0 1-.504-.471c-.774-13.29 4.73-24.759 7.373-30.263.484-.951.917-1.928 1.295-2.926.583-1.96 1.33-2.291 1.843-2.221.757.096 1.783 1.019 1.965 7.768.235 8.517-2.243 23.41-2.26 23.514a.518.518 0 0 1-.205.33.499.499 0 0 1-.378.088.519.519 0 0 1-.185-.069.516.516 0 0 1-.232-.514c0-.148 2.478-14.953 2.252-23.366-.165-6.279-1.096-6.793-1.104-6.802a3.48 3.48 0 0 0-.731 1.515 28.051 28.051 0 0 1-1.356 3.075c-2.608 5.434-8.025 16.738-7.268 29.767a.512.512 0 0 1-.287.483.508.508 0 0 1-.192.048l-.026.044Z" fill="#263238"/>
  <path d="M222.571 184.446a.505.505 0 0 1-.337-.131.507.507 0 0 1-.167-.321c-.166-1.507.373-3.806 1.365-7.987a405.694 405.694 0 0 0 1.799-7.968 224.602 224.602 0 0 0 3.208-22.643.525.525 0 0 1 .548-.462.485.485 0 0 1 .342.179.498.498 0 0 1 .11.37 226.14 226.14 0 0 1-3.217 22.765 435.964 435.964 0 0 1-1.817 7.977c-.956 4.076-1.486 6.314-1.339 7.655a.506.506 0 0 1-.443.558l-.052.008ZM230.326 202.474a.512.512 0 0 1-.487-.357.509.509 0 0 1 .339-.627l1.026-.322a.782.782 0 0 1-.139-.096.728.728 0 0 1-.209-.731c.172-.52.428-1.009.757-1.446l.113-.166c-1.887.714-4.504 1.49-6.304.706a.502.502 0 0 1-.309-.469.513.513 0 0 1 .04-.193.513.513 0 0 1 .669-.261c1.739.749 4.747-.418 5.747-.802.357-.139 1.009-.391 1.356.053.348.444 0 .966-.469 1.689a9.17 9.17 0 0 0-.478.767c.287-.07.678-.192.991-.288a9.44 9.44 0 0 1 2.608-.557c.557 0 .722.27.748.496.069.471.122.775-5.843 2.613l-.156-.009ZM218.31 198.634a.457.457 0 0 1-.234-.061 15.23 15.23 0 0 1-3.704-2.848c-.826-.871-1.435-1.106-1.739-1.028a.325.325 0 0 0-.2.279.72.72 0 0 1-.452.592c-.478.183-.948-.2-1.495-.644l-.139-.105v.174c.087 1.019.226 2.552-.87 3.057a.509.509 0 0 1-.387.013.502.502 0 0 1-.282-.266.49.49 0 0 1-.013-.387.495.495 0 0 1 .265-.283c.443-.2.339-1.359.278-2.047-.061-.688-.104-1.245.313-1.48.417-.235.913.113 1.452.54l.417.331a1.288 1.288 0 0 1 .818-.741c.443-.13 1.382-.13 2.721 1.307a14.496 14.496 0 0 0 3.425 2.612.508.508 0 0 1 .218.688.512.512 0 0 1-.392.297ZM43.923 198.015a20.117 20.117 0 0 1-2.686-.183c-3.948-.531-9.703-2.613-14.676-9.266-8.25-11.087-8.573-20.109-8.694-23.967 0-.584 0-1.037-.079-1.368-.217-1.742 0-3.797 1.018-4.224.26-.121.79-.209 1.356.479.366.512.583 1.115.626 1.742.183 1.115.391 2.386 2.852 3.823 5.147 2.988 22.291 14.013 27.038 30.386a.503.503 0 0 1-.146.571.514.514 0 0 1-.391.113.508.508 0 0 1-.428-.405c-4.642-16.007-21.518-26.85-26.578-29.794-2.877-1.672-3.147-3.326-3.338-4.528a2.54 2.54 0 0 0-.409-1.237.628.628 0 0 0-.226-.2c-.165.104-.617 1.236-.374 3.178 0 .349.061.871.087 1.455.13 3.762.444 12.567 8.503 23.401 4.747 6.392 10.207 8.343 13.954 8.865 2.369.35 4.784.208 7.095-.418a.506.506 0 0 1 .486.864.497.497 0 0 1-.173.094c-1.566.445-3.19.654-4.817.619Z" fill="#263238"/>
  <path d="M48.687 196.238H48.6c-.322-.061-8.007-1.437-16.293-8.839a38.38 38.38 0 0 1-10.798-17.575.506.506 0 0 1 .982-.235 37.23 37.23 0 0 0 10.486 17.07c8.05 7.202 15.719 8.587 15.797 8.595a.516.516 0 0 1 .409.584.496.496 0 0 1-.496.4ZM53.608 196.064a.494.494 0 0 1-.538-.453.497.497 0 0 1 .452-.539c.095 0 9.563-1.995 9.92-19.578.434-19.395-3.478-28.687-5.904-31.117-.504-.514-.947-.758-1.165-.671-.93.366-1.008 4.642-1.052 7.194-.07 3.414-1.739 6.697-3.982 11.252a313.494 313.494 0 0 0-2.556 5.225c-3.4 7.324-1.573 19.961-1.556 20.083a.507.507 0 0 1-.413.63.515.515 0 0 1-.397-.111.508.508 0 0 1-.181-.371c-.078-.523-1.895-13.063 1.634-20.658.87-1.959 1.8-3.718 2.609-5.277 2.208-4.433 3.808-7.629 3.868-10.817.079-4.528.244-7.542 1.687-8.116.983-.392 1.939.583 2.252.87 3.365 3.406 6.581 14.579 6.199 31.849-.417 18.463-10.329 20.466-10.746 20.544l-.13.061ZM41.863 200.558c-2.964-.104-3.069-.627-3.12-.871-.053-.243.156-.661.669-.87a4.403 4.403 0 0 1 2.295-.357 4.353 4.353 0 0 0 1.739-.166c1.33-.409 1.539-.914 1.539-.914a.496.496 0 0 1 .6-.366.523.523 0 0 1 .373.618c0 .166-.321 1.045-2.217 1.629a5.508 5.508 0 0 1-2.112.209 4.385 4.385 0 0 0-1.122 0c.409.052.87.087 1.365.104a.503.503 0 0 1 .504.505.506.506 0 0 1-.504.505l-.009-.026Z" fill="#263238"/>
  <path d="M57.104 197.693a.502.502 0 0 1-.365-.157.504.504 0 0 1 0-.714c.319-.292.61-.613.87-.958l-.053.052c-.356.427-.87 1.063-1.59.706a2.495 2.495 0 0 1-1.14-1.55.509.509 0 0 1 .374-.61.506.506 0 0 1 .609.374c.094.358.317.668.626.871.104-.164.223-.319.356-.461.365-.427.983-1.15 1.739-.645a.87.87 0 0 1 .374.653c.052.81-.991 1.873-1.443 2.291a.54.54 0 0 1-.357.148ZM53.548 193.861a.518.518 0 0 1-.2 0 .502.502 0 0 1-.252-.671 81.293 81.293 0 0 0 5.339-38.589.515.515 0 0 1 .443-.566.483.483 0 0 1 .372.104.494.494 0 0 1 .184.34c2.504 21.232-5.346 38.946-5.425 39.129a.503.503 0 0 1-.46.253ZM46.419 185.553a.51.51 0 0 1-.453-.27c-.06-.131-6.642-13.229-4.52-32.85a97.808 97.808 0 0 1 5.86-24.925c1.008-2.796 1.669-4.642 1.486-5.792-.096-.592-.87-5.817.565-6.462.287-.13.757-.148 1.296.514 1.512 1.864 6.086 15.972 5.816 27.616a.505.505 0 0 1-1.008 0c.269-11.74-4.426-25.526-5.59-26.998l-.14-.148c-.26.558-.357 2.683.06 5.304.218 1.402-.477 3.344-1.538 6.288a97.34 97.34 0 0 0-5.808 24.69c-2.086 19.307 4.347 32.153 4.417 32.284a.494.494 0 0 1-.217.679.503.503 0 0 1-.227.07Z" fill="#263238"/>
  <path d="M46.584 174.231a.504.504 0 0 1-.504-.488c0-.183-.113-4.424 1.53-13.603 1.643-9.179 3.478-30.908 3.478-31.135a.52.52 0 0 1 .547-.461.482.482 0 0 1 .342.179.498.498 0 0 1 .11.369c0 .218-1.869 22.086-3.477 31.231-1.609 9.144-1.522 13.342-1.513 13.385a.522.522 0 0 1-.496.523h-.017ZM34.15 173.56a.523.523 0 0 1-.382-.174c-.07-.087-7.285-8.474-9.05-19.734-1.765-11.261-2.513-15.015-3.652-16.635-.66-.949-.687-1.968-.06-2.551.338-.322 1.738-1.176 4.825 1.367 4.095 3.353 13.745 15.676 16.18 23.715a.503.503 0 0 1-.966.287c-2.338-7.725-11.937-20.031-15.858-23.218-1.956-1.603-3.164-1.742-3.477-1.411-.192.183-.192.662.208 1.228 1.27 1.803 1.991 5.452 3.817 17.061 1.739 10.973 8.755 19.159 8.825 19.229a.505.505 0 0 1-.41.836Z" fill="#263238"/>
  <path d="M45.21 182.774a.514.514 0 0 1-.391-.182c0-.053-4.242-5.139-9.824-13.264-5.582-8.126-8.616-22.879-8.746-23.514a.51.51 0 0 1 .217-.518.51.51 0 0 1 .774.317c0 .157 3.086 15.119 8.59 23.14 5.503 8.021 9.728 13.133 9.772 13.185a.516.516 0 0 1-.392.836ZM30.534 142.087a.513.513 0 0 1-.478-.366c0-.105-3.2-10.782-4.19-17.732-.235-1.68-.461-3.056-.644-4.189-.487-2.952-.67-4.067-.087-4.624a1.231 1.231 0 0 1 1.14-.235c1.634.322 15.397 10.842 18.718 22.991a.507.507 0 0 1-.553.646.493.493 0 0 1-.337-.202.513.513 0 0 1-.084-.182c-3.156-11.514-16.432-21.973-17.936-22.269a.763.763 0 0 0-.27 0c-.173.252.096 1.864.4 3.736.183 1.123.409 2.517.652 4.206.974 6.88 4.122 17.479 4.156 17.584a.504.504 0 0 1-.339.627.409.409 0 0 1-.148.009Z" fill="#263238"/>
  <path d="M41.62 157.144a.494.494 0 0 1-.496-.409 31.529 31.529 0 0 0-4.877-10.817c-4.034-5.887-6.486-19.02-6.581-19.577a.507.507 0 0 1 .4-.593.526.526 0 0 1 .59.41c0 .13 2.505 13.481 6.417 19.159a31.952 31.952 0 0 1 5.042 11.209.495.495 0 0 1-.408.583l-.087.035ZM47.557 128.788a.49.49 0 0 1-.351-.16.513.513 0 0 1-.136-.362c.183-4.817-.408-7.995-2.112-11.322l-.2-.375c-3.356-6.61-7.295-14.552-7.869-17.304-.373-1.742-.956-2.448-1.234-2.456-.061 0-.783.06-1.66 2.978-1.496 4.93 2.016 23.297 2.06 23.514a.51.51 0 0 1-.4.593.507.507 0 0 1-.591-.401c-.148-.766-3.6-18.803-2.035-23.967.748-2.49 1.609-3.701 2.608-3.701h.01c1.303.052 1.92 2.064 2.173 3.257.626 2.97 5.825 13.203 7.824 17.052l.192.383c1.79 3.484 2.417 6.837 2.225 11.836a.505.505 0 0 1-.504.435Z" fill="#263238"/>
  <path d="M43.958 136.852a.51.51 0 0 1-.504-.461c0-.061-.487-6.454-.965-10.529-.478-4.076-5.217-11.583-5.286-11.653a.513.513 0 0 1 .87-.54c.2.314 4.937 7.838 5.433 12.071.496 4.232.965 10.511.974 10.572a.505.505 0 0 1-.461.54h-.06Z" fill="#263238"/>
  <circle cx="137.802" cy="140.649" fill="#263238" r=".435"/>
  <ellipse cx="143.453" cy="141.956" rx=".869" ry=".871" fill="#263238"/>
  <ellipse cx="137.368" cy="140.214" rx=".869" ry=".871" fill="#263238"/>
  <ellipse rx=".654" ry="3.275" transform="rotate(26.532 -228.008 280.56) skewX(.078)" fill="#263238"/>
</svg>
