<svg width="299" height="299" fill="none" xmlns="http://www.w3.org/2000/svg">
  <path d="M148.04 111.958c.293-.042.323-1.543.156-1.561-.598-.054-.826 1.662-.156 1.561ZM84.544 133.719c.49-.18 3.654.484 3.654-.52 0-.646-3.253-1.496-3.654-1.197.032.43.212.836.508 1.149 0 .317-1.369-.036-1.489.299a.725.725 0 0 0 .981.269Z" stroke="gray" stroke-miterlimit="10"/>
  <path d="M113.243 153.501c-1.328.071-2.608-1.633-4.061-1.836-1.291-.18-1.369-.317-2.505.149 1.267-.52-2.045-2.051-2.063-2.057-.557-.149-1.125 1.358-1.627 1.142.102.042.598-1.196.09-1.662-.509-.467-1.412.658-1.459.628.083.048 1.417-3.337-.21-4.222-1.567-1.029-2.852-.837-4.275-1.549-1.328-.67-1.448-2.314-3.313-2.195.76-.047-1.471-1.991-.855-1.746-.993-.394-2.913.443-4.187.156-.508-.108-.837-1.412-1.572-1.412-1.124 0-.82 2.016-.999 2.392-.52 1.143-.73-2.99-.203-2.655-.377-.239-2.99 1.579-3.283 1.794-.598.443-.825 1.304-1.435 1.483 1.028-.305-3.29-.783-2.392-.442-2.733-1.041-1.483-1.393-2.225-3.803-.215-.682.496-1.005-.084-1.627-.58-.622-2.882-.718-3.588-.263-.502.275.066-1.89.287-2.117.891-.903 1.196-2.99-.203-3.038-2.29-.06-1.16 1.968-2.583 2.673-4.282 2.129-4.473-3.893-4.336-6.422.233-4.455 3.445-3.247 6.124-2.937-.706-.083-.108-1.148.705-1.196a6.368 6.368 0 0 1 2.207.485c1.351.401 1.01 0 2.015 1.704.395.682.55 2.392 1.435 2.673.078 0-.047-6.231.46-6.978.64-.945 2.172-2.117 2.656-2.739 1.106-1.418.042.179.18-1.465 0-.174-.443-2.518.31-2.518-.293 0 .257 2.201.228 2.219.753-.521.263-1.286.299-1.878 0-.473 2.44-1.28 2.637-1.71.083-.18-1.166 0-1.166-.036 0-.634 1.961-.526 2.248-.724a5.854 5.854 0 0 1 .831-2.284c.885-.915 3.092-.712 3.774-2.111-.084.173.293.867.765.729-1.74.509-2.571 1.436-.484 1.125 1.064-.162 2.679-1.196 3.474-1.794.048-.036-.365-.55-.305-.909-.036.227-1.315 1.238-1.614 1.196-2.034-.371-1.065-1.734-1.854-2.261-.21.101-.444.144-.676.126-.215-.73 2.458-1.28-.114-1.615-1.793-.233-2.66 2.35-3.88 2.35.597 0 3.294-3.277 4.568-3.588.508-.167 7.684-.687 7.087-2.272a5.084 5.084 0 0 0-.509-.257c-.496-.46 1.298-.915-.694-1.148a2.471 2.471 0 0 1-.053-.664c-.192-.132-2.201.7-2.201.694-.155-.73 1.86-.814 2.087-1.196 0 .03-4.311-2.064-3.923-2.578.796-1.028.79.12.275-1.477-.143-.436-2.063-3.127-1.925-3.253-.933.843-.407 2.763-2.034 2.769-1.793 0-1.62-2.057-1.62-3.235 0-.52-4.455-1.848-4.784-1.836-2.518.066-1.483.227-1.639 2.224-.03.341-.4 1.758-.364 1.962.299 1.549 1.578 2.045.795 4.03-.24.598-1.669.772-1.794 1.125-.138.472.556.95.448 1.512-.041.228.234 2.363.09 2.297-.95-.449-.532.436-1.597-.515-1.195-1.07-.364-2.619-1.064-3.432-.275-.329-3.75-1.645-4.52-1.997a4.82 4.82 0 0 0-3.35-.527c.305-.047-.287-1.794-.418-1.99-.754-1.28-1.567.143-1.113-2.393.114-.634 2.949-3.678 2.99-3.588 0-.126-2.32-.993-2.302-1.034.323-.772 2.29 1.375 2.829-.246-.246.748 3.115-.73 2.278-1.333-.353-.251-2.326 0-2.206-.927-.078.598 4.227.837 2.517-.688-.06-.054 1.567 0 1.896 0 .227 0-.598-.79-.544-.867.245-.245 1.106 1.196 2.236-.06.873-.974-.454-1.076-.508-2.02 0-.109 1.345-.473.897-1.15-.341-.513-2.13-1.13-2.721-.938-.413.132.15 2.14-.969 2.793a1.417 1.417 0 0 1-.335-.52c-.472.03.425 1.746-.18 1.465-.603-.281-.657-1.501-.753-1.585-.239-.21-.556-.98-.957-1.34-.4-.358-.783 1.334-.938 1.364-.598.107.077-1.465.12-1.537.274-.514-1.454-.347-1.424-.317-.55-.478.377-.742.473-.891-.12.191-1.328-1.968-1.328-1.956-.795-1.793-.257 0-.46-2.039.095.951 3.695-1.584 2.445-1.997-1.25-.413-3.085-.55-3.367.46-.155.598-.065 2.87-.299 3.786-.077.293-1.058.765-.717 1.931.138.455 2.757 1.047 1.525 2.046a.484.484 0 0 1 .508-.449c.036.078-1.34 2.595-1.196 2.488a18.693 18.693 0 0 1-1.579-1.615c-.071-.132 1.752-.413 1.848-.502.706-.688-1.034-.676-1.034-.778 0-.197.933-.077.598-.334a2.063 2.063 0 0 0-2.948.496c-.323.43 2.565 1.53-.91 1.98-1.584.202-2.23-.599-3.587-.916-.401-.095-.383-.514-1.107-.598-.25 0-1.973.73-1.447.969.383.167 1.794-.801 2.027-.556-.933-1.023-1.106 2.882-1.71 2.565-.269-.143-.102-1.082-.92-1.351-1.125-.377-3.673.783-4.51-.138-.406-.442 1.07-.55.957-.813-.413-.957-2.757-1.023-3.588-1.226-.831-.203-1.465-.676-2.224-.76-.915-.095-1.262.557-2.111.557-.126 0 .173-1.136-.222-1.196-.272.454-.62.859-1.028 1.196-.814-.06-.706-2.057-1.675-1.908.658-.102-1.381 1.447-1.244 1.37a27.088 27.088 0 0 1-2.685 1.5c-.508-.03 2.865-2.098 2.859-2.02.036-.407-2.918.843-3.247 1.022-.33.18 0-.52-.598-.317-1.412.508-.407.945-.748 1.316.138-.144-8.725-2.088-9.31-2.135-.868-.072-6.256-.682-6.579-1.053-.598-.646-2.134.042-2.84.814-.568.598-4.784 1.548-4.97 2.463-.43 1.92 4.049 2.279 4.39 3.325 0 .084-5.041-.191-5.598 1.136.192-.454 1.412 1.453 1.537 1.501.598.216 3.66-.442 3.672-.424.861.855-1.01 2.015-1.471 2.445-.556.515-.598-.316-1.268.557-.394.372-.816.713-1.261 1.022.143-.131 1.016 1.824 1.046 1.848.532.466 2.165.46 1.973.27.515.514-.047 1.59.431 1.841.323.173 1.441.036 2.057.287-.55-.221 1.692-.975 1.56-.598-.304.921-3.982 5.382-4.52 4.784.646.712 7.278-3.767 7.278-4.826a1.795 1.795 0 0 0-.598-.335c-.15-.376 3.588-3.486 3.456-2.278 0-.126-2.23 1.704-1.716 2.177.155.137 2.625-.718 2.99-.862.365-.143-.897-1.261 0-1.423.305-.053 1.483.64 1.53.598a.413.413 0 0 0-.526.33c.114.358 5.275.13 5.598.418-.156-.138 3.313 2.858 3.277 2.021a1.405 1.405 0 0 1-.108-.957c1.65 1.196-.771 1.531-.765 1.46 0 .083 1.255 1.853 1.196 1.871.233-.126-.323-1.603.053-1.465.085.187.12.393.102.598.419.538.49-1.196.437-1.076.09-.234.131 2.284-.132 2.248-.383-.054 2.195-.221 1.435.15.24-.12-.938-.82-.287-.874 1.005-.083.216.85-.454.91-.005.49.035.98.12 1.465.203.15 1.124-.718 1.59-.634.467.083.383 1.794.64 2.153.185.257 1.477 1.554 1.645 1.793.808.843 1.72 1.578 2.714 2.189-.09-.072 3.397 2.871 1.478 2.871-.072 0-2.082-5.412-4.312-3.84.466-.329 2.99 3.301 3.163 3.768.933 2.679-.598 5.794.443 8.719.711 2.003 2.59 3.271 3.857 4.646a17.382 17.382 0 0 1 2.015 3.05c.891 1.507 1.088 1.89.91 2.751 0 .042 4.018 4.245 3.862 4.359.383-.275-3.983-8.157-3.857-8.175 1.579-.161 1.716 2.309 2.01 2.763.807 1.25 2.278 2.392 3.163 3.552 1.513 1.944 1.716 3.983 3.068 5.382.897.927 2.99 1.735 4.186 2.111 1.578.503 3.247.03 4.52 1.274.598.556 1.501.598 1.908.987 1.118 1.028 1.579.514 2.625 1.59.706.724.91 1.388 1.316 1.794.67.658 1.794 1.908 2.805 1.98 1.01.072.687-1.113 1.196-.993 2.248.532 1.841 3.546.932 5.382-.98 2.003-2.236 2.35-1.13 4.371.078.144-1.094 2.046-.98 2.638.215 1.124 2.726 4.455 3.312 5.621 1.125 2.212 2.56 2.44 4.15 4.246 1.454 1.65.993 2.99.742 5.238-.365 3.295-.46 6.536-1.16 9.73-.281 1.273-2.697 7.905-1.794 9.179.413.598.598-1.669.98-1.794.383-.126-.245 4.945-.645 4.664-.21-.149.233-1.644-.317-1.399.502-.221-1.029 2.111-1.035 2.135.06-.658.784.801.814 1.034.047.407.885-.269.843.323.06-.885-2.512 1.017-1.298.832.201-.118.386-.26.55-.425.18-.036-1.267 1.513-.299 1.668.192.03.293-.992.562-.723.569.568-1.082 1.794-.693 2.26.077.096.885-.365 1.04-.042.048.102-.544.562-.448.598.323.12 1.058-.317 1.196.15.137.466-1.435.036-.897.801.203.287 1.483-.927 1.722-.131-.066-.228-1.435.717-1.483.777a14.974 14.974 0 0 1 1.686-.389c.12.263-1.871 1.035-1.925.808.06.257 1.196.968 1.387.789.311-.317-.413-.161-.155-.496.179-.24 1.71-1.089 1.794-1.316a.877.877 0 0 0-.425.789c.229.042.462.054.694.036-.192-.215-.46 1.005-.389.969a.957.957 0 0 1-.317-.688c-.34-.149-.167.718-.215.682a.462.462 0 0 0-.556-.311c.28-.395-.347 1.196-.347.652 0-.305.968.891.945.867.13-.196.222-.415.269-.646.515.4 1.052.771 1.608 1.112.3.09-.215-.699-.041-.675.79-.068 1.568-.228 2.32-.479-1.077-.394-2.392-2.308-2.596-2.392-.161-.042-.771.09-.681-.323.09-.412.663.144.813 0 .15-.143-.676-1.417-.502-1.794.269-.598.741-.765 1.046-1.321.407-.742 1.411-1.31 1.471-2.135.054-.652-.939-.664-.89-.849.185-.718.645-2.476 1.387-3.409.28-.359 1.237-1.297 1.231-1.303-.233-.198-2.063-.036-1.1-1.489-.305.454 2.183-.395 2.057-.323.341-.198-.048-1.346.126-1.531.849-.903 3.977.406 4.33-2.004.077-.532-1.388-2.392-1.418-2.356.496-.52 2.81.598 4.084-.753.317-.335 1.902-3.14 1.896-3.056-.154.41-.355.802-.598 1.166 0-.556 1.86-2.093 2.099-2.739.347-.921-.072-2.123.407-2.99.962-1.686 3.121-1.363 4.317-2.117 1.537-.974 1.98-2.392 2.452-4.186.293-1.112 0-3.946.598-4.837-.084.179 5.992-6.507 2.195-6.291Z" stroke="gray" stroke-miterlimit="10"/>
  <path d="M83.72 131.901c.879-1.196-9.06-3.337-7.816-1.525-.598-.867 3.965.293 4.186.413.741.424 2.547 2.565 3.63 1.112ZM80.55 133.533c.138.258 1.424.598 1.556.299.131-.299-1.723-.621-1.555-.299ZM89.25 133.605c.3.52 1.197.209 1.25 0 .138-.371-1.554-.514-1.25 0ZM94.089 197.627c.407.221 1.25-.891.879-.963-.37-.072-1.268.754-.88.963ZM95.082 197.705c.269.143 1.381-.365 1.25-.634-.245-.556-1.501.484-1.25.634ZM70.599 149.081c-.341.557.335 1.101.472.856.138-.246-.131-1.412-.472-.856ZM100.984 78.159c.072-1.34-1.98-.688-2.284-.598-.305.09 2.188 2.236 2.284.598Z" stroke="gray" stroke-miterlimit="10"/>
  <path d="M123.971 77.244c-.246.15-3.265-.323-3.283-.27.077-.203 1.094-1.369.962-1.417.664.251 2.572 2.518 2.662.419.071-1.226-1.723-1.226-1.986-2.243-.078-.28 2.332.778 1.848-.717-.269-.85-2.637.598-2.542-.311-.035.317.82-1.112.67-.951.754-.831 4.186 2.033 1.968-.843-.09-.114 1.991-.078 2.093-.502.101-.425-2.069-.365-1.579-1.197.598-1.016 2.171.461 1.196-1.62.036.072-2.506-.795-2.117-1.196.389-.4 3.373 0 3.259-.46-.287-1.089-1.764.06-1.884-.874-.065-.484.897 0 1.041-.25.538-.85-2.332-.162-2.231-.084-.777-.599 3.182-4.288 3.295-4.133-.723-.968-1.387.646-1.901.138-.515-.508 2.864-.933 2.954-.993.287-.18-1.794-.598-1.896-.46.365-.598 5.239-.544 5.239-1.89 0-1.794-4.623-.072-5.137.096-.407.125-.993-.4-1.274-.293-.927.352-1.794 1.86-2.775 2.003.975-.143 2.081-2.5.491-2.78-.251-.042-2.942 1.943-3.11 1.345-.131-.473 1.621-.694 1.579-1.089-.084-.837-5.717.473-5.729.347-.084-1.142 7.846-.681 8.641-1.758.443-.598-10.082-2.296-11.033-2.051-.239.06-1.668.568-1.83.598a7.254 7.254 0 0 0-.993-.054c-1.794.204-3.534.084-5.322.425-.221.042.778.711.766.771-.012.06-1.567.162-1.352.443-.048-.06 2.201 1.596 2.045 1.632-1.261.27-3.588-2.613-4.843-1.68-.311.227.926.987.926 1.16 0 .694-2.535-.79-2.463-.79-.186 0-.114 1.514-.473 1.74 1.095-.68-1.351-1.644-1.734-1.68a2.045 2.045 0 0 0-2.015 1.16c-.568.198-1.406-.49-2.141-.19-.526.215.466 1.1-.263 1.5-.198.108-5.31.233-4.629 1.794.515 1.196 3.277-.054.826 1.95-.67.544-2.608.323-3.45.897-3.918 2.673 3.623.909 3.545 2.392 0 .167-4 .173-3.923.544.102.544 2.799 1.794 3.517 1.86 1.453.137 2.846-.951 4.784 0 1.698.819 3.414 2.5 3.922 4.395.599 2.219-.813 2.5 1.513 2.5.581.783 1.247 1.499 1.986 2.134-.084.066-2.596-.992-2.596-.352 0 1.495 3.505.4 2.572 3.067-.144.395-1.25-.167-1.579.64a3.996 3.996 0 0 0-.395 1.71c-.053 1.077 1.561 4.785 2.751 6.435.957 1.31 1.525 1.513 2.877 2.123 2.117.95 1.626 1.07 2.822-.7.461-.694-.251-1.363-.066-1.901.096-.282 1.011-.276 1.149-.88.173-.777.065-2.063.167-2.391.256-.03.515.005.754.101.101-.06 1.417-1.83 1.572-1.83a.556.556 0 0 1 .102.712c.257.807 3.277-1.884 3.337-1.932 1.154-.837.986-.89 2.015-1.345 2.278-.975 4.844-1.83 6.698-2.924ZM46.87 67.993c.659-.36.659 0 1.155-.52.14.252.322.478.538.67.783 0 1.1-1.687 1.59-1.795.491-.108.15 1.495 1.28.4.431-.412.335-.795.754-1.255.114-.126-2.392-.042-2.727.072-.95.335-2.625 2.451-2.59 2.428ZM51.882 67.323c-1.13.09.598.825.562.646a2.506 2.506 0 0 0-1.31.382c-.203.287 1.13.18.987.234-.49.024-.962.193-1.357.484.723 1.058 1.955.054 2.53-.305-.3.185 1.757.694 1.895.484-.197.293-2.129.563-2.1.873.108 1.005 3.858-.328 4.414-.597 1.86-.814 2.392-.156 1.531-1.794.078.131-2.01-1.31-2.338-1.137-.969.503.598 1.507.365 1.86-.556.915-2.434-1.029-2.877-1.142-1.142-.24-1.357-.06-2.302.012ZM64.542 75.3c1.37 1.029 2.99-2.816 2.105-2.864a.647.647 0 0 0-.161.807c.095-.203-1.125-.598-1.1-.598-.264-.413 1.74-.79.442-1.668-.963-.658-.85.562-.831.556.167-.084-2.883-.353-1.914.52.327.09.661.155.999.191 1.148.999-1.998.46-1.675.401-.915.191 1.854 2.446 2.135 2.655ZM45.352 74.636c.384.417.745.854 1.082 1.31.825 0 1.692-1.196 2.099-1.507 1.064-.795 2.577-1.573 3.654-2.464.4-.329-4.91-1.853-5.604-1.638-2.224.7-.287.221-1.01 1.447-.227.377-1.423 2.35-1.274 2.535.326.175.684.282 1.053.317ZM49.412 68.549c.598.072 1.196-.52 1.196-.855 0-.335-1.501.819-1.196.855ZM85.322 75.946a.646.646 0 0 0 .646-.67c.143.49-2.554-.92-2.799-1.004-.598-.204-.221-.754-1.196-.975-.664-.15-1.68.837-1.65.843-.897-.317-.52.066-1.537.066-.748 0 .514-4.097-2.733-2.135-1.962 1.196-.335 1.794-.245 3.062 0 .209-1.466-.437-1.406-1.388.054-.86 1.13-1.632 1.13-2.176 0-1.005-3.534 1.196-3.707 1.997-.233 1.052 1.286 3.157 1.907 2.332-.16.21-1.656-.197-1.614.198.215 2.158 7.995.813 8.163 1.25a.897.897 0 0 1-.395-.599c.108-.359 2.739 1.633 2.757 1.794a2.164 2.164 0 0 0-.748.706c.502.419 1.059-.425 1.896.442.945.981.927.778 1.154 2.267.048.31 2.859-.598 2.35.7-.508 1.297-1.256-.335-1.626-.216-.371.12-1.334.156-1.848.311.039.333.144.654.31.945-.795.389-2.086.042-2.696.598-2.243 1.92 2.392.754 3.032.957.64.203 4.514 4.94 5.52 3.588.25-.347-1.705-2.464-2.07-2.392 1.483-.43 3.66 2.021 2.882-.46-.346-1.107-2.99-1.962-1.83-3.343.479-.598 2.476 1.871 2.811 1.86 0 0 1.962-2.058 1.962-2.046 0-1.375-5.418-2.117-5.245-3.45.33-.15.685-.238 1.047-.257a1.734 1.734 0 0 0-.88-.485c-.09-.819.868-.777-.508-.777.999 0-1.381-1.083-1.47-1.118-.282-.09-1.364-.425-1.364-.425ZM38.792 98.61c-.628.365.783 2.093 1.16 1.836.113-.084-.24-2.374-1.16-1.836ZM61.258 69.29c.233-.299-.508-.927-.712-.406-.203.52.449.711.712.406ZM79.534 89.186c.239-.042.711-.969.101-.933-.61.036-.466.987-.101.933Z" stroke="gray" stroke-miterlimit="10"/>
  <path d="M82.918 81.28c1.848-.34-1.794-1.674-1.196-1.16.401.329-1.028 1.567 1.196 1.16ZM76.543 88.367c.544.37 1.351-.628 1.286-.927-.066-.3-1.926.466-1.286.927ZM70.055 69.368c.31.957 8.043 1.352 8.94.7 3.588-2.59-7.577-1.292-7.428-2.135.172-.225.373-.427.598-.598.275-.365-6.07-1.645-5.585-.891 1.334 2.033 2.584.113 3.475 2.924ZM62.275 77.68c.18-.233 1.047.479 1.083-.036 0-.365-2.578-2.2-2.805-2.786a13.862 13.862 0 0 1-.173-2.392c.304-.275.275-.598-.102-.867a1.4 1.4 0 0 0-1.49.37c.356.251.674.551.946.891 0-.173-1.693-.783-1.86-.448-.24.478.771 2.212.448 2.392-.06 0-2.284-2.5-2.392-1.932.237.201.439.44.598.706 0 .09-1.231.036-1.166.21-.89-2.357-1.626.466-2.434-.294-.083-.084 1.388-1.196-.346-1.196-.67 0-2.392.963-2.614 1.525-1.004 2.392 1.25.634 2.195 1.364.048.035-1.997.568-1.997.849 0 1.255 4.838-.126 4.838.933 0 .257-4.36 0-4.186.705.448 1.95 5.98 1.561 7.104 1.405a8.523 8.523 0 0 1 1.794-.245c.377 0 3.474 1.065 3.103-.197-.299-.987-1.01.299-1.256-.37a2.74 2.74 0 0 1 .712-.587ZM91.38 103.215c.066.293 2.033 1.196 2.1.777.065-.418-2.16-1.034-2.1-.777ZM71.759 64.985c-.598-.335-1.375.37-.742.634.563.22 1.376-.3.742-.634ZM66.502 64.506c3.983 0-.717-2.218-.98-1.794-.263.425.514 1.794.98 1.794ZM66.91 60.828c.035 0 3.139 1.454 2.99.963.083.252-1.43.598-1.352.706.992 1.094 2.553 1.794 3.958 1.411.096 0 2.925-2.547 2.84-2.117-.113.598-2.086-1.997-2.194-2.08-.107-.084-4.3-2.285-4.706-1.974a.599.599 0 0 0 .502.436c0 .234-1.028.048-1.124.24.191.151.377.307.556.466-.203.395-1.387-.191-1.345.598.25.302.568.541.927.7.023.418-2.243 0-1.053.651ZM78.69 71.629c-.855 2.02 3.451 1.554 3.451 1.112 0-.676-3.205-1.687-3.45-1.112ZM69.248 64.692c-.072-.228-2.638.113-2.237.442.676.556 2.303-.221 2.237-.442ZM53.64 64.65c.173-.443-1.118-.371-1.01-.222.233.335.843.67 1.01.222ZM68.5 68.698c-.544-.448-2.153.628-1.931.814.879.747 3.922.825 1.931-.814ZM60.684 65.726c.269-.37-1.088-1.555-1.154-.998-.066.556.867 1.393 1.154.998ZM63.663 66.378c-.807-.34.341 1.196.216 1.196a2.989 2.989 0 0 0-1.286-.598c-.287.233.418.939.185 1.052-.365.174-1.256-1.536-1.758-1.566-1.076-.06.383 1.53.43 1.56.904.545 1.615.126 2.518.371-.125-.036.999 2.865 2.057.3.772-1.896-1.44-1.944-2.362-2.315ZM56.45 64.464c.599-.095-2.391-.807-2.391.335-.012 1.938 2.398-.335 2.392-.335ZM54.794 63.759c.275.125 2.2.101 2.2-.293 0-1.441-3.192.155-3.115.221.3.066.608.09.915.072ZM65.08 60.864c.239-.442-1.423-.795-1.01-.406.232.221.777.855 1.01.406ZM60.446 62.61c.544-.179.885 0 1.017.52-.066.162-1.256.114-1.197.222.06.108 6.513 2.65 3.218-.598a3.426 3.426 0 0 0-1.561-.843c-2.912-.359-1.238.526-1.477.7ZM78.996 86.327c.065-.388-3.307-2.697-3.487-2.673-.323.042-1.895 2.153-1.692 2.823.203.67 5.209-.33 5.179-.15Z" stroke="gray" stroke-miterlimit="10"/>
  <path d="M71.005 57.157c1.197-.861.21.359.222.377a3.2 3.2 0 0 1 .717.113c-1.351 1.585 2.524 1.328 2.506 1.029.173 2.463 4.94-.826 5.514-.419 1.1.784-2.895 1.555-2.8 1.687 0 0 1.287 1.088 1.125 1.094-.76.06-4.73-2.763-4.06-.251.155.598 3.277 1.794 3.277 2.344 0 0-3.935-1.196-4.03.52-.06 1.065 2.17-.191 2.194-.126-.347-.77.347 2.393.347 1.795 0 .717-3.05-1.866-2.924-.443.278.256.578.488.897.694 0 .245-2.62.46-2.004 1.082.706.724 8.665.945 9.066 0 .4-.945-2.99-.706-3.14-.957.473.742 2.99-1.345 3.188-1.44 1.268-.7 1.794.328 2.464-1.651.197-.598-2.195-.598-2.171-.598 1.393-.987 3.229-.598 4.497-1.196.771-.383 5.34-2.745 5.382-3.092.042-.347-2.141-.09-2.267-.144 1.053.46 4.784-2.02 4.844-2.009-.299-.096-4.628-1.567-4.7-.454a1.65 1.65 0 0 1 .7-.598c-.85.335-5.101.107-5.675.137-1.95.102-3.834-.257-5.55.215-.347.096-8.324 2.715-8.474 2.392a.754.754 0 0 0 .855-.101ZM98.071 101.66a4.187 4.187 0 0 0-1.626 1.878c-.084.179-1.573 1.674-.97 2.033 1.37.801 2.632-1.196 2.776.598-.048-.598 1.985.221 2.075.048-.036.077-.598-1.555-.33-1.435.365.167-2.696-1.95-2.654-1.597.108-.563.36-1.088.73-1.525ZM12.384 99.268c.407-.185.598-.413.407-.634-.191-.221-.718.79-.407.634ZM15.26 97.606c-.472-.186-.95.568-1.016.562-.204-.036 1.47-.377 1.016-.562ZM23.25 93.485c-.777.981-1.417 2.859.24 1.196.245-.25.604-2.254-.24-1.196ZM13.06 91.058c-.316-.192-.544-.102-.675.257a1.045 1.045 0 0 0 1.064.352c1.148-.418-.394-.675-.389-.61ZM143.52 113.716c-.053-.419-.831.125-.663.245.34.257.723.173.663-.245ZM160.706 117.92c0-.275-2.189 0-2.141 0-.281-.024 2.207.717 2.141 0ZM166.429 118.231c.173-.249.36-.487.563-.712a7.06 7.06 0 0 0-1.735.598c-.299.574 1.238.508 1.172.114ZM129.298 85.657c2.392-.131.144-3.785-1.004-3.115-.263.15-1.95 1.088-2.255.999a.596.596 0 0 0-.538-.413c-1.501 1.794.054-.514-2.015-.514-.431 0 .221.598.108.598-.419-.048-1.053-.174-1.155.598-.047.34 1.723.263 1.657.197-.066-.066-.174.634-.114.598-.048.03-1.417.06-1.297.305.041.084 1.249.126 1.459.37.382.443-.413.993-.497.904 1.448 1.602 4.103-.437 5.651-.526ZM133.778 101.295c2.009 0 2.559-1.447 2.362-2.99-.066-.526 1.011-.598-.197-1.262a4.71 4.71 0 0 0-1.579.335c-.036 1.077.078.126-1.071.754-.035.036-.012 3.163.485 3.163ZM139.932 91.249c.191-.21.419-1.017.126-.927-.293.09-.204 1.016-.126.927ZM136.08 93.192c-.15-.161-.736.748-.509.742.228-.006.652-.58.509-.742Z" stroke="gray" stroke-miterlimit="10"/>
  <path d="M135.889 94.305c.735-.646.042 2.481.042 2.08 0-.562.968.276.861.294a1.24 1.24 0 0 0 .436-.652c.341.054-.221 1.34-.215 1.423.066.502 1.292-.317 1.363-.185.808 1.405-.645 1.991-.598 2.918a1.068 1.068 0 0 0-.837.879c.618.15 1.249.242 1.884.275.042.227-2.661.783-1.997 1.668 0 0 4.855-1.064 5.142-1.357.287-.293-.496-.108-.472-.317.131-.975.897-.52.472-1.585a2.779 2.779 0 0 1-.944-.741c-.545-.921-1.077-2.9-2.392-2.805 0 0 .849-1.411.759-1.632-.371-.945-1.07.131-1.597-.503-.179-.209 1.083-1.052.712-1.399-.257-.287-2.566 1.59-2.619 1.639ZM149.721 97.36c-.144-.035 1.913-.556.933-1.225-.838-.575-1.017 1.207-.933 1.225ZM155.192 93.886c-.431 0-.598.933-.52 1.088.077.156.945-1.124.52-1.088ZM157.585 93.61c.302-.127.572-.321.789-.567.55-.61-1.638.616-.789.568ZM158.225 92.523c.09-.186-.652-.102-.484.065a.315.315 0 0 0 .484-.065ZM154.911 60.326c.64.55 1.889-.084 2.685.413-.03 0-1.597.598-1.591.598.389 1.005 5.98.49 5.603-1.059-.047-.185-3.647-.693-3.504-.741a.68.68 0 0 0-.131.813c-.299.221-1.747-.969-2.07-.927-.201.193-.367.42-.49.67l-.598-.449c-.64-.005 0 .605.096.682ZM150.223 61.833c-1.149-.269.598 1.794.873 1.932.532.305.957-.987 1.339-1.136.383-.15-.161.705.21.681.252-.156.526-.272.813-.347.329.515-2.392 1.507-2.027 1.603.687.174 1.429-.275 2.14-.102-.719.154-1.423.379-2.099.67-.065.67 1.196.64 1.507.76a.503.503 0 0 1-.37.316c-.174.234.95.347 1.13.24a17.4 17.4 0 0 0 1.196-1.794c.137-.174 1.226-2.781 1.902-1.71-.18-.288.275 2.272.029 2.224.287.06 2.871.496 2.769-.706.054.598-2.673-1.991-2.625-1.955-.849-.694-2.117-.807-2.721-.957.353.084-.562-1.136-.999-1.28-.634-.209.144 2.255.186 2.058.598-2.536-1.764-.545-1.746-.55a4.382 4.382 0 0 0-.706-.599c.201-.115.416-.204.64-.263-.198.078-4.366.24-1.441.915ZM149.53 63.334c.163.156.344.292.538.407-.251 0-.526-1.298-1.017-1.148a.646.646 0 0 0 .479.741ZM285.394 86.848a1.316 1.316 0 0 0-.945.317c.15.185 2.344.7 2.344.203a2.132 2.132 0 0 0-1.399-.52ZM248.169 110.152c-.114-.754-1.794 2.475-.951 2.009-.149.084.706-.479.682-.353a6.755 6.755 0 0 0-.449-.598c0 .179 4.868.138 4.623-1.979.132 1.148-4.072-.754-3.588-1.083.048-.042-.317 1.884-.317 2.004ZM239.163 120.569c.239.484.467-.676.598-.096 0 .084-.323 1.83.239 1.704.461-.101 1.292-1.764.598-2.063-.203-.066-2.045-.771-1.435.455ZM241.848 120.371c.167-.735 1.196.138 1.196-1.016 0-.598-1.196 0-1.256.107-.197.365-.107 1.627.06.909Z" stroke="gray" stroke-miterlimit="10"/>
  <path d="M243.518 117.872s-3.72.167-3.433 1.471c.036.167 3.134-.293 3.355-.341-.694.161.664.49.825.478.526-.041.126-.765.221-.825.598-.365 2.392.323 2.99-.508.479-.652 1.567-5.137.724-5.621-1.059-.598-1.585 2.798-2.081 3.492-.401.55-2.488.7-2.601 1.854ZM224.315 133.234c.157-.319.293-.649.406-.986-.089-.341-2.003-.084-1.614.652.042.089 1.142 1.584 1.208.334ZM232.232 130.244c.371-.281 1.244-2.17.951-2.601-.981-1.429-1.759 3.241-.951 2.601ZM231.533 135.411c-.521 1.722 5.041 4.025 3.892 5.346 1.848-2.123-2.122-2.99-2.529-3.959-.407-.968 1.429-2.356 0-3.187-.957-.568-1.34 1.728-1.363 1.8ZM230.565 140.805a4.782 4.782 0 0 0-.969 1.387c-.096-.185 1.956-1.477 1.579-2.302a1.274 1.274 0 0 0-.61.915ZM231.964 137.935c.066.347.227 1.064.724.891.496-.174-.772-1.136-.724-.891ZM235.145 140.907c-.18-.245-.628.209-.562.394.065.186.741-.173.562-.394ZM235.893 141.325s-3.289 2.135-2.733 2.081c.556-.053.783-.831 1.352-.43.568.4.221 1.692 1.309 1.692-.813 0 .867-1.74.79-1.435a1.84 1.84 0 0 0-.718-1.908Z" stroke="gray" stroke-miterlimit="10"/>
  <path d="M233.184 139.196a.825.825 0 0 0 .042 1.143c1.417-.311-.497 1.076.598 1.333.939.227 1.005-2.834-.64-2.476ZM255.974 153.423c0 .981-2.518.371-2.554.67-.137 1.423 3.876.047 3.05-.987-.275-.084-.442.018-.496.317ZM256.99 153.327c.676-.197-.526-1.052-.67-1.088.222.048.449 1.148.67 1.088ZM252.655 155.055c.598.042-1.944-2.117-2.53-2.451-1.316-.748-3.869-1.908-5.185-1.83-.382 0-.915 1.196-1.381 1.112-.939-.173-.401-1.196-1.07-1.453-.598-.233-.598-.873-1.609-.724-.173.03-1.154.802-.807.879.191.042 2.176 1.148 2.188.808 0 .155-1.196.149-1.327.167-.55.102 2.069 1.387 2.236 1.465 1.154.562 1.992.443 2.661 1.621.67 1.178-.938 1.112-.669 1.644.496.975 4.144.114 4.532.12 1.065 0 1.047-.036 2.392.628-.035 0 3.272 1.65 2.919 1.064-.162-.233-3.014-3.085-2.35-3.05ZM202.022 141.08c-.491.06-.503 2.912.065 3.14 1.585.645 1.232-3.295-.065-3.14ZM178.036 159.337c0 .03-1.058 1.848-1.238 2.033-.478.479-1.734.772-2.111 1.196-1.04 1.196-.34 1.74-.52 3.511-.131 1.249-1.602 6.296 1.794 4.652 1.944-.945 1.543-6.5 2.273-8.324.095-.239.598.538.598-.473 0-1.01-.574-1.716-.796-2.595ZM181.349 138.67c.251.287.747-.048.777-.161.03-.114-1.064-.162-.777.161ZM262.169 157.34c.065.371.598.598.777.466.179-.131-.849-.849-.777-.466ZM259.765 155.055c0 .096.52.67.64.598.119-.071-.61-.771-.64-.598ZM262.3 156.544c.186-.131-1.046-.873-1.064-.633-.018.239.879.765 1.064.633ZM258.336 154.021c-.042.221.681 1.399.951 1.196.478-.335-.921-1.417-.951-1.196ZM262.964 156.509c-.174.406.502 1.112.598 1.13.096.018-.443-1.447-.598-1.13ZM263.555 158.159c0 .09.473.538.694.371.221-.168-.753-.532-.694-.371ZM239.373 159.343c.167.15 1.01-.036.981-.257-.03-.221-1.238.036-.981.257Z" stroke="gray" stroke-miterlimit="10"/>
  <path d="M257.308 173.617s-.407-2.451-.197-2.356c-1.442-.675-3.541-3.677-4.581-5.262-.783-1.196-1.023-2.47-1.651-3.959-.322-.771-.992-.191-1.196-.694-.334-.735 0-2.272-.723-2.948-.55-.514-.843 3.678-.849 3.696-.766 2.177-.311 2.213-2.273 1.519-.562-.203-2.254-1.071-2.392-1.794-.125-.628 1.352-1.687 1.154-2.081.15.299-3.552-1.053-3.629-1.017-.096.239 0 .425.287.556-1.017-1.196-2.691 3.062-2.189 2.99.239-.03-1.513-.275-1.029 0-1.255-.729-1.064-1.453-2.565-.376-.975.705-.628 1.65-1.196 2.278-.15.167-.251-.855-.484-.7-.808.544-.18 1.244-.909 1.842-.903.736-1.358.784-2.35 1.28-1.304.64-2.231.837-3.361 1.902a.565.565 0 0 1-.108-.25.567.567 0 0 1 .024-.271c0 .269-.323 1.113-.359 1.561-.036.449.431 2.183.305 2.446a.9.9 0 0 1-.454-.425c.091.193.165.393.221.598-.185-.143-.365-.293-.544-.442-.215.538 1.411 3.402 1.567 4.042.077.329.059 3.427-.078 3.14 1.04 2.135 2.547.675 4.27.167a44.512 44.512 0 0 0 3.683-1.226c1.053-.394 3.289-1.196 4.437-1.004.706.113 4.234 2.876 3.427 3.241.245-.108 1.698-1.914 1.794-1.83.454.424-.736 1.573-.795 1.836-.216 1.034 1.196-.814.813-.515.508-.406.269 1.262.221 1.131-.048-.132 1.669 2.206 1.83 2.338.969.837 3.379.06 3.355.048.036.185.036.376 0 .562-.221-.275.801.341 1.046.598-.496-.473 2.835-1.513 2.739-1.405.508-.598.801-3.224 1.196-4.079.245-.699 1.25-4.897 1.543-5.137Z" stroke="gray" stroke-miterlimit="10"/>
  <path d="M244.162 181.056c.185.186.807.132.909-.131.102-.263-1.088-.036-.909.131ZM251.812 186.217a6.15 6.15 0 0 1-1.303-.412c.227-.066.042 3.504 1.949 2.499.963-.532 1.334-2.326-.646-2.087ZM268.19 192.448c.119.036.508-.071.287-.37-.221-.299-.574.287-.287.37ZM275.838 183.06c-.454.831-1.447-1.25-1.537-1.244a.438.438 0 0 0 0 .466c.078-.119-1.501-2.266-1.829-2.266-.036 0 1.136 2.32 1.237 2.607.353 1.029-.807.987-.765 1.549 0-.042.843 2.392.795 2.338.969 1.818 3.032-5.161 2.099-3.45ZM273.082 186.05c-.951-.742-6.668 4.365-4.939 5.525 1.728 1.16 5.74-4.879 4.939-5.525ZM276.838 163.852c.185.078.795-.144.795-.461 0-.316-1.076.371-.795.461ZM275.791 164.857c.287.299.862.275.879-.258.018-.532-1.136-.005-.879.258ZM177.695 59.555c-.284.06-.538.22-.717.448.316.694 3.241-.7 3.253-.897.048-.92-2.362.186-2.536.449ZM181.917 59.95c0-.395-1.196.041-.945.125.251.084.945.27.945-.126ZM176.613 59.358a3.107 3.107 0 0 1 1.285-.276c.15-.406-2.607 0-2.523.228a.824.824 0 0 0 .608.3.833.833 0 0 0 .63-.252ZM177.768 79.127c.658.664 1.058-.299 1.399-.442.467-.186-2.613-.79-1.399.442ZM182.617 71.652a28.29 28.29 0 0 0-2.571 2.87c0 .072 1.304 1.16 1.196 1.197-.114-.233-.072-.407.125-.514-.119 0 3.266 2.834 3.415 1.195.042-.436-1.489-1.375-1.555-1.985-.066-.61.598-1.238.855-1.794a9.362 9.362 0 0 1 1.537-2.027c1.005-.927 8.289-3.983 7.966-4.258-.778-.664-7.272 1.46-8.325 2.117-.568.395-2.625 3.2-2.643 3.2ZM253.851 70.097a2.047 2.047 0 0 0 1.83-.4c.155-1.704-7.361 0-1.83.4ZM248.074 70.959c0-.371-1.196.137-.718.323.269.101.718.047.718-.323ZM216.058 64.333c.454.28 4.509-.395 4.646-1.196.138-.801-2.35-1.029-2.272-.407-.449-3.528-1.788 1.968-2.374 1.603ZM212.558 60.84a2.15 2.15 0 0 0-.52.742c1.136 1.088 3.905 1.926 4.144 0 .204-1.633-3.624-1.184-3.624-.742ZM211.362 60.147c.736.34-.645.377-.729.424-.395.198 1.465.09 1.794-.047.329-.138 2.798-.861 2.344-1.418-1.824-2.296-3.761.88-3.409 1.04ZM225.804 70.516c-.52 1.142.915.341.927.15a.598.598 0 0 0-.927-.15ZM182.438 59.035c.364.406 2.565.448 2.661-.27.029-.245-1.83-.598-1.944-.556.317-.048-.52 1.04-.717.826ZM210.777 58.395c.089-.371-1.406-.21-1.017.143.137.126.927.228 1.017-.143ZM278.267 76.305c.102.077 2.093-.06 1.698-.526-.932-1.119-2.93.472-2.78.55a21.66 21.66 0 0 1 1.082-.024ZM245.18 69.428a3.585 3.585 0 0 0 2.463.496c.598-.114 2.159-1.034 1.567-1.244.281.102 1.106 1.986 1.591.526.406-1.196-.742-.92-1.794-1.261-.09-.03-1.944-.078-1.956-.078.281-.054-3.624.61-1.871 1.56ZM249.881 72.591c1.196-.287-3.098-1.722-2.255-.394.269.43 1.854.496 2.255.394Z" stroke="gray" stroke-miterlimit="10"/>
  <path d="m284.11 84.085.855.197c.221 0-.281-.293-.216-.335-.257.162 1.513-.448 1.107-.598.03 0-3.469-2.08-3.517-1.357.054-.808.353 1.303.234.915-.646-2.135-5.012-4.473-7.457-5-1.358-.293-3.672-.245-4.497.138.065-.036.556 1.046-.114 1.46-.311.19-1.794-1.113-1.447-1.275.347-.161.783.569.873-.125.066-.562-2.864.227-3.289.287a16.19 16.19 0 0 1-2.129-.162c-.927-.09-.43.73-.813.915.329-.155-1.196-1.47-1.196-1.459-1.334-1.13-1.142-1.34-3.624-1.53-.76-.06-4.473 0-4.85-1.13-.108-.336 1.13.065.801-.485-.729-1.196-3.689.173-3.725.299a5.31 5.31 0 0 0 .598-.407 3.517 3.517 0 0 0-.855-.287c-.257-.419 1.196 0 1.196-.221.215-1.28-6.178-.526-5.55.347a.664.664 0 0 0 .598 0c-.406-.228.072 1.548.03 1.01 0 .102-1.453-.167-1.692 0 .124.125.272.223.436.287 0 0-4.036-.765-4.311-.83-.275-.067-.736 1.685-1.346 1.65-.909-.054-1.602-2.219-2.063-2.19.254.126.537.181.82.162 1.154-.675-2.877-3.067-3.738-2.888-.628.132-.759 1.477-.987 1.513-.341.06-3.588-.078-3.677-.455-.06-.203.436-.454.227-.508-1.675-.436-2.99.347-4.031.449-.275 0 .054-.975-.352-1.047-.198-.036-2.925 0-2.68.305.15.054.305.096.461.138.042.359-3.415.909-3.486 1.1.741-1.908 6.332-2.392 5.878-4.407-.138-.598.233-1.095-1.005-1.687-1.578-.741-2.768.443-4.186.09.151-.28.336-.542.55-.777 0 .155-1.979-.383-2.224-.281.167-.072 1.363-.27 1.1-.682-.903-1.376-2.99.377-3.743.927.388-.281-1.453 2.159-1.519 1.01.151.158.317.3.496.425.084-.263-2.117.227-2.23.185.065-.161.137-.317.215-.472-.833.09-1.657.248-2.464.472.107.17.273.293.467.347-.036-.28-3.684.969-3.953 1.095-.861.4-.419.364-.79.86-.215 0-.436 0-.651-.041-.078.084.747.472.753.544-.198.03-.398.044-.598.042 0 0 .909.538.496.915-.245.221-1.662.101-2.069.185-5.669 1.196 0 1.579-1.1 3.08-.436.598-3.271-1.872-4.102-1.047-.072.072.915.76.693.82-.43.12-1.088-.509-1.399.09-.245.478 2.003 1.237 1.83 1.447 0 0-2.392-.497-2.392-.533-.472-.538.813-2.075-.191-2.392-1.005-.317-1.597 4.515-1.196 5.065 1.082 1.471 3.103.694 3.785 2.936.359 1.197-2.075-1.662-1.017-1.195-.723-.312-.49-.94-1.447-.772-1.363.233-.066 1.01-.598 1.657-.598.759-1.405 1.86-2.236 2.045-.228.053-2.267-.054-2.081-.598-.03.072 2.691-.275 3.145-1.794.287-.963-.191-1.734-.401-2.835-.059-.317.09-3.636.114-3.588-1.609-2.649-4.288.37-4.425 2.249.036-.52-.06 1.95-.18 1.638 0 0 2.907 1.866 1.196 2.141-1.196.203-5.98-4.019-7.457-3.175.389-.222 2.596 3.79.467 2.93-.837-.341.03-.419-1.896-.245 0 0-3.079.514-2.84.323.239-.192.664-.39.598-.868 0 .306-4.025 1.621-4.587 1.866-.783.341-.598 1.794-2.045.831-1.447-.962.723-.92.903-1.13.652-.783-2.655-1.632-2.536-1.136 0-.138.778 2.482.156 2.027 1.549 1.118-.245 1.01-.347 1.089-1.794 1.435-1.794-.114-2.147 2.451-.06.431-1.483-.436-1.704-.263-.293-.185-.598-.376-.867-.568-.526.245-.598.562-.239.957.867-.49 1.148 1.884-.365.688-.371-.293-2.422-4.784-3.259-4.39.598-.287 9.089 3.756 6.488-.903-.496-.897-5.789-3.133-6.237-2.571.201-.017.394-.085.562-.197-.072-.598-1.369 0-1.513-.138-.353-.389-1.196.485-1.453-.472.048.185 1.375-.174 1.411-.36.281-1.548-2.44-.166-2.105-.155-.269 0 .144-.837.12-.879-.55-1.058-1.017.897-1.322.897-.107 0 .072-.927-.119-.801-.365.389-.724.783-1.089 1.196-.394.078.772-1.28.766-1.31-.114-.705-1.322.646-1.316.646.377-.323-1.519 1.077-.963.91-.729.22.192-1.645.281-1.298.048.161-1.106.131-1.088.406.164.163.274.371.317.598a2.458 2.458 0 0 0-.861-.03c.097.18.248.326.43.419a3.219 3.219 0 0 1-1.01-.347c.048 0 .323 1.035 0 .837-.562-.37-.443-.968-1.196-.628-.06 0-1.639 1.196-1.609 1.376.03.18.772-.156.652.472 0 0-1.334 0-1.286.06.054-.233.114-.46.186-.694a28.716 28.716 0 0 1-2.273 2.016c.598 0 1.932-1.472 2.566-.886 0 0-.096.646-.108.652-1.794.718-2.296 3.63-3.953 4.354-.143.066.676.598.401.717-.945.365-.951.73-1.734 1.376-.06.048-.598-.688-.634-.227-.09.944-.556.215-1.029.92a.655.655 0 0 0 .407.335c-.502-1.112-1.794 1.794-1.746 1.567-.287 1.758.861 1.196.951 1.477.257.903-1.047.478-.987.43-.064.26-.108.524-.132.79 0 .329.7-.359.832 0 .089.24-.437.49-.509.598-.885 1.352 2.99.305 2.53.407.598-.138.951-1.124 1.309-1.334.216-.131 1.89 5.095 2.058 5.155.789.299 2.433-2.1 2.697-2.177-.108.275-.246.341-.419.198.155-1.406 1.836-2.518 1.794-3.589 0-1.399-1.585-.735-1.07-2.792.293-1.196 1.196-1.298 1.794-2.141.484-.688 1.279-2.673 2.194-2.99 4.252-1.405-.987 3.552-1.118 3.803-.329.598-.09 3.026.203 3.32 1.196 1.195 3.439.31 4.736-.043.536.063 1.044.27 1.471.598.288.335-3.647.766-3.474.682-2.523 1.196-.09 1.16-.723 1.89-.754 1.196-.909.287-1.196.544-.102.09-1.974.227-1.28 1.626.676 1.52-.664 1.89-1.507 2.195.072 0-2.201.221-2.745.293-1.196.144-.562.311-1.136-.514-.245-.347-1.633.957-1.89.765a1.074 1.074 0 0 1 0-.568c-.329-.09-1.327 0-1.196-.867 0-.155.867.46.939.078.132-.724-.413-.245-.598-.598-.102-.162.933-1.908.395-2.5-.365-.4-.969.963-.969.963-.389.389-.766-.305-.825 1.316 0 .52.998 1.704.741 2.212-.191.389-2.362.79-2.769 1.053-.728.628-1.41 1.31-2.039 2.039-.417.5-.88.96-1.381 1.375-.598.281-1.902.12-2.099.234-.449.251.413.932 0 1.273-.413.341-1.597-.717-1.872-.197-.753 1.393.371.335 1.035 1.393.909 1.453 2.32 3.188.209 4.258-.981.502-3.385-.789-4.186-.359-1.501.819-.329.748-.652 2.141-.658 2.841-.598 4.031 1.74 4.784 1.633.532 3.361.197 4.719-1.621 1.076-1.447 1.722-3.958 3.366-4.981-.37.233 3.439-.43 3.122-.442 1.632.083.598-.15 2.009.932-.042-.035 5.382 4.94 3.851 4.94.867 0 .598-2.195.658-2.249a1.075 1.075 0 0 1 .975.329c-.598-.179-5.98-5.98-3.349-5.836.359 0 3.187 3.217 4.09 3.725-.885-.52 2.362 4.946 2.362 3.672 0-1.124-1.465 2.787.449 1.734a2.52 2.52 0 0 0-.132-.843.982.982 0 0 0 .527 0c.281-.347-.598-.299-.407-.478.191-.18 1.094.335.963-.395-.156-.885-.634 0-.963-.353.108.12-.138-1.794-.293-1.698.303.087.613.147.927.179.508-.227 3.223-.209 3.881-.867-.174.174-1.088-1.453-1.029-1.794.356-.73.794-1.418 1.304-2.051.311-.442.454-1.459 1.1-1.758.407-.191 2.225-.12 2.326.431-.307.248-.65.449-1.016.598-.036-.192.825 1.052.801 1.028-.024-.024 2.338-.598 2.392-.67.138-.239-2.129-.107-1.04-1.273.257-.269 2.804-1.196 2.99-.832.042.09-1.794 1.794-1.729 2.117.24 1.143 3.738 1.764 3.624 2.99-.155 1.687-2.164 1.095-3.342 1.071-.503 0-.903-.568-1.394-.598-1.608-.102-2.553.269-4.072.693-1.95.545-4.108 1.555-1.848 3.858 1.058 1.082 2.093.598 3.289.645.395 0 2.799-.52 3.122-.311.322.21-.7 3.056-.826 3.361l.401.186c0 .077 0 .167-.03.245 0-.078 0-.168.03-.245l-.389-.18c-1.196 2.805-3.468 2.231-6.428 1.675-.784-.144-1.417-.521-2.201-.628-1.268-.174-.598-1.196-2.284-.329-.556.293-.401 1.417-.461 1.441-.998.395-5.304-1.07-6.416-2.213-1.112-1.142.771-2.117-.072-3.307-.514-.723-4.019-.071-5.011.036a19.75 19.75 0 0 0-3.588.945c-1.226.347-2.219.245-3.361.544-.969.257-.598-.149-1.429.305.897-.478-1.932 2.105-1.585 1.549-.43.688-.765 1.447-1.196 2.141-.311.538-.227 1.244-.741 2.015-.335.508-1.017.598-1.394.981a13.521 13.521 0 0 0-2.481 3.977c-.658 1.668-.27 1.937-.323 3.396-.054 1.358-.479 2.805-.437 4.144.048 1.471.712 2.063 1.429 3.224 1.615 2.625 3.529 5.053 6.626 5.382a14.019 14.019 0 0 0 4.85-.676c.203-.054 2.278-1.196 2.494-.939.569.345 1.156.66 1.758.945.275.131.167.795.52.957.353.161.747-.377 1.04-.192 1.645 1.035 1.011.138 1.848 2.033.162.419-.323 1.759-.317 1.968.036 1.704.676 1.955 1.669 3.684.819 1.417 1.86 4.186 1.638 5.83-.239 1.74-1.513 3.247-1.59 5.155-.132 1.28 1.692 4.293 1.973 5.633.508 2.392 1.244 3.857 2.045 6.129 1.089 3.092.156 3.762 3.588 3.331 3.337-.406 5.233-1.453 6.979-4.784.272-.869.472-1.759.598-2.661 1.196-1.722 1.901-.783 2.23-3.032.234-1.596-.765-1.59.102-3.121.694-1.232 2.601-1.417 3.343-2.524 1.531-2.302-.06-4.844-.496-7.176-.473-2.493.801-4.293 2.517-6.147.706-.772 9.155-9.676 6.53-10.645-1.794-.675-3.821 1.914-5.89.598M188.687 59.16c.687-.969-2.99-.436-2.165.293.394.347 1.848.15 2.165-.293ZM184.829 59.627c-.347.15-.694.275-1.046.394-.461.514 2.332.43 2.511-.167.114-.365-1.513-.323-1.465-.227ZM184.716 58.293a5.983 5.983 0 0 0 1.4-.544c-.293-.4-2.351.383-2.392.245a1.19 1.19 0 0 0 .992.299Z" stroke="gray" stroke-miterlimit="10"/>
  <path d="M248.845 101.839c.478 1.196-.951 4.611-.203 5.568-.509-.652 1.136.066 1.148.072.012.005-.658-1.968-.598-2.052.598-1.333 1.196-.711 1.399-.974.359-.485-1.752-5.86-1.453-6.052-.849.544-.55 2.816-.293 3.438ZM194.69 72.794c.421.037.842-.068 1.196-.298.467-.94-2.212.125-1.196.299ZM201.867 72.89c-.048-.394-.873.114-.598.275.275.162.64.12.598-.275ZM190.336 59.035l.682-.36c.221-.759-2.033.18-1.949.288.399.178.85.203 1.267.072ZM265.559 166.842c.048.299 1.944 1.884 2.213 1.686.269-.197-2.261-1.967-2.213-1.686ZM80.91 127.541c-.425-.801.095 1.585.287 1.143a8.302 8.302 0 0 1-.288-1.143ZM93.389 140.656c.562.125.748-.066.544-.563-.4-.37-.73.377-.544.563ZM222.574 151.719c0-.222-.598-.114-.4.197.197.311.4.024.4-.197ZM227.239 156.491c.294.081.604.092.903.03.401-.335-2.171-.778-2.099-.742a.688.688 0 0 1 .765-.598c-.669.448-6.524-1.519-6.135-.132.149.586 6.303 1.836 6.566 1.442ZM234.176 156.52c.598 0 .664-.077.246-.251-.299-.047-3.098.252-3.044.371.365.795 2.29-.09 2.798-.12ZM229.632 156.222c-.215.532-.741-.186-1.016.179-.563.753 1.931.735 2.146.215.132-.299-1.022-.64-1.13-.394ZM223.006 148.753c1.704 1.74.873 3.241 3.684 3.39 2.338.12 2.469-1.74 3.988-3.642-.101.126-1.004-2.009-.992-2.206.047-.909 1.124-.778 1.309-1.382.186-.604-2.17-1.034-2.296-1.004-.76.167-.377 1.507-1.68 1.405-.042 0-2.291 2.577-2.297 2.595.168-.4-2.9-.37-1.716.844ZM214.083 148.083c-.048.245.203.963.473.67.269-.294-.419-.915-.473-.67ZM215.202 150.212c-.048.119.204.598.359.466.156-.131-.221-.861-.359-.466Z" stroke="gray" stroke-miterlimit="10"/>
  <path d="M220.817 152.956c-.066-1.04.52-.765.514-1.435 0-.293-.951-1.196-.969-.64.183.18.343.381.479.598-.198.497-2.512-3.031-2.631-3.163-.539-.598-5.215-4.186-5.424-3.72-.15.347 3.588 5.729 4.084 6.411.496.682 4.162 5.25 3.947 1.949ZM232.167 157.872c0-.67-1.333-.311-1.399-.419-.066-.107 1.399 1.017 1.399.419ZM230.654 151.473c-.108.198 1.423 2.434.789 2.697.598-.245.066-2.726.652-2.439 1.112.544-.12 2.081 1.37.92-.79.598.041-4.09.645-2.762.078.179-3.366 1.082-2.505-.323.939-1.537 3.032.221 3.857-1.483-.497 1.028-2.548-.227-3.229.233-1.065.718-.987 2.105-1.579 3.157ZM237.764 152.042a11.09 11.09 0 0 0 2.009.544c.837 0-2.416-1.89-2.009-.544ZM237.878 148.154c0-1.662-1.382 1.765-.114 1.513.837-.167.114-1.542.114-1.513ZM235.336 157.43c.389-.515 1.692-.598 1.866-1.083.095-.287-2.004.64-2.201.664-.305.048-1.196.7-.598 1.017a1.034 1.034 0 0 0 .933-.598ZM236.21 152.089c.096.395.747.598.927.275.179-.323-1.035-.735-.927-.275ZM147.215 112.603c-.209.389.263 2.614 1.131 1.519.711-.903-.587-2.547-1.131-1.519ZM152.131 115.259c.161-.036-1.734-.168-1.567.334.488.45 1.051.81 1.663 1.065.144-.459.315-.908.514-1.346a.478.478 0 0 0-.61-.053Z" stroke="gray" stroke-miterlimit="10"/>
  <path d="M17.342 272.712h260.812" stroke="#263238" stroke-linecap="round" stroke-linejoin="round"/>
  <path d="M43.654 251.698s-15.84-27.819-12.187-34.893c3.654-7.074 13 5.651 13 5.651s-8.126-25.935-3.653-37.255c4.473-11.321 12.181 0 12.558 8.019.377 8.019-1.62 21.689-1.62 21.689s3.246-28.291 10.96-19.805c7.715 8.485-9.747 36.782-9.747 36.782s11.78-6.578 11.362 1.89c-.418 8.468-14.214 16.033-14.214 16.033" fill="#fff"/>
  <path d="M43.792 246.514s-14.663-13.677-7.523-19.806c7.14-6.13 10.901 6.578 10.901 6.578s-7.893-39.139 4.892-40.557c12.785-1.417 3.379 33.955 3.379 33.955s10.901-15.094 10.166-2.829c-.736 12.265-16.93 22.659-16.93 22.659M50.992 244.02l-9.909-10.734M48.929 244.851l2.679-31.377M48.509 242.579l8.88-11.769" stroke="#263238" stroke-miterlimit="10"/>
  <path d="M61.349 240.39h-27.4l2.738 32.322H58.61l2.739-32.322Z" fill="#263238"/>
  <path d="m238.005 76.412-31.001 1.926a6.843 6.843 0 0 0-6.416 6.919l.155 12.456-9.012.957 9.084 4.688a6.856 6.856 0 0 0 2.082 4.821 6.862 6.862 0 0 0 2.25 1.45c.839.33 1.734.491 2.635.475l30.097-.55a6.846 6.846 0 0 0 6.71-6.578l.693-19.471a6.833 6.833 0 0 0-7.277-7.093Z" fill="#fff" stroke="#263238" stroke-miterlimit="10"/>
  <path d="M231.726 79.63h-20.302v12.785h20.302V79.63Z" fill="#8C8C8C" stroke="#263238" stroke-linecap="round" stroke-linejoin="round"/>
  <path d="M231.726 79.63h-11.53v12.785h11.53V79.63Z" fill="#696969" stroke="#263238" stroke-linecap="round" stroke-linejoin="round"/>
  <path d="M225.709 79.63h-8.271v12.785h8.271V79.63Z" fill="#fff" stroke="#263238" stroke-linecap="round" stroke-linejoin="round"/>
  <path d="M211.274 102.76v-3.247c0-1.56 1.107-2.601 2.775-2.601 1.669 0 2.775 1.016 2.775 2.553 0 .072-.06.12-.15.132l-.532.036c-.096 0-.155 0-.155-.072v-.072a1.935 1.935 0 0 0-1.938-1.937 1.936 1.936 0 0 0-1.937 1.937v3.307a1.938 1.938 0 1 0 3.875 0 .116.116 0 0 1 .009-.058.13.13 0 0 1 .087-.074.13.13 0 0 1 .059.001h.532c.09 0 .15 0 .15.059v.06c0 1.549-1.106 2.578-2.775 2.578-1.668 0-2.775-1.029-2.775-2.602ZM218.409 97.612a.635.635 0 0 1 .364-.62.641.641 0 0 1 .635 1.106.64.64 0 0 1-.36.112.594.594 0 0 1-.59-.36.579.579 0 0 1-.049-.238Zm.227 7.51v-5.669a.137.137 0 0 1 .008-.06.133.133 0 0 1 .031-.051.155.155 0 0 1 .051-.034.141.141 0 0 1 .059-.01h.533a.145.145 0 0 1 .147.094c.007.02.01.04.008.061v5.669a.146.146 0 0 1-.041.114.142.142 0 0 1-.114.042h-.533a.15.15 0 0 1-.059-.01.157.157 0 0 1-.051-.034.135.135 0 0 1-.031-.051.141.141 0 0 1-.008-.061ZM225.734 101.188v3.934a.15.15 0 0 1-.04.112.143.143 0 0 1-.11.044h-.532a.146.146 0 0 1-.062-.008.146.146 0 0 1-.052-.034.142.142 0 0 1-.042-.114v-.424c0-.048-.036-.072-.071 0a2.505 2.505 0 0 1-1.842.7c-1.005 0-1.95-.485-1.95-1.729 0-1.244.897-1.913 2.434-1.913h1.381c.009.001.017 0 .024-.003a.057.057 0 0 0 .034-.033.065.065 0 0 0 .002-.024v-.437a1.197 1.197 0 0 0-1.381-1.297c-.748 0-1.232.305-1.364.801a.137.137 0 0 1-.173.12l-.598-.072c-.096 0-.155-.048-.144-.126.156-.867 1.029-1.459 2.249-1.459 1.447-.024 2.237.795 2.237 1.962Zm-.838 2.176v-.909a.065.065 0 0 0-.002-.024.063.063 0 0 0-.013-.02.057.057 0 0 0-.021-.013.044.044 0 0 0-.023-.002h-1.238c-1.029 0-1.729.436-1.729 1.196 0 .759.598 1.046 1.298 1.046.879.012 1.728-.448 1.728-1.274ZM227.45 103.729a5.123 5.123 0 0 1-.168-1.453 5.38 5.38 0 0 1 .156-1.441 2.45 2.45 0 0 1 4.616 0c.124.474.181.963.168 1.453.014.49-.042.979-.168 1.453a2.428 2.428 0 0 1-2.302 1.645 2.436 2.436 0 0 1-2.302-1.645v-.012Zm3.827-.245c.075-.394.107-.795.096-1.196a5 5 0 0 0-.096-1.196 1.587 1.587 0 0 0-1.525-1.153 1.585 1.585 0 0 0-1.525 1.153 7.498 7.498 0 0 0 0 2.392 1.585 1.585 0 0 0 3.05 0Z" fill="#263238"/>
  <path d="m108.16 91.74-12.259-3.314 2.769-18.173a5.777 5.777 0 0 0-6.178-6.626l-26.03 2.153a5.765 5.765 0 0 0-5.28 6.213l1.913 23.837a5.77 5.77 0 0 0 5.525 5.304l20.033.789a5.756 5.756 0 0 0 5.932-4.892l.52-3.402 13.055-1.89Z" fill="#fff" stroke="#263238" stroke-miterlimit="10"/>
  <path d="M89.946 68.71H69.644v12.786h20.302V68.71Z" fill="#8C8C8C" stroke="#263238" stroke-linecap="round" stroke-linejoin="round"/>
  <path d="M89.946 71.808H69.644v6.596h20.302v-6.596Z" fill="#fff" stroke="#263238" stroke-linecap="round" stroke-linejoin="round"/>
  <path d="M74.36 86.112h.533a.143.143 0 0 1 .15.156v7.965a.143.143 0 0 1-.15.155h-.532a.145.145 0 0 1-.114-.041.144.144 0 0 1-.042-.114v-3.588a.053.053 0 0 0-.015-.044.053.053 0 0 0-.044-.015h-3.744a.053.053 0 0 0-.044.014.053.053 0 0 0-.015.044v3.589a.145.145 0 0 1-.042.114.144.144 0 0 1-.114.041h-.532a.138.138 0 0 1-.15-.155v-7.99a.136.136 0 0 1 .089-.147c.02-.007.04-.01.06-.008h.533a.143.143 0 0 1 .155.156v3.534a.053.053 0 0 0 .036.057.054.054 0 0 0 .024.003h3.75a.054.054 0 0 0 .044-.016.053.053 0 0 0 .015-.044v-3.534a.144.144 0 0 1 .15-.132ZM77.04 92.816a5.18 5.18 0 0 1-.162-1.454c-.014-.484.036-.97.15-1.44a2.457 2.457 0 0 1 4.622 0c.124.473.18.963.168 1.452.013.49-.043.98-.168 1.454a2.44 2.44 0 0 1-4.61 0v-.012Zm3.827-.252a5.41 5.41 0 0 0 .096-1.196 5.07 5.07 0 0 0-.096-1.196 1.579 1.579 0 0 0-3.044 0c-.078.394-.11.795-.095 1.196a5.08 5.08 0 0 0 .095 1.196 1.58 1.58 0 0 0 3.044 0ZM83.517 94.209v-7.965a.143.143 0 0 1 .156-.156h.532a.144.144 0 0 1 .15.156v7.965a.143.143 0 0 1-.15.155h-.532a.143.143 0 0 1-.156-.155ZM90.562 90.298v3.935a.142.142 0 0 1-.042.114.144.144 0 0 1-.114.041h-.532a.143.143 0 0 1-.155-.155v-.425c0-.048-.036-.072-.072 0a2.488 2.488 0 0 1-1.842.694c-1.005 0-1.95-.484-1.95-1.722s.897-1.914 2.434-1.914h1.37a.053.053 0 0 0 .044-.015.054.054 0 0 0 .016-.045v-.508a1.195 1.195 0 0 0-1.382-1.304c-.741 0-1.226.311-1.357.808a.139.139 0 0 1-.063.099.137.137 0 0 1-.117.014l-.598-.066c-.09 0-.15-.047-.137-.131.15-.861 1.028-1.453 2.242-1.453 1.46.024 2.255.837 2.255 2.033Zm-.861 2.147v-.91a.053.053 0 0 0-.016-.044.053.053 0 0 0-.044-.015h-1.238c-1.029 0-1.728.437-1.728 1.196 0 .76.598 1.053 1.303 1.053.891.012 1.723-.437 1.723-1.28Z" fill="#263238"/>
  <path d="M247.746 122.991h-15.949a12.16 12.16 0 0 0-12.157 12.157v4.491l-7.948-.305 7.972 5.203v3.366a12.163 12.163 0 0 0 12.157 12.164h15.949a12.165 12.165 0 0 0 12.157-12.164v-12.755a12.148 12.148 0 0 0-3.569-8.605 12.181 12.181 0 0 0-3.952-2.634 12.174 12.174 0 0 0-4.66-.918Z" fill="#fff" stroke="#263238" stroke-miterlimit="10"/>
  <path d="M233.489 145.673h.532c.02-.001.04.002.059.009a.163.163 0 0 1 .049.033.143.143 0 0 1 .042.107v7.966a.137.137 0 0 1-.008.06.13.13 0 0 1-.032.051.131.131 0 0 1-.05.034.136.136 0 0 1-.06.01h-.532a.14.14 0 0 1-.061-.008.14.14 0 0 1-.094-.147V150.2a.048.048 0 0 0-.003-.024.046.046 0 0 0-.013-.021.058.058 0 0 0-.02-.013.065.065 0 0 0-.024-.002h-3.744a.058.058 0 0 0-.023.002.074.074 0 0 0-.021.013.057.057 0 0 0-.013.021.063.063 0 0 0-.002.024v3.588a.14.14 0 0 1-.008.061.144.144 0 0 1-.148.094h-.532a.146.146 0 0 1-.114-.041.14.14 0 0 1-.033-.053.14.14 0 0 1-.009-.061v-7.966a.154.154 0 0 1 .044-.11.139.139 0 0 1 .052-.031.137.137 0 0 1 .06-.008h.532a.135.135 0 0 1 .06.008c.02.006.037.017.052.031a.175.175 0 0 1 .034.051.15.15 0 0 1 .01.059v3.534a.062.062 0 0 0 .002.024.057.057 0 0 0 .013.021c.006.006.013.01.021.013a.058.058 0 0 0 .023.002h3.744c.008.001.016 0 .024-.002a.046.046 0 0 0 .02-.013.046.046 0 0 0 .013-.021c.003-.007.004-.015.003-.024v-3.534a.143.143 0 0 1 .155-.149ZM240.032 152.43a.136.136 0 0 1 .084-.085c.02-.007.04-.009.061-.007.021.002.04.009.058.02l.341.192c.084.048.119.119.072.197a2.312 2.312 0 0 1-2.195 1.292 2.183 2.183 0 0 1-2.213-1.477 4.614 4.614 0 0 1-.227-1.633 5.425 5.425 0 0 1 .108-1.369 2.238 2.238 0 0 1 2.284-1.693 2.209 2.209 0 0 1 2.362 2.034c.063.395.087.796.072 1.196a.135.135 0 0 1-.042.112.156.156 0 0 1-.052.032.144.144 0 0 1-.062.005h-3.779a.05.05 0 0 0-.024.003.039.039 0 0 0-.02.013.046.046 0 0 0-.013.02 3.82 3.82 0 0 0 .069.891c.087.351.296.66.589.872.294.211.653.311 1.014.282a1.62 1.62 0 0 0 1.513-.897Zm-3.092-2.721a3.338 3.338 0 0 0-.096.808.05.05 0 0 0 .003.024.063.063 0 0 0 .013.02c.005.006.012.01.02.013a.065.065 0 0 0 .024.002h3.038a.054.054 0 0 0 .022-.004.06.06 0 0 0 .018-.013.082.082 0 0 0 .012-.02 6.042 6.042 0 0 0-.064-.782 1.476 1.476 0 0 0-1.525-1.154 1.401 1.401 0 0 0-1.465 1.106ZM242.502 153.788v-7.966a.154.154 0 0 1 .043-.11.139.139 0 0 1 .052-.031.137.137 0 0 1 .06-.008h.532a.129.129 0 0 1 .11.04.138.138 0 0 1 .04.109v7.966a.128.128 0 0 1-.006.061.135.135 0 0 1-.031.053.14.14 0 0 1-.113.041h-.532a.146.146 0 0 1-.114-.041.14.14 0 0 1-.033-.053.126.126 0 0 1-.008-.061ZM245.247 153.788v-7.966a.133.133 0 0 1 .042-.107.151.151 0 0 1 .049-.033.141.141 0 0 1 .058-.009h.532a.135.135 0 0 1 .06.008c.02.006.037.017.052.031a.157.157 0 0 1 .034.051.15.15 0 0 1 .01.059v7.966a.142.142 0 0 1-.094.147.146.146 0 0 1-.062.008h-.532a.138.138 0 0 1-.11-.044.142.142 0 0 1-.032-.051.152.152 0 0 1-.007-.06ZM247.961 152.394a5.087 5.087 0 0 1-.168-1.453 5.38 5.38 0 0 1 .156-1.441 2.455 2.455 0 0 1 3.723-1.176c.413.29.727.701.899 1.176.122.474.176.964.162 1.453.016.49-.039.979-.162 1.453a2.44 2.44 0 0 1-4.61 0v-.012Zm3.827-.245c.075-.394.107-.795.095-1.196a5.055 5.055 0 0 0-.095-1.196 1.578 1.578 0 0 0-3.044 0c-.078.394-.11.795-.096 1.196-.014.401.018.803.096 1.196a1.577 1.577 0 0 0 2.478.836c.275-.209.474-.503.566-.836Z" fill="#263238"/>
  <path d="M250.019 128.295h-20.302v12.785h20.302v-12.785Z" fill="#fff" stroke="#263238" stroke-linecap="round" stroke-linejoin="round"/>
  <path d="M250.126 128.295h-20.302v1.238h20.302v-1.238ZM250.126 130.232h-20.302v1.238h20.302v-1.238ZM250.126 132.164h-20.302v1.238h20.302v-1.238ZM250.126 134.102h-20.302v1.237h20.302v-1.237ZM250.126 136.039h-20.302v1.238h20.302v-1.238ZM250.126 137.977h-20.302v1.237h20.302v-1.237ZM250.126 139.914h-20.302v1.238h20.302v-1.238Z" fill="#263238"/>
  <path d="M239.56 128.295h-9.843v6.811h9.843v-6.811Z" fill="#263238"/>
  <path d="m230.099 128.869.09.191.191.03-.137.15.03.209-.174-.096-.167.096.03-.209-.138-.15.192-.03.083-.191ZM230.099 130.131l.09.191.191.03-.137.15.03.209-.174-.102-.167.102.03-.209-.138-.15.192-.03.083-.191ZM230.099 131.387l.09.191.191.03-.137.149.03.21-.174-.102-.167.102.03-.21-.138-.149.192-.03.083-.191ZM230.099 132.642l.09.192.191.036-.137.143.03.209-.174-.095-.167.095.03-.209-.138-.143.192-.036.083-.192ZM230.099 133.904l.09.192.191.029-.137.15.03.209-.174-.101-.167.101.03-.209-.138-.15.192-.029.083-.192ZM231.002 129.605l.083.191.192.03-.138.149.03.21-.167-.096-.174.096.03-.21-.137-.149.191-.03.09-.191ZM231.002 130.866l.083.192.192.03-.138.149.03.209-.167-.101-.174.101.03-.209-.137-.149.191-.03.09-.192ZM231.002 132.122l.083.192.192.029-.138.15.03.209-.167-.095-.174.095.03-.209-.137-.15.191-.029.09-.192ZM231.002 133.378l.083.191.192.03-.138.15.03.209-.167-.096-.174.096.03-.209-.137-.15.191-.03.09-.191ZM231.898 128.869l.09.191.191.03-.143.15.036.209-.174-.096-.173.096.036-.209-.144-.15.198-.03.083-.191ZM231.898 130.131l.09.191.191.03-.143.15.036.209-.174-.102-.173.102.036-.209-.144-.15.198-.03.083-.191ZM231.898 131.387l.09.191.191.03-.143.149.036.21-.174-.102-.173.102.036-.21-.144-.149.198-.03.083-.191ZM231.898 132.642l.09.192.191.036-.143.143.036.209-.174-.095-.173.095.036-.209-.144-.143.198-.036.083-.192ZM231.898 133.904l.09.192.191.029-.143.15.036.209-.174-.101-.173.101.036-.209-.144-.15.198-.029.083-.192ZM232.802 129.605l.083.191.192.03-.138.149.03.21-.167-.096-.174.096.03-.21-.137-.149.191-.03.09-.191ZM232.802 130.866l.083.192.192.03-.138.149.03.209-.167-.101-.174.101.03-.209-.137-.149.191-.03.09-.192ZM232.802 132.122l.083.192.192.029-.138.15.03.209-.167-.095-.174.095.03-.209-.137-.15.191-.029.09-.192ZM232.802 133.378l.083.191.192.03-.138.15.03.209-.167-.096-.174.096.03-.209-.137-.15.191-.03.09-.191ZM233.699 128.869l.084.191.191.03-.137.15.035.209-.173-.096-.173.096.03-.209-.138-.15.191-.03.09-.191ZM233.699 130.131l.084.191.191.03-.137.15.035.209-.173-.102-.173.102.03-.209-.138-.15.191-.03.09-.191ZM233.699 131.387l.084.191.191.03-.137.149.035.21-.173-.102-.173.102.03-.21-.138-.149.191-.03.09-.191ZM233.699 132.642l.084.192.191.036-.137.143.035.209-.173-.095-.173.095.03-.209-.138-.143.191-.036.09-.192ZM233.699 133.904l.084.192.191.029-.137.15.035.209-.173-.101-.173.101.03-.209-.138-.15.191-.029.09-.192ZM234.595 129.605l.09.191.192.03-.138.149.03.21-.174-.096-.173.096.036-.21-.138-.149.192-.03.083-.191ZM234.595 130.866l.09.192.192.03-.138.149.03.209-.174-.101-.173.101.036-.209-.138-.149.192-.03.083-.192ZM234.595 132.122l.09.192.192.029-.138.15.03.209-.174-.095-.173.095.036-.209-.138-.15.192-.029.083-.192ZM234.595 133.378l.09.191.192.03-.138.15.03.209-.174-.096-.173.096.036-.209-.138-.15.192-.03.083-.191ZM235.499 128.869l.084.191.191.03-.138.15.03.209-.167-.096-.174.096.03-.209-.137-.15.191-.03.09-.191ZM235.499 130.131l.084.191.191.03-.138.15.03.209-.167-.102-.174.102.03-.209-.137-.15.191-.03.09-.191ZM235.499 131.387l.084.191.191.03-.138.149.03.21-.167-.102-.174.102.03-.21-.137-.149.191-.03.09-.191ZM235.499 132.642l.084.192.191.036-.138.143.03.209-.167-.095-.174.095.03-.209-.137-.143.191-.036.09-.192ZM235.499 133.904l.084.192.191.029-.138.15.03.209-.167-.101-.174.101.03-.209-.137-.15.191-.029.09-.192ZM236.395 129.605l.084.191.197.03-.143.149.036.21-.174-.096-.173.096.036-.21-.144-.149.198-.03.083-.191ZM236.395 130.866l.084.192.197.03-.143.149.036.209-.174-.101-.173.101.036-.209-.144-.149.198-.03.083-.192ZM236.395 132.122l.084.192.197.029-.143.15.036.209-.174-.095-.173.095.036-.209-.144-.15.198-.029.083-.192ZM236.395 133.378l.084.191.197.03-.143.15.036.209-.174-.096-.173.096.036-.209-.144-.15.198-.03.083-.191ZM237.293 128.869l.089.191.192.03-.138.15.03.209-.173-.096-.168.096.03-.209-.137-.15.191-.03.084-.191ZM237.293 130.131l.089.191.192.03-.138.15.03.209-.173-.102-.168.102.03-.209-.137-.15.191-.03.084-.191ZM237.293 131.387l.089.191.192.03-.138.149.03.21-.173-.102-.168.102.03-.21-.137-.149.191-.03.084-.191ZM237.293 132.642l.089.192.192.036-.138.143.03.209-.173-.095-.168.095.03-.209-.137-.143.191-.036.084-.192ZM237.293 133.904l.089.192.192.029-.138.15.03.209-.173-.101-.168.101.03-.209-.137-.15.191-.029.084-.192ZM238.196 129.605l.084.191.191.03-.137.149.035.21-.173-.096-.173.096.03-.21-.138-.149.191-.03.09-.191ZM238.196 130.866l.084.192.191.03-.137.149.035.209-.173-.101-.173.101.03-.209-.138-.149.191-.03.09-.192ZM238.196 132.122l.084.192.191.029-.137.15.035.209-.173-.095-.173.095.03-.209-.138-.15.191-.029.09-.192ZM238.196 133.378l.084.191.191.03-.137.15.035.209-.173-.096-.173.096.03-.209-.138-.15.191-.03.09-.191ZM239.092 128.869l.09.191.192.03-.138.15.03.209-.174-.096-.173.096.036-.209-.138-.15.192-.03.083-.191ZM239.092 130.131l.09.191.192.03-.138.15.03.209-.174-.102-.173.102.036-.209-.138-.15.192-.03.083-.191ZM239.092 131.387l.09.191.192.03-.138.149.03.21-.174-.102-.173.102.036-.21-.138-.149.192-.03.083-.191ZM239.092 132.642l.09.192.192.036-.138.143.03.209-.174-.095-.173.095.036-.209-.138-.143.192-.036.083-.192ZM239.092 133.904l.09.192.192.029-.138.15.03.209-.174-.101-.173.101.036-.209-.138-.15.192-.029.083-.192Z" fill="#fff"/>
  <path d="M97.415 141.481H86.931a20.508 20.508 0 0 0-24.267-13.704 20.507 20.507 0 0 0-7.952 36.06 20.504 20.504 0 0 0 33.193-16.179v-.46l9.508-5.717Z" fill="#fff" stroke="#263238" stroke-miterlimit="10"/>
  <path d="M57.462 154.493c-.37.647-.787 1.265-1.25 1.848a5.985 5.985 0 0 0-.508-.64 17.701 17.701 0 0 0 2.847-5.752l.98.293c-.047.119-.15.143-.28.131-.32.954-.696 1.889-1.125 2.799l.34.095c0 .072-.077.132-.232.138v7.517h-.772v-6.429Zm8.091.287c.096-.436.216-1.1.317-1.74h-2.35v6.901c0 .849-.305 1.005-1.962 1.005a3.188 3.188 0 0 0-.292-.814H62.539c.156 0 .204-.047.204-.203v-6.889H60.84a10.415 10.415 0 0 1-1.196 2.237 3.207 3.207 0 0 0-.598-.485 12.782 12.782 0 0 0 1.95-4.814l.98.264c0 .083-.101.131-.257.119a18.413 18.413 0 0 1-.598 1.938h5.64c-.123.875-.3 1.742-.533 2.595l-.676-.114Zm-3.78.389c-.035.084-.119.132-.262.132a11.602 11.602 0 0 1-1.794 3.946 3.742 3.742 0 0 0-.628-.406 10.732 10.732 0 0 0 1.728-3.959l.957.287Zm4.288 3.983a16.386 16.386 0 0 0-1.62-4.079l.7-.245a15.797 15.797 0 0 1 1.68 4.037l-.76.287ZM71.712 152.418l.448.114-.071.167a15.45 15.45 0 0 1-1.136 5.083c.516.374.987.805 1.405 1.286l-.484.652a8.009 8.009 0 0 0-1.262-1.232 6.395 6.395 0 0 1-2.338 2.47 3.68 3.68 0 0 0-.497-.652 5.587 5.587 0 0 0 2.219-2.302c-.433-.327-.882-.63-1.346-.909l-.143.52-.676-.353c.299-1.04.664-2.541 1.005-4.066H67.64v-.748h1.345a95.33 95.33 0 0 0 .496-2.494l.97.12c0 .084-.084.132-.234.144a99.589 99.589 0 0 1-.472 2.23h1.794l.173-.03Zm-2.129.778c-.251 1.1-.52 2.206-.771 3.175.496.275 1.004.598 1.5.939.536-1.313.866-2.701.981-4.114h-1.71Zm9.018 2.033v.765h-2.852v3.911c0 .909-.353 1.053-2.446 1.029a4.029 4.029 0 0 0-.293-.79h1.417c.4 0 .52 0 .52-.251v-3.923h-2.894v-.765h2.894v-2.009h.389a11.981 11.981 0 0 0 1.752-1.926h-4.55v-.747h5.148l.155-.048.628.394a.382.382 0 0 1-.191.114 14.822 14.822 0 0 1-2.53 2.733v1.465l2.853.048Z" fill="#263238"/>
  <path d="M77.591 133.474H57.29v12.785h20.302v-12.785Z" fill="#263238" stroke="#263238" stroke-linecap="round" stroke-linejoin="round"/>
  <path d="m59.687 134.227.497.999 1.094.155-.795.778.191 1.088-.987-.514-.98.514.19-1.088-.794-.778 1.094-.155.49-.999ZM62.874 133.838l.257.515.562.083-.406.395.095.562-.508-.263-.502.263.095-.562-.412-.395.568-.083.251-.515ZM63.562 136.434l.252.514.568.078-.413.4.096.563-.503-.264-.508.264.096-.563-.407-.4.562-.078.257-.514ZM61.875 138.132l.251.508.568.084-.407.401.096.562-.508-.269-.502.269.095-.562-.412-.401.568-.084.25-.508ZM59.537 138.909l.251.509.568.083-.406.401.095.562-.508-.263-.502.263.095-.562-.412-.401.568-.083.251-.509Z" fill="#fff"/>
  <path d="M181.481 92.977a24.797 24.797 0 0 0-7.265-17.54 24.805 24.805 0 0 0-17.54-7.265h-8.635a24.803 24.803 0 0 0-24.805 24.805" stroke="#263238" stroke-width="3" stroke-linecap="round" stroke-linejoin="round"/>
  <path d="M181.481 111.348V92.977M123.236 92.977v18.371" stroke="#263238" stroke-width="6" stroke-linecap="round" stroke-linejoin="round"/>
  <path d="M141.051 138.909s1.549 10.818 1.238 13.599c-.311 2.781-.927 5.561-8.653 2.47-7.726-3.092-21.63 2.475-30.594 13.287-8.964 10.812-25.953 46.973-25.953 51.297 0 4.323 3.397 10.166 9.568 11.122C92.828 231.641 107.36 214 107.36 214s6.177 34.917 6.177 37.674c0 2.757-2.769 21.014-2.769 21.014h87.452l-3.403-22.557L201 200.378s25.649 34.917 31.21 36.478 14.214-1.238 16.379-7.726c2.165-6.489-1.238-13.288-5.567-18.233-4.33-4.946-31.515-48.516-36.478-52.529-4.964-4.012-18.849-4.329-23.795-3.091-4.945 1.238-13.287 3.091-15.452 1.853-2.165-1.237-2.159-12.976 0-18.233.018.012-18.831 4.958-26.246.012Z" fill="#fff" stroke="#263238" stroke-linecap="round" stroke-linejoin="round"/>
  <path d="M128.971 232.999c.997.384 2.013.718 3.044.998M113.022 213.175s1.376 12.008 12.69 18.299M148.215 178.007l6.016 8.79M207.704 186.409l1.591-3.313M205.126 182.169 201 200.402l5.071-10.579M223.651 215.023s6.531-4.186 12.959-4.186" stroke="#263238" stroke-linecap="round" stroke-linejoin="round"/>
  <path d="M210.365 227.563a89.123 89.123 0 0 0 11.834-7.666 26.48 26.48 0 0 1 18.837-5.335c6.165.664 9.502 8.331 9.664 16.003.161 7.672-4.001 12.331-11.5 13.497-7.499 1.166-16.337-.497-21.833-1.83a72.47 72.47 0 0 0-8.838-1.669s-7.164-11.003 1.836-13Z" fill="#fff" stroke="#263238" stroke-linecap="round" stroke-linejoin="round"/>
  <path d="M250.7 230.565c-.161-7.672-3.498-15.339-9.663-16.003a26.478 26.478 0 0 0-18.837 5.335l-.838.639c7.176.246 21.684 3.176 19.411 23.215 6.507-1.561 10.083-6.076 9.927-13.186ZM141.05 138.909s1.548 10.818 1.237 13.599c-.233 2.087-.639 4.186-4.084 3.779 4.928 8.055 19.238 26.964 32.591 1.196-1.555.096-2.81 0-3.48-.37-2.159-1.238-2.159-12.977 0-18.233 0 .029-18.849 4.975-26.264.029Z" fill="#fff" stroke="#263238" stroke-linecap="round" stroke-linejoin="round"/>
  <path d="M141.05 138.909s.4 2.811.753 5.933a27.383 27.383 0 0 0 11.601 3.157 22.394 22.394 0 0 0 12.624-3.654c.2-1.858.632-3.684 1.286-5.436 0 0-18.849 4.946-26.264 0ZM124.067 101.51h-1.704a3.792 3.792 0 0 0-3.792 3.792v14.507a3.792 3.792 0 0 0 3.792 3.792h1.704a3.791 3.791 0 0 0 3.791-3.792v-14.507a3.791 3.791 0 0 0-3.791-3.792Z" fill="#263238" stroke="#263238" stroke-linecap="round" stroke-linejoin="round"/>
  <path d="M124.162 101.528H122.261v22.055H124.162v-22.055Z" fill="#fff" stroke="#263238" stroke-linecap="round" stroke-linejoin="round"/>
  <path d="M182.504 101.51H180.8a3.791 3.791 0 0 0-3.791 3.792v14.507a3.791 3.791 0 0 0 3.791 3.792h1.704a3.792 3.792 0 0 0 3.792-3.792v-14.507a3.792 3.792 0 0 0-3.792-3.792Z" fill="#263238" stroke="#263238" stroke-linecap="round" stroke-linejoin="round"/>
  <path d="M182.606 101.528H180.704v22.055H182.606v-22.055ZM108.615 118.954a4.36 4.36 0 0 0-3.462 2.308c-1.388 2.309-5.771 10.848-5.31 13.39.46 2.541 19.62 20.541 19.62 21.695s-15.231 21.929-25.391 31.162c-10.16 9.233-18.233 19.614-19.62 27.927-1.388 8.312 3.462 15.231 8.545 16.618 5.083 1.387 11.308-1.615 18.46-10.621 7.152-9.005 26.779-48.24 29.78-61.594 0 0 .688-5.98-2.081-9.466-2.768-3.486-9.693-11.541-9.693-11.541s1.387-15.925.233-17.079-2.308 1.387-2.308 1.387-1.071-5.34-2.542-5.083c-1.608.287-2.075 2.308-2.075 2.308s-1.154-4.646-4.156-1.411Z" fill="#fff" stroke="#263238" stroke-linecap="round" stroke-linejoin="round"/>
  <path d="M117.388 123.11s-3.313 13.258-2.99 15.494M112.771 120.336s-3.51 12.892-3.959 14.686a4.421 4.421 0 0 0 .562 3.475M108.615 118.954s-4.958 13.826-4.958 15.285c0 1.459 1.124 3.247 1.124 3.247" stroke="#263238" stroke-linecap="round" stroke-linejoin="round"/>
  <path d="M104.202 176.727a121.703 121.703 0 0 1-10.13 10.764c-10.166 9.227-18.233 19.614-19.62 27.927-1.388 8.312 3.462 15.231 8.545 16.618 5.083 1.387 11.308-1.615 18.46-10.621 4.12-5.178 12.361-20.367 19.19-34.881-10.405-2.763-14.699-7.068-16.445-9.807ZM127.656 90.065s-.401 32.13.807 38.158c1.208 6.028 12.05 16.266 24.518 16.666 12.468.401 22.293-11.045 23.495-17.072 1.202-6.028 0-30.122-.197-39.761-.197-9.64-14.059-18.275-28.106-16.069-14.047 2.207-21.319 10.441-20.517 18.078Z" fill="#fff" stroke="#263238" stroke-linecap="round" stroke-linejoin="round"/>
  <path d="M158.183 103.119s.802 5.621 1.609 6.823c.807 1.202 2.207 2.817-.598 4.019-2.805 1.202-5.023-.203-5.023-1.609" stroke="#263238" stroke-linecap="round" stroke-linejoin="round"/>
  <path d="M161.198 122.997s-10.848 1.387-15.668-3.397c0 0 1.196 7.433 4.82 8.641 3.624 1.208 10.848-5.244 10.848-5.244Z" fill="#fff" stroke="#263238" stroke-linecap="round" stroke-linejoin="round"/>
  <path d="m147.139 103.316 1.004 3.212" stroke="#263238" stroke-linecap="round" stroke-linejoin="round"/>
  <path d="M142.719 106.33s2.81 1.794 8.031.198" stroke="#263238" stroke-width="2" stroke-linecap="round" stroke-linejoin="round"/>
  <path d="m166.818 103.316 1.005 3.212" stroke="#263238" stroke-linecap="round" stroke-linejoin="round"/>
  <path d="M162.399 106.33s2.811 1.794 8.038.198M141.314 97.695a10.538 10.538 0 0 1 8.432-4.216M160.593 93.073s5.824-1.603 9.843 2.99" stroke="#263238" stroke-width="2" stroke-linecap="round" stroke-linejoin="round"/>
  <path d="M153.089 101.66a5.553 5.553 0 0 1-.072 5.729l-.113.179a9.35 9.35 0 0 1-7.936 4.407h-1.256a7.285 7.285 0 0 1-6.303-3.629v0a6.041 6.041 0 0 1 1.723-7.967 6.04 6.04 0 0 1 3.121-1.105l5.717-.359a5.533 5.533 0 0 1 5.119 2.745v0ZM159.666 101.66a5.548 5.548 0 0 0 .072 5.729l.114.179a9.34 9.34 0 0 0 7.935 4.408h1.256a7.297 7.297 0 0 0 6.303-3.63v0a6.036 6.036 0 0 0 .347-5.382v0a6.043 6.043 0 0 0-5.191-3.69l-5.711-.359a5.544 5.544 0 0 0-5.125 2.745v0ZM153.764 102.712s1.794-1.405 5.22 0M151.354 99.704h9.844M137.05 102.958h-9.395" stroke="#263238" stroke-linecap="round" stroke-linejoin="round"/>
  <path d="M163.607 81.627s5.203 16.708 13.103 21.026c-.174-5.73-.377-11.111-.449-14.598-.203-9.64-14.059-18.274-28.106-16.068-14.047 2.207-21.289 10.441-20.487 18.078 0 0-.066 5.244-.06 11.9 6.781-2.924 24.637-11.069 35.999-20.338Z" fill="#263238"/>
  <path d="M126.263 97.576s26.342-11.045 40.58-25.069M124.134 88.653s27.621-6.374 43.558-23.16M168.751 74.415s.425 10.836 11.9 20.822" stroke="#737373" stroke-linecap="round" stroke-linejoin="round"/>
  <path d="M165.759 141.84s0 7.283-5.46 18.89c-5.459 11.608-5.693 23.215-2.051 31.862 3.642 8.647 13.431 12.068 23.92 8.198 10.489-3.869 11.835-21.169 10.698-31.64-1.136-10.471-11.362-22.76-13.658-28.907-2.296-6.148-3.869-9.329-3.869-9.329s-5.92 8.193-9.568 10.011l-.012.915Z" fill="#263238"/>
  <path d="M169.598 133.695a57.169 57.169 0 0 1-3.821 29.302c-6.374 15.297-1.489 31.658 5.95 35.055 7.439 3.396 14.657 2.128 18.269-2.548" stroke="#737373" stroke-linecap="round" stroke-linejoin="round"/>
  <path d="M172.361 130.298s7.224 16.995 4.252 29.745c-2.972 12.749-1.698 28.925 7.224 32.082 8.922 3.158 14.023-3.157 14.023-3.157" stroke="#737373" stroke-linecap="round" stroke-linejoin="round"/>
  <path d="M181.073 141.343s6.16 23.37 6.16 35.48c0 12.109 7.439 10.201 9.352 4.251" stroke="#737373" stroke-linecap="round" stroke-linejoin="round"/>
  <path d="M165.759 141.84s0 7.283-5.46 18.89c-5.459 11.608-5.693 23.215-2.051 31.862 3.642 8.647 13.431 12.068 23.92 8.198 10.489-3.869 11.835-21.169 10.698-31.64-1.136-10.471-11.362-22.76-13.658-28.907-2.296-6.148-3.869-9.329-3.869-9.329s-5.92 8.193-9.568 10.011l-.012.915Z" stroke="#263238" stroke-linecap="round" stroke-linejoin="round"/>
  <path d="m193.848 206.267-38.826-1.567a3.104 3.104 0 0 0-3.226 2.976l-2.163 53.609a3.105 3.105 0 0 0 2.976 3.227l38.827 1.566a3.104 3.104 0 0 0 3.226-2.976l2.163-53.609a3.104 3.104 0 0 0-2.977-3.226Z" fill="#263238" stroke="#263238" stroke-linecap="round" stroke-linejoin="round"/>
  <path d="M213.63 227.952s-19.877-6.184-23.268-7.224c-3.391-1.041-22.921 13.544-23.699 15.626-.777 2.081 2.081 2.087 2.081 2.087s-1.196 2.081.598 3.121c.566.381 1.167.708 1.794.975 0 0-1.04 2.344 1.041 3.127 2.081.784 4.951-1.303 4.951-1.303l4.689-3.385s-5.634 6.895-4.432 8.336c1.657 1.974 2.715-.143 2.715-.143l6.477-7.673 6.506-3.127s5.209 3.127 13.545 3.384c8.336.258 10.166-3.384 10.166-3.384" fill="#fff"/>
  <path d="M213.63 227.952s-19.877-6.184-23.268-7.224c-3.391-1.041-22.921 13.544-23.699 15.626-.777 2.081 2.081 2.087 2.081 2.087s-1.196 2.081.598 3.121c.566.381 1.167.708 1.794.975 0 0-1.04 2.344 1.041 3.127 2.081.784 4.951-1.303 4.951-1.303l4.689-3.385s-5.634 6.895-4.432 8.336c1.657 1.974 2.715-.143 2.715-.143l6.477-7.673 6.506-3.127s5.209 3.127 13.545 3.384c8.336.258 10.166-3.384 10.166-3.384" stroke="#263238" stroke-linecap="round" stroke-linejoin="round"/>
  <path d="M171.178 242.537s7.301-5.011 9.119-6.823c1.818-1.812 7.708-5.598 9.526-5.598M181.858 240.994s3.588-4.054 4.94-4.658c1.351-.604 3.325-1.513 3.325-1.513M168.744 238.441s10.166-7.176 13.646-9.287a49.106 49.106 0 0 1 6.501-3.331" stroke="#263238" stroke-linecap="round" stroke-linejoin="round"/>
</svg>
