<svg width="232" height="154" fill="none" xmlns="http://www.w3.org/2000/svg">
  <path d="M124.353 66.553a15.103 15.103 0 0 0-18.722 1.55 14.938 14.938 0 0 0-2.622 18.523M129.703 72.91a15.236 15.236 0 0 0-1.015-1.9M128.42 87.355a14.988 14.988 0 0 0 2.252-11.445M101 64.1a21.491 21.491 0 0 0-2.737 3.352" stroke="#263238" stroke-width=".97" stroke-linecap="round" stroke-linejoin="round"/>
  <path d="M132.648 91.855a20.976 20.976 0 0 0 4.403-13.656 20.991 20.991 0 0 0-5.409-13.292 21.158 21.158 0 0 0-12.708-6.753c-4.899-.7-9.89.336-14.101 2.925M99.196 91.855a21.048 21.048 0 0 1-4.093-9.198 21.006 21.006 0 0 1 .653-10.04M92.574 97.174a29.668 29.668 0 0 0 4.448 4.552" stroke="#263238" stroke-width=".97" stroke-linecap="round" stroke-linejoin="round"/>
  <path d="M132.723 54.617a29.768 29.768 0 0 0-18.037-5.14 29.75 29.75 0 0 0-17.529 6.658A29.531 29.531 0 0 0 87.143 71.93a29.428 29.428 0 0 0 1.503 18.62M143.612 68.308a29.498 29.498 0 0 0-3.053-5.818M136.446 100.319a29.46 29.46 0 0 0 6.781-9.735 29.344 29.344 0 0 0 2.379-11.607M74.487 78.977a41.373 41.373 0 0 0 9.839 26.772 41.702 41.702 0 0 0 24.869 14.128" stroke="#263238" stroke-width=".97" stroke-linecap="round" stroke-linejoin="round"/>
  <path d="M149.408 103.657a41.374 41.374 0 0 0 8.143-23.56 41.351 41.351 0 0 0-6.878-23.955 41.631 41.631 0 0 0-19.419-15.714 41.84 41.84 0 0 0-24.958-1.805M74.487 78.977a41.374 41.374 0 0 1 8.908-25.636 41.685 41.685 0 0 1 22.913-14.675M140.559 112.42a41.343 41.343 0 0 0 3.053-2.464M122.869 119.877c4.737-.79 9.3-2.395 13.484-4.743" stroke="#263238" stroke-width=".97" stroke-linecap="round" stroke-linejoin="round"/>
  <path d="M115.941 116.162a15.963 15.963 0 0 1-11.246-4.646 15.827 15.827 0 0 1-4.666-11.197v-5.335a.863.863 0 0 1 .866-.862h2.166a.868.868 0 0 1 .866.862.867.867 0 0 1-.866.862h-1.29v4.473c0 3.744 1.494 7.335 4.153 9.983a14.21 14.21 0 0 0 10.027 4.135 14.21 14.21 0 0 0 10.026-4.135 14.086 14.086 0 0 0 4.154-9.983v-4.472h-1.3a.867.867 0 0 1-.866-.863.868.868 0 0 1 .866-.862h2.166a.868.868 0 0 1 .866.862v5.335a15.83 15.83 0 0 1-4.669 11.201 15.967 15.967 0 0 1-11.253 4.642ZM132.721 129.418v-1.724a1.725 1.725 0 0 0-1.733-1.725h-30.092a1.733 1.733 0 0 0-1.6 1.064 1.715 1.715 0 0 0-.132.661v1.724h33.557Z" fill="#263238"/>
  <path d="M117.629 128.069c.029-.123.043-.249.044-.376V115.3h-3.465v12.393c0 .127.015.253.043.376h3.378Z" fill="#263238"/>
  <path d="M126.657 78.977a10.63 10.63 0 0 0-.763-4.14 10.665 10.665 0 0 0-2.311-3.523 10.715 10.715 0 0 0-3.499-2.36 10.759 10.759 0 0 0-11.787 2.36 10.665 10.665 0 0 0-2.311 3.524 10.63 10.63 0 0 0-.763 4.14v21.341a10.653 10.653 0 0 0 3.203 7.429 10.742 10.742 0 0 0 7.514 3.062c2.811 0 5.51-1.1 7.514-3.062a10.653 10.653 0 0 0 3.203-7.429V78.977Z" stroke="#263238" stroke-width=".97" stroke-linecap="round" stroke-linejoin="round"/>
  <path d="M126.657 78.977a10.63 10.63 0 0 0-.763-4.14 10.665 10.665 0 0 0-2.311-3.523 10.715 10.715 0 0 0-3.499-2.36 10.759 10.759 0 0 0-11.787 2.36 10.665 10.665 0 0 0-2.311 3.524 10.63 10.63 0 0 0-.763 4.14v21.341a10.653 10.653 0 0 0 3.203 7.429 10.742 10.742 0 0 0 7.514 3.062c2.811 0 5.51-1.1 7.514-3.062a10.653 10.653 0 0 0 3.203-7.429V78.977Z" fill="#E8E8E8"/>
  <path d="M111.503 80.102h-6.279v2.587h6.279c.345 0 .675-.136.919-.38a1.293 1.293 0 0 0-.919-2.207ZM126.658 80.102h-6.277a1.3 1.3 0 0 0-1.299 1.293 1.3 1.3 0 0 0 1.299 1.294h6.277v-2.587ZM115.942 80.102a1.304 1.304 0 0 0-1.201.798 1.288 1.288 0 0 0 .947 1.764 1.306 1.306 0 0 0 1.334-.55 1.288 1.288 0 0 0-.162-1.634 1.3 1.3 0 0 0-.918-.378ZM115.942 85.331a1.305 1.305 0 0 0-1.201.799 1.288 1.288 0 0 0 .947 1.764 1.305 1.305 0 0 0 1.334-.55 1.288 1.288 0 0 0-.162-1.634 1.3 1.3 0 0 0-.918-.379ZM115.942 90.552a1.305 1.305 0 0 0-1.201.799 1.288 1.288 0 0 0 .947 1.764 1.305 1.305 0 0 0 1.334-.55 1.288 1.288 0 0 0-.162-1.634 1.3 1.3 0 0 0-.918-.379ZM111.503 85.331h-6.279v2.587h6.279a1.293 1.293 0 1 0 0-2.587ZM126.658 85.332h-6.277a1.3 1.3 0 0 0-1.299 1.293 1.3 1.3 0 0 0 1.299 1.294h6.277v-2.587ZM111.503 90.552h-6.279v2.587h6.279a1.293 1.293 0 1 0 0-2.587ZM126.658 90.552h-6.277a1.3 1.3 0 0 0-1.299 1.294 1.3 1.3 0 0 0 1.299 1.294h6.277v-2.588Z" fill="#fff"/>
  <path d="M126.657 78.977a10.63 10.63 0 0 0-.763-4.14 10.665 10.665 0 0 0-2.311-3.523 10.715 10.715 0 0 0-3.499-2.36 10.759 10.759 0 0 0-11.787 2.36 10.665 10.665 0 0 0-2.311 3.524 10.63 10.63 0 0 0-.763 4.14v21.341a10.653 10.653 0 0 0 3.203 7.429 10.742 10.742 0 0 0 7.514 3.062c2.811 0 5.51-1.1 7.514-3.062a10.653 10.653 0 0 0 3.203-7.429V78.977Z" stroke="#263238" stroke-width=".97" stroke-miterlimit="10"/>
  <path d="M105.224 100.319a10.647 10.647 0 0 0 3.202 7.429 10.744 10.744 0 0 0 7.514 3.062c2.812 0 5.51-1.1 7.515-3.062a10.652 10.652 0 0 0 3.202-7.429h-21.433Z" fill="#263238" stroke="#263238" stroke-width=".97" stroke-miterlimit="10"/>
  <path d="M206.845 94.944c13.382-13.325 13.382-34.929 0-48.254-13.383-13.325-35.08-13.325-48.463 0C145 60.015 145 81.62 158.382 94.944c13.383 13.324 35.08 13.324 48.463 0Z" fill="#E8E8E8"/>
  <path d="M177.7 56.7h-23.939a2.18 2.18 0 0 0-2.184 2.174V82.71c0 1.201.978 2.175 2.184 2.175H177.7a2.18 2.18 0 0 0 2.184-2.175V58.874A2.18 2.18 0 0 0 177.7 56.7Z" fill="#fff"/>
  <g opacity=".1" fill="#000">
    <path opacity=".1" d="M154.246 84.888h9.447l6.02-28.188h-9.831l-6.01 28.157c.124.02.249.03.374.03ZM173.716 56.7h-2.364l-6.016 28.188h2.363l6.017-28.188Z"/>
  </g>
  <path d="M177.214 85.59h-22.968a3.386 3.386 0 0 1-2.382-.984 3.356 3.356 0 0 1-.993-2.37V59.358c.002-.89.358-1.745.99-2.374a3.389 3.389 0 0 1 2.385-.986h22.968c.895 0 1.753.355 2.387.985.633.63.989 1.484.991 2.375v22.878a3.359 3.359 0 0 1-.994 2.371 3.387 3.387 0 0 1-2.384.983Zm-22.968-28.185c-.52 0-1.02.206-1.388.572a1.949 1.949 0 0 0-.576 1.38v22.88c0 .518.207 1.016.575 1.383s.868.574 1.389.575h22.968a1.968 1.968 0 0 0 1.816-1.21c.098-.237.149-.492.148-.749V59.358a1.958 1.958 0 0 0-.575-1.382 1.962 1.962 0 0 0-1.389-.57h-22.968Z" fill="#fff" stroke="#263238" stroke-width=".933" stroke-miterlimit="10"/>
  <path d="M210.992 56.7h-23.939a2.18 2.18 0 0 0-2.184 2.174V82.71a2.18 2.18 0 0 0 2.184 2.175h23.939a2.18 2.18 0 0 0 2.184-2.175V58.874a2.18 2.18 0 0 0-2.184-2.174Z" fill="#fff"/>
  <g opacity=".1" fill="#000">
    <path opacity=".1" d="M190.011 84.888h9.447l6.016-28.188h-9.827l-6.026 28.157c.129.02.259.03.39.03ZM209.481 56.7h-2.364l-6.019 28.188h2.366l6.017-28.188Z"/>
  </g>
  <path d="M210.507 85.59h-22.968a3.386 3.386 0 0 1-2.382-.984 3.356 3.356 0 0 1-.993-2.37V59.358c.002-.89.358-1.745.99-2.374a3.389 3.389 0 0 1 2.385-.986h22.968c.895 0 1.753.355 2.386.985.634.63.99 1.484.992 2.375v22.878a3.359 3.359 0 0 1-.994 2.371 3.387 3.387 0 0 1-2.384.983Zm-22.968-28.185c-.521 0-1.02.206-1.388.572a1.949 1.949 0 0 0-.576 1.38v22.88c0 .518.206 1.016.575 1.383.368.367.868.574 1.389.575h22.968a1.968 1.968 0 0 0 1.816-1.21c.098-.237.149-.492.148-.749V59.358a1.958 1.958 0 0 0-.575-1.382 1.962 1.962 0 0 0-1.389-.57h-22.968Z" fill="#fff" stroke="#263238" stroke-width=".933" stroke-miterlimit="10"/>
  <path d="M183.54 136.589c8.513 0 15.414-1.011 15.414-2.258 0-1.246-6.901-2.257-15.414-2.257s-15.414 1.011-15.414 2.257c0 1.247 6.901 2.258 15.414 2.258Z" fill="#E8E8E8"/>
  <path d="M190.352 121.18s-.04 6.323-.712 7.364c-.801 1.232-1.37 2.954.752 3.422 2.122.468 3.384 2.8 5.911 2.954 2.528.154 2.784-.924 1.683-1.79-1.101-.865-3.897-3.265-4.266-4.432-.368-1.167.347-7.518.347-7.518h-3.715Z" fill="#fff"/>
  <path opacity=".1" d="M193.728 124.851c.136-1.863.337-3.671.337-3.671h-3.712s0 1.617-.108 3.351c1.15.202 2.315.31 3.483.32Z" fill="#000"/>
  <path d="M190.352 121.18s-.04 6.323-.712 7.364c-.801 1.232-1.37 2.954.752 3.422 2.122.468 3.384 2.8 5.911 2.954 2.528.154 2.784-.924 1.683-1.79-1.101-.865-3.897-3.265-4.266-4.432-.368-1.167.347-7.518.347-7.518h-3.715Z" stroke="#263238" stroke-width=".933" stroke-linecap="round" stroke-linejoin="round"/>
  <path d="M197.974 133.13a31.479 31.479 0 0 1-2.932-2.627c-.882.665-3.465.037-4.226-.561-.928-.727-.733-1.099-1.172-1.426l-.015.028c-.802 1.232-1.371 2.954.751 3.422 2.122.468 3.384 2.799 5.912 2.953 2.527.154 2.79-.939 1.682-1.789Z" fill="#BFBFBF" stroke="#263238" stroke-width=".933" stroke-miterlimit="10"/>
  <path d="M176.082 118.888s-2.784 5.784-3.835 6.49c-1.272.844-2.534 2.202-.792 3.412 1.741 1.211 1.896 3.816 4.145 4.891 2.249 1.075 2.951.167 2.317-1.019-.634-1.186-2.166-4.432-1.995-5.64.17-1.207 3.594-6.902 3.594-6.902l-3.434-1.232Z" fill="#fff"/>
  <path opacity=".1" d="M176.082 118.888s-.996 2.076-2.02 3.89a10.897 10.897 0 0 0 2.822 2.011c1.067-2.057 2.632-4.66 2.632-4.66l-3.434-1.241Z" fill="#000"/>
  <path d="M176.082 118.888s-2.784 5.784-3.835 6.49c-1.272.844-2.534 2.202-.792 3.412 1.741 1.211 1.896 3.816 4.145 4.891 2.249 1.075 2.951.167 2.317-1.019-.634-1.186-2.166-4.432-1.995-5.64.17-1.207 3.594-6.902 3.594-6.902l-3.434-1.232Z" stroke="#263238" stroke-width=".933" stroke-linecap="round" stroke-linejoin="round"/>
  <path d="M177.917 132.646a28.685 28.685 0 0 1-1.546-3.492c-1.098.286-3.381-1.177-3.632-2.07-.486-1.722-.198-1.278-.461-1.74l-.025.018c-1.271.844-2.533 2.202-.791 3.413 1.741 1.21 1.896 3.816 4.145 4.891 2.249 1.075 2.944.166 2.31-1.02Z" fill="#BFBFBF" stroke="#263238" stroke-width=".933" stroke-miterlimit="10"/>
  <path d="M190.8 77.958s4.259 20.328 4.544 26.959c.284 6.631-.823 18.458-.823 18.458l-4.73-.308s-.031-3.495-.504-8.362c-.281-2.892-1.166-6.268-1.067-9.68 0 0-4.495-13.272-4.331-19.096.164-5.825 0-7.5 0-7.5l6.911-.471Z" fill="#263238" stroke="#263238" stroke-width=".933" stroke-linecap="round" stroke-linejoin="round"/>
  <path d="M179.414 77.958s-4.417 3.634-1.856 10.962c1.008 2.907 4.9 16.207 4.9 16.207a18.569 18.569 0 0 0-2.692 4.019c-1.775 3.493-3.068 8.932-5.258 12.052l3.242 2.178s10.467-13.066 11.136-17.214c.668-4.149-2.475-20.738-2.475-20.738l-1.005-6.742-5.992-.724Z" fill="#263238" stroke="#263238" stroke-width=".933" stroke-linecap="round" stroke-linejoin="round"/>
  <path d="M199.003 64.181a4.06 4.06 0 0 0-.677-1.925c.324-.425.605-.88.838-1.361.235-.564-.077-1.362-.73-.407-.653.955-1.37 1.651-1.11 2.843a3.316 3.316 0 0 1-.396 2.24l1.506 1.173 3.004-2.372-2.435-.19Z" fill="#fff" stroke="#263238" stroke-width=".933" stroke-linecap="round" stroke-linejoin="round"/>
  <path d="m200.419 58.088-2.525.684a.434.434 0 0 0-.307.533l1.439 5.27a.436.436 0 0 0 .535.305l2.526-.684a.434.434 0 0 0 .306-.533l-1.439-5.27a.436.436 0 0 0-.535-.305Z" fill="#263238" stroke="#263238" stroke-width=".933" stroke-linecap="round" stroke-linejoin="round"/>
  <path d="m200.972 58.46-3.368.91 1.404 5.142 3.368-.911-1.404-5.142Z" fill="#E8E8E8" stroke="#263238" stroke-width=".933" stroke-linecap="round" stroke-linejoin="round"/>
  <path d="M200.296 60.239a.619.619 0 0 0-1.2.308c.04.154.241.878.309 1.133l1.2-.323c-.068-.237-.272-.989-.309-1.118ZM200.186 62.191a.617.617 0 0 0 .448-.699l-1.191.308a.618.618 0 0 0 .743.391Z" fill="#263238"/>
  <path d="m201.305 62.832-.78.213-.161-.586a.959.959 0 0 0 .582-1.146l-.087-.307a.041.041 0 0 0-.008-.019.06.06 0 0 0-.014-.013.057.057 0 0 0-.019-.007c-.007 0-.014 0-.02.002l-.13.033a.056.056 0 0 0-.019.01.05.05 0 0 0-.013.015.045.045 0 0 0-.005.02.035.035 0 0 0 .003.02.047.047 0 0 0 .023.032.045.045 0 0 0 .018.007c.007 0 .014 0 .02-.002l.078-.021.071.261a.853.853 0 0 1-.605 1.052.862.862 0 0 1-1.056-.602l-.074-.262.077-.018a.056.056 0 0 0 .037-.065.051.051 0 0 0-.025-.032.053.053 0 0 0-.04-.005l-.127.034a.055.055 0 0 0-.032.025.045.045 0 0 0-.006.02.047.047 0 0 0 .001.02l.087.308a.957.957 0 0 0 .407.554.97.97 0 0 0 .675.142l.158.585-.779.21a.11.11 0 0 0-.065.05.108.108 0 0 0-.013.038.14.14 0 0 0 .003.04l.028.102 1.968-.532-.028-.102a.12.12 0 0 0-.018-.037.117.117 0 0 0-.032-.027.102.102 0 0 0-.08-.01Z" fill="#263238"/>
  <path d="M201.624 59.66c-.309.034-.566.517-.47 1.198.096.68.724-.059.761-.274.037-.216.3-.983-.291-.924ZM202.303 60.676a.553.553 0 0 0-.543.416.554.554 0 0 0-.004.243c.058.662.188.508.188.508.003.273.059.543.164.795.155.293.563-.151.563-.416s-.043-1.657-.368-1.546Z" fill="#fff" stroke="#263238" stroke-width=".933" stroke-linecap="round" stroke-linejoin="round"/>
  <path d="M201.948 61.831s.535-.157.662-.545l-.662.545Z" fill="#fff"/>
  <path d="M201.948 61.831s.535-.157.662-.545" stroke="#263238" stroke-width=".933" stroke-linecap="round" stroke-linejoin="round"/>
  <path d="M197.298 64.63c.103-.425.112-.87.024-1.299-.26-1.192.455-1.891 1.111-2.843.656-.951.965-.157.73.407-.233.48-.514.936-.838 1.361.418.558.654 1.23.677 1.925v.897" fill="#fff"/>
  <path d="M197.298 64.63c.103-.425.112-.87.024-1.299-.26-1.192.455-1.891 1.111-2.843.656-.951.965-.157.73.407-.233.48-.514.936-.838 1.361.418.558.654 1.23.677 1.925v.897" stroke="#263238" stroke-width=".933" stroke-linecap="round" stroke-linejoin="round"/>
  <path d="M189.003 57.186c1.076-.225 1.407-.499 1.407-.499-.807-3.237 2.088-14.125-7.037-14.627-9.125-.502-4.021 14.926-4.021 14.926l.993.126-.511-3.101 1.188 3.178c3.514.38 5.766.308 7.183.13a17.22 17.22 0 0 1-.059-4.22 26.64 26.64 0 0 0 .857 4.087Z" fill="#263238"/>
  <path d="M183.369 42.254a2.22 2.22 0 0 0-2.734-.308" stroke="#263238" stroke-width=".933" stroke-linecap="round" stroke-linejoin="round"/>
  <path d="M190.319 59.16v-.098c-.018.043-.037.074 0 .098Z" fill="#fff" stroke="#263238" stroke-width=".933" stroke-linecap="round" stroke-linejoin="round"/>
  <path d="m196.928 65.57-4.331 4.004.081-6a5.363 5.363 0 0 0-2.438-4.58l.164 15.791c4.254.269 8.043-8.041 8.043-8.041a2.323 2.323 0 0 0-1.519-1.174Z" fill="#fff"/>
  <path opacity=".1" d="M191.932 72.848c-.644.059-.789-1.167-.78-2.36-.18.45-.299.92-.356 1.4a66.73 66.73 0 0 0-.034 3.855c4.845-2.186 4.903-4.136 6.147-6.126-.792 1.001-3.737 3.117-4.977 3.231Z" fill="#000"/>
  <path d="m196.928 65.57-4.331 4.004.081-6a5.363 5.363 0 0 0-2.438-4.58l.164 15.791c4.254.269 8.043-8.041 8.043-8.041a2.323 2.323 0 0 0-1.519-1.174v0Z" stroke="#263238" stroke-width=".933" stroke-linecap="round" stroke-linejoin="round"/>
  <path d="m196.01 66.087.949-.896 2.082 1.423-.606 1.004-2.425-1.53Z" fill="#E8E8E8" stroke="#263238" stroke-width=".933" stroke-linecap="round" stroke-linejoin="round"/>
  <path d="M191.95 66.528c-1.745 7.7-.878 12.76-.878 12.76s-4.211 2.973-13.061.453c0 0 1.609-3.982 1.176-7.02-.263-1.869-2.026-8.59-2.026-8.59s-.835-2.938-.452-5.31c.739-.477 2.323-1.053 5.123-1.256a2.77 2.77 0 0 0 .096-.477c.089-.783.108-1.573.058-2.36-.04-.924-.117-1.66-.117-1.66h3.378s.043.85.151 1.848a21.6 21.6 0 0 0 .248 1.787c.052.277.119.552.201.822 3.372.505 4.64 1.38 4.884 2.14 1.148 3.432 1.59 5.218 1.219 6.863Z" fill="#fff" stroke="#263238" stroke-width=".933" stroke-linecap="round" stroke-linejoin="round"/>
  <path d="M185.407 55.458c-.275.616-.618 1.103-1.809 1.097-.885 0-1.683-.78-1.773-1.078.096-.675 0-.924-.04-1.688a19.857 19.857 0 0 1 3.403.197c.048.494.121.986.219 1.472Z" fill="#263238"/>
  <path d="M187.655 48.864v-.736c-.251-1.195-1.736-1.257-2.419-1.253a5.28 5.28 0 0 1-2.11-.367c.22.523.583.974 1.049 1.3-2.543-.564-2.741-1.9-2.645-2.621-.903 3.144-2.076 3.277-2.076 3.277s0 .28.053.733a1.283 1.283 0 0 0-.999 1.364 1.27 1.27 0 0 0 .355.895c.231.24.548.382.882.393.067-.003.133-.012.198-.028.538 2.082 1.642 4.346 3.904 4.257 2.261-.09 3.183-2.437 3.548-4.556.067.006.134.006.201 0 .335-.033.643-.197.857-.457.214-.259.316-.592.284-.926a1.286 1.286 0 0 0-1.082-1.275Z" fill="#fff" stroke="#263238" stroke-width=".933" stroke-linecap="round" stroke-linejoin="round"/>
  <path d="m183.126 52.39.39.281a.285.285 0 0 0 .34 0l.359-.274M184.611 50.638s.483-.634 1.445-.188M182.506 50.638s-.479-.634-1.444-.188M184.628 53.509a1.622 1.622 0 0 1-1.902.077" stroke="#263238" stroke-width=".933" stroke-linecap="round" stroke-linejoin="round"/>
  <path d="M188.717 106.836c-.111.338-.239.67-.384.995M184.198 84.392l1.009.9a5.174 5.174 0 0 1 1.673 3.08c.863 5.466 2.249 11.088 2.079 17.026" stroke="#fff" stroke-width=".933" stroke-linecap="round" stroke-linejoin="round"/>
  <path d="m188.016 84.552-1.599 2.276.201-.28" stroke="#fff" stroke-width=".933" stroke-linecap="round" stroke-linejoin="round"/>
  <path d="m181.696 75.42.458.468M178.384 68.968a15.705 15.705 0 0 0 2.524 5.46" stroke="#263238" stroke-width=".933" stroke-linecap="round" stroke-linejoin="round"/>
  <path d="m178.472 48.14-.343.013.049 1.216.343-.014-.049-1.216ZM188.943 47.7l-.343.014.049 1.216.343-.014-.049-1.215Z" fill="#fff" stroke="#263238" stroke-width=".933" stroke-linecap="round" stroke-linejoin="round"/>
  <path d="M183.32 42.621a5.646 5.646 0 0 0-3.842 1.727 5.602 5.602 0 0 0-1.565 3.897.196.196 0 0 0 .064.145.208.208 0 0 0 .15.055h.361a.203.203 0 0 0 .195-.206 4.835 4.835 0 0 1 1.369-3.335 4.878 4.878 0 0 1 6.712-.268 4.834 4.834 0 0 1 1.632 3.215.201.201 0 0 0 .211.188h.362a.211.211 0 0 0 .144-.066.19.19 0 0 0 .04-.07.198.198 0 0 0 .011-.08 5.603 5.603 0 0 0-1.863-3.78 5.647 5.647 0 0 0-3.981-1.422ZM179.104 48.883h-.08a1.786 1.786 0 0 0-1.235.569 1.767 1.767 0 0 0 1.38 2.966h.077l-.142-3.535Z" fill="#E8E8E8" stroke="#263238" stroke-width=".933" stroke-linecap="round" stroke-linejoin="round"/>
  <path d="M179.584 50.629c.053 1.312.146 2.156-.309 2.184-.455.027-.646-.829-.699-2.156-.053-1.328.068-2.156.523-2.187.454-.031.433.847.485 2.159Z" fill="#fff" stroke="#263238" stroke-width=".933" stroke-linecap="round" stroke-linejoin="round"/>
  <path d="M188.045 48.525h.08a1.783 1.783 0 0 1 1.685 1.026 1.754 1.754 0 0 1 .054 1.353 1.77 1.77 0 0 1-1.596 1.157h-.081l-.142-3.536Z" fill="#E8E8E8" stroke="#263238" stroke-width=".933" stroke-linecap="round" stroke-linejoin="round"/>
  <path d="M187.692 50.306c.052 1.312.031 2.156.485 2.156.455 0 .576-.878.523-2.19-.052-1.312-.244-2.156-.696-2.14-.451.015-.365.861-.312 2.174Z" fill="#fff" stroke="#263238" stroke-width=".933" stroke-linecap="round" stroke-linejoin="round"/>
  <path d="M180.394 49.474s1.178-.97 2.295-.092M186.863 49.28s-1.238-.872-2.296.093" stroke="#263238" stroke-width=".933" stroke-linecap="round" stroke-linejoin="round"/>
  <path d="M181.387 57.137s.706 1.762 3.322 2.156c0 0-1.045 2.156-2.474 1.31-1.711-1.011-2.039-3.108-2.039-3.108l1.191-.358Z" fill="#E8E8E8" stroke="#263238" stroke-width=".933" stroke-linecap="round" stroke-linejoin="round"/>
  <path d="M186.182 57.356a1.99 1.99 0 0 1-.442 1.292c-.295.365-.71.615-1.173.707 0 0 1.272 2.076 2.314.924 1.043-1.152.232-2.72.232-2.72l-.931-.203ZM185.6 63.47a.307.307 0 0 1-.191.284.311.311 0 0 1-.422-.224.31.31 0 1 1 .613-.06ZM186.02 69.534a.307.307 0 0 1-.37.302.307.307 0 0 1 .061-.61.308.308 0 0 1 .309.308ZM186.416 75.743a.307.307 0 0 1-.369.302.309.309 0 1 1 .369-.302Z" fill="#E8E8E8" stroke="#263238" stroke-width=".933" stroke-linecap="round" stroke-linejoin="round"/>
  <path d="M213.675 34.45h-62.677a.524.524 0 0 0-.526.523v1.124c0 .29.235.524.526.524h62.677c.29 0 .526-.234.526-.524v-1.124a.525.525 0 0 0-.526-.523Z" fill="#fff"/>
  <path d="M213.569 36.621h-62.466M151.103 34.45h62.466" stroke="#263238" stroke-width=".933" stroke-linecap="round" stroke-linejoin="round"/>
  <path d="M170.548 49.061s-2.583-.36-2.723.33c-.139.69-.061 1.796.384 2.156.841.684.687 1.962.687 1.962l2.165-.21.056-1.078c.111-.351.31-.669.578-.923.78-.73.47-1.54.337-2.517-.133-.976-.779-.542-.832-.037-.015.45.022.901.112 1.343l-.764-1.026Z" fill="#fff" stroke="#263238" stroke-width=".933" stroke-linecap="round" stroke-linejoin="round"/>
  <path d="M171.153 50.01s-.618.126-1.107.998l1.107-.998Z" fill="#fff"/>
  <path d="M171.153 50.01s-.618.126-1.107.998" stroke="#263238" stroke-width=".933" stroke-linecap="round" stroke-linejoin="round"/>
  <path d="M171.154 50.238h-3.13a1.37 1.37 0 0 1-1.126-.536.92.92 0 0 1 0-1.072l1.565-2.288a1.439 1.439 0 0 1 1.132-.545 1.45 1.45 0 0 1 1.132.545l1.568 2.288a.922.922 0 0 1 0 1.072 1.35 1.35 0 0 1-1.141.536Zm-3.712-1.355a.479.479 0 0 0 0 .56.703.703 0 0 0 .585.278h3.127a.707.707 0 0 0 .585-.278.478.478 0 0 0 0-.56l-1.566-2.286a.702.702 0 0 0-.59-.283.703.703 0 0 0-.588.283l-1.568 2.289.015-.003Z" fill="#263238"/>
  <path d="M168.651 49.092c.161.813.062 1.103-.309 1.06-.372-.044-.746-1.041-.232-1.27.513-.227.927-.403.927-.403a1.211 1.211 0 0 1 1.077-.034c.736-.255.866.277.866.277s.532 1.54.09 1.593c-.443.052-.808-1.285-.808-1.285s.554 1.466.047 1.491c-.507.025-.801-1.423-.801-1.423s.331 1.272-.149 1.315c-.479.044-.708-1.321-.708-1.321ZM169.821 36.04h-.508v10.11h.508V36.04Z" fill="#fff" stroke="#263238" stroke-width=".933" stroke-linecap="round" stroke-linejoin="round"/>
  <path d="m170.102 45.993-.331.484a.237.237 0 0 1-.284.065.231.231 0 0 1-.081-.065l-.328-.484c-.08-.114.022-.255.179-.255h.662c.161 0 .26.154.183.255ZM169.861 42.6h-.541a.268.268 0 0 0-.269.267v2.243c0 .148.12.267.269.267h.541c.149 0 .269-.12.269-.267v-2.243a.268.268 0 0 0-.269-.268ZM169.861 34.102h-.541a.268.268 0 0 0-.269.268v2.242c0 .148.12.268.269.268h.541c.149 0 .269-.12.269-.268V34.37a.268.268 0 0 0-.269-.268Z" fill="#fff" stroke="#263238" stroke-width=".933" stroke-linecap="round" stroke-linejoin="round"/>
  <path d="M163.796 50.238h-3.131a1.366 1.366 0 0 1-1.126-.536.92.92 0 0 1 0-1.072l1.565-2.288a1.447 1.447 0 0 1 1.134-.545 1.459 1.459 0 0 1 1.134.545l1.565 2.288a.92.92 0 0 1 0 1.072 1.35 1.35 0 0 1-1.141.536Zm-3.712-1.355a.479.479 0 0 0 0 .56.708.708 0 0 0 .584.277h3.131a.715.715 0 0 0 .587-.277.479.479 0 0 0 0-.56l-1.565-2.286a.703.703 0 0 0-.591-.283.7.7 0 0 0-.587.283l-1.569 2.289.01-.003Z" fill="#263238"/>
  <path d="M162.462 36.04h-.507v10.11h.507V36.04Z" fill="#fff" stroke="#263238" stroke-width=".933" stroke-linecap="round" stroke-linejoin="round"/>
  <path d="m162.743 45.994-.343.483a.237.237 0 0 1-.284.065.223.223 0 0 1-.081-.065l-.328-.483c-.081-.114.021-.256.179-.256h.662c.161 0 .272.154.195.256ZM162.503 42.6h-.542a.269.269 0 0 0-.269.267v2.243c0 .148.121.267.269.267h.542c.148 0 .269-.12.269-.267v-2.243a.269.269 0 0 0-.269-.268ZM162.503 34.102h-.542a.269.269 0 0 0-.269.268v2.242c0 .148.121.268.269.268h.542c.148 0 .269-.12.269-.268V34.37a.269.269 0 0 0-.269-.268Z" fill="#fff" stroke="#263238" stroke-width=".933" stroke-linecap="round" stroke-linejoin="round"/>
  <path d="M195.687 50.238h-3.13a1.363 1.363 0 0 1-1.126-.536.92.92 0 0 1 0-1.072l1.565-2.288a1.439 1.439 0 0 1 1.132-.545 1.45 1.45 0 0 1 1.132.545l1.566 2.288a.92.92 0 0 1 0 1.072 1.357 1.357 0 0 1-1.139.536Zm-3.712-1.355a.478.478 0 0 0 0 .56.703.703 0 0 0 .585.278h3.13a.71.71 0 0 0 .585-.278.478.478 0 0 0 0-.56l-1.565-2.286a.761.761 0 0 0-.919-.209.761.761 0 0 0-.263.21l-1.565 2.288.012-.003Z" fill="#263238"/>
  <path d="M194.351 36.04h-.507v10.11h.507V36.04Z" fill="#fff" stroke="#263238" stroke-width=".933" stroke-linecap="round" stroke-linejoin="round"/>
  <path d="m194.632 45.993-.328.484a.231.231 0 0 1-.284.065.231.231 0 0 1-.081-.065l-.328-.484c-.08-.114.022-.255.18-.255h.661c.158 0 .26.154.18.255ZM194.393 42.6h-.541a.268.268 0 0 0-.269.267v2.243c0 .148.12.267.269.267h.541a.27.27 0 0 0 .27-.267v-2.243a.269.269 0 0 0-.27-.268ZM194.393 34.102h-.541a.268.268 0 0 0-.269.268v2.242c0 .148.12.268.269.268h.541a.27.27 0 0 0 .27-.268V34.37a.27.27 0 0 0-.27-.268Z" fill="#fff" stroke="#263238" stroke-width=".933" stroke-linecap="round" stroke-linejoin="round"/>
  <path d="M202.699 50.238h-3.13a1.37 1.37 0 0 1-1.126-.536.92.92 0 0 1 0-1.072l1.565-2.288a1.444 1.444 0 0 1 1.133-.545 1.455 1.455 0 0 1 1.134.545l1.565 2.288a.92.92 0 0 1 0 1.072 1.35 1.35 0 0 1-1.141.536Zm-3.712-1.355a.479.479 0 0 0 0 .56.703.703 0 0 0 .585.277h3.13a.715.715 0 0 0 .588-.277.478.478 0 0 0 0-.56l-1.565-2.286a.706.706 0 0 0-.591-.283.701.701 0 0 0-.588.283l-1.568 2.289.009-.003Z" fill="#263238"/>
  <path d="M201.367 36.04h-.508v10.11h.508V36.04Z" fill="#fff" stroke="#263238" stroke-width=".933" stroke-linecap="round" stroke-linejoin="round"/>
  <path d="m201.649 45.993-.331.484a.237.237 0 0 1-.284.065.223.223 0 0 1-.081-.065l-.328-.484c-.081-.114.021-.255.179-.255h.662c.161 0 .26.154.183.255ZM201.407 42.6h-.541a.268.268 0 0 0-.269.267v2.243c0 .148.12.267.269.267h.541c.149 0 .269-.12.269-.267v-2.243a.268.268 0 0 0-.269-.268ZM201.407 34.102h-.541a.268.268 0 0 0-.269.268v2.242c0 .148.12.268.269.268h.541c.149 0 .269-.12.269-.268V34.37a.268.268 0 0 0-.269-.268Z" fill="#fff" stroke="#263238" stroke-width=".933" stroke-linecap="round" stroke-linejoin="round"/>
  <path d="m171.396 52.813.164 1.315-3.366.157.282-1.318 2.92-.154Z" fill="#E8E8E8" stroke="#263238" stroke-width=".933" stroke-linecap="round" stroke-linejoin="round"/>
  <path d="M177.104 63.867s-5.844 5.35-7.192 5.433c-.331.022-.619.228-.897.04-.619-.419-1.513-1.306-1.383-4.91.068-1.97 1.265-10.185 1.265-10.185l2.165-.095.526 9.24c1.856-1.916 5.083-4.571 5.086-4.571 1.008 3.21.43 5.048.43 5.048Z" fill="#fff" stroke="#263238" stroke-width=".933" stroke-linecap="round" stroke-linejoin="round"/>
  <path d="M191.839 71.305c.146-.639.423-1.24.813-1.768l-.813 1.768Z" fill="#fff"/>
  <path d="M191.839 71.305c.146-.639.423-1.24.813-1.768M170.925 65.564c.226-.102.764-1.103.652-2.812" stroke="#263238" stroke-width=".933" stroke-linecap="round" stroke-linejoin="round"/>
  <path d="M173 43.622v-3.68a.675.675 0 0 1 .674-.672h5.803a.678.678 0 0 1 .675.671v3.681a.675.675 0 0 1-.675.671h-2.02l.161 1.402h-1.042v1.324l-1.237-2.156h1.011l-.105-.566h-2.574a.681.681 0 0 1-.476-.2.683.683 0 0 1-.195-.475Z" fill="#fff" stroke="#263238" stroke-width=".933" stroke-linecap="round" stroke-linejoin="round"/>
  <path d="M178.03 40.53h-3.923M179.044 41.574h-4.937M178.283 42.615h-4.176" stroke="#263238" stroke-width=".933" stroke-linecap="round" stroke-linejoin="round"/>
  <path d="M43.938 134.719c7.976 0 14.443-.947 14.443-2.116 0-1.168-6.467-2.115-14.443-2.115-7.977 0-14.443.947-14.443 2.115 0 1.169 6.466 2.116 14.443 2.116ZM42.673 98.883c13.891 0 25.152-11.212 25.152-25.043s-11.26-25.044-25.152-25.044c-13.89 0-25.152 11.213-25.152 25.044 0 13.831 11.261 25.043 25.152 25.043Z" fill="#E8E8E8"/>
  <path d="M31.073 90.217s.64 3.695-1.522 7.85H56.59s-1.238-1.937-2.534-7.85H31.073Z" fill="#fff" stroke="#263238" stroke-width=".874" stroke-linecap="round" stroke-linejoin="round"/>
  <path d="M37.237 91.07a8.086 8.086 0 0 0-4.1 1.51 8.036 8.036 0 0 0-2.705 3.418c-.29.702-.594 1.413-.882 2.079-1.645 3.791-.09 9.307 4.118 9.307h19.29c3.814 0 4.856-4.807 3.944-8.43-.588-2.328-1.773-4.666-3.796-6.304-2.703-2.203-10.604-2-15.869-1.58Z" fill="#263238" stroke="#263238" stroke-width=".874" stroke-linecap="round" stroke-linejoin="round"/>
  <path d="M18.82 87.001s-3.457 2.082-3.572 3.215h4.241l1.686-1.204-.57 1.21h1.29s1.371-1.059 1.445-2.232L23.201 87l-2.475-1.097-1.905 1.097Z" fill="#fff" stroke="#263238" stroke-width=".874" stroke-linecap="round" stroke-linejoin="round"/>
  <path d="M59.33 79.353s-.553-3.625-1.769-8.845c-1.215-5.221-3.591-5.63-3.591-5.63h-.022c-3.093-1.325-11.136-2.04-11.136-2.04h-.371s-8.061.715-11.136 2.04h-.022s-2.397.418-3.613 5.63c-1.215 5.21-1.772 8.845-1.772 8.845s-2.196.592-6.15 5.544a13.084 13.084 0 0 0-1.574 2.544s3.038-.994 5.166.53c0 0 6.972-2.944 7.322-6.049 0-.11.027-.234.043-.367.198 4.713.368 8.65.368 8.65h23.083s.173-3.937.37-8.65c0 .133.028.256.04.367.353 3.105 8.071 6.585 8.071 6.585 2.116-3.24 5.188-1.45 5.188-1.45l-8.494-7.704Z" fill="#fff"/>
  <path opacity=".3" d="M30.663 81.928c0-.092.024-.197.037-.308l-.504-10.906s-1.392.283-.993 3.631c.399 3.348 1.237 2.772.77 4.063-.467 1.29-2.28-.188-2.88.924-.6 1.112 3.353.874 1.72 3.739-1.633 2.864-5.472 4.928-5.472 4.928s6.975-2.96 7.322-6.07ZM54.676 81.928c0-.092.91.068 0 0l.275-9.335s-.068 4.515.418 5.815c.485 1.3 2.28-.188 2.877.924.596 1.112-3.354.875-1.717 3.739 1.636 2.864 5.469 4.928 5.469 4.928s-6.97-2.96-7.322-6.07ZM54.323 84.053l-.266 6.16H33.304c13.92 0 21.034-6.16 21.034-6.16h-.015Z" fill="#000"/>
  <path d="M59.33 79.353s-.553-3.625-1.769-8.845c-1.215-5.221-3.591-5.63-3.591-5.63h-.022c-3.093-1.325-11.136-2.04-11.136-2.04h-.371s-8.061.715-11.136 2.04h-.022s-2.397.418-3.613 5.63c-1.215 5.21-1.772 8.845-1.772 8.845s-2.196.592-6.15 5.544a13.084 13.084 0 0 0-1.574 2.544v0s3.038-.994 5.166.53c0 0 6.972-2.944 7.322-6.049 0-.11.027-.234.043-.367.198 4.713.368 8.65.368 8.65h23.083s.173-3.937.37-8.65c0 .133.028.256.04.367.353 3.105 8.071 6.585 8.071 6.585 2.116-3.24 5.188-1.45 5.188-1.45l-8.494-7.704Z" stroke="#263238" stroke-width=".874" stroke-linecap="round" stroke-linejoin="round"/>
  <path d="M26.637 79.332a4.29 4.29 0 0 1 3.04 1.056M28.81 71.04s1.43.308 1.758 7.226l-.43-9.08M30.587 79.227l.065 1.401M58.593 79.332a4.29 4.29 0 0 0-3.04 1.04M55.006 71.04c.027-.616.056-1.232.087-1.848" stroke="#263238" stroke-width=".874" stroke-linecap="round" stroke-linejoin="round"/>
  <path d="M46.948 63.337c-.374 1.867-2.187 2.541-4.371 2.541-2.184 0-3.99-.671-4.37-2.531h.086a1.13 1.13 0 0 0 .946-.857.856.856 0 0 0 .047-.274v-2.19h6.681v2.19a1.13 1.13 0 0 0 .98 1.121Z" fill="#fff"/>
  <path d="M45.912 61.665c-1.108 1.084-2.342 1.758-3.533 1.81-1.237.056-2.672-.954-3.257-1.946a.922.922 0 0 0 .034-.265v-.671l6.682.07v.602c0 .141.17.307.074.4Z" fill="#263238"/>
  <path d="M46.948 63.337c-.374 1.867-2.187 2.541-4.371 2.541-2.184 0-3.99-.671-4.37-2.531h.086a1.13 1.13 0 0 0 .946-.857.856.856 0 0 0 .047-.274v-2.19h6.681v2.19a1.13 1.13 0 0 0 .98 1.121v0Z" stroke="#263238" stroke-width=".874" stroke-linecap="round" stroke-linejoin="round"/>
  <path d="M37.696 55.323s-2.316-2.609-2.013-6.203c.303-3.594 3.266-3.594 3.266-3.594s3.573-3.139 7.56-1.174c3.988 1.965 3.712 8.778.761 10.472l-9.574.5Z" fill="#263238"/>
  <path d="M47.91 53.568c.03-.598.027-.968.027-.968-.266-1.589-2.218-1.75-3.115-1.777-3.758-.126-4.748-2.42-4.748-2.42-2.28-.681-2.926 4.197-2.926 4.197s0 .37.03.968a1.708 1.708 0 0 0-1.018.614c-.255.32-.385.72-.367 1.129 0 .973.705 1.758 1.577 1.758.088 0 .176-.008.263-.024l.408 2.291c.078.515.563 1.731 1 2.02.928.617 2.397 1.495 3.501 1.495.953 0 2.29-.783 3.276-1.316.55-.308 1.157-1.487 1.21-2.106l.256-2.317c.145-.006.29-.02.433-.043.87 0 1.578-.785 1.578-1.758a1.695 1.695 0 0 0-.367-1.129 1.708 1.708 0 0 0-1.019-.614Z" fill="#fff" stroke="#263238" stroke-width=".874" stroke-linecap="round" stroke-linejoin="round"/>
  <path d="M36.399 52.09h-.409v1.447h.409v-1.448ZM48.875 52.09h-.408v1.447h.408v-1.448Z" fill="#fff" stroke="#263238" stroke-width=".874" stroke-linecap="round" stroke-linejoin="round"/>
  <path d="M42.431 45.766c-1.737 0-3.406.67-4.656 1.87a6.665 6.665 0 0 0-2.047 4.564.237.237 0 0 0 .241.246h.433a.242.242 0 0 0 .241-.234 5.758 5.758 0 0 1 1.787-3.906 5.807 5.807 0 0 1 4.001-1.596c1.49 0 2.923.572 4.001 1.596a5.758 5.758 0 0 1 1.787 3.906.243.243 0 0 0 .244.234h.43a.242.242 0 0 0 .244-.246 6.667 6.667 0 0 0-2.05-4.564 6.725 6.725 0 0 0-4.656-1.87Z" fill="#fff" stroke="#263238" stroke-width=".874" stroke-linecap="round" stroke-linejoin="round"/>
  <path d="M37.097 53.016h-.093a2.123 2.123 0 0 0-1.446.645 2.105 2.105 0 0 0 0 2.927c.38.393.898.624 1.446.645h.093v-4.217Z" fill="#263238" stroke="#263238" stroke-width=".874" stroke-miterlimit="10"/>
  <path d="M37.6 55.132c0 1.562.068 2.578-.474 2.578-.541 0-.727-1.016-.727-2.578 0-1.561.186-2.58.727-2.58.542 0 .474 1.003.474 2.58Z" fill="#fff" stroke="#263238" stroke-width=".874" stroke-linecap="round" stroke-linejoin="round"/>
  <path d="M47.77 53.016h.093c.548.021 1.066.252 1.446.645a2.105 2.105 0 0 1 0 2.927c-.38.393-.898.624-1.446.645h-.093v-4.217Z" fill="#263238" stroke="#263238" stroke-width=".874" stroke-miterlimit="10"/>
  <path d="M47.264 55.132c0 1.562-.065 2.578.476 2.578.542 0 .727-1.016.727-2.578 0-1.561-.185-2.58-.727-2.58-.54 0-.476 1.003-.476 2.58Z" fill="#fff" stroke="#263238" stroke-width=".874" stroke-linecap="round" stroke-linejoin="round"/>
  <path d="M38.813 55.511s.881 1.081 2.533.228" stroke="#263238" stroke-width=".874" stroke-linecap="round" stroke-linejoin="round"/>
  <path d="M41.345 59.715a2.14 2.14 0 0 0 2.508 0" stroke="#263238" stroke-width=".75" stroke-linecap="round" stroke-linejoin="round"/>
  <path d="M38.567 54.06s1.6-1.213 3.023 0M46.423 54.1s-1.6-1.232-3.023 0" stroke="#263238" stroke-width=".874" stroke-linecap="round" stroke-linejoin="round"/>
  <path d="M43.761 58.015s.142.789-1.308.77c-.356 0-1.003-.252-1.024-.77" stroke="#263238" stroke-width=".75" stroke-linecap="round" stroke-linejoin="round"/>
  <path d="M39.16 55.798c.132.261.432.563 1.104.579.67.015.788-.25.8-.509a2.037 2.037 0 0 1-1.905-.07Z" fill="#263238"/>
  <path d="M46.19 55.511s-.882 1.081-2.534.228" stroke="#263238" stroke-width=".874" stroke-linecap="round" stroke-linejoin="round"/>
  <path d="M45.843 55.798c-.133.261-.433.563-1.104.579-.672.015-.79-.25-.801-.509a2.034 2.034 0 0 0 1.905-.07Z" fill="#263238"/>
  <path d="M39.708 44.026s-.813.452-.724 1.74c0 0-.284-.869-1.33-.49" stroke="#263238" stroke-width=".874" stroke-linecap="round" stroke-linejoin="round"/>
  <path d="M42.614 66.836a5.188 5.188 0 0 0 2.978-.94 5.153 5.153 0 0 0 1.89-2.476c-.28-.043-.56-.08-.828-.117a4.732 4.732 0 0 1-1.725 1.65 4.755 4.755 0 0 1-6.352-1.65c-.27.037-.547.074-.829.117a5.153 5.153 0 0 0 1.89 2.475c.87.612 1.91.94 2.976.941Z" fill="#263238" stroke="#263238" stroke-width=".874" stroke-linecap="round" stroke-linejoin="round"/>
  <path d="M54.525 81.568c.136-3.002.274-6.005.412-9.01" stroke="#263238" stroke-width=".874" stroke-linecap="round" stroke-linejoin="round"/>
  <path d="M54.629 50.885v-3.317a.615.615 0 0 0-.62-.616h-5.215a.62.62 0 0 0-.618.616v3.317a.615.615 0 0 0 .618.616h1.82l-.146 1.263h.928v1.192l1.11-1.944h-.912l.096-.511h2.317a.62.62 0 0 0 .622-.616Z" fill="#fff" stroke="#263238" stroke-width=".874" stroke-linecap="round" stroke-linejoin="round"/>
  <path d="M49.184 48.1h3.535M49.184 49.04h4.445M49.184 49.98h3.761" stroke="#263238" stroke-width=".874" stroke-linecap="round" stroke-linejoin="round"/>
  <path d="M70.652 88.612c0 .98-1.547 1.592-3.446 1.592-1.9 0-3.446-.616-3.446-1.592 0-.977 1.546-1.777 3.446-1.777 1.899 0 3.446.794 3.446 1.777Z" fill="#fff" stroke="#263238" stroke-width=".874" stroke-linecap="round" stroke-linejoin="round"/>
  <path d="M64.976 89.85c.093-.022.167-.54-.671-.924-.582-.265-.597-.545-.263-.89.334-.345.903-.635 1.342-.508.715.203 1.188 1.684 1.507 1.364.48-.123-.1-1.481-.956-1.928 1.546.382 1.62 2.156 2.332 2.014.545-.104-.396-1.866-1.21-2.387.522.242.978.604 1.33 1.057.517.748.576 1 .929.893.458-.145-.634-1.79-.77-1.968.686.27.816.844 1.027 1.075.21.23.309.616.6.465.29-.151.021-.687-.174-1.001-.928-1.494-2.474-1.743-3.947-1.559-1.163.148-2.5.635-3.207 1.559a1.44 1.44 0 0 0-.1 1.632c.248.52 1.133 1.352 2.23 1.106Z" fill="#fff" stroke="#263238" stroke-width=".874" stroke-linecap="round" stroke-linejoin="round"/>
  <path d="M71.555 90.217H14.628a.306.306 0 0 0-.306.305v.49c0 .168.137.304.307.304h56.926c.17 0 .306-.136.306-.305v-.49a.306.306 0 0 0-.306-.304Z" fill="#BFBFBF" stroke="#263238" stroke-width=".874" stroke-miterlimit="10"/>
  <path d="m16.299 90.216-4.188-12.674a.334.334 0 0 1 .309-.437h13.23l4.711 13.111H16.3Z" fill="#263238"/>
  <path d="m26.012 77.105 4.33 12.375h11.6v.435a.307.307 0 0 1-.309.308H29.6l-4.166-12.607a.378.378 0 0 1 .358-.496l.22-.015Z" fill="#fff" stroke="#263238" stroke-width=".874" stroke-linecap="round" stroke-linejoin="round"/>
  <path d="M19.869 83.662a1.169 1.169 0 0 0-.29-.576.665.665 0 0 1 .528-.234 1.076 1.076 0 0 1 1 .822.641.641 0 0 1-.352.765.649.649 0 0 1-.298.058 1.014 1.014 0 0 1-.644-.25.832.832 0 0 0 .056-.585Z" fill="#fff"/>
  <path d="M46.672 90.216h4.23c.562-.41 1.019-.95 1.33-1.571.312-.622.47-1.31.46-2.004V84.66a.571.571 0 0 0-.575-.573h-6.645a.575.575 0 0 0-.53.354.565.565 0 0 0-.042.219v1.98a4.34 4.34 0 0 0 1.773 3.576Z" fill="#fff" stroke="#263238" stroke-width=".874" stroke-linecap="round" stroke-linejoin="round"/>
  <path d="M53.891 84.931a1.223 1.223 0 0 0-1.2-.055v.714a.764.764 0 0 1 .53.105c.596.345.47 1.05.052 1.768a1.92 1.92 0 0 1-.928.924 4.342 4.342 0 0 1-.461.84c.795.173 1.522-.498 2.09-1.478.669-1.152.87-2.27-.083-2.818Z" fill="#fff" stroke="#263238" stroke-width=".874" stroke-linecap="round" stroke-linejoin="round"/>
  <path d="M48.875 80.967c.154-.499.23-1.018.226-1.54 0-2.895-2.735-3.237-2.735-6.526M46.935 83.52c.495-.306.923-.71 1.259-1.185M48.639 75.66a1.58 1.58 0 0 1-.184-.924M50.767 79.726c-.139-.906-.662-1.756-1.178-2.529M49.184 83.555s.903-.38 1.398-2.089" stroke="#263238" stroke-width=".874" stroke-linecap="round" stroke-linejoin="round"/>
  <path d="M54.709 107.375H31.546a3.056 3.056 0 0 0-3.063 3.049v15.246a3.057 3.057 0 0 0 3.063 3.05h23.163a3.057 3.057 0 0 0 3.062-3.05v-15.246a3.056 3.056 0 0 0-3.062-3.049Z" fill="#fff" stroke="#263238" stroke-width=".874" stroke-miterlimit="10"/>
  <path d="m35.806 122.061.35 6.089.04.052a2.947 2.947 0 0 0 4.751-.052l.13-6.089h-5.271Z" fill="#fff" stroke="#263238" stroke-width=".874" stroke-linecap="round" stroke-linejoin="round"/>
  <path d="M42.233 134.1c-2.346.41-4.746.41-7.093 0a3.335 3.335 0 0 1-.56-.727 3.045 3.045 0 0 1-.114-2.772l1.413-2.51 5.602.062 1.262 2.291a3.072 3.072 0 0 1-.33 3.468 2.362 2.362 0 0 1-.18.188Z" fill="#BFBFBF" stroke="#263238" stroke-width=".874" stroke-miterlimit="10"/>
  <path d="M40.857 130.94c.347.152.678.338.987.555l-.987-.555Z" fill="#BFBFBF"/>
  <path d="M40.857 130.94c.347.152.678.338.987.555" stroke="#263238" stroke-width=".874" stroke-miterlimit="10"/>
  <path d="M35.573 131.495a5.652 5.652 0 0 1 4.25-.878" fill="#BFBFBF"/>
  <path d="M35.573 131.495a5.652 5.652 0 0 1 4.25-.878" stroke="#263238" stroke-width=".874" stroke-miterlimit="10"/>
  <path d="m32.79 96.93 2.474 28.238h6.4s.634-17.248 1.036-28.447a4.909 4.909 0 0 0-1.383-3.615 4.95 4.95 0 0 0-3.579-1.507 4.967 4.967 0 0 0-3.65 1.583 4.924 4.924 0 0 0-1.299 3.749Z" fill="#263238"/>
  <path d="M39.158 91.8a4.988 4.988 0 0 0-1.435-.2v0a4.965 4.965 0 0 0-3.641 1.588 4.923 4.923 0 0 0-1.293 3.743l.879 10.444M41.83 93.725a5.17 5.17 0 0 0-.887-.968s-.387-.308-.56-.406M42.277 107.375c.127-3.495.325-7.586.433-10.653a4.91 4.91 0 0 0-.433-2.215" stroke="#fff" stroke-width=".874" stroke-linecap="round" stroke-linejoin="round"/>
  <path d="m46.217 122.061.35 6.089.04.052a2.947 2.947 0 0 0 4.751-.052l.13-6.089h-5.271Z" fill="#fff" stroke="#263238" stroke-width=".874" stroke-linecap="round" stroke-linejoin="round"/>
  <path d="M52.646 134.1c-2.346.41-4.747.41-7.093 0a3.287 3.287 0 0 1-.557-.727 3.036 3.036 0 0 1-.117-2.772l1.416-2.51 5.6.062 1.261 2.291a3.072 3.072 0 0 1-.33 3.468 2.345 2.345 0 0 1-.18.188Z" fill="#BFBFBF" stroke="#263238" stroke-width=".874" stroke-miterlimit="10"/>
  <path d="M51.27 130.94c.346.152.677.337.986.555l-.986-.555Z" fill="#BFBFBF"/>
  <path d="M51.27 130.94c.346.152.677.337.986.555" stroke="#263238" stroke-width=".874" stroke-miterlimit="10"/>
  <path d="M45.992 131.495a5.648 5.648 0 0 1 4.25-.878" fill="#BFBFBF"/>
  <path d="M45.992 131.495a5.648 5.648 0 0 1 4.25-.878" stroke="#263238" stroke-width=".874" stroke-miterlimit="10"/>
  <path d="m43.211 96.93 2.475 28.238h6.4s.634-17.248 1.04-28.447a4.924 4.924 0 0 0-1.398-3.619 4.966 4.966 0 0 0-3.59-1.503 4.966 4.966 0 0 0-3.636 1.591 4.924 4.924 0 0 0-1.291 3.74Z" fill="#263238"/>
  <path d="M50.18 92.025a4.965 4.965 0 0 0-2.041-.425 4.968 4.968 0 0 0-3.637 1.59 4.924 4.924 0 0 0-1.291 3.74l.928 10.445M52.244 93.725a4.982 4.982 0 0 0-.888-.967M52.957 107.375c.127-3.496.056-7.586.167-10.654a4.922 4.922 0 0 0-.334-1.974" stroke="#fff" stroke-width=".874" stroke-linecap="round" stroke-linejoin="round"/>
  <path d="M128.761 48.87V35.728c0-.636-.253-1.245-.705-1.694a2.41 2.41 0 0 0-1.701-.702h-20.707c-.638 0-1.251.252-1.702.702a2.393 2.393 0 0 0-.705 1.694V48.87c0 .636.254 1.245.705 1.695.451.45 1.064.702 1.702.702h7.21l-.569 5.002h3.712v4.715l4.405-7.7h-3.613l.381-2.02h9.181c.637 0 1.249-.253 1.7-.701a2.389 2.389 0 0 0 .706-1.693Z" fill="#fff" stroke="#263238" stroke-width="1.025" stroke-linecap="round" stroke-linejoin="round"/>
  <path d="M107.193 37.829h14.001M107.193 41.552h17.614M107.193 45.276h14.904" stroke="#263238" stroke-width="1.025" stroke-linecap="round" stroke-linejoin="round"/>
  <path d="m144.576 105.145 12.51 4.152-3.103 3.092 5.791 5.766-12.51-4.152 3.103-3.092-5.791-5.766ZM87.424 105.145l-12.51 4.152 3.103 3.092-5.79 5.766 12.509-4.152-3.103-3.092 5.791-5.766ZM115.651 9.9l-5.899 11.746h4.392v8.156l5.896-11.747h-4.389V9.899Z" fill="#E8E8E8" stroke="#263238" stroke-width="1.025" stroke-linecap="round" stroke-linejoin="round"/>
</svg>
