<svg width="236" height="157" fill="none" xmlns="http://www.w3.org/2000/svg">
  <path d="M189.939 96.285s-3.868-2.144-4.154 2.713c-.286 4.858-1.004 36.455-1.004 36.455" stroke="#263238" stroke-width="2" stroke-linecap="round" stroke-linejoin="round"/>
  <path d="M183.766 99.428s3.146 7.006 1.721 35.595" stroke="#263238" stroke-width="2" stroke-linecap="round" stroke-linejoin="round"/>
  <path d="M186.877 97.261s-1.482.943-2.322-.135c-.84-1.077.57-3.067-.673-3.915-1.243-.848-3.392.446-3.392.446s1.652.483 1.598 1.385c-.053.9-.849 1.255-.944.847-.094-.408-.897-2.377-2.24-1.55a3.315 3.315 0 0 0-1.545 2.103s3.124-.333 3.313.842c.189 1.174-1.28-.205-2.571-.28-1.29-.075-2.467.113-2.382.892.029.689-.012 1.379-.122 2.06a3.833 3.833 0 0 1 2.517-.886c1.419.082 1.366.983.076.908-1.291-.076-2.398 1.149-2.398 1.149s1.177 2.006 2.671 2.999c1.495.992 2.033.628 2.203-.129.17-.757-.227-2.726.676-2.672.904.053-1.494 3.4-.342 3.598 1.151.198 2.079-.138 2.382-.895l.314-.757s-.403-1.959-.226-2.725c.176-.766.387.022.591.942.205.92.334 3.121.727 3.014.393-.106 1.655-1.711 1.951-2.339.296-.628-1.661-2.553-1.639-2.939.022-.386 1.532.349 1.768.75.171.306.325.62.463.942 0 0 .944-.59.918-2.398-.025-1.81-1.372-1.257-1.372-1.257Z" fill="#fff"/>
  <path opacity=".3" d="M186.877 97.261s-1.482.943-2.322-.135c-.84-1.077.57-3.067-.673-3.915-1.243-.848-3.392.446-3.392.446s1.652.483 1.598 1.385c-.053.9-.849 1.255-.944.847-.094-.408-.897-2.377-2.24-1.55a3.315 3.315 0 0 0-1.545 2.103s3.124-.333 3.313.842c.189 1.174-1.28-.205-2.571-.28-1.29-.075-2.467.113-2.382.892.029.689-.012 1.379-.122 2.06a3.833 3.833 0 0 1 2.517-.886c1.419.082 1.366.983.076.908-1.291-.076-2.398 1.149-2.398 1.149s1.177 2.006 2.671 2.999c1.495.992 2.033.628 2.203-.129.17-.757-.227-2.726.676-2.672.904.053-1.494 3.4-.342 3.598 1.151.198 2.079-.138 2.382-.895l.314-.757s-.403-1.959-.226-2.725c.176-.766.387.022.591.942.205.92.334 3.121.727 3.014.393-.106 1.655-1.711 1.951-2.339.296-.628-1.661-2.553-1.639-2.939.022-.386 1.532.349 1.768.75.171.306.325.62.463.942 0 0 .944-.59.918-2.398-.025-1.81-1.372-1.257-1.372-1.257Z" fill="#263238"/>
  <path d="M179.376 101.504c.966-1.19 2.385-2.801 3.578-3.57M178.256 102.955s.248-.346.651-.861M183.583 98.228s1.435 2.023 1.699 4.105M181.959 99.425s.403-.232.252 2.339M183.007 97.026s.818-.729.387-2.173M181.9 98.26l-.586-1.068M180.669 99.35s-1.857-1.4-3.018-1.47" stroke="#263238" stroke-linecap="round" stroke-linejoin="round"/>
  <path d="M192.15 93.447s-.06 2.122-1.721 2.226c-1.661.103-2.687-2.657-4.386-1.994-1.7.662-1.863 3.692-1.863 3.692s1.611-1.322 2.479-.653c.869.67.667 1.696.199 1.533-.469-.164-2.996-.726-3.081 1.177a4.018 4.018 0 0 0 1.054 2.98s1.797-3.347 3.106-2.738-1.079 1.14-2.036 2.377c-.957 1.237-1.573 2.54-.727 2.989.711.441 1.375.952 1.983 1.526 0 0-.227-1.752.824-3.112 1.051-1.359 1.916-.693.963.544-.954 1.237-.482 3.177-.482 3.177s2.814.195 4.827-.628c2.014-.822 2.027-1.598 1.379-2.295-.649-.697-2.889-1.63-2.222-2.496.667-.867 2.392 3.812 3.376 2.794.985-1.017 1.278-2.169.727-2.989l-.553-.819s-2.241-.942-2.889-1.63c-.648-.688.286-.374 1.347.047 1.06.42 3.354 1.793 3.518 1.328.163-.465-.589-2.826-1.017-3.542-.428-.716-3.694-.081-4.065-.367-.372-.286 1.394-1.294 1.957-1.256.563.038 1.259.173 1.259.173s.05-1.341-1.781-2.553c-1.832-1.212-2.175.508-2.175.508Z" fill="#fff"/>
  <path opacity=".2" d="M192.15 93.447s-.06 2.122-1.721 2.226c-1.661.103-2.687-2.657-4.386-1.994-1.7.662-1.863 3.692-1.863 3.692s1.611-1.322 2.479-.653c.869.67.667 1.696.199 1.533-.469-.164-2.996-.726-3.081 1.177a4.018 4.018 0 0 0 1.054 2.98s1.797-3.347 3.106-2.738-1.079 1.14-2.036 2.377c-.957 1.237-1.573 2.54-.727 2.989.711.441 1.375.952 1.983 1.526 0 0-.227-1.752.824-3.112 1.051-1.359 1.916-.693.963.544-.954 1.237-.482 3.177-.482 3.177s2.814.195 4.827-.628c2.014-.822 2.027-1.598 1.379-2.295-.649-.697-2.889-1.63-2.222-2.496.667-.867 2.392 3.812 3.376 2.794.985-1.017 1.278-2.169.727-2.989l-.553-.819s-2.241-.942-2.889-1.63c-.648-.688.286-.374 1.347.047 1.06.42 3.354 1.793 3.518 1.328.163-.465-.589-2.826-1.017-3.542-.428-.716-3.694-.081-4.065-.367-.372-.286 1.394-1.294 1.957-1.256.563.038 1.259.173 1.259.173s.05-1.341-1.781-2.553c-1.832-1.212-2.175.508-2.175.508Z" fill="#263238"/>
  <path d="M191.293 103.834c-.535-1.778-1.184-4.296-1.14-6.01M191.984 105.937s-.176-.48-.419-1.234M190.876 97.397s3.005-.054 5.274 1.099M190.972 99.833s.037-.559 2.517 1.347M189.285 97.158s-.17-1.316-1.917-1.868M189.76 99.102l-1.47-.145M190.014 101.07s-2.672.905-3.531 2.016" stroke="#263238" stroke-linecap="round" stroke-linejoin="round"/>
  <path d="M174.325 107.576s8.452 5.577 8.307 27.161" stroke="#263238" stroke-width="2" stroke-linecap="round" stroke-linejoin="round"/>
  <path d="M184.747 106.104s-.271 2.443-2.203 2.408c-1.932-.034-2.851-3.322-4.871-2.716-2.02.606-2.502 4.082-2.502 4.082s1.986-1.372 2.927-.521c.941.851.607 2.019.081 1.786-.525-.232-3.385-1.117-3.665 1.071a4.625 4.625 0 0 0 .108 1.866c.162.609.446 1.178.836 1.673 0 0 2.391-3.696 3.842-2.87 1.45.826-1.353 1.215-2.574 2.553-1.221 1.337-2.049 2.785-1.124 3.382.78.574 1.499 1.226 2.146 1.946 0 0-.097-2.044 1.259-3.513 1.356-1.47 2.278-.628 1.06.716-1.217 1.344-.855 3.623-.855 3.623s3.231.49 5.632-.264c2.401-.753 2.486-1.651 1.803-2.512-.683-.86-3.178-2.154-2.325-3.089.853-.936 2.398 4.622 3.631 3.542 1.234-1.081 1.68-2.384 1.12-3.382l-.588-.999s-2.495-1.29-3.178-2.154c-.683-.863.365-.402 1.548.182 1.183.584 3.703 2.387 3.933 1.862.23-.524-.415-3.306-.827-4.182-.413-.876-4.255-.44-4.657-.804-.403-.364 1.733-1.363 2.378-1.256.481.08.957.185 1.426.314 0 0 .182-1.545-1.816-3.115-1.998-1.57-2.545.371-2.545.371Z" fill="#fff"/>
  <path opacity=".3" d="M184.747 106.104s-.271 2.443-2.203 2.408c-1.932-.034-2.851-3.322-4.871-2.716-2.02.606-2.502 4.082-2.502 4.082s1.986-1.372 2.927-.521c.941.851.607 2.019.081 1.786-.525-.232-3.385-1.117-3.665 1.071a4.625 4.625 0 0 0 .108 1.866c.162.609.446 1.178.836 1.673 0 0 2.391-3.696 3.842-2.87 1.45.826-1.353 1.215-2.574 2.553-1.221 1.337-2.049 2.785-1.124 3.382.78.574 1.499 1.226 2.146 1.946 0 0-.097-2.044 1.259-3.513 1.356-1.47 2.278-.628 1.06.716-1.217 1.344-.855 3.623-.855 3.623s3.231.49 5.632-.264c2.401-.753 2.486-1.651 1.803-2.512-.683-.86-3.178-2.154-2.325-3.089.853-.936 2.398 4.622 3.631 3.542 1.234-1.081 1.68-2.384 1.12-3.382l-.588-.999s-2.495-1.29-3.178-2.154c-.683-.863.365-.402 1.548.182 1.183.584 3.703 2.387 3.933 1.862.23-.524-.415-3.306-.827-4.182-.413-.876-4.255-.44-4.657-.804-.403-.364 1.733-1.363 2.378-1.256.481.08.957.185 1.426.314 0 0 .182-1.545-1.816-3.115-1.998-1.57-2.545.371-2.545.371Z" fill="#263238"/>
  <path d="M182.778 118.008c-.454-2.098-.96-5.065-.752-7.04M183.375 120.501s-.157-.572-.368-1.463M182.903 110.528s3.462.223 5.979 1.768M182.779 113.354s.098-.628 2.779 1.79M181.086 110.117s-.072-1.532-2.032-2.336M181.452 112.403l-1.681-.305M181.563 114.701s-3.169.788-4.267 1.991" stroke="#263238" stroke-linecap="round" stroke-linejoin="round"/>
  <path d="M177.619 124.589s5.444 4.145 6.017 10.293l-1.13-20.586M190.798 121.587c-7.161-1.287-7.161 13.295-7.161 13.295" stroke="#263238" stroke-width="2" stroke-linecap="round" stroke-linejoin="round"/>
  <path d="M184.495 134.737s-4.153-30.163 7.867-30.163" stroke="#263238" stroke-width="2" stroke-linecap="round" stroke-linejoin="round"/>
  <path d="M188.071 120.717c-.979-1.095-3.059-1.095-4.28 1.712s-.123 2.317-.123 2.317 2.323-.732 3.776-1.221c1.454-.49 3.424-1.709 3.547-.974.123.735-.979 1.463-2.326 1.708-1.346.245-4.89 1.219-4.525 1.953.366.735 1.225 2.927 1.225 2.927a31.19 31.19 0 0 1 3.3-2.44c1.593-.976 2.571-.609 1.715.487-.856 1.096-3.304 2.32-2.813 3.784.491 1.463 3.436 3.297 3.436 3.297s.365-3.053 1.224-4.029c.859-.977.856.122.611 1.831a19.755 19.755 0 0 0-.246 2.198l3.424 1.218a24.335 24.335 0 0 1 1.835-2.44l.629-.609s-2.691-2.321-2.813-3.768c-.123-1.448 1.834 0 2.445.245.61.245 1.589 1.95 1.589 1.95s.613-2.804.736-3.768l.123-.977s-2.571-.976-3.55-.976c-.978 0-1.466.731-1.466-.245 0-.977.979-1.586 2.08-1.463.997.164 1.978.409 2.936.731 0 0 .733-.612.488-2.443-.246-1.83-.856-1.83-2.323-1.341-1.466.49-2.448 1.57-3.549 1.57s-.488-1.34.245-1.708c.733-.367 2.568-1.099 2.936-1.221.368-.123-1.957-1.831-3.181-2.073-1.224-.241-2.807.628-2.691 1.831.233 2.55-3.436 3.052-4.414 1.937Z" fill="#fff"/>
  <path d="M195.943 133.284c.038.367.063.738.076 1.105M193.484 124.523a32.29 32.29 0 0 1 2.304 7.564M193.045 123.543c-.604-1.3-1.061-2.091-1.061-2.091a3.62 3.62 0 0 0 1.574-1.466 4.079 4.079 0 0 1 1.224-1.464M187.701 125.6s4.406-1.831 4.406-1.463M194.552 123.283s1.957-.977 3.669-.977M193.834 126.228a17.026 17.026 0 0 0-2.325 2.317 10.55 10.55 0 0 0-1.712 2.807M195.162 126.699s2.571-.732 3.915.487" stroke="#263238" stroke-linecap="round" stroke-linejoin="round"/>
  <path d="M199.812 110.214c-1.331-.785-2.804-.804-3.528-1.633-.723-.829.696-1.256 1.454-.942.759.314 2.518 1.216 2.848 1.413.33.198.104-2.675-.513-3.768-.617-1.092-2.306-1.711-3.147-.829-1.778 1.866-4.553-.58-4.364-2.037.189-1.457-1.174-3.024-4.091-2.104-2.917.92-1.834 1.425-1.834 1.425s2.077 1.272 3.411 2.06 3.537 1.46 3.061 2.032c-.475.571-1.749.223-2.816-.628-1.067-.851-4.128-2.886-4.443-2.129-.315.757-1.416 2.826-1.416 2.826a31.05 31.05 0 0 1 4.012.888c1.781.556 2.146 1.533.755 1.608-1.39.075-3.92-.967-4.72.361-.799 1.328-.248 4.742-.248 4.742s2.549-1.724 3.848-1.718c1.3.006.469.725-.985 1.661-.63.385-1.238.805-1.822 1.256l1.322 3.382a24.11 24.11 0 0 1 3.049-.217l.862.06s0-3.548 1.02-4.6c1.019-1.052 1.202 1.381 1.419 2.003.217.622-.434 2.478-.434 2.478s2.517-1.379 3.341-1.925l.822-.55s-.944-2.575-1.574-3.312c-.629-.738-1.513-.628-.777-1.256.736-.628 1.844-.314 2.473.606.527.859.985 1.759 1.369 2.691 0 0 .944.153 2.168-1.231 1.224-1.385.812-1.831-.522-2.613Zm-11.574 3.906c-.978-.486 1.344-1.463 1.344-1.463.859-.129-.365 1.953-1.34 1.457l-.004.006Zm1.646-4.556c-.415-.207.834-.628.834-.628 1.812.336-.412.832-.831.622l-.003.006Z" fill="#fff"/>
  <path d="M188.214 116.601c-.254.27-.515.53-.783.782M193.234 109.005a32.247 32.247 0 0 1-4.213 6.695M193.688 108.032c.588-1.31.887-2.173.887-2.173a3.613 3.613 0 0 0 2.152.239 4.097 4.097 0 0 1 1.91-.038M192.623 107.702c.277-.238-3.993-2.358-3.993-2.358M194.873 108.996s2.023.835 3.147 2.126M192.176 110.362a17.142 17.142 0 0 0-3.278-.23 10.563 10.563 0 0 0-3.245.55M192.689 111.696s2.238 1.457 2.203 3.269" stroke="#263238" stroke-linecap="round" stroke-linejoin="round"/>
  <path d="M180.81 127.12c-1.07-.628-2.256-.647-2.832-1.316-.576-.668.557-1.004 1.167-.75.611.254 2.024.976 2.294 1.133.271.157.082-2.15-.415-3.02-.497-.87-1.856-1.379-2.517-.666-1.432 1.498-3.666-.468-3.512-1.642.154-1.175-.944-2.434-3.301-1.693-2.357.741-1.476 1.15-1.476 1.15s1.671 1.023 2.744 1.654c1.073.632 2.832 1.175 2.464 1.636-.368.462-1.406.179-2.265-.508-.86-.688-3.323-2.324-3.578-1.715-.255.609-1.136 2.289-1.136 2.289 1.091.166 2.169.404 3.228.713 1.432.449 1.725 1.237.604 1.297-1.12.06-3.146-.779-3.776.289-.629 1.067-.198 3.815-.198 3.815s2.052-1.385 3.097-1.382c1.044.003.377.584-.79 1.338a16.19 16.19 0 0 0-1.47 1.008l1.064 2.722a19.55 19.55 0 0 1 2.454-.176l.696.051s0-2.858.821-3.702c.821-.845.966 1.111 1.139 1.61.173.5-.349 1.994-.349 1.994s2.032-1.108 2.69-1.551l.661-.439s-.762-2.073-1.278-2.666c-.516-.594-1.221-.506-.629-1.021.592-.515 1.482-.242 1.989.49.425.692.794 1.416 1.104 2.167 0 0 .759.122 1.743-.993.985-1.114.63-1.485-.437-2.116Zm-9.314 3.14c-.787-.392 1.082-1.177 1.082-1.177.689-.098-.295 1.573-1.085 1.18l.003-.003Zm1.328-3.668c-.337-.166.67-.502.67-.502 1.46.283-.337.675-.67.506v-.004Z" fill="#fff"/>
  <path d="M171.494 132.263c-.205.217-.416.427-.63.628M175.514 126.153a26.05 26.05 0 0 1-3.392 5.385M175.88 125.368c.472-1.052.714-1.749.714-1.749a2.905 2.905 0 0 0 1.731.191 3.305 3.305 0 0 1 1.535-.031M171.807 123.214s3.439 1.705 3.216 1.884M176.842 126.143s1.627.672 2.517 1.708M174.662 127.242a13.62 13.62 0 0 0-2.637-.185c-.889.01-1.77.16-2.612.443M175.074 128.316s1.803 1.171 1.769 2.632" stroke="#263238" stroke-linecap="round" stroke-linejoin="round"/>
  <path d="M176.443 106.967s-1.347.977-2.203 0c-.856-.976.368-2.929-.859-3.661-1.227-.732-3.178.609-3.178.609s1.589.368 1.589 1.222-.733 1.218-.856.854c-.122-.364-.978-2.198-2.202-1.344a3.136 3.136 0 0 0-1.344 2.075s2.933-.489 3.178.61c.246 1.099-1.224-.123-2.445-.123-1.221 0-2.325.245-2.203.977a9.513 9.513 0 0 1 0 1.953 3.643 3.643 0 0 1 2.326-.977c1.343 0 1.343.854.123.854-1.221 0-2.203 1.222-2.203 1.222s1.224 1.83 2.69 2.684c1.467.854 1.958.49 2.08-.245.123-.734-.368-2.562.488-2.562s-1.221 3.297-.123 3.417c1.098.119 1.958-.242 2.203-.977l.245-.732s-.49-1.83-.368-2.562c.123-.731.368 0 .611.854.242.854.491 2.93.856 2.807.365-.122 1.469-1.708 1.714-2.317.246-.609-1.714-2.32-1.714-2.685 0-.364 1.469.242 1.714.61.178.276.34.561.488.854 0 0 .856-.61.733-2.321-.122-1.711-1.34-1.096-1.34-1.096Z" fill="#fff"/>
  <path d="M169.604 111.392c.847-1.178 2.099-2.779 3.185-3.57M168.614 112.823s.217-.339.567-.847M173.382 108.063s1.466 1.831 1.834 3.784M171.918 109.272s.365-.245.365 2.198M172.774 106.967s.733-.734.243-2.075M171.795 108.186l-.613-.977M170.695 109.272s-1.835-1.221-2.936-1.221" stroke="#263238" stroke-linecap="round" stroke-linejoin="round"/>
  <path d="M188.794 134.307h-9.456v13.581h9.456v-13.581Z" fill="#263238" stroke="#263238" stroke-width="2" stroke-linecap="round" stroke-linejoin="round"/>
  <path d="M103.625 29.95s.114-4.014-.028-7.465c-.142-3.45.145-10.848.145-10.848M103.677 15.989l-1.571-1.234M103.656 16.837l.56-.902M103.532 20.407l1.394-1.153M103.741 13.153l-.736-.668M103.519 21.032l-.922-.986M103.598 24.907l-1.916-1.746" stroke="#263238" stroke-miterlimit="10"/>
  <path d="M103.647 27.057c.489-.189.964-.41 1.423-.662" stroke="#263238" stroke-miterlimit="10"/>
  <path d="M102.581 16.607c-.771-.593-3.358-.49-3.855.745-.497 1.234 1.086 3.246 2.596 3.105.595-.056.853-.097 1.086-.43l-2.124-2.073 2.3 1.847a2.135 2.135 0 0 0 .226-.672c.161-.738.498-1.966-.229-2.522ZM107.588 15.175v.044c-.208.92-1.259 1.442-2.149 1.363a1.962 1.962 0 0 1-.365-.066 2.508 2.508 0 0 0-.227 2.23c.037.104.087.203.148.295.261-.214 3.055-2.594 3.055-2.594l-2.901 2.789c.875.942 2.927.806 3.641-.924s-.195-2.888-1.202-3.137Z" fill="#fff"/>
  <path d="M106.165 11.957c-1.504-.314-2.851.352-2.832 1.919a2.539 2.539 0 0 0 .844 1.824l1.551-2.11-1.303 2.302c.292.198.63.32.982.351.887.076 1.941-.446 2.149-1.366.217-1.027.113-2.59-1.391-2.92ZM104.408 6.51s-.154.046-1.117.514a2.429 2.429 0 0 0-.963 3.29c.267.528.728.931 1.287 1.125l.387-3.734-.164 3.784c.074.008.147.008.221 0 .629-.063 1.614-.81 1.708-2.34.095-1.528-1.359-2.64-1.359-2.64ZM100.014 9.903l2.904 2.318a.854.854 0 0 0 .028-.314c-.135-1.325-1.46-2.095-2.335-2.37-.874-.277-1.482.216-.918 1.484.563 1.269 2.039 1.884 2.696 1.693a.783.783 0 0 0 .403-.245l-2.778-2.566Z" fill="#fff"/>
  <path d="M102.012 12.874a2.95 2.95 0 0 1-2.231-1.288 1.188 1.188 0 0 0-1.29 1.04c-.296 1.381.704 2.826 2.149 2.65a1.917 1.917 0 0 0 1.214-.518l-2.58-2.352 2.763 2.1a.83.83 0 0 0 .1-.313 2.28 2.28 0 0 0-.125-1.32ZM101.996 20.558c-.235.1-.485.16-.74.175-.944.088-1.907-.65-2.385-1.516a1.26 1.26 0 0 0-1.155 1.036c-.286 1.617 1.215 3.75 2.731 3.41.395-.077.76-.261 1.054-.534l-3.31-3.177 3.502 2.97c.201-.256.33-.56.375-.882a2.01 2.01 0 0 0-.072-1.482ZM108.657 23.864c-1.114-1.287-2.439-.135-2.439-.135s-.812.267-1.12 1.416a1.77 1.77 0 0 0 .041 1.058l3.348-1.947-3.266 2.13c.314.577.969.942 1.888.675 1.466-.402 2.658-1.9 1.548-3.197Z" fill="#fff"/>
  <path d="M105.881 28.737h-4.635v6.849h4.635v-6.849Z" fill="#263238"/>
  <path d="M157.041 35.53H95.907v112.797h61.134V35.529Z" fill="#fff" stroke="#263238" stroke-miterlimit="10"/>
  <path d="M148.419 36.958h-51.24v109.651h51.24V36.958Z" fill="#263238" stroke="#263238" stroke-linecap="round" stroke-linejoin="round"/>
  <path d="M148.419 53.964h-51.24v1.617h51.24v-1.617ZM148.419 72.66h-51.24v1.617h51.24v-1.618ZM131.905 36.977h-1.089V53.96h1.089V36.977ZM114.485 36.977h-1.089V53.96h1.089V36.977ZM131.905 74.295h-1.089V91.28h1.089V74.295ZM114.485 74.295h-1.089V91.28h1.089V74.295ZM123.11 55.672h-1.089v16.984h1.089V55.672ZM148.419 91.283h-51.24V92.9h51.24v-1.617ZM148.419 109.916h-51.24v37.265h51.24v-37.265ZM123.11 92.928h-1.089v16.984h1.089V92.928Z" fill="#fff" stroke="#263238" stroke-miterlimit="10"/>
  <path d="M149.675 35.52v112.782l7.369.025V35.519h-7.369Z" fill="#263238" stroke="#263238" stroke-linecap="round" stroke-linejoin="round"/>
  <path d="M135.291 38.295h-2.631v15.628h2.631V38.295Z" fill="#fff" stroke="#263238" stroke-miterlimit="10"/>
  <path d="M135.291 50.566h-2.631v1.281h2.631v-1.28ZM135.291 39.881h-2.631v1.281h2.631v-1.28ZM137.98 38.295h-2.63v15.628h2.63V38.295Z" fill="#fff" stroke="#263238" stroke-miterlimit="10"/>
  <path d="M137.98 50.566h-2.63v1.281h2.63v-1.28ZM137.98 39.881h-2.63v1.281h2.63v-1.28ZM140.676 38.295h-2.631v15.628h2.631V38.295Z" fill="#fff" stroke="#263238" stroke-miterlimit="10"/>
  <path d="M140.676 50.566h-2.631v1.281h2.631v-1.28ZM140.676 39.88h-2.631v1.282h2.631v-1.281ZM143.365 38.295h-2.631v15.628h2.631V38.295Z" fill="#fff" stroke="#263238" stroke-miterlimit="10"/>
  <path d="M147.748 38.295h-4.405v15.628h4.405V38.295Z" fill="#fff" stroke="#263238" stroke-miterlimit="10"/>
  <path d="M143.365 50.566h-2.631v1.281h2.631v-1.28ZM143.365 39.88h-2.631v1.282h2.631v-1.281ZM117.691 38.295h-2.63v15.628h2.63V38.295Z" fill="#fff" stroke="#263238" stroke-miterlimit="10"/>
  <path d="M117.691 50.566h-2.63v1.281h2.63v-1.28ZM117.691 39.88h-2.63v1.282h2.63v-1.281ZM120.383 38.295h-2.631v15.628h2.631V38.295Z" fill="#fff" stroke="#263238" stroke-miterlimit="10"/>
  <path d="M120.383 50.566h-2.631v1.281h2.631v-1.28ZM120.383 39.88h-2.631v1.282h2.631v-1.281ZM123.076 38.295h-2.631v15.628h2.631V38.295Z" fill="#fff" stroke="#263238" stroke-miterlimit="10"/>
  <path d="M123.076 50.566h-2.631v1.281h2.631v-1.28ZM123.076 39.881h-2.631v1.281h2.631v-1.28ZM125.765 38.295h-2.63v15.628h2.63V38.295Z" fill="#fff" stroke="#263238" stroke-miterlimit="10"/>
  <path d="M130.15 38.295h-4.405v15.628h4.405V38.295Z" fill="#fff" stroke="#263238" stroke-miterlimit="10"/>
  <path d="M125.765 50.566h-2.63v1.281h2.63v-1.28ZM125.765 39.881h-2.63v1.281h2.63v-1.28ZM117.691 75.67h-2.63v15.628h2.63V75.671Z" fill="#fff" stroke="#263238" stroke-miterlimit="10"/>
  <path d="M117.691 87.942h-2.63v1.281h2.63v-1.281ZM117.691 77.26h-2.63v1.28h2.63v-1.28ZM120.383 75.67h-2.631v15.628h2.631V75.671Z" fill="#fff" stroke="#263238" stroke-miterlimit="10"/>
  <path d="M120.383 87.942h-2.631v1.281h2.631v-1.281ZM120.383 77.26h-2.631v1.28h2.631v-1.28ZM123.076 75.67h-2.631v15.628h2.631V75.671Z" fill="#fff" stroke="#263238" stroke-miterlimit="10"/>
  <path d="M123.076 87.942h-2.631v1.281h2.631v-1.281ZM123.076 77.26h-2.631v1.28h2.631v-1.28ZM125.765 75.67h-2.63v15.628h2.63V75.671Z" fill="#fff" stroke="#263238" stroke-miterlimit="10"/>
  <path d="M130.15 75.67h-4.405v15.628h4.405V75.671Z" fill="#fff" stroke="#263238" stroke-miterlimit="10"/>
  <path d="M125.765 87.942h-2.63v1.281h2.63v-1.281ZM125.765 77.26h-2.63v1.28h2.63v-1.28ZM135.065 75.67h-2.63v15.628h2.63V75.671Z" fill="#fff" stroke="#263238" stroke-miterlimit="10"/>
  <path d="M135.065 87.942h-2.63v1.281h2.63v-1.281ZM135.065 77.26h-2.63v1.28h2.63v-1.28ZM137.759 75.67h-2.631v15.628h2.631V75.671Z" fill="#fff" stroke="#263238" stroke-miterlimit="10"/>
  <path d="M137.759 87.942h-2.631v1.281h2.631v-1.281ZM137.759 77.26h-2.631v1.28h2.631v-1.28ZM140.448 75.67h-2.631v15.628h2.631V75.671Z" fill="#fff" stroke="#263238" stroke-miterlimit="10"/>
  <path d="M140.448 87.942h-2.631v1.281h2.631v-1.281ZM140.448 77.26h-2.631v1.28h2.631v-1.28ZM143.141 75.67h-2.63v15.628h2.63V75.671Z" fill="#fff" stroke="#263238" stroke-miterlimit="10"/>
  <path d="M147.522 75.67h-4.406v15.628h4.406V75.671Z" fill="#fff" stroke="#263238" stroke-miterlimit="10"/>
  <path d="M143.141 87.942h-2.63v1.281h2.63v-1.281ZM143.141 77.26h-2.63v1.28h2.63v-1.28ZM100.428 75.67h-2.63v15.628h2.63V75.671Z" fill="#fff" stroke="#263238" stroke-miterlimit="10"/>
  <path d="M100.428 87.942h-2.63v1.281h2.63v-1.281ZM100.428 77.26h-2.63v1.28h2.63v-1.28ZM103.123 75.67h-2.631v15.628h2.631V75.671Z" fill="#fff" stroke="#263238" stroke-miterlimit="10"/>
  <path d="M103.123 87.942h-2.631v1.281h2.631v-1.281ZM103.123 77.26h-2.631v1.28h2.631v-1.28ZM105.814 75.67h-2.63v15.628h2.63V75.671Z" fill="#fff" stroke="#263238" stroke-miterlimit="10"/>
  <path d="M105.814 87.942h-2.63v1.281h2.63v-1.281ZM105.814 77.26h-2.63v1.28h2.63v-1.28ZM108.507 75.67h-2.631v15.628h2.631V75.671Z" fill="#fff" stroke="#263238" stroke-miterlimit="10"/>
  <path d="M112.887 75.67h-4.406v15.628h4.406V75.671Z" fill="#fff" stroke="#263238" stroke-miterlimit="10"/>
  <path d="M108.507 87.942h-2.631v1.281h2.631v-1.281ZM108.507 77.26h-2.631v1.28h2.631v-1.28ZM100.093 38.295h-2.631v15.628h2.631V38.295Z" fill="#fff" stroke="#263238" stroke-miterlimit="10"/>
  <path d="M100.093 50.566h-2.631v1.281h2.631v-1.28ZM100.093 39.881h-2.631v1.281h2.631v-1.28ZM102.783 38.295h-2.631v15.628h2.631V38.295Z" fill="#fff" stroke="#263238" stroke-miterlimit="10"/>
  <path d="M102.783 50.566h-2.631v1.281h2.631v-1.28ZM102.783 39.881h-2.631v1.281h2.631v-1.28ZM105.476 38.295h-2.63v15.628h2.63V38.295Z" fill="#fff" stroke="#263238" stroke-miterlimit="10"/>
  <path d="M105.476 50.566h-2.63v1.281h2.63v-1.28ZM105.476 39.88h-2.63v1.282h2.63v-1.281ZM108.167 38.295h-2.631v15.628h2.631V38.295Z" fill="#fff" stroke="#263238" stroke-miterlimit="10"/>
  <path d="M112.55 38.295h-4.405v15.628h4.405V38.295Z" fill="#fff" stroke="#263238" stroke-miterlimit="10"/>
  <path d="M108.167 50.566h-2.631v1.281h2.631v-1.28ZM108.167 39.881h-2.631v1.281h2.631v-1.28ZM107.877 56.919h-2.631v15.627h2.631V56.92Z" fill="#fff" stroke="#263238" stroke-miterlimit="10"/>
  <path d="M107.877 69.19h-2.631v1.28h2.631v-1.28ZM107.877 58.507h-2.631v1.281h2.631v-1.28Z" fill="#fff" stroke="#263238" stroke-miterlimit="10"/>
  <path d="M105.281 56.919h-2.631v15.627h2.631V56.92Z" fill="#fff" stroke="#263238" stroke-miterlimit="10"/>
  <path d="M105.281 69.19h-2.631v1.28h2.631v-1.28ZM105.281 58.507h-2.631v1.282h2.631v-1.282Z" fill="#fff" stroke="#263238" stroke-miterlimit="10"/>
  <path d="M102.685 56.919h-2.63v15.627h2.63V56.92Z" fill="#fff" stroke="#263238" stroke-miterlimit="10"/>
  <path d="M102.685 69.19h-2.63v1.28h2.63v-1.28ZM102.685 58.508h-2.63v1.28h2.63v-1.28Z" fill="#fff" stroke="#263238" stroke-miterlimit="10"/>
  <path d="M100.093 56.919h-2.631v15.627h2.631V56.92Z" fill="#fff" stroke="#263238" stroke-miterlimit="10"/>
  <path d="M100.093 69.19h-2.631v1.28h2.631v-1.28ZM100.093 58.507h-2.631v1.282h2.631v-1.282ZM110.567 56.919h-2.63v15.627h2.63V56.92Z" fill="#fff" stroke="#263238" stroke-miterlimit="10"/>
  <path d="M110.567 69.19h-2.63v1.28h2.63v-1.28ZM110.567 58.507h-2.63v1.281h2.63v-1.28ZM113.258 56.919h-2.631v15.627h2.631V56.92Z" fill="#fff" stroke="#263238" stroke-miterlimit="10"/>
  <path d="M113.258 69.19h-2.631v1.28h2.631v-1.28ZM113.258 58.507h-2.631v1.281h2.631v-1.28ZM115.951 56.919h-2.631v15.627h2.631V56.92Z" fill="#fff" stroke="#263238" stroke-miterlimit="10"/>
  <path d="M120.334 56.919h-4.405v15.627h4.405V56.92Z" fill="#fff" stroke="#263238" stroke-miterlimit="10"/>
  <path d="M115.951 69.19h-2.631v1.28h2.631v-1.28ZM115.951 58.508h-2.631v1.28h2.631v-1.28ZM126.582 56.919h-2.631v15.627h2.631V56.92Z" fill="#fff" stroke="#263238" stroke-miterlimit="10"/>
  <path d="M126.582 69.19h-2.631v1.28h2.631v-1.28ZM126.582 58.507h-2.631v1.281h2.631v-1.28ZM129.274 56.919h-2.63v15.627h2.63V56.92Z" fill="#fff" stroke="#263238" stroke-miterlimit="10"/>
  <path d="M129.274 69.19h-2.63v1.28h2.63v-1.28ZM129.274 58.507h-2.63v1.281h2.63v-1.28ZM134.659 56.915l-2.452 1.033 6.167 14.577 2.453-1.034-6.168-14.576Z" fill="#fff" stroke="#263238" stroke-miterlimit="10"/>
  <path d="m139.504 68.36-2.452 1.032.505 1.195 2.453-1.033-.506-1.195ZM135.288 58.396l-2.452 1.033.505 1.195 2.453-1.033-.506-1.195ZM138.378 72.518h5.491l2.47-1.027-5.51-.006-2.451 1.033ZM134.662 56.91h5.157l6.52 14.581-5.509-.006-6.168-14.576ZM131.871 56.919h-2.631v15.627h2.631V56.92Z" fill="#fff" stroke="#263238" stroke-miterlimit="10"/>
  <path d="M131.871 69.19h-2.631v1.28h2.631v-1.28ZM131.871 58.507h-2.631v1.282h2.631v-1.282Z" fill="#fff" stroke="#263238" stroke-miterlimit="10"/>
  <path d="M131.871 56.919h2.791l-2.454 1.023 6.17 14.576h-6.507v-15.6ZM107.877 94.228h-2.631v15.628h2.631V94.228Z" fill="#fff" stroke="#263238" stroke-miterlimit="10"/>
  <path d="M107.877 106.499h-2.631v1.281h2.631v-1.281ZM107.877 95.814h-2.631v1.28h2.631v-1.28Z" fill="#fff" stroke="#263238" stroke-miterlimit="10"/>
  <path d="M105.281 94.228h-2.631v15.628h2.631V94.228Z" fill="#fff" stroke="#263238" stroke-miterlimit="10"/>
  <path d="M105.281 106.499h-2.631v1.281h2.631v-1.281ZM105.281 95.814h-2.631v1.28h2.631v-1.28Z" fill="#fff" stroke="#263238" stroke-miterlimit="10"/>
  <path d="M102.685 94.228h-2.63v15.628h2.63V94.228Z" fill="#fff" stroke="#263238" stroke-miterlimit="10"/>
  <path d="M102.685 106.499h-2.63v1.281h2.63v-1.281ZM102.685 95.814h-2.63v1.28h2.63v-1.28Z" fill="#fff" stroke="#263238" stroke-miterlimit="10"/>
  <path d="M100.093 94.228h-2.631v15.628h2.631V94.228Z" fill="#fff" stroke="#263238" stroke-miterlimit="10"/>
  <path d="M100.093 106.499h-2.631v1.281h2.631v-1.281ZM100.093 95.814h-2.631v1.28h2.631v-1.28ZM110.567 94.228h-2.63v15.628h2.63V94.228Z" fill="#fff" stroke="#263238" stroke-miterlimit="10"/>
  <path d="M110.567 106.499h-2.63v1.281h2.63v-1.281ZM110.567 95.814h-2.63v1.28h2.63v-1.28ZM113.258 94.228h-2.631v15.628h2.631V94.228Z" fill="#fff" stroke="#263238" stroke-miterlimit="10"/>
  <path d="M113.258 106.499h-2.631v1.281h2.631v-1.281ZM113.258 95.814h-2.631v1.28h2.631v-1.28ZM115.951 94.228h-2.631v15.628h2.631V94.228Z" fill="#fff" stroke="#263238" stroke-miterlimit="10"/>
  <path d="M120.334 94.228h-4.405v15.628h4.405V94.228Z" fill="#fff" stroke="#263238" stroke-miterlimit="10"/>
  <path d="M115.951 106.499h-2.631v1.281h2.631v-1.281ZM115.951 95.814h-2.631v1.28h2.631v-1.28ZM126.582 94.228h-2.631v15.628h2.631V94.228Z" fill="#fff" stroke="#263238" stroke-miterlimit="10"/>
  <path d="M126.582 106.499h-2.631v1.281h2.631v-1.281ZM126.582 95.814h-2.631v1.28h2.631v-1.28ZM129.274 94.228h-2.63v15.628h2.63V94.228Z" fill="#fff" stroke="#263238" stroke-miterlimit="10"/>
  <path d="M129.274 106.499h-2.63v1.281h2.63v-1.281ZM129.274 95.814h-2.63v1.28h2.63v-1.28ZM134.659 94.222l-2.453 1.034 6.168 14.576 2.452-1.033-6.167-14.577Z" fill="#fff" stroke="#263238" stroke-miterlimit="10"/>
  <path d="m139.439 105.389-2.449 1.036.507 1.193 2.449-1.036-.507-1.193Z" fill="#fff" stroke="#263238" stroke-width=".999" stroke-miterlimit="10"/>
  <path d="m135.285 95.704-2.452 1.033.505 1.195 2.453-1.034-.506-1.194ZM138.378 109.828h5.491l2.47-1.027-5.51-.009-2.451 1.036ZM134.662 94.216h5.157l6.52 14.585-5.509-.01-6.168-14.575ZM131.871 94.228h-2.631v15.628h2.631V94.228Z" fill="#fff" stroke="#263238" stroke-miterlimit="10"/>
  <path d="M131.871 106.499h-2.631v1.281h2.631v-1.281ZM131.871 95.814h-2.631v1.28h2.631v-1.28Z" fill="#fff" stroke="#263238" stroke-miterlimit="10"/>
  <path d="M131.871 94.228h2.791l-2.454 1.02 6.17 14.58h-6.507v-15.6Z" fill="#fff" stroke="#263238" stroke-miterlimit="10"/>
  <path d="M122.021 109.912v36.644M97.593 114.45h50.812" stroke="#263238" stroke-miterlimit="10"/>
  <path d="M108.021 117.549v6.644M110.24 117.549v6.644M133.541 117.549v6.644M135.76 117.549v6.644" stroke="#263238" stroke-width="2" stroke-miterlimit="10"/>
  <path d="M162.57 36.113V24.847h16.42M180.198 24.847h6.916v27.946H162.57V37.82" stroke="#263238" stroke-miterlimit="10"/>
  <path d="M178.185 49.025h-12.307v-20.41h17.927v20.41h-4.211" stroke="#263238" stroke-miterlimit="10"/>
  <path d="M178.288 34.895h-6.894v7.85h6.894v-7.85ZM189.295 49.138V42.11h10.242M200.289 42.11h4.314v17.43h-15.308v-9.338" stroke="#263238" stroke-miterlimit="10"/>
  <path d="M199.034 57.192h-7.675V44.46h11.18v12.733h-2.627" stroke="#263238" stroke-miterlimit="10"/>
  <path d="M199.1 48.378h-4.301v4.895h4.301v-4.895Z" stroke="#263238" stroke-miterlimit="10"/>
  <path d="M26.999 148.327h177.472" stroke="#263238" stroke-linecap="round" stroke-linejoin="round"/>
  <path d="M39.586 104.367s-1.888-25.12-.944-27.946c.944-2.826 6.766-2.669 7.867-2.669s24.072 0 27.376 1.57c3.304 1.57 3.776 40.192 3.776 40.192H41.16l-1.574-11.147Z" fill="#263238" stroke="#263238" stroke-miterlimit="10"/>
  <path d="M78.915 102.326s-3.776 0-4.53 3.768c-.756 3.768 2.218 19.311 2.438 23.707.22 4.396.994 10.519.994 10.519h13.374l2.989-37.994H78.915Z" fill="#263238" stroke="#263238" stroke-miterlimit="10"/>
  <path d="M94.18 102.326s-3.775 0-4.72 3.768c-.943 3.768 1.26 19.311 1.26 23.707 0 4.396.471 10.519.471 10.519h4.72s.472-11.304.472-12.874c0-1.57 1.888-17.898.944-21.195-.944-3.297-1.73-3.611-3.146-3.925Z" fill="#636363" stroke="#263238" stroke-miterlimit="10"/>
  <path d="M54.297 75.4S41.79 80.504 41.79 81.054c0 .55 4.248 15.307 5.821 17.584 1.574 2.276 2.675 4.788 3.147 5.73.472.942 2.517 3.297 4.17 3.297 1.651 0 3.618-1.962 8.889-2.747 5.27-.785 9.99-.707 10.934-1.413.944-.707-.236-2.591-.393-2.983-.157-.393-.787-1.806-.787-1.806s5.114 4.239 7.16 4.396c2.044.157 3.54-.863 3.854-2.198.314-1.334-.866-4.553-1.652-6.28-.787-1.727-4.484-4.474-6.136-6.594-1.652-2.12-3.776-4.631-5.27-6.358a14.305 14.305 0 0 0-4.72-3.611c-1.417-.628-5.036-2.198-7.317-2.434-2.281-.235-5.192-.235-5.192-.235Z" fill="#fff" stroke="#263238" stroke-miterlimit="10"/>
  <path d="M78.813 93.795s-1.781 4.92-1.152 6.176c.63 1.256 2.306 1.674 2.306 1.674M52.408 77.05l10.384 10.047 1.574-7.536" stroke="#263238" stroke-miterlimit="10"/>
  <path d="M79.313 94.398s2.517 1.805 3.383 1.177c.865-.628.629-1.805.078-3.061-.55-1.256-2.36-1.963-3.068-1.413-.708.55-.944 2.747-.393 3.297ZM53.51 72.104l.393 4.71 8.339 8.164 1.258-5.81.551-2.433s-5.428-.942-7.159-2.12a58.981 58.981 0 0 1-3.382-2.511Z" fill="#fff" stroke="#263238" stroke-miterlimit="10"/>
  <path d="M64.051 76.735s-5.428-.942-7.159-2.12a58.981 58.981 0 0 1-3.382-2.511l.393 4.71 2.108 2.063c1.64.461 3.273.684 4.384.257a17.446 17.446 0 0 0 3.511-1.743l.145-.656ZM51.018 68.468s-1.47-6.701-1.47-7.85c0-1.15 3.988-7.015 9.44-6.073 5.454.942 8.497 4.082 8.708 5.024.21.942-.63 2.826-.63 2.826.166.546.272 1.108.315 1.677 0 .628-.944 3.347-.944 3.347l-.315-2.826s-2.62.735-4.09.735c-1.47 0-3.987-.942-3.987-.942s.525 1.673 0 2.512c-.526.838-2.096 1.57-2.096 1.57s-.21 1.673-.84 1.673a13.747 13.747 0 0 1-2.306-.314c-.422-.103-1.785-1.36-1.785-1.36Z" fill="#263238" stroke="#263238" stroke-miterlimit="10"/>
  <path d="M53.431 69.2s-.21-2.513-2.31-1.885c-2.098.628-.732 2.93.422 4.082 1.155 1.152 1.467.314 1.467.314s.315 2.409 1.888 3.768c1.573 1.36 3.987 3.872 6.504 3.558 2.517-.314 4.302-3.454 4.616-5.756.315-2.302.522-7.746.522-8.374a11.751 11.751 0 0 0-.418-2.091s-2.203 1.57-4.194 1.149c-1.992-.421-4.091-1.256-5.035-1.256s-.736 1.362-.422 1.78c.315.418 1.155 1.256.211 1.78-.944.525-2.203 1.046-2.203 1.046v2.198l-1.047-.314Z" fill="#fff" stroke="#263238" stroke-miterlimit="10"/>
  <path d="m63.466 68.056-.516 5.674-2.584-.747" stroke="#263238" stroke-miterlimit="10"/>
  <path d="M61.284 73.441s-1.258 0-1.95.06a5.321 5.321 0 0 1-1.26.057c-.286-.057-.629-.286-.056.285.573.572 2.297 1.256 3.216 1.376.919.119 1.551-.173 2.237-.628.686-.456 1.259-.917.919-1.03a7.592 7.592 0 0 0-1.435-.117v.29l-1.67-.293Z" fill="#263238" stroke="#263238" stroke-miterlimit="10"/>
  <path d="M59.477 70.003c.207 0 .374-.346.374-.772 0-.427-.167-.773-.374-.773s-.374.346-.374.773c0 .426.167.772.374.772ZM65.073 69.118c0 .427-.167.772-.371.772-.205 0-.375-.345-.375-.772 0-.427.167-.776.375-.776.207 0 .37.349.37.776Z" fill="#263238"/>
  <path d="M58.07 68.056s1.55-1.09 2.813-.628M63.755 67.485s1.608-.748 2.297-.06M60.483 70.65s-.346.402-1.495.744M63.64 70.405c.34.234.706.427 1.091.575" stroke="#263238" stroke-miterlimit="10"/>
  <path d="m68.535 85.292.55-1.413s.709.706 2.597.706 4.956 1.335 4.956 1.335l.236.392s.55-1.648 1.573-1.962c1.023-.314 2.675-1.413 2.91-1.727l.237-.314 1.101.942-4.877 6.437-9.126-3.533-.157-.863Z" fill="#fff" stroke="#263238" stroke-miterlimit="10"/>
  <path d="m68.614 84.742-2.36 12.482 8.181 1.884 2.99-12.09-8.811-2.276ZM77.425 87.019l5.27-3.768L79.55 95.34l-5.114 3.768 2.99-12.09Z" fill="#fff" stroke="#263238" stroke-miterlimit="10"/>
  <path d="m58.466 94.947 3.565-1.466s3.147-3.347 3.461-3.661c.315-.314 3.462-.628 3.462-.628l3.461 2.301s.63.525 0 .732c-.63.207-1.992-.418-1.992-.418l-1.365-.838-.838.42 1.781 1.464s.526 1.363.526 2.094c-.01.47-.117.933-.315 1.36l-1.047 1.466-3.147-1.57s-1.888 1.36-2.31 1.57c-.422.21-4.405-.103-4.405-.103l-.837-2.723Z" fill="#fff" stroke="#263238" stroke-miterlimit="10"/>
  <path d="m65.99 91.28 1.114-.21.957.263M64.93 93.346s2.492-.691 2.652-.691c.16 0 2.017 1.906 2.017 1.906l.211 2.066" stroke="#263238" stroke-miterlimit="10"/>
  <path d="m65.036 94.668 2.014.053 1.856 1.218c.189.593.276 1.213.259 1.834" stroke="#263238" stroke-miterlimit="10"/>
  <path d="M43.991 79.561s-2.31.314-2.624 2.302c-.315 1.987-2.41 18.736-1.781 20.62.63 1.884 12.272-1.359 12.69-1.57.419-.21 7.027-2.198 7.134-2.615.107-.418.315-3.875-.63-4.082-.943-.208-9.965.103-9.965.103l-1.259-10.886" fill="#fff"/>
  <path d="M43.991 79.561s-2.31.314-2.624 2.302c-.315 1.987-2.41 18.736-1.781 20.62.63 1.884 12.272-1.359 12.69-1.57.419-.21 7.027-2.198 7.134-2.615.107-.418.315-3.875-.63-4.082-.943-.208-9.965.103-9.965.103l-1.259-10.886M48.815 94.32l-5.56.941M42.207 94.005l4.824.628" stroke="#263238" stroke-miterlimit="10"/>
  <path d="M81.279 88.432s-2.124 2.198-2.045 2.747c.078.55 1.18-.314 1.416-.55.236-.235 1.337-.863 1.337-1.49 0-.629-.236-1.335-.708-.707Z" fill="#fff" stroke="#263238" stroke-miterlimit="10"/>
  <path d="M81.516 89.766s.629.628.629 1.178c0 .55-1.337 2.355-1.967 2.355-.629 0-.157-1.256.158-1.806.314-.55 1.18-1.727 1.18-1.727Z" fill="#fff" stroke="#263238" stroke-miterlimit="10"/>
  <path d="M82.145 90.944s.787.235.787.942c0 .706-1.495 1.884-1.888 1.962-.394.079-.315-.628 0-1.177.314-.55 1.101-1.727 1.101-1.727Z" fill="#fff" stroke="#263238" stroke-miterlimit="10"/>
  <path d="M82.932 91.886c.161.398.215.83.157 1.256-.078.785-1.258 1.256-1.652 1.256-.393 0-.393-.55-.393-.55a24.193 24.193 0 0 0 1.888-1.962ZM58.19 148.327h-1.495l-.746-9.891h2.99l-.75 9.891ZM44.501 148.327h-1.494l-.746-9.891h2.99l-.75 9.891ZM93.904 148.327H92.41l-.746-9.891h2.99l-.75 9.891ZM80.216 148.327h-1.495l-.745-9.891h2.989l-.749 9.891Z" fill="#fff" stroke="#263238" stroke-miterlimit="10"/>
  <path d="M91.821 119.511H56.106v20.724h35.715v-20.724Z" fill="#263238" stroke="#263238" stroke-miterlimit="10"/>
  <path d="M117.726 116.196s3.776-1.57 4.616-2.198c.841-.628 1.992.731 1.467 2.198-.526 1.466-1.888 4.082-3.984 5.338-2.096 1.256-3.776 2.301-4.197 2.719-.422.417-.315 1.991-2.096 2.619-1.781.628-3.987-.628-5.246-2.619a492.045 492.045 0 0 1-2.098-3.347s.106-1.467 2.202-2.198c2.096-.732 5.664-1.049 5.664-1.049l3.672-1.463Z" fill="#fff" stroke="#263238" stroke-miterlimit="10"/>
  <path d="M74.75 103.504s2.489-.603 3.118-.289c.63.314 2.728 2.305 2.728 2.305s12.69.207 13.635.628c.944.42 10.698 7.85 12.797 8.895a202.272 202.272 0 0 1 3.88 1.988l-1.573 6.908v.628l.107 1.049s-5.457-1.677-6.819-1.991c-1.363-.314-7.027-3.244-7.552-3.244-.526 0-4.824-1.256-4.824-1.256s-.63-.417-7.448-1.045c-6.819-.628-14.475-1.363-17.203-1.467-2.728-.103-6.293-.314-7.656-.838-1.362-.524-3.776-4.186-4.194-6.384-.419-2.198 3.983-4.082 5.871-4.92 1.888-.838 8.918-1.884 10.177-1.884 1.258 0 4.956.917 4.956.917Z" fill="#fff" stroke="#263238" stroke-miterlimit="10"/>
  <path d="m77.135 106.565-2.099 3.037 2.832-1.884" fill="#fff"/>
  <path d="m77.135 106.565-2.099 3.037 2.832-1.884" stroke="#263238" stroke-miterlimit="10"/>
  <path d="M109.334 115.671s3.043-2.408 3.672-3.14c.629-.731 2.728-4.71 3.147-5.966.418-1.256 1.469-1.884 2.202-.942.733.942 1.259 2.826 1.677 3.665.419.838-.207 4.917-1.466 6.28-1.259 1.362-2.999 4.662-3.357 5.338-.944 1.777-2.414 1.987-3.358 2.091-.944.103-3.25-2.405-3.25-2.405l.733-4.921Z" fill="#fff" stroke="#263238" stroke-miterlimit="10"/>
  <path d="M62.66 108.659s3.147-.628 5.979-.314c2.832.314 8.6 2.092 11.013 2.72 2.414.628 6.712.942 8.707 1.676 1.995.735 7.238 1.674 11.221 1.674 3.984 0 10.07.524 10.07.524s-.837 6.07-.63 7.222c.207.928.488 1.837.84 2.72 0 0-8.077.628-10.384.942-2.306.314-11.642-1.15-13.216-1.57-1.573-.421-3.88-1.046-5.349-1.046-1.47 0-4.302.628-8.392 1.046-4.09.417-9.859-1.36-10.592-1.464-.733-.103-3.357-1.048-3.987-1.466-.629-.418-4.301-6.908-3.042-9.63 1.258-2.723 2.831-3.14 2.831-3.14" fill="#fff"/>
  <path d="M62.66 108.659s3.147-.628 5.979-.314c2.832.314 8.6 2.092 11.013 2.72 2.414.628 6.712.942 8.707 1.676 1.995.735 7.238 1.674 11.221 1.674 3.984 0 10.07.524 10.07.524s-.837 6.07-.63 7.222c.207.928.488 1.837.84 2.72 0 0-8.077.628-10.384.942-2.306.314-11.642-1.15-13.216-1.57-1.573-.421-3.88-1.046-5.349-1.046-1.47 0-4.302.628-8.392 1.046-4.09.417-9.859-1.36-10.592-1.464-.733-.103-3.357-1.048-3.987-1.466-.629-.418-4.301-6.908-3.042-9.63 1.258-2.723 2.831-3.14 2.831-3.14" stroke="#263238" stroke-miterlimit="10"/>
  <path d="M81.956 119.219c2.023.402 4.166 1.627 7.064 2.761 3.868 1.51 11.608 1.372 12.606 1.51.997.138 3.53 0 3.53 0" fill="#fff"/>
  <path d="M81.956 119.219c2.023.402 4.166 1.627 7.064 2.761 3.868 1.51 11.608 1.372 12.606 1.51.997.138 3.53 0 3.53 0" stroke="#263238" stroke-miterlimit="10"/>
  <path d="m66.356 120.639 1.154.166c3.36.503 9.755-1.341 12.436-1.677" fill="#fff"/>
  <path d="m66.356 120.639 1.154.166c3.36.503 9.755-1.341 12.436-1.677" stroke="#263238" stroke-miterlimit="10"/>
  <path d="M62.972 120.303s.604 0 2.18.185l-2.18-.185Z" fill="#fff"/>
  <path d="M62.972 120.303s.604 0 2.18.185" stroke="#263238" stroke-miterlimit="10"/>
  <path d="M42.572 102.326s-3.776 0-4.531 3.768c-.755 3.768 2.203 19.311 2.439 23.707.236 4.396.994 10.519.994 10.519h13.373l2.99-37.994H42.572Z" fill="#263238" stroke="#263238" stroke-miterlimit="10"/>
  <path d="M57.836 102.326s-3.776 0-4.72 3.768 1.259 19.311 1.259 23.707c0 4.396.472 10.519.472 10.519h4.72s.472-11.304.472-12.874c0-1.57 1.888-17.898.944-21.195-.944-3.297-1.731-3.611-3.147-3.925Z" fill="#636363" stroke="#263238" stroke-miterlimit="10"/>
  <path d="M88.555 148.327H87.06l-.746-9.891h2.99l-.75 9.891ZM101.298 148.327h-1.495l-.745-9.891h2.989l-.749 9.891ZM107.278 148.327h-1.495l-.746-9.891h2.989l-.748 9.891ZM119.863 148.327h-1.494l-.746-9.891h2.989l-.749 9.891Z" fill="#fff" stroke="#263238" stroke-miterlimit="10"/>
  <path d="M86.707 125.562h32.867c.605 0 1.185.24 1.613.667.428.427.668 1.006.668 1.61v16.092H84.41v-16.092a2.268 2.268 0 0 1 .674-1.616 2.283 2.283 0 0 1 1.623-.661Z" fill="#263238" stroke="#263238" stroke-miterlimit="10"/>
  <path d="M119.589 125.562h-11.957c-.605 0-1.185.24-1.613.667a2.274 2.274 0 0 0-.668 1.61v16.092h16.52v-16.092a2.285 2.285 0 0 0-2.282-2.277Z" fill="#636363" stroke="#263238" stroke-miterlimit="10"/>
</svg>
