<svg width="213" height="213" fill="none" xmlns="http://www.w3.org/2000/svg">
  <path d="M186.729 71.291h-38.05v86.316h38.05V71.291Z" stroke="#263238" stroke-width=".75" stroke-linecap="round" stroke-linejoin="round"/>
  <path d="M183.388 74.63h-31.37v79.637h31.37V74.631ZM155.584 109.793l-.856 1.487M164.59 94.201l-8.018 13.888M171.947 81.455l-6.075 10.523M173.233 79.232l-.647 1.116M158.136 147.643l-.729 1.261M159.823 144.721l-.771 1.342M170.111 126.901l-8.635 14.961M177.757 113.657l-6.761 11.715M179.432 110.76l-.669 1.159M167.704 138.114l-6.228 10.79M175.67 124.315l-7.059 12.227M177.327 121.448l-.835 1.444M154.728 120.963l-.946 1.64M163.005 106.628l-7.519 13.023M173.335 88.736l-9.444 16.354M179.542 77.984l-5.479 9.49M64.322 71.291h-38.05v86.316h38.05V71.291Z" stroke="#263238" stroke-width=".75" stroke-linecap="round" stroke-linejoin="round"/>
  <path d="M60.982 74.63h-31.37v79.637h31.37V74.631ZM33.178 109.793l-.857 1.487M42.178 94.201l-8.017 13.888M49.54 81.455l-6.075 10.523M50.822 79.232l-.643 1.116M35.728 147.643 35 148.904M37.415 144.721l-.775 1.342M47.703 126.901l-8.64 14.961M55.35 113.657l-6.764 11.715M57.024 110.76l-.673 1.159M45.296 138.114l-6.233 10.79M53.263 124.315l-7.059 12.227M54.916 121.448l-.831 1.444M32.32 120.963l-.95 1.64M40.593 106.628l-7.519 13.023M50.925 88.736l-9.44 16.354M57.13 77.984l-5.478 9.49" stroke="#263238" stroke-width=".75" stroke-linecap="round" stroke-linejoin="round"/>
  <path d="M12.567 193.587h187.866" stroke="#263238" stroke-linecap="round" stroke-linejoin="round"/>
  <path d="M77.826 159.839h-3.259v11.081h3.26v-11.081Z" fill="#fff"/>
  <path opacity=".2" d="M77.826 159.839h-3.259v11.081h3.26v-11.081Z" fill="#000"/>
  <path d="M81.089 161.058H77.83v9.862h3.259v-9.862ZM85.158 161.058h-2.3v9.862h2.3v-9.862Z" fill="#fff"/>
  <path opacity=".9" d="M85.158 161.058h-2.3v9.862h2.3v-9.862Z" fill="#fff"/>
  <path d="M82.86 160.018h-2.087v10.906h2.088v-10.906Z" fill="#fff"/>
  <path opacity=".1" d="M82.86 160.018h-2.087v10.906h2.088v-10.906Z" fill="#000"/>
  <path d="M88.421 159.839h-3.259v11.081h3.259v-11.081Z" fill="#fff"/>
  <path d="M91.679 161.058h-3.26v9.862h3.26v-9.862Z" fill="#fff"/>
  <path opacity=".2" d="M91.679 161.058h-3.26v9.862h3.26v-9.862Z" fill="#263238"/>
  <path d="M95.753 161.058h-2.3v9.862h2.3v-9.862Z" fill="#fff"/>
  <path opacity=".8" d="M95.753 161.058h-2.3v9.862h2.3v-9.862Z" fill="#fff"/>
  <path d="M93.452 160.018h-2.088v10.906h2.088v-10.906Z" fill="#fff"/>
  <path opacity=".1" d="M93.452 160.018h-2.088v10.906h2.088v-10.906Z" fill="#000"/>
  <path d="M111.301 170.924h3.259v-11.08h-3.259v11.08Z" fill="#fff"/>
  <path opacity=".2" d="M111.301 170.924h3.259v-11.08h-3.259v11.08Z" fill="#000"/>
  <path d="M108.038 170.924h3.259v-9.862h-3.259v9.862ZM103.969 170.924h2.301v-9.862h-2.301v9.862Z" fill="#fff"/>
  <path opacity=".9" d="M103.969 170.924h2.301v-9.862h-2.301v9.862Z" fill="#fff"/>
  <path d="M106.265 170.92h2.088v-10.906h-2.088v10.906Z" fill="#fff"/>
  <path opacity=".1" d="M106.265 170.92h2.088v-10.906h-2.088v10.906Z" fill="#000"/>
  <path d="M100.706 170.924h3.259v-11.08h-3.259v11.08ZM97.447 170.924h3.259v-9.862h-3.259v9.862Z" fill="#fff"/>
  <path opacity=".2" d="M97.447 170.924h3.259v-9.862h-3.259v9.862Z" fill="#263238"/>
  <path d="M95.675 170.92h2.088v-10.906h-2.088v10.906Z" fill="#fff"/>
  <path opacity=".1" d="M95.675 170.92h2.088v-10.906h-2.088v10.906Z" fill="#000"/>
  <path d="M130.088 170.924h3.259v-11.08h-3.259v11.08Z" fill="#fff"/>
  <path opacity=".2" d="M130.088 170.924h3.259v-11.08h-3.259v11.08Z" fill="#000"/>
  <path d="M126.825 170.924h3.259v-9.862h-3.259v9.862ZM122.756 170.924h2.301v-9.862h-2.301v9.862Z" fill="#fff"/>
  <path opacity=".9" d="M122.756 170.924h2.301v-9.862h-2.301v9.862Z" fill="#fff"/>
  <path d="M125.052 170.92h2.088v-10.906h-2.088v10.906Z" fill="#fff"/>
  <path opacity=".1" d="M125.052 170.92h2.088v-10.906h-2.088v10.906Z" fill="#000"/>
  <path d="M119.493 170.924h3.259v-11.08h-3.259v11.08ZM135.468 170.532l2.14-.573-2.88-10.748-2.141.574 2.881 10.747ZM116.234 170.924h3.259v-9.862h-3.259v9.862Z" fill="#fff"/>
  <path opacity=".2" d="M116.234 170.924h3.259v-9.862h-3.259v9.862Z" fill="#263238"/>
  <path d="M114.462 170.92h2.088v-10.906h-2.088v10.906Z" fill="#fff"/>
  <path opacity=".1" d="M114.462 170.92h2.088v-10.906h-2.088v10.906Z" fill="#000"/>
  <path d="m136.559 185.317 2.189-.587-2.868-10.702-2.189.586 2.868 10.703Z" fill="#fff"/>
  <path opacity=".2" d="m136.559 185.317 2.189-.587-2.868-10.702-2.189.586 2.868 10.703Z" fill="#000"/>
  <path d="M130.935 185.208h3.259v-9.862h-3.259v9.862ZM126.858 185.208h2.3v-9.862h-2.3v9.862Z" fill="#fff"/>
  <path opacity=".9" d="M126.858 185.208h2.3v-9.862h-2.3v9.862Z" fill="#fff"/>
  <path d="M129.159 185.212h2.087v-10.906h-2.087v10.906Z" fill="#fff"/>
  <path opacity=".1" d="M129.159 185.212h2.087v-10.906h-2.087v10.906Z" fill="#000"/>
  <path d="M123.603 185.212h3.259v-11.08h-3.259v11.08ZM120.341 185.208h3.259v-9.862h-3.259v9.862Z" fill="#fff"/>
  <path opacity=".2" d="M120.341 185.208h3.259v-9.862h-3.259v9.862Z" fill="#263238"/>
  <path d="M116.272 185.208h2.3v-9.862h-2.3v9.862Z" fill="#fff"/>
  <path opacity=".8" d="M116.272 185.208h2.3v-9.862h-2.3v9.862Z" fill="#fff"/>
  <path d="M118.568 185.212h2.087v-10.906h-2.087v10.906Z" fill="#fff"/>
  <path opacity=".1" d="M118.568 185.212h2.087v-10.906h-2.087v10.906Z" fill="#000"/>
  <path d="M100.724 174.132h-3.26v11.08h3.26v-11.08Z" fill="#fff"/>
  <path opacity=".2" d="M100.724 174.132h-3.26v11.08h3.26v-11.08Z" fill="#000"/>
  <path d="M103.983 175.35h-3.259v9.862h3.259v-9.862ZM108.055 175.35h-2.3v9.862h2.3v-9.862Z" fill="#fff"/>
  <path opacity=".9" d="M108.055 175.35h-2.3v9.862h2.3v-9.862Z" fill="#fff"/>
  <path d="M105.754 174.306h-2.087v10.906h2.087v-10.906Z" fill="#fff"/>
  <path opacity=".1" d="M105.754 174.306h-2.087v10.906h2.087v-10.906Z" fill="#000"/>
  <path d="M111.314 174.132h-3.259v11.08h3.259v-11.08Z" fill="#fff"/>
  <path d="M114.572 175.35h-3.259v9.862h3.259v-9.862Z" fill="#fff"/>
  <path opacity=".2" d="M114.572 175.35h-3.259v9.862h3.259v-9.862Z" fill="#263238"/>
  <path d="M116.344 174.306h-2.087v10.906h2.087v-10.906Z" fill="#fff"/>
  <path opacity=".1" d="M116.344 174.306h-2.087v10.906h2.087v-10.906Z" fill="#000"/>
  <path d="M81.937 174.132h-3.26v11.08h3.26v-11.08Z" fill="#fff"/>
  <path opacity=".2" d="M81.937 174.132h-3.26v11.08h3.26v-11.08Z" fill="#000"/>
  <path d="M85.195 175.35h-3.258v9.862h3.258v-9.862ZM89.268 175.35h-2.3v9.862h2.3v-9.862Z" fill="#fff"/>
  <path opacity=".9" d="M89.268 175.35h-2.3v9.862h2.3v-9.862Z" fill="#fff"/>
  <path d="M86.968 174.306h-2.087v10.906h2.087v-10.906Z" fill="#fff"/>
  <path opacity=".1" d="M86.968 174.306h-2.087v10.906h2.087v-10.906Z" fill="#000"/>
  <path d="M92.527 174.132H89.27v11.08h3.258v-11.08ZM78.671 174.605l-2.131-.571-2.868 10.703 2.132.571 2.867-10.703Z" fill="#fff"/>
  <path d="M95.786 175.35h-3.259v9.862h3.26v-9.862Z" fill="#fff"/>
  <path opacity=".2" d="M95.786 175.35h-3.259v9.862h3.26v-9.862Z" fill="#263238"/>
  <path d="M97.558 174.306h-2.087v10.906h2.087v-10.906Z" fill="#fff"/>
  <path opacity=".1" d="M97.558 174.306h-2.087v10.906h2.087v-10.906Z" fill="#000"/>
  <path d="M77.071 193.587h-3.258l-.448-6.305h4.154l-.448 6.305ZM139.187 193.587h-3.259l-.448-6.305h4.154l-.447 6.305Z" fill="#263238"/>
  <path d="M142.778 155.656H70.222a1.564 1.564 0 0 0-1.564 1.564v29.641a1.563 1.563 0 0 0 1.564 1.563h72.556a1.562 1.562 0 0 0 1.563-1.563V157.22a1.56 1.56 0 0 0-1.563-1.564Zm-1.568 3.131v12.137H71.772v-12.137h69.438ZM71.79 185.31v-12.15h69.437v12.15H71.789Z" fill="#fff" stroke="#263238" stroke-width=".75" stroke-linecap="round" stroke-linejoin="round"/>
  <path d="M132.051 93.396H81.847a2.922 2.922 0 0 0-2.922 2.923v10.778a2.923 2.923 0 0 0 2.922 2.922h50.204a2.923 2.923 0 0 0 2.923-2.922V96.319a2.923 2.923 0 0 0-2.923-2.923Z" fill="#263238" stroke="#263238" stroke-linecap="round" stroke-linejoin="round"/>
  <path d="M131.157 92.502H80.953a2.922 2.922 0 0 0-2.923 2.922v10.778a2.922 2.922 0 0 0 2.923 2.922h50.204a2.922 2.922 0 0 0 2.922-2.922V95.424a2.922 2.922 0 0 0-2.922-2.922Z" fill="#fff" stroke="#263238" stroke-linecap="round" stroke-linejoin="round"/>
  <path d="M131.157 92.502H80.953a2.922 2.922 0 0 0-2.923 2.922v10.778a2.922 2.922 0 0 0 2.923 2.922h50.204a2.922 2.922 0 0 0 2.922-2.922V95.424a2.922 2.922 0 0 0-2.922-2.922Z" stroke="#263238" stroke-linecap="round" stroke-linejoin="round"/>
  <path d="M90.44 105.721h-7.382v-9.338h4.92l2.462 2.462v6.876Z" fill="#fff"/>
  <path opacity=".5" d="M90.44 105.721h-7.382v-9.338h4.92l2.462 2.462v6.876Z" fill="#fff"/>
  <path d="M90.44 105.721h-7.382v-9.338h4.92l2.462 2.462v6.876Z" stroke="#263238" stroke-linecap="round" stroke-linejoin="round"/>
  <path d="M87.978 98.845h2.462l-2.462-2.463v2.463Z" fill="#fff" stroke="#263238" stroke-linecap="round" stroke-linejoin="round"/>
  <path d="M84.697 101.337a.469.469 0 0 1 0-.933H88.8a.469.469 0 0 1 0 .933h-4.103ZM84.697 103.301a.469.469 0 0 1 0-.933h3.208a.469.469 0 0 1 0 .933h-3.208Z" fill="#858585" stroke="#263238" stroke-width=".75" stroke-linecap="round" stroke-linejoin="round"/>
  <path d="M109.102 101.874H95.364a.966.966 0 0 0 0 1.93h13.738v-1.93Z" fill="#fff"/>
  <path d="M95.364 103.803a.966.966 0 0 1 0-1.929h32.717a.954.954 0 0 1 .724.258.971.971 0 0 1 .227 1.091.971.971 0 0 1-.951.58H95.364Z" stroke="#263238" stroke-linecap="round" stroke-linejoin="round"/>
  <path d="M109.413 99.258h-1.035v-.49l.984-2.33h.592v2.33h.256v.49h-.256v.626h-.541v-.626Zm0-.49v-1.342l-.532 1.346.532-.004ZM110.462 99.07v-.268h.511v.307c0 .247.107.337.281.337.175 0 .281-.09.281-.337v-.771c0-.247-.11-.34-.281-.34-.17 0-.281.093-.281.34v.03h-.511l.098-1.926h1.427v.494h-.946l-.042.822a.506.506 0 0 1 .468-.25c.396 0 .601.28.601.787v.776c0 .553-.277.852-.809.852-.533 0-.797-.299-.797-.852ZM112.413 97.805v-.852a.521.521 0 0 1 .135-.4.521.521 0 0 1 .598-.126.521.521 0 0 1 .311.526v.852a.52.52 0 0 1-.311.527.519.519 0 0 1-.598-.126.52.52 0 0 1-.135-.4Zm.699.026v-.912c0-.149-.068-.213-.175-.213-.106 0-.179.064-.179.213v.912c0 .153.064.217.179.217.115 0 .175-.068.175-.217Zm1.073-1.389h.345l-1.333 3.447h-.345l1.333-3.447Zm-.259 2.944v-.852a.52.52 0 0 1 .521-.571.527.527 0 0 1 .497.356.52.52 0 0 1 .025.215v.852a.52.52 0 0 1-.522.571.526.526 0 0 1-.521-.571Zm.698.025V98.5c0-.154-.068-.218-.179-.218-.11 0-.174.064-.174.218v.911c0 .154.064.218.174.218.111 0 .179-.064.179-.218Z" fill="#263238"/>
  <path d="M132.051 112.686H81.847a2.922 2.922 0 0 0-2.922 2.922v10.778a2.922 2.922 0 0 0 2.922 2.922h50.204a2.923 2.923 0 0 0 2.923-2.922v-10.778a2.923 2.923 0 0 0-2.923-2.922Z" fill="#263238" stroke="#263238" stroke-linecap="round" stroke-linejoin="round"/>
  <path d="M131.157 111.791H80.953a2.922 2.922 0 0 0-2.923 2.922v10.778a2.922 2.922 0 0 0 2.923 2.922h50.204a2.922 2.922 0 0 0 2.922-2.922v-10.778a2.922 2.922 0 0 0-2.922-2.922Z" fill="#fff" stroke="#263238" stroke-linecap="round" stroke-linejoin="round"/>
  <path d="M119.94 121.044H95.364a.966.966 0 0 0 0 1.929h24.576v-1.929Z" fill="#fff"/>
  <path d="M95.364 122.973a.966.966 0 0 1 0-1.929h32.717a.954.954 0 0 1 .724.258.971.971 0 0 1 .227 1.091.971.971 0 0 1-.951.58H95.364Z" stroke="#263238" stroke-linecap="round" stroke-linejoin="round"/>
  <path d="M108.442 118.258v-.307a.71.71 0 0 1 .354-.703.685.685 0 0 1-.333-.677v-.141a.826.826 0 0 1 1.653 0v.141a.692.692 0 0 1-.336.677.716.716 0 0 1 .358.703v.307a.85.85 0 0 1-1.455.602.85.85 0 0 1-.249-.602h.008Zm1.155-.03v-.332c0-.26-.107-.388-.307-.388s-.307.128-.307.388v.332c0 .26.107.388.307.388s.307-.128.307-.388Zm0-1.555v-.273c0-.225-.098-.345-.286-.345-.187 0-.285.12-.285.345v.273c0 .226.098.345.285.345.188 0 .264-.119.264-.345h.022ZM110.462 118.241v-.269h.511v.307c0 .247.107.336.281.336.175 0 .281-.089.281-.336v-.771c0-.247-.11-.341-.281-.341-.17 0-.281.094-.281.341v.03h-.511l.098-1.926h1.427v.494h-.946l-.042.823a.503.503 0 0 1 .468-.252c.396 0 .601.281.601.788v.776a.808.808 0 0 1-1.131.8.8.8 0 0 1-.484-.8h.009ZM112.413 116.975v-.852a.52.52 0 0 1 .135-.4.513.513 0 0 1 .176-.126.51.51 0 0 1 .422 0 .513.513 0 0 1 .286.312.519.519 0 0 1 .025.214v.852a.522.522 0 0 1-.733.527.513.513 0 0 1-.285-.312.522.522 0 0 1-.026-.215Zm.699.026v-.912c0-.149-.068-.217-.175-.217-.106 0-.179.068-.179.217v.912c0 .153.064.217.179.217.115 0 .175-.068.175-.217Zm1.073-1.389h.345l-1.333 3.447h-.345l1.333-3.447Zm-.259 2.944v-.852a.522.522 0 0 1 .733-.527.524.524 0 0 1 .31.527v.852a.519.519 0 0 1-.135.4.535.535 0 0 1-.175.127.533.533 0 0 1-.423 0 .525.525 0 0 1-.31-.527Zm.698.025v-.911c0-.154-.068-.217-.179-.217-.11 0-.174.063-.174.217v.911c0 .154.064.218.174.218.111 0 .179-.064.179-.218Z" fill="#263238"/>
  <path d="M90.44 124.89h-7.382v-9.337h4.92l2.462 2.462v6.875Z" fill="#fff"/>
  <path opacity=".5" d="M90.44 124.89h-7.382v-9.337h4.92l2.462 2.462v6.875Z" fill="#fff" stroke="#263238" stroke-linecap="round" stroke-linejoin="round"/>
  <path d="M90.44 124.89h-7.382v-9.337h4.92l2.462 2.462v6.875Z" stroke="#263238" stroke-linecap="round" stroke-linejoin="round"/>
  <path d="M84.697 120.507a.469.469 0 0 1 0-.933H88.8a.469.469 0 0 1 0 .933h-4.103ZM84.697 122.471a.469.469 0 0 1 0-.933h3.208a.469.469 0 0 1 0 .933h-3.208Z" fill="#858585" stroke="#263238" stroke-width=".75" stroke-linecap="round" stroke-linejoin="round"/>
  <path d="M87.978 118.015h2.462l-2.462-2.462v2.462Z" fill="#fff" stroke="#263238" stroke-linecap="round" stroke-linejoin="round"/>
  <path d="M138.915 67.64H74.981a2.922 2.922 0 0 0-2.922 2.923v14.854a2.922 2.922 0 0 0 2.922 2.923h63.934a2.922 2.922 0 0 0 2.922-2.923V70.563a2.922 2.922 0 0 0-2.922-2.923Z" fill="#263238" stroke="#263238" stroke-linecap="round" stroke-linejoin="round"/>
  <path d="M138.02 66.746H74.085a2.922 2.922 0 0 0-2.922 2.922v14.855a2.922 2.922 0 0 0 2.922 2.922h63.935a2.922 2.922 0 0 0 2.922-2.922V69.668a2.922 2.922 0 0 0-2.922-2.922Z" fill="#fff" stroke="#263238" stroke-linecap="round" stroke-linejoin="round"/>
  <path d="M95.518 85.741h-13.67V68.45h9.112l4.558 4.554V85.74Z" fill="#fff"/>
  <path opacity=".7" d="M95.518 85.741h-13.67V68.45h9.112l4.558 4.554V85.74Z" fill="#fff"/>
  <path d="M95.518 85.741h-13.67V68.45h9.112l4.558 4.554V85.74Z" stroke="#263238" stroke-linecap="round" stroke-linejoin="round"/>
  <path d="M90.96 73.004h4.558L90.96 68.45v4.554Z" fill="#fff" stroke="#263238" stroke-linecap="round" stroke-linejoin="round"/>
  <path d="M85.881 75.134h-2.684v2.683h2.684v-2.683ZM88.642 75.134h-2.684v2.683h2.684v-2.683ZM91.406 75.134h-2.683v2.683h2.683v-2.683ZM94.167 75.134h-2.684v2.683h2.684v-2.683Z" stroke="#fff" stroke-width=".75" stroke-linecap="round" stroke-linejoin="round"/>
  <path d="M85.881 77.817h-2.684v2.684h2.684v-2.684ZM88.642 77.817h-2.684v2.684h2.684v-2.684ZM91.406 77.817h-2.683v2.684h2.683v-2.684ZM94.167 77.817h-2.684v2.684h2.684v-2.684ZM85.881 80.501h-2.684v2.684h2.684v-2.684ZM88.642 80.501h-2.684v2.684h2.684v-2.684ZM91.406 80.501h-2.683v2.684h2.683v-2.684ZM94.167 80.501h-2.684v2.684h2.684v-2.684Z" stroke="#fff" stroke-width=".75" stroke-linecap="round" stroke-linejoin="round"/>
  <path d="m83.249 82.925 2.71-2.488 1.341.064 1.466-2.645 1.299 1.303 1.457-1.529 1.303-2.496" stroke="#fff" stroke-width="2" stroke-linecap="round" stroke-linejoin="round"/>
  <path d="m91.287 75.913 1.538-.78.31 1.68" stroke="#fff" stroke-width="2" stroke-linecap="round" stroke-linejoin="round"/>
  <path d="M100.894 76.544h-.784v-.52c.622 0 .852-.136 1.014-.592h.494v4.686h-.737l.013-3.574ZM102.49 79.014v-2.47a1.12 1.12 0 0 1 2.241 0v2.47a1.12 1.12 0 1 1-2.241 0Zm1.504.047v-2.556c0-.332-.149-.46-.383-.46-.235 0-.384.128-.384.46v2.556c0 .337.149.465.384.465.234 0 .383-.128.383-.465ZM105.175 79.014v-2.47a1.12 1.12 0 0 1 2.241 0v2.47a1.12 1.12 0 1 1-2.241 0Zm1.504.047v-2.556c0-.332-.15-.46-.384-.46s-.383.128-.383.46v2.556c0 .337.149.465.383.465s.384-.128.384-.465ZM107.872 77.29v-1.172a.713.713 0 0 1 1.423 0v1.171a.713.713 0 0 1-1.215.503.713.713 0 0 1-.208-.503Zm.954.033v-1.24c0-.208-.093-.297-.243-.297-.149 0-.242.089-.242.298v1.24c0 .208.089.293.242.293.154 0 .243-.085.243-.294Zm1.461-1.891h.473l-1.819 4.686h-.468l1.814-4.686Zm-.357 4.013v-1.176a.706.706 0 0 1 .439-.657.71.71 0 0 1 .983.657v1.176a.706.706 0 0 1-.439.657.712.712 0 0 1-.983-.657Zm.954.034v-1.244c0-.209-.094-.294-.243-.294s-.239.085-.239.294v1.244c0 .204.086.294.239.294s.243-.09.243-.294ZM112.545 78.66v-1.852a.798.798 0 0 1 1.36-.564c.149.15.233.353.233.564v.366h-.511v-.4c0-.226-.111-.32-.273-.32-.162 0-.268.094-.268.32v1.925c0 .226.106.316.268.316.162 0 .273-.09.273-.316v-.528h.511v.49a.798.798 0 0 1-1.36.563.798.798 0 0 1-.233-.563ZM114.432 78.64v-1.81a.822.822 0 1 1 1.644 0v1.81a.823.823 0 0 1-1.644 0Zm1.103.034v-1.879c0-.247-.107-.34-.281-.34-.175 0-.281.093-.281.34v1.879c0 .247.11.34.281.34.17 0 .281-.093.281-.34ZM116.438 76.011h.776l.345 2.467.345-2.467h.771v3.447h-.511V76.85l-.396 2.608h-.452l-.392-2.608v2.608h-.473l-.013-3.447ZM119.089 76.011h.796c.542 0 .806.303.806.852v.341c0 .55-.264.852-.806.852h-.255v1.402h-.541V76.01Zm.796 1.55c.171 0 .265-.076.265-.323v-.426c0-.247-.094-.324-.265-.324h-.255v1.057l.255.017ZM120.983 76.011h.541v2.952h.891v.495h-1.432V76.01ZM122.688 76.011h1.473v.494h-.932v.908h.736v.494h-.741v1.056h.933v.495h-1.469V76.01ZM124.886 76.505h-.563v-.494h1.67v.494h-.566v2.953h-.541v-2.953ZM126.258 76.011h1.474v.494h-.933v.908h.741v.494h-.741v1.056h.933v.495h-1.474V76.01ZM128.043 76.011h.826c.541 0 .806.303.806.852v1.743c0 .55-.265.852-.806.852h-.826V76.01Zm.814 2.952c.174 0 .277-.089.277-.332v-1.793c0-.243-.103-.333-.277-.333h-.273v2.458h.273Z" fill="#263238"/>
  <path d="M132.051 131.979H81.847a2.923 2.923 0 0 0-2.922 2.922v10.778a2.923 2.923 0 0 0 2.922 2.923h50.204a2.923 2.923 0 0 0 2.923-2.923v-10.778a2.923 2.923 0 0 0-2.923-2.922Z" fill="#263238" stroke="#263238" stroke-linecap="round" stroke-linejoin="round"/>
  <path d="M131.157 131.085H80.953a2.922 2.922 0 0 0-2.923 2.922v10.778a2.922 2.922 0 0 0 2.923 2.922h50.204a2.922 2.922 0 0 0 2.922-2.922v-10.778a2.922 2.922 0 0 0-2.922-2.922Z" fill="#fff" stroke="#263238" stroke-linecap="round" stroke-linejoin="round"/>
  <path d="M118.206 140.218H95.364a.961.961 0 0 0-.68 1.643c.18.181.425.282.68.282h22.842v-1.925Z" fill="#fff"/>
  <path d="M95.364 142.143a.961.961 0 0 1-.68-1.643.961.961 0 0 1 .68-.282h32.717a.966.966 0 0 1 .889.594.953.953 0 0 1 0 .737.953.953 0 0 1-.521.521.966.966 0 0 1-.368.073H95.364Z" stroke="#263238" stroke-linecap="round" stroke-linejoin="round"/>
  <path d="M90.44 144.065h-7.382v-9.338h4.92l2.462 2.458v6.88Z" fill="#fff"/>
  <path opacity=".5" d="M90.44 144.065h-7.382v-9.338h4.92l2.462 2.458v6.88Z" fill="#fff"/>
  <path d="M90.44 144.065h-7.382v-9.338h4.92l2.462 2.458v6.88Z" stroke="#263238" stroke-linecap="round" stroke-linejoin="round"/>
  <path d="M84.697 139.681a.469.469 0 0 1 0-.933H88.8a.467.467 0 0 1 0 .933h-4.103ZM84.697 141.641a.465.465 0 0 1 0-.929h3.208a.465.465 0 0 1 0 .929h-3.208Z" fill="#858585" stroke="#263238" stroke-width=".75" stroke-linecap="round" stroke-linejoin="round"/>
  <path d="M87.978 137.185h2.462l-2.462-2.458v2.458Z" fill="#fff" stroke="#263238" stroke-linecap="round" stroke-linejoin="round"/>
  <path d="M109.567 135.276h-1.094v-.49h1.623v.473l-.852 2.982h-.554l.877-2.965ZM110.436 137.415v-1.811a.821.821 0 1 1 1.644 0v1.811a.822.822 0 0 1-1.644 0Zm1.103.034v-1.879c0-.247-.111-.341-.281-.341-.171 0-.281.094-.281.341v1.879c0 .247.11.336.281.336.17 0 .281-.089.281-.336ZM112.413 136.15v-.852a.522.522 0 0 1 .311-.527.526.526 0 0 1 .598.126.522.522 0 0 1 .135.401v.852a.519.519 0 0 1-.311.526.51.51 0 0 1-.422 0 .513.513 0 0 1-.285-.312.52.52 0 0 1-.026-.214Zm.699.025v-.911c0-.154-.068-.218-.175-.218-.106 0-.179.064-.179.218v.911c0 .149.064.213.179.213.115 0 .175-.068.175-.213Zm1.056-1.389h.345l-1.333 3.443h-.345l1.333-3.443Zm-.259 2.944v-.852a.519.519 0 0 1 .135-.401.532.532 0 0 1 .598-.126.528.528 0 0 1 .31.527v.852a.522.522 0 0 1-.733.527.537.537 0 0 1-.285-.312.522.522 0 0 1-.025-.215Zm.698.021v-.907c0-.153-.068-.217-.179-.217-.111 0-.174.064-.174.217v.907c0 .154.063.218.174.218.111 0 .196-.064.196-.218h-.017Z" fill="#263238"/>
  <path d="m50.455 46.945 11.242-8.69 11.242 8.69H50.455Z" fill="#263238" stroke="#263238" stroke-linecap="round" stroke-linejoin="round"/>
  <path d="M64.637 37.573h-5.88V42.6h5.88v-5.027Z" fill="#263238" stroke="#263238" stroke-linecap="round" stroke-linejoin="round"/>
  <path d="M61.697 25.083V42.6" stroke="#263238" stroke-width=".75" stroke-linecap="round" stroke-linejoin="round"/>
  <path d="m140.056 46.945 11.246-8.69 11.242 8.69h-22.488Z" fill="#263238" stroke="#263238" stroke-linecap="round" stroke-linejoin="round"/>
  <path d="M154.241 37.573h-5.879V42.6h5.879v-5.027Z" fill="#263238" stroke="#263238" stroke-linecap="round" stroke-linejoin="round"/>
  <path d="M151.302 24.23V42.6" stroke="#263238" stroke-width=".75" stroke-linecap="round" stroke-linejoin="round"/>
  <path d="m155.691 182.579-.239 7.029 3.638.175 1.325-7.204h-4.724Z" fill="#fff" stroke="#263238" stroke-linecap="round" stroke-linejoin="round"/>
  <path d="M148.572 191.764c1.227-.426 3.349-1.15 4.145-1.649.639-.4 1.53-1.704 2.19-2.07a1.103 1.103 0 0 1 .877 0 .812.812 0 0 1 .201.426.359.359 0 0 0 .505.234.368.368 0 0 0 .155-.14c.102-.2.247-.375.426-.512.562-.315 2.083-.404 2.581 0 .827.678 1.125 3.012 1.278 4.065.039.23 0 1.508 0 1.508h-13.274v-.584a1.334 1.334 0 0 1 .916-1.278Z" fill="#fff" stroke="#263238" stroke-linecap="round" stroke-linejoin="round"/>
  <path d="M160.939 193.617h-13.283v-.584c0-.145.025-.289.073-.426h13.227c0 .448-.017 1.01-.017 1.01Z" fill="#858585" stroke="#263238" stroke-linecap="round" stroke-linejoin="round"/>
  <path d="m157.986 128.085-2.791 57.17 5.112.852s3.221-16.546 3.613-21.965c.094-1.278 0-5.133 0-5.133l3.617-17.803s2.381-2.198 2.658-12.665l-12.209-.456Z" fill="#263238" stroke="#263238" stroke-linecap="round" stroke-linejoin="round"/>
  <path opacity=".7" d="M165.553 150.212c.196-.827.426-1.64.703-2.45.042-.115.093-.221.144-.328.127-1.21.322-2.411.584-3.599.09-.444.329-.844.677-1.134a1.657 1.657 0 0 1 1.078-.924 22.018 22.018 0 0 0-.716-3.25c-.323-1.116-.852-2.186-1.009-3.34-.043-.298-.213-.609-.158-.643a11.118 11.118 0 0 1-1.073-.486l-.064-.051a161.313 161.313 0 0 0-.166 16.205Z" fill="#000"/>
  <path d="M157.743 160.785a5.107 5.107 0 0 0 2.403-1.308" stroke="#7F7F7F" stroke-width=".75" stroke-linecap="round" stroke-linejoin="round"/>
  <path d="m154.523 186.341 6.182.507.46-2.002-6.642-.52v2.015ZM172.373 181.715l1.316 8.217 3.366-.264-.111-8.413-4.571.46Z" fill="#fff" stroke="#263238" stroke-linecap="round" stroke-linejoin="round"/>
  <path d="M166.736 191.764c1.231-.426 3.352-1.15 4.145-1.649.639-.4 1.533-1.704 2.189-2.07a1.12 1.12 0 0 1 .882 0 .62.62 0 0 1 .158.285.424.424 0 0 0 .606.263.424.424 0 0 0 .178-.173c.087-.147.203-.275.341-.375.562-.315 2.083-.405 2.581 0 .827.677 1.125 3.012 1.278 4.064.034.23 0 1.508 0 1.508h-13.27v-.584a1.34 1.34 0 0 1 .912-1.269Z" fill="#fff" stroke="#263238" stroke-linecap="round" stroke-linejoin="round"/>
  <path d="M179.107 193.617h-13.283v-.584a1.319 1.319 0 0 1 .068-.426h13.228c0 .448-.013 1.01-.013 1.01Z" fill="#858585" stroke="#263238" stroke-linecap="round" stroke-linejoin="round"/>
  <path d="M165.101 129.811s1.278 7.399 2.453 13.606c.801 4.209.852 16.644.852 16.644l4.081 25.675 5.031-.677s.06-15.805-.506-20.874c-.128-1.129-.337-4.482-.337-4.482s.192-13.41 1.227-17.892c.741-3.195 2.215-6.552.426-13.099l-13.227 1.099Z" fill="#263238" stroke="#263238" stroke-linecap="round" stroke-linejoin="round"/>
  <path d="M169.511 160.785a3.466 3.466 0 0 0 2.13 1.368" stroke="#7F7F7F" stroke-width=".75" stroke-linecap="round" stroke-linejoin="round"/>
  <path d="m171.644 184.582.289 1.882 6.237-.668-.043-2.028-6.483.814Z" fill="#fff" stroke="#263238" stroke-linecap="round" stroke-linejoin="round"/>
  <path d="m141.36 95.582-1.376-2.314s-.333-3.778-1.099-4.515c-.767-.737-2.471-2.906-2.714-2.48-.383.682 1.035 1.896 1.035 1.896l.26 1.406s-2.296-1.653-2.944-1.653c0 0-1.831-2.168-2.479-2.172-.647-.005.264 1.499.264 1.499s-.617-.473-.737-.179c-.119.294.797 1.3.797 1.3s-.354.383.179 1.205a1.502 1.502 0 0 0 .426 1.504c.707.562 4.507 2.713 4.507 2.713l1.278 3.008 2.603-1.218Z" fill="#858585" stroke="#263238" stroke-linecap="round" stroke-linejoin="round"/>
  <path d="M132.87 88.43s.503.204.294.94c.201.286.313.623.324.972.051.647 3.331.328 4.217 1.704M132.87 87.632l1.338 1.415" stroke="#263238" stroke-width=".75" stroke-linecap="round" stroke-linejoin="round"/>
  <path d="m155.563 94.998-8.78 6.842-6.015-8.197-3.063 1.534s4.814 13.3 8.456 13.3c3.873 0 11.234-6.22 11.234-6.22s.464-1.189-1.832-7.259Z" fill="#fff" stroke="#263238" stroke-linecap="round" stroke-linejoin="round"/>
  <path d="M147.114 102.491c.206.437.359.896.456 1.368" stroke="#263238" stroke-width=".75" stroke-linecap="round" stroke-linejoin="round"/>
  <path d="m155.562 94.998 1.871 24.755v10.283s10.773 1.278 21.402-.272l-.366-10.586 1.077-23.596s-4.933-3.566-12.507-3.566-11.477 2.982-11.477 2.982Z" fill="#fff" stroke="#263238" stroke-linecap="round" stroke-linejoin="round"/>
  <path opacity=".2" d="m178.836 129.764-.341-9.487c-.183 4.571-5.227 2.854-6.369 2.641-1.222-.23-2.628 3.8-2.628 3.8s-4.686.805-8.354.52c-3.668-.286-3.723-3.634-3.723-3.634v6.432s10.786 1.296 21.415-.272Z" fill="#000"/>
  <path d="M162.48 119.514a28.429 28.429 0 0 0 12.644-4.554l-12.644 4.554Z" fill="#fff"/>
  <path d="M162.48 119.514a28.429 28.429 0 0 0 12.644-4.554" stroke="#263238" stroke-width=".75" stroke-linecap="round" stroke-linejoin="round"/>
  <path d="M160.602 119.642s.362 0 1.001-.047l-1.001.047Z" fill="#fff"/>
  <path d="M160.602 119.642s.362 0 1.001-.047" stroke="#263238" stroke-width=".75" stroke-linecap="round" stroke-linejoin="round"/>
  <path d="m164.248 96.19-1.866-.677-1.78 1.721 1.303-5.325 1.572-1.235.801.507 3.578-.136 2.782.225 1.325-.408 1.414 1.414-3.148 6.02-1.32-2.28-2.914.362-1.747-.187Z" fill="#fff"/>
  <path opacity=".5" d="m164.248 96.19-1.866-.677-1.78 1.721 1.303-5.325 1.572-1.235.801.507 3.578-.136 2.782.225 1.325-.408 1.414 1.414-3.148 6.02-1.32-2.28-2.914.362-1.747-.187Z" fill="#fff"/>
  <path d="m164.248 96.19-1.866-.677-1.78 1.721 1.303-5.325 1.572-1.235.801.507 3.578-.136 2.782.225 1.325-.408 1.414 1.414-3.148 6.02-1.32-2.28-2.914.362-1.747-.187Z" stroke="#263238" stroke-linecap="round" stroke-linejoin="round"/>
  <path d="m170.447 92.259-.426-6.51-4.115.729-.852 3.059-.852 2.65-.405.042 1.12 6.083 5.939-5.964-.409-.09Z" fill="#858585"/>
  <path d="M160.33 86.201c0 1.653.256 5.35 2.526 5.78 2.352.448 5.048-2.227 6.015-3.296a2.81 2.81 0 0 0 .558-.912l.516-1.367a1.77 1.77 0 0 0 .971-.205H160.33Z" fill="#263238" stroke="#263238" stroke-width=".5" stroke-linecap="round" stroke-linejoin="round"/>
  <path d="m170.447 92.259-.426-6.51-4.115.729-.852 3.059-.852 2.65-.405.042 1.12 6.083 5.939-5.964-.409-.09Z" stroke="#263238" stroke-linecap="round" stroke-linejoin="round"/>
  <path d="M163.073 77.843s-1.947-1.483-.992-2.65c.498-.605 1.146.192 1.146.192s-.345-1.857 1.039-2.13c1.278-.239 1.227 1.227 1.227 1.227s.66-1.257 1.815-.976c.92.222.566 1.525.566 1.525s1.227-1.525 2.497-.852c1.094.575.191 1.956.191 1.956s1.304-.46 2.032.272c.729.733 0 1.704 0 1.704s1.436 0 1.5 1.074c.064 1.073-1.112 1.278-1.112 1.278s1.661.537 1.674 1.84c.013 1.304-1.099.886-1.099.886s.69 1.227.115 1.879a.69.69 0 0 1-.558.281.695.695 0 0 1-.558-.281s.72 1.546-.192 1.998c-.652.32-1.035-.465-1.035-.465s-.549 1.338-1.214.52c-.665-.818-3.962-7.118-3.962-7.118l-3.08-2.16Z" fill="#263238" stroke="#263238" stroke-width=".75" stroke-linecap="round" stroke-linejoin="round"/>
  <path d="m162.511 77.903-1.227 2.556a1.992 1.992 0 0 0-.191.852v.8l-.678 1.705c-.035.088-.063.18-.085.272-.217.908-1.252 5.781 1.278 6.774 2.232.877 5.376-1.24 6.531-2.11.287-.216.531-.486.715-.796l.767-1.244a1.61 1.61 0 0 0 1.785-.626c.686-.984 1.478-1.516.537-2.403-.942-.886-1.811.533-1.811.533l.128-2.5-1.091-1.918-.055-1.205s-3.57-.396-5.964-1.704l-.639 1.014Z" fill="#fff" stroke="#263238" stroke-width=".75" stroke-linecap="round" stroke-linejoin="round"/>
  <path d="m162.511 77.903-1.227 2.556a1.992 1.992 0 0 0-.191.852v.8l-.678 1.705c-.035.088-.063.18-.085.272-.217.908-1.252 5.781 1.278 6.774 2.232.877 5.376-1.24 6.531-2.11.287-.216.531-.486.715-.796l.767-1.244a1.61 1.61 0 0 0 1.785-.626c.686-.984 1.478-1.516.537-2.403-.942-.886-1.811.533-1.811.533l.128-2.5-1.091-1.918-.055-1.205s-3.57-.396-5.964-1.704l-.639 1.014Z" fill="#858585" stroke="#263238" stroke-linecap="round" stroke-linejoin="round"/>
  <path d="M164.683 86.631c-.69 1.334-1.627 1.112-2.215.78" stroke="#263238" stroke-width=".75" stroke-linecap="round" stroke-linejoin="round"/>
  <path d="M164.695 83.603c-.093.302-.285.51-.426.468-.14-.043-.187-.328-.093-.63.093-.303.285-.516.426-.469.14.047.187.328.093.63ZM161.851 82.72c-.094.307-.286.516-.426.47-.141-.048-.188-.329-.094-.631.094-.303.29-.511.426-.465.136.047.187.324.094.627Z" fill="#263238"/>
  <path d="M161.646 80.753a.85.85 0 0 1 1.065.651M164.096 81.915s.992-1.043 1.661.064M162.732 82.99a2.445 2.445 0 0 1-1.576 1.784l.776 1.231" stroke="#263238" stroke-width=".75" stroke-linecap="round" stroke-linejoin="round"/>
  <path d="m167.678 131.83-.217 1.316a.85.85 0 0 0 .686.959l13.661 2.241a.851.851 0 0 0 .959-.686l.213-1.317-15.302-2.513Z" fill="#fff" stroke="#263238" stroke-width=".75" stroke-linecap="round" stroke-linejoin="round"/>
  <path d="m183.592 126.049-13.818-2.268a.754.754 0 0 0-.866.622l-1.369 8.344a.755.755 0 0 0 .622.867l13.817 2.267a.755.755 0 0 0 .867-.622l1.369-8.344a.753.753 0 0 0-.622-.866Z" fill="#fff"/>
  <path opacity=".5" d="m183.591 126.049-13.818-2.268a.754.754 0 0 0-.866.622l-1.369 8.344a.755.755 0 0 0 .622.867l13.817 2.267a.755.755 0 0 0 .867-.622l1.369-8.344a.753.753 0 0 0-.622-.866Z" fill="#fff"/>
  <path d="m183.592 126.049-13.818-2.268a.754.754 0 0 0-.866.622l-1.369 8.344a.755.755 0 0 0 .622.867l13.817 2.267a.755.755 0 0 0 .867-.622l1.369-8.344a.753.753 0 0 0-.622-.866Z" stroke="#263238" stroke-linecap="round" stroke-linejoin="round"/>
  <path d="m178.26 127.604-.754 2.556-2.556 1.828a30.227 30.227 0 0 1-1.278 3.284.399.399 0 0 0 .332.592c.354 0 .767-.166.993-.852 0 0 .098 1.346.929.524 0 0 .507 1.304 1.299.277 0 0 1.836.273 2.13-1.052.294-1.325.728-3.66.728-3.66l1.168-2.739-2.991-.758Z" fill="#858585" stroke="#263238" stroke-linecap="round" stroke-linejoin="round"/>
  <path d="m174.979 134.488.29-1.972M175.436 134.616s.2.652.651.545c.452-.106 1.095.396 2.501-.196" stroke="#263238" stroke-width=".75" stroke-linecap="round" stroke-linejoin="round"/>
  <path d="M179.547 95.582s6.39 17.755 6.271 20.35c-.12 2.594-4.665 13.879-4.665 13.879l-3.51-1.116 2.343-13.236-2.101-9.198s-.477-6.743 1.662-10.68Z" fill="#fff" stroke="#263238" stroke-linecap="round" stroke-linejoin="round"/>
  <path d="M180.772 115.165a1.981 1.981 0 0 1 1.679-.354" stroke="#263238" stroke-width=".75" stroke-linecap="round" stroke-linejoin="round"/>
  <path d="M176.62 128.976a1.73 1.73 0 0 1-.281-.563.974.974 0 0 0-.986.884.97.97 0 0 0 .811 1.046.976.976 0 0 0 1.12-.801 1.453 1.453 0 0 1-.664-.566ZM51.946 91.5l.775 3.822-8.614.362 1.496-10.59 5.802.673.54 5.734Z" fill="#fff"/>
  <path d="m55.806 85.703-7.203 2.13c.09.825.26 1.64.51 2.432.427 1.227 3.021 3.408 4.687 3.382 1.665-.025 1.853-5.333 1.853-5.333l1.005-.558a.469.469 0 0 0 .145-.686l-.997-1.367Z" fill="#263238" stroke="#263238" stroke-width=".75" stroke-linecap="round" stroke-linejoin="round"/>
  <path d="m51.946 91.5.775 3.822-8.614.362 1.496-10.59 5.802.673.54 5.734Z" stroke="#263238" stroke-linecap="round" stroke-linejoin="round"/>
  <path d="M52.342 78.039s2.092.426 1.879-1.845c-.213-2.27-4.111-.882-6.143-.626s-8.593 2.705-6.27 6.573c0 0-1.368 2.181 3.556 5.84 0 0 2.339-1.098 3.621.508l1.001-1.951 2.556-4.49-.2-4.01Z" fill="#263238" stroke="#263238" stroke-linecap="round" stroke-linejoin="round"/>
  <path d="M52.188 77.698s2.003 1.116 3.153-.281c0 0 .128 2.982-3.153.281Z" fill="#263238" stroke="#263238" stroke-linecap="round" stroke-linejoin="round"/>
  <path d="M52.398 77.387s2.982 3.14 2.88 5.291v1.964l1.576 1.772a.425.425 0 0 1-.077.656l-.916.635s.269 5.027-1.308 5.206c-1.576.178-4.2-1.704-4.724-2.812a15.393 15.393 0 0 1-.852-3.148 2.381 2.381 0 0 1-1.742-2.02c-.184-1.652 1.482-1.605 1.913-.523l.349.882 1.082-.039s-.618-1.559-.252-2.02c.367-.46 1.807-1.58 1.146-2.649-.66-1.07-.438-2.888.925-3.195Z" fill="#fff" stroke="#263238" stroke-linecap="round" stroke-linejoin="round"/>
  <path d="M54.102 88.689a1.205 1.205 0 0 0 1.278.592" stroke="#263238" stroke-width=".75" stroke-linecap="round" stroke-linejoin="round"/>
  <path d="M53.318 82.69s.678-.94 1.321-.08" stroke="#263238" stroke-linecap="round" stroke-linejoin="round"/>
  <path d="M54.387 84.655c0 .294-.115.537-.273.54-.157.005-.293-.23-.302-.523-.009-.294.115-.537.273-.541.157-.005.294.217.302.524Z" fill="#263238"/>
  <path d="m40.725 179.022-1.244 10.706 3.702.57 2.04-10.581-4.498-.695Z" fill="#fff" stroke="#263238" stroke-linecap="round" stroke-linejoin="round"/>
  <path d="M38.983 131.719s.15 6.203 2.34 10.565l.498 16.461-2.527 26.522 5.62.537 5.111-27.741 1.704-25.134-12.746-1.21Z" fill="#fff" stroke="#263238" stroke-linecap="round" stroke-linejoin="round"/>
  <path opacity=".2" d="m50.937 145.015-.47-2.952-2.13-9.292-.391-.2-8.946-.852s0 1.018.2 2.522l4.418 2.505a14.78 14.78 0 0 0 1.052 4.58.804.804 0 0 1-.81 1.111c-.455-.034-.851 0-.851.299 0 .69 3.331 2.918 3.331 2.918s3.361 10.863 3.242 14.876l.456-2.471.899-13.044Z" fill="#000"/>
  <path d="m52.023 179.725.405 10.769h3.745l.4-10.769h-4.55Z" fill="#fff" stroke="#263238" stroke-linecap="round" stroke-linejoin="round"/>
  <path d="M62.136 192.011a23.337 23.337 0 0 1-3.595-1.431c-.554-.345-1.33-1.474-1.9-1.794a.968.968 0 0 0-.759 0c-.272.222-.285 1.376-.285 1.376s-.482-1.176-.83-1.376c-.486-.272-1.807-.353-2.237 0-.716.584-.976 2.612-1.116 3.523-.035.2 0 1.308 0 1.308h11.502v-.507a1.157 1.157 0 0 0-.78-1.099Z" fill="#263238" stroke="#263238" stroke-linecap="round" stroke-linejoin="round"/>
  <path d="m59.857 132.23-.92 24.883-1.538 28.41h-5.853s-1.227-21.807-.92-28.116l-3.072-14.591s-3.224-4.302-2.458-9.521l14.761-1.065Z" fill="#fff" stroke="#263238" stroke-linecap="round" stroke-linejoin="round"/>
  <path d="m51.026 183.41.192 3.417h6.411l.499-3.417h-7.102ZM38.825 183.116l-.132 3.417 6.382.609.822-3.353-7.072-.673ZM69.562 115.851l-8.857-5.632 9.334-9.334 8.86 5.632-9.337 9.334Z" fill="#fff" stroke="#263238" stroke-linecap="round" stroke-linejoin="round"/>
  <path d="m70.068 113.925-7.123-4.528 7.506-7.506 7.123 4.528-7.506 7.506Z" fill="#fff" stroke="#263238" stroke-width=".75" stroke-linecap="round" stroke-linejoin="round"/>
  <path d="m70.588 106.151 1.244-1.244-1.598-1.014-1.244 1.24 1.598 1.018ZM68.659 108.085l1.244-1.244-1.602-1.018-1.24 1.244 1.598 1.018ZM66.66 110.083l1.24-1.244-1.598-1.018-1.243 1.244 1.601 1.018Z" stroke="#263238" stroke-width=".75" stroke-linecap="round" stroke-linejoin="round"/>
  <path d="m73.633 102.338-1.175 1.18a.522.522 0 0 0-.075.648.522.522 0 0 0 .164.166l1.704 1.094a.979.979 0 0 0 1.219-.132l1.086-1.09-2.922-1.866ZM42.118 95.066l1.538-3.378s8.908-.997 11.285 6.45l-12.823-3.072ZM37.062 97.946s-2.198 16.84-1.615 22.808c.46 4.72 3.57 8.716 3.57 8.716l4.61-1.806-2.344-6.91s.729-12.439 1.419-15.336l-5.64-7.472Z" fill="#858585" stroke="#263238" stroke-linecap="round" stroke-linejoin="round"/>
  <path d="m37.684 128.643 1.299 1.555 5.325-2.074-.69-2.075-5.934 2.594Z" fill="#858585" stroke="#263238" stroke-linecap="round" stroke-linejoin="round"/>
  <path d="M37.06 97.946s-.694 9.674 1.279 16.473c1.972 6.799 0 17.965 0 17.965s9.078 5.874 23.004 1.38c0 0-1.725-33.058-4.03-34.898-2.305-1.84-15.31-8.865-20.252-.92Z" fill="#858585" stroke="#263238" stroke-linecap="round" stroke-linejoin="round"/>
  <path opacity=".2" d="M61.343 133.764s-.592-11.332-1.542-21.096c-2.015-4.89-5.308-11.404-5.482-2.257-.256 13.227 7.885 12.447 1.435 14.752a10.477 10.477 0 0 1-8.895-.69.524.524 0 0 0-.648.134.53.53 0 0 0-.008.663c1.62 2.057 4.077 3.339 5.964 4.076a.83.83 0 0 1 .527.86.827.827 0 0 1-.697.729c-6.075.899-10.837-2.33-13.023-4.209-.255 3.255-.677 5.658-.677 5.658s9.12 5.874 23.047 1.38Z" fill="#000"/>
  <path d="M57.323 98.87a5.417 5.417 0 0 1 3.11 4.201c.46 3.169 3.408 12.903 3.408 12.903l.98-.635a4.078 4.078 0 0 1 2.35 4.367s-2.393 4.686-5.009 3.804c-2.688-.912-4.192-3.11-5.538-6.705-.711-1.917-2.765-7.694-2.765-7.694" fill="#858585"/>
  <path d="M57.323 98.87a5.417 5.417 0 0 1 3.11 4.201c.46 3.169 3.408 12.903 3.408 12.903l.98-.635a4.078 4.078 0 0 1 2.35 4.367s-2.393 4.686-5.009 3.804c-2.688-.912-4.192-3.11-5.538-6.705-.711-1.917-2.765-7.694-2.765-7.694" stroke="#263238" stroke-linecap="round" stroke-linejoin="round"/>
  <path d="M65.016 118.794c.016.251.004.502-.034.75M63.257 120.754s.805-1.278.69-4.034c.387.293.683.69.852 1.146" stroke="#263238" stroke-width=".75" stroke-linecap="round" stroke-linejoin="round"/>
  <path d="m65.463 115.071 3.071-2.19a3.883 3.883 0 0 1 2.727-2.879s1.418-2.343 2.224-2.071c.805.273-.959 1.227-1.112 2.454l.651.873s2.13-.374 2.65-1.065c0 0-.115 1.462-.958 1.704 0 0 0 1.112-.575 1.074l-4.226 1.193-2.458 4.588-1.994-3.681Z" fill="#fff" stroke="#263238" stroke-linecap="round" stroke-linejoin="round"/>
  <path d="M52.888 125.721a9.363 9.363 0 0 0 1.44-.247M40.815 118.739s4.529 6.927 11.076 7.02" stroke="#263238" stroke-width=".75" stroke-linecap="round" stroke-linejoin="round"/>
  <path d="M64.139 115.148s3.203 2.419 2.897 5.338l1.154-2.211s-.038-1.862-2.688-3.834l-1.363.707Z" fill="#858585" stroke="#263238" stroke-linecap="round" stroke-linejoin="round"/>
  <path d="M51.414 193.617h11.502v-.507c0-.124-.02-.248-.06-.366H51.398c0 .387.017.873.017.873Z" fill="#fff" stroke="#263238" stroke-width=".75" stroke-linecap="round" stroke-linejoin="round"/>
  <path d="M48.99 192.011a23.337 23.337 0 0 1-3.596-1.431c-.554-.345-1.329-1.474-1.896-1.794a.98.98 0 0 0-.762 0c-.273.222-.286 1.376-.286 1.376s-.477-1.176-.83-1.376c-.486-.272-1.806-.353-2.237 0-.716.584-.975 2.612-1.116 3.523-.034.2 0 1.308 0 1.308H49.77v-.507a1.156 1.156 0 0 0-.78-1.099Z" fill="#263238" stroke="#263238" stroke-linecap="round" stroke-linejoin="round"/>
  <path d="M38.26 193.617H49.76v-.507c0-.124-.02-.248-.06-.366H38.243c0 .387.017.873.017.873Z" fill="#fff" stroke="#263238" stroke-width=".75" stroke-linecap="round" stroke-linejoin="round"/>
  <path d="M55.227 157.573s-1.223 2.109-3.204 1.304M46.702 158.314s-2.194 1.875-4.009.563" stroke="#263238" stroke-width=".75" stroke-linecap="round" stroke-linejoin="round"/>
  <path d="m69.595 103.744.306 1.525h2.718l-2.21-.516.106-1.039-.92.03Z" fill="#fff"/>
</svg>
