<svg width="241" height="241" fill="none" xmlns="http://www.w3.org/2000/svg">
  <path d="M230.237 111.265c-2.526-12.353-6.96-24.413-12.233-35.5-9.091-19.125-23.985-35.007-43.038-44.435-46.754-23.136-80.494-13.496-98.81 5.302C57.84 55.43 63.142 87.724 43.38 101.702c-19.762 13.978-33.74 20.244-34.704 45.79-.964 25.546 11.568 44.826 31.812 51.092 20.244 6.266 50.61 26.51 111.342 14.942 60.732-11.568 75.674-43.862 79.53-66.998 1.928-11.64 1.263-23.584-1.123-35.263Z" fill="#CBCBCB"/>
  <path opacity=".7" d="M230.237 111.265c-2.526-12.353-6.96-24.413-12.233-35.5-9.091-19.125-23.985-35.007-43.038-44.435-46.754-23.136-80.494-13.496-98.81 5.302C57.84 55.43 63.142 87.724 43.38 101.702c-19.762 13.978-33.74 20.244-34.704 45.79-.964 25.546 11.568 44.826 31.812 51.092 20.244 6.266 50.61 26.51 111.342 14.942 60.732-11.568 75.674-43.862 79.53-66.998 1.928-11.64 1.263-23.584-1.123-35.263Z" fill="#fff"/>
  <path d="M87.879 40.739h-4.367V60.09h4.367V40.74Z" fill="#C9C9C9" stroke="#263238" stroke-linecap="round" stroke-linejoin="round"/>
  <path d="M87.879 43.65h-4.367v1.89h4.367v-1.89ZM87.879 55.656h-4.367v1.89h4.367v-1.89Z" fill="#fff" stroke="#263238" stroke-linecap="round" stroke-linejoin="round"/>
  <path d="M92.974 40.739h-6.112V60.09h6.112V40.74Z" fill="#878787" stroke="#263238" stroke-linecap="round" stroke-linejoin="round"/>
  <path d="M92.539 40.739h-4.367V60.09h4.367V40.74Z" fill="#C9C9C9" stroke="#263238" stroke-linecap="round" stroke-linejoin="round"/>
  <path d="M92.539 43.65h-4.367v1.89h4.367v-1.89ZM92.539 55.656h-4.367v1.89h4.367v-1.89Z" fill="#fff" stroke="#263238" stroke-linecap="round" stroke-linejoin="round"/>
  <path d="M97.63 40.739h-6.112V60.09h6.111V40.74Z" fill="#878787" stroke="#263238" stroke-linecap="round" stroke-linejoin="round"/>
  <path d="M97.195 40.739h-4.367V60.09h4.367V40.74Z" fill="#C9C9C9" stroke="#263238" stroke-linecap="round" stroke-linejoin="round"/>
  <path d="M97.195 43.65h-4.367v1.89h4.367v-1.89ZM97.195 55.656h-4.367v1.89h4.367v-1.89Z" fill="#fff" stroke="#263238" stroke-linecap="round" stroke-linejoin="round"/>
  <path d="M102.285 40.739h-6.112V60.09h6.112V40.74Z" fill="#C9C9C9" stroke="#263238" stroke-linecap="round" stroke-linejoin="round"/>
  <path d="M106.266 60.289h10.257l2.728-2.468h-12.985v2.468Z" fill="#fff" stroke="#263238" stroke-linecap="round" stroke-linejoin="round"/>
  <path d="m118.09 60.414-.328-.564-11.707-.024.337.588h11.698Z" fill="#fff" stroke="#263238" stroke-linecap="round" stroke-linejoin="round"/>
  <path d="m100.329 41.142-3.78 2.186 9.688 16.753 3.78-2.186-9.688-16.753Z" fill="#C9C9C9" stroke="#263238" stroke-linecap="round" stroke-linejoin="round"/>
  <path d="m101.787 43.655-3.78 2.186.946 1.636 3.78-2.186-.946-1.636ZM107.802 54.048l-3.781 2.186.946 1.636 3.781-2.187-.946-1.635Z" fill="#fff" stroke="#263238" stroke-linecap="round" stroke-linejoin="round"/>
  <path d="m119.184 57.99-9.269-.025-9.688-16.754 9.268.024 9.689 16.754Z" fill="#C9C9C9" stroke="#263238" stroke-linecap="round" stroke-linejoin="round"/>
  <path d="M124.235 50.49s-1.687-.603-2.169-3.254c-.482-2.65-1.325-6.386-.361-7.23.964-.843 2.771-1.325 3.012.362.241 1.687-.12 4.94.241 5.663.362.723 1.567.241 1.567-1.205 0-2.381-.964-4.82-.622-7.23.482-3.33 3.856-3.697 4.217 0 .203 2.044.261 4.13.261 6.184 0 .844 1.446 1.326 1.325-.723-.087-1.446.964-3.133 2.41-2.65 1.446.481.241 6.868-.241 7.952-.482 1.085-3.494 1.287-3.494 1.287v2.772l-3.615.12-.121-2.771a5.455 5.455 0 0 1-2.41.723Z" fill="#CBCBCB" stroke="#263238" stroke-linecap="round" stroke-linejoin="round"/>
  <path d="M127.489 45.207c.044.602.073.964.073.964M127.73 35.86s-.791.55-.733 2.199c.039 1.002.232 3.779.381 5.808M129.089 41.544l.125 4.034M130.853 48.2a6.155 6.155 0 0 1-.843.072M133.37 41.423a3.7 3.7 0 0 0-.429 1.711c0 .964.063 3.669-.55 4.401a1.58 1.58 0 0 1-.535.386M122.91 46.846a3.903 3.903 0 0 0 1.003 1.928 1.771 1.771 0 0 0 2.14.057M122.794 40.325s-1.219 0-.795 2.135c.183.901.352 2.01.569 3.056M127.379 48.45l.246 2.628" stroke="#263238" stroke-linecap="round" stroke-linejoin="round"/>
  <path d="m133.635 51.333-.439 3.596-.298 2.448-.347 2.849h-8.672l-.347-2.849-.298-2.448-.439-3.596h10.84Z" fill="#fff" stroke="#263238" stroke-linecap="round" stroke-linejoin="round"/>
  <path d="m133.195 54.93-.298 2.448h-9.366l-.299-2.449h9.963Z" fill="#CBCBCB" stroke="#263238" stroke-linecap="round" stroke-linejoin="round"/>
  <path d="M138.397 60.226H82.74v3.687h55.657v-3.687Z" fill="#fff" stroke="#263238" stroke-linecap="round" stroke-linejoin="round"/>
  <path d="M138.395 60.226h-12.831v3.687h12.831v-3.687Z" fill="#fff" stroke="#263238" stroke-linecap="round" stroke-linejoin="round"/>
  <path d="M124.317 63.928c5.963 2.198 4.888 6.353 4.888 6.353h5.644v-6.353h-10.532Z" fill="#919191" stroke="#263238" stroke-linecap="round" stroke-linejoin="round"/>
  <path d="M126.222 63.928c5.957 2.198 4.882 6.353 4.882 6.353h5.649v-6.353h-10.531Z" fill="#fff" stroke="#263238" stroke-linecap="round" stroke-linejoin="round"/>
  <path d="M86.12 63.928c5.962 2.198 4.887 6.353 4.887 6.353h5.644v-6.353H86.119Z" fill="#919191" stroke="#263238" stroke-linecap="round" stroke-linejoin="round"/>
  <path d="M88.023 63.928c5.958 2.198 4.883 6.353 4.883 6.353h5.65v-6.353H88.022Z" fill="#fff" stroke="#263238" stroke-linecap="round" stroke-linejoin="round"/>
  <path d="M215.955 41.428h-49.916v69.292h49.916V41.428Z" fill="#919191" stroke="#263238" stroke-linecap="round" stroke-linejoin="round"/>
  <path d="M213.79 44.435h-45.583v63.277h45.583V44.435Z" fill="#CBCBCB"/>
  <path opacity=".5" d="M213.79 44.435h-45.583v63.277h45.583V44.435Z" fill="#fff"/>
  <path d="M178.229 102.906a18.771 18.771 0 0 1-4.56 4.82h40.122v-63.29h-7.394l-.964.303c-7.23 2.28-14.701 8.878-18.938 20.87" stroke="#263238" stroke-linecap="round" stroke-linejoin="round"/>
  <path d="M185.791 67.711a68.595 68.595 0 0 0-2.767 17.593c-.265 7.153-1.788 12.296-3.822 15.993M209.332 60.496c-6.628 3.856-14.345 10.334-17.227 20.268-1.547 5.302-.097 10.083 2.771 14.175M196.429 96.935c3.976 4.656 9.64 8.319 14.224 10.782h3.137v-49.56c-.896.42-1.851.892-2.843 1.447M175.785 60.934c3.49-7.114 3.856-12.759 3.456-16.499h-11.023v28.949c1.629-2.318 3.624-5.418 6.034-9.572.15-.256.29-.482.429-.752M180.104 88.336c-.535 3.504-2.145 6.049-4.044 6.049-2.338 0-4.237-3.856-4.237-8.628s1.899-8.628 4.237-8.628 4.237 3.856 4.237 8.628M182.114 68.049c0 1.836-.81 3.33-1.817 3.33-1.008 0-1.813-1.494-1.813-3.33 0-1.837.81-3.33 1.813-3.33 1.002 0 1.817 1.489 1.817 3.33Z" stroke="#263238" stroke-linecap="round" stroke-linejoin="round"/>
  <path d="M205.24 82.118c1.75.834 2.892 2.29 2.892 3.943 0 2.588-2.844 4.69-6.357 4.69-3.514 0-6.353-2.102-6.353-4.69 0-2.588 2.844-4.695 6.353-4.695.56 0 1.118.055 1.667.164" stroke="#263238" stroke-linecap="round" stroke-linejoin="round"/>
  <path d="M204.455 86.061c0 1.085-1.191 1.967-2.665 1.967-1.475 0-2.666-.882-2.666-1.967 0-1.084 1.195-1.971 2.666-1.971 1.47 0 2.665.882 2.665 1.971ZM208.754 74.103c0 1.504-1.489 2.723-3.331 2.723-1.841 0-3.33-1.22-3.33-2.723 0-1.504 1.489-2.724 3.33-2.724 1.842 0 3.331 1.22 3.331 2.724ZM184.687 58.968c1.254 0 2.27-2.508 2.27-5.601s-1.016-5.6-2.27-5.6-2.27 2.507-2.27 5.6c0 3.093 1.016 5.6 2.27 5.6ZM190.896 101.499a3.184 3.184 0 0 1-1.964 2.939 3.177 3.177 0 0 1-3.467-.689 3.184 3.184 0 0 1-.69-3.467 3.184 3.184 0 0 1 5.189-1.032c.596.596.932 1.405.932 2.249ZM205.727 54.273a1.973 1.973 0 0 1-2.355 1.939 1.97 1.97 0 0 1-1.55-1.55 1.969 1.969 0 0 1 1.938-2.355 1.973 1.973 0 0 1 1.967 1.966ZM193.315 68.198a1.06 1.06 0 0 1-2.1.214 1.056 1.056 0 0 1 .45-1.09 1.063 1.063 0 0 1 1.569.471c.054.128.081.266.081.405v0Z" stroke="#263238" stroke-linecap="round" stroke-linejoin="round"/>
  <path d="M213.79 44.435h-45.583v63.277h45.583V44.435Z" stroke="#263238" stroke-linecap="round" stroke-linejoin="round"/>
  <path d="M139.295 134.666h-12.383v4.661h12.383v-4.661Z" fill="#263238" stroke="#263238" stroke-linecap="round" stroke-linejoin="round"/>
  <path d="M155.908 135.369h-49.284l2.333-38.203h49.289l-2.338 38.203Z" fill="#919191" stroke="#263238" stroke-linecap="round" stroke-linejoin="round"/>
  <path d="M154.496 135.369h-49.284l2.333-38.203h49.284l-2.333 38.203Z" fill="#263238" stroke="#263238" stroke-linecap="round" stroke-linejoin="round"/>
  <path d="M151.889 133.244H108.08l2.073-33.957h43.809l-2.073 33.957Z" fill="#fff" stroke="#263238" stroke-linecap="round" stroke-linejoin="round"/>
  <path d="M139.145 128.183h-29.758l1.595-26.168h29.764l-1.601 26.168Z" fill="#919191" stroke="#263238" stroke-linecap="round" stroke-linejoin="round"/>
  <path d="M121.128 116.942s-6.199 2.454-6.237 3.114c-.039.66-1.253 8.127-1.253 8.127h18.431l-1.552-8.599-6.82-2.834-2.569.192Z" fill="#fff" stroke="#263238" stroke-linecap="round" stroke-linejoin="round"/>
  <path d="M121.31 115.429a3.24 3.24 0 0 0-1.268.66c-.482.482-1.07 2.078-1.07 2.078l-.024 1.889 2.444-1.321 2.482-.164 2.324 2.174.298-3.306s-.356-1.89-1.108-1.986c-.752-.096-4.078-.024-4.078-.024Z" fill="#fff" stroke="#263238" stroke-linecap="round" stroke-linejoin="round"/>
  <path d="m121.234 113.636-.106 3.306 1.46 2.362 2.415-2.458.376-3.022-4.145-.188Z" fill="#fff" stroke="#263238" stroke-linecap="round" stroke-linejoin="round"/>
  <path d="M127.192 109.77c-.174 2.772-2.015 6.131-4.035 6.131-2.019 0-3.451-3.374-3.282-6.131.169-2.757 1.928-5.018 3.962-5.018 2.034 0 3.523 2.251 3.355 5.018Z" fill="#fff" stroke="#263238" stroke-linecap="round" stroke-linejoin="round"/>
  <path d="M119.841 110.136s-.651-1.696-.921-.375c-.27 1.32 1.06 2.737 1.06 2.737l-.139-2.362ZM127.191 109.771s1.595-.67 1.128.747a2.799 2.799 0 0 1-1.62 1.793l.492-2.54ZM122.958 110.137a1.225 1.225 0 0 0-.331-.935 1.237 1.237 0 0 0-.912-.386 1.443 1.443 0 0 0-1.403 1.321 1.225 1.225 0 0 0 .331.936 1.24 1.24 0 0 0 .913.389 1.442 1.442 0 0 0 1.402-1.325Z" fill="#fff" stroke="#263238" stroke-linecap="round" stroke-linejoin="round"/>
  <path d="m126.17 110.137 1.441-.376" stroke="#263238" stroke-linecap="round" stroke-linejoin="round"/>
  <path d="M126.169 110.137a1.22 1.22 0 0 0-.743-1.222 1.224 1.224 0 0 0-.496-.099 1.444 1.444 0 0 0-1.407 1.321 1.225 1.225 0 0 0 .331.936 1.23 1.23 0 0 0 .913.389 1.444 1.444 0 0 0 1.402-1.325Z" fill="#fff" stroke="#263238" stroke-linecap="round" stroke-linejoin="round"/>
  <path d="M123.509 104.184s-1.446-.752-2.53-.28c-1.085.473-1.885 3.023-1.832 3.683.17.865.402 1.717.694 2.55l1.147-3.307 3.008-1.321-.487-1.325Z" fill="#263238" stroke="#263238" stroke-linecap="round" stroke-linejoin="round"/>
  <path d="M122.054 104.849s2.381-1.889 4.309-.964a2.893 2.893 0 0 1 1.702 3.119c-.029.482-.068 2.641-.068 2.641l-1.147.193-.564-1.779a16.365 16.365 0 0 1-1.899-.896s-2.55-.333-2.333-2.314Z" fill="#263238" stroke="#263238" stroke-linecap="round" stroke-linejoin="round"/>
  <path d="m122.96 110.136-.169 2.743h.66" fill="#fff"/>
  <path d="m122.96 110.136-.169 2.743h.66M122.444 113.916h1.417M122.589 119.304l-.526 8.594M130.508 119.583s-1.971 4.445-2.029 5.389c-.058.945-.28 3.022-.28 3.022M114.89 120.056s1.961 3.403 2.217 3.856c.255.453-.058 4.063-.058 4.063" stroke="#263238" stroke-linecap="round" stroke-linejoin="round"/>
  <path d="m131.823 122.798.651-2.93 1.109-1.133 1.045-1.701h.473l-.579 1.798 1.466-.854.944-1.508.55.279-1.35 3.5-2.14 1.036-.371 1.417-1.798.096Z" fill="#fff" stroke="#263238" stroke-linecap="round" stroke-linejoin="round"/>
  <path d="m133.656 128.182.179-5.856-2.15-.381-1.697 6.237h3.668ZM139.015 130.357h-29.763l.135-2.174h29.759l-.131 2.174Z" fill="#fff" stroke="#263238" stroke-linecap="round" stroke-linejoin="round"/>
  <path d="M110.467 129.036h27.305" stroke="#263238" stroke-linecap="round" stroke-linejoin="round"/>
  <path d="M151.937 108.999h-10.016l.424-6.897h10.016l-.424 6.897Z" fill="#CBCBCB" stroke="#263238" stroke-linecap="round" stroke-linejoin="round"/>
  <path d="M151.937 108.999h-10.016l.072-1.132h10.016l-.072 1.132ZM148.703 105.148l-2.603-1.557-.188 3.114 2.791-1.557Z" fill="#fff" stroke="#263238" stroke-linecap="round" stroke-linejoin="round"/>
  <path d="M151.285 119.675H141.27l.419-6.892h10.016l-.42 6.892Z" fill="#CBCBCB" stroke="#263238" stroke-linecap="round" stroke-linejoin="round"/>
  <path d="M151.285 119.676H141.27l.072-1.133h10.011l-.068 1.133ZM148.053 115.829l-2.602-1.557-.188 3.114 2.79-1.557Z" fill="#fff" stroke="#263238" stroke-linecap="round" stroke-linejoin="round"/>
  <path d="M150.63 130.357h-10.011l.419-6.898h10.016l-.424 6.898Z" fill="#CBCBCB" stroke="#263238" stroke-linecap="round" stroke-linejoin="round"/>
  <path d="M150.63 130.357h-10.011l.068-1.133h10.016l-.073 1.133ZM147.397 126.506l-2.598-1.557-.193 3.113 2.791-1.556Z" fill="#fff" stroke="#263238" stroke-linecap="round" stroke-linejoin="round"/>
  <path d="M141.95 110.136h9.727M141.878 111.274h9.731M141.29 120.909h9.732M141.224 122.042h9.731" stroke="#263238" stroke-linecap="round" stroke-linejoin="round"/>
  <path d="M136.976 139.326h-7.317a2.752 2.752 0 0 1 2.752-2.752h1.803a2.752 2.752 0 0 1 2.752 2.752h.01Z" fill="#fff" stroke="#263238" stroke-linecap="round" stroke-linejoin="round"/>
  <path d="M126.174 137.828H90.4v1.499h35.774v-1.499Z" fill="#919191" stroke="#263238" stroke-linecap="round" stroke-linejoin="round"/>
  <path d="M126.165 137.828h-8.989v1.499h8.989v-1.499Z" fill="#fff" stroke="#263238" stroke-linecap="round" stroke-linejoin="round"/>
  <path d="M75.735 65.856V37.375M75.735 208.398V68.69" stroke="#263238" stroke-linecap="round" stroke-linejoin="round"/>
  <path d="m140.778 149.324 4.338 58.481a.841.841 0 0 0 .875.754.84.84 0 0 0 .807-.826l-.65-58.409h-5.37Z" fill="#919191" stroke="#263238" stroke-linecap="round" stroke-linejoin="round"/>
  <path d="m144.051 149.324 2.289 59.156a.843.843 0 0 0 .444-.747l-.636-58.409h-2.097Z" fill="#fff" stroke="#263238" stroke-linecap="round" stroke-linejoin="round"/>
  <path d="m168.046 149.324 4.338 58.481a.847.847 0 0 0 1.442.501.845.845 0 0 0 .24-.573l-.651-58.409h-5.369Z" fill="#919191" stroke="#263238" stroke-linecap="round" stroke-linejoin="round"/>
  <path d="m171.062 149.324 2.671 59.069a.83.83 0 0 0 .318-.66l-.636-58.409h-2.353Z" fill="#fff" stroke="#263238" stroke-linecap="round" stroke-linejoin="round"/>
  <path d="M96.168 149.96 91.83 207.8a.836.836 0 0 1-.838.781.846.846 0 0 1-.791-.514.84.84 0 0 1-.067-.324l.64-57.937 5.394.154ZM68.927 149.96l-4.339 57.84a.839.839 0 0 1-1.677-.072l.641-57.936 5.375.168Z" fill="#263238" stroke="#263238" stroke-linecap="round" stroke-linejoin="round"/>
  <path d="M175.011 140.687H61.919v9.109H175.01v-9.109Z" fill="#919191" stroke="#263238" stroke-linecap="round" stroke-linejoin="round"/>
  <path d="M175.009 140.687H142.6v9.109h32.409v-9.109Z" fill="#fff" stroke="#263238" stroke-linecap="round" stroke-linejoin="round"/>
  <path d="M175.011 142.132H61.919v2.512H175.01v-2.512Z" fill="#263238" stroke="#263238" stroke-linecap="round" stroke-linejoin="round"/>
  <path d="M176.639 139.38H60.289v3.047h116.35v-3.047Z" fill="#919191" stroke="#263238" stroke-linecap="round" stroke-linejoin="round"/>
  <path d="M176.633 139.38h-31.951v3.047h31.951v-3.047ZM142.33 82.904h-15.703a3.084 3.084 0 0 0-3.085 3.085v5.784a3.075 3.075 0 0 0 3.085 3.085h8.223l-3.08 8.604 5.899-8.604h4.661a3.083 3.083 0 0 0 2.852-1.904c.154-.374.234-.776.233-1.18v-5.785a3.087 3.087 0 0 0-3.085-3.085Z" fill="#fff" stroke="#263238" stroke-linecap="round" stroke-linejoin="round"/>
  <path d="M130.271 90.197a1.123 1.123 0 1 0 0-2.247 1.123 1.123 0 0 0 0 2.247ZM134.48 90.197a1.123 1.123 0 1 0 0-2.247 1.123 1.123 0 0 0 0 2.247ZM139.805 89.074a1.12 1.12 0 0 0-.695-1.038 1.12 1.12 0 0 0-1.53.822 1.127 1.127 0 0 0 .481 1.152 1.125 1.125 0 0 0 1.744-.936Z" fill="#263238"/>
  <path d="M216.9 208.706h13.014M11.568 208.706h198.584" stroke="#263238" stroke-linecap="round" stroke-linejoin="round"/>
  <path d="M88.032 123.527c-1.412-2.41-5.567-11.688-5.567-11.688.126-.991.329-1.971.608-2.931.342-.964 1.205-3.885 1.031-4.492-.173-.607-2.675-1.725-2.93-1.812-.256-.087.342-1.552-.608-1.899s-1.292.173-1.292.173l-.361 2.41-1.109 1.735c-.461-.35-.944-.672-1.446-.964-.776-.433-2.588-.607-2.675.087-.087.694 1.446 1.292 1.981 1.726.535.434 1.21 2.501 1.817 3.109a22.04 22.04 0 0 1 1.552 1.894l.347 1.123s1.181 11.37 1.321 14.2c.14 2.829.564 10.315 1.412 11.442.849 1.128.993 1.842 3.374.993 2.382-.848 2.825-1.981 3.374-4.526.55-2.545.584-8.179-.829-10.58Z" fill="#fff" stroke="#263238" stroke-linecap="round" stroke-linejoin="round"/>
  <path d="M88.88 134.121c.564-2.54.564-8.194-.849-10.604a26.545 26.545 0 0 1-.554-1.012c-3.196-.93-6.232.588-6.232.588l-.771.338a86.55 86.55 0 0 1 .207 2.771c.145 2.825.564 10.315 1.412 11.443.849 1.128.993 1.841 3.374.993 2.381-.849 2.844-1.972 3.413-4.517Z" fill="#CBCBCB" stroke="#263238" stroke-linecap="round" stroke-linejoin="round"/>
  <path d="M77.727 85.314c.348 1.279.542 2.594.578 3.919 0 1.884-.578 3.046.294 3.624.873.579 1.596.584 1.446 1.745a3.12 3.12 0 0 1-.727 1.74s-.29 5.948-.579 6.531c-.289.583-4.063-.144-4.936-.294-.872-.149-3.335 1.017-4.935-2.174-1.6-3.19-.29-7.981 2.612-10.45a71.04 71.04 0 0 1 6.247-4.641Z" fill="#fff" stroke="#263238" stroke-linecap="round" stroke-linejoin="round"/>
  <path d="M78.306 89.209s-.786-.588-1.2.443M77.601 91.609a3.538 3.538 0 0 0 .106 1.754M79.046 98.425a.963.963 0 0 1-1.238-.723" stroke="#263238" stroke-linecap="round" stroke-linejoin="round"/>
  <path d="M80.69 125.706s-.482 2.207-.91 3.374c-.43 1.166-8.122 3.306-11.472 3.75a57.115 57.115 0 0 1-6.652.438l.212 6.102s6.488.13 6.946 0c.458-.13 11.38-5.012 11.38-5.012l4.714-.617s1.981-.482 2.058-2.02c.077-1.538-1.672-5.909-2.468-6.589-.795-.68-2.472-2.482-3.48-1.374-1.007 1.109-.328 1.948-.328 1.948Z" fill="#fff" stroke="#263238" stroke-linecap="round" stroke-linejoin="round"/>
  <path d="M66.227 136.662c0-2.637.674-2.704 1.446-3.75a58.125 58.125 0 0 1-6.001.356l-.16 5.601s3.553.328 5.717.482c-.178.275-1.002-.993-1.002-2.689Z" fill="#CBCBCB" stroke="#263238" stroke-linecap="round" stroke-linejoin="round"/>
  <path d="M87.174 148.519a22.61 22.61 0 0 0-9.476-6.329l-8.464 3.611a19.342 19.342 0 0 0-2.593-4.512l-1.581-1.928 1.017-5.529s6.093-4.174 6.878-5.981l.029-.058c1.224 1.894 6.536 10.093 7.534 10.888 1.128.907 4.511 1.017 5.977-.337 1.465-1.354 2.144-2.256 1.807-4.285 0 0-2.256-4.854-3.5-6.999-1.243-2.145-3.947-9.813-5.301-12.185-.964-1.696-1.364-2.892-2.049-3.692a13.393 13.393 0 0 0-1.672-2.284c-1.355-1.446-5.08-1.808-5.871-2.145-.79-.338-.902-.453-5.413-1.803-4.511-1.35-9.592-2.145-13.202.675 0 0-4.849 5.755-6.748 15.231-1.899 9.476-2.034 19.068-2.256 20.76-.221 1.692-2.145 9.929-2.709 14.667-.564 4.738 4.382 9.495 7.428 10.97 3.046 1.475 16.133 1.692 23.806 0 7.674-1.691 19.858-9.365 19.858-9.365s.449-4.743-3.499-9.37Z" fill="#CBCBCB" stroke="#263238" stroke-linecap="round" stroke-linejoin="round"/>
  <path d="m67.225 127.672-1.547-.053M66.642 125.209a46.565 46.565 0 0 1 6.314 2.661l-3.972-.135" stroke="#263238" stroke-linecap="round" stroke-linejoin="round"/>
  <path d="M87.603 128.058c.446.699.72 1.494.8 2.319 0 1.065.179 2.491-.265 2.048-.443-.443-.626-1.962-.626-1.962l.091-2.405Z" fill="#fff" stroke="#263238" stroke-linecap="round" stroke-linejoin="round"/>
  <path d="M84.933 126.814s1.667-.906 2.41.183c.742 1.089.544 3.263 0 4.338-.545 1.075-1.167.048-1.09-.906.077-.954-1.32-3.615-1.32-3.615Z" fill="#fff" stroke="#263238" stroke-linecap="round" stroke-linejoin="round"/>
  <path d="M84.306 125.657s1.672-.906 2.41.183c.737 1.09.54 3.259 0 4.338-.54 1.08-1.167.049-1.09-.906.078-.954-1.32-3.615-1.32-3.615Z" fill="#fff" stroke="#263238" stroke-linecap="round" stroke-linejoin="round"/>
  <path d="M83.54 124.409s1.673-.906 2.41.183c.737 1.09.545 3.263 0 4.338-.545 1.075-1.166.049-1.09-.906.078-.954-1.32-3.615-1.32-3.615Z" fill="#fff" stroke="#263238" stroke-linecap="round" stroke-linejoin="round"/>
  <path d="M79.308 80.788a9.495 9.495 0 0 1-1.292 4.936c-2.467 3.774-4.786 3.335-5.784 6.386-.997 3.051-2.487 6.218-.896 7.982 1.59 1.764 2.892.723 2.892.723s1.017 2.613-1.595 5.225c-2.613 2.613-7.11 1.596-8.272 1.162a7.722 7.722 0 0 1-2.029-1.162s-.728 2.034-4.338 2.034c-3.61 0-7.712-2.468-7.712-6.97 0-4.501 2.463-7.543 3.047-9.288.583-1.745-1.018-7.11 1.446-10.445 2.462-3.335 6.266-5.784 9.157-5.784 2.892 0 8.537 1.586 8.56 1.596.382.207 2.82-.786 3.48-.743 2.425.136 3.307 2.126 3.336 4.348Z" fill="#263238" stroke="#263238" stroke-linecap="round" stroke-linejoin="round"/>
  <path d="M69.89 101.432c.526.07 1.06.07 1.585 0M77.216 83.319a10.191 10.191 0 0 1-1.403 3.639c-2.255 3.543-4.82 4.82-7.89 8.194-1.971 2.183-1.6 4.362 0 5.504M77.259 79.554c.094.532.14 1.07.14 1.61" stroke="#919191" stroke-linecap="round" stroke-linejoin="round"/>
  <path d="M74.228 82.933s-.482 4.989-2.574 7.886c-2.092 2.896-6.266 4.338-6.117 7.403" stroke="#919191" stroke-linecap="round" stroke-linejoin="round"/>
  <path d="M93.652 166.439s3.008 15.453 5.582 22.963c2.573 7.509 5.147 14.378 5.784 15.024.636.646 2.361 3.003 2.361 3.003a4.96 4.96 0 0 1-2.79 1.075c-1.504 0-3.432-1.928-5.153-3.008-1.72-1.08-1.928-1.716-5.365-3.003-3.436-1.287-.64-4.719.217-6.44a7.403 7.403 0 0 0 .858-3.002 33.995 33.995 0 0 0-7.08-13.092c-5.355-6.005-6.43-19.935-6.43-19.935l10.3-3.856 1.716 10.271Z" fill="#fff" stroke="#263238" stroke-linecap="round" stroke-linejoin="round"/>
  <path d="m104.594 203.655-.622.125s-3.649-4.935-6.435-6.651a6.062 6.062 0 0 0-3.22-1.07c-.862 1.716-3.648 5.147-.217 6.434 3.432 1.287 3.65 1.928 5.365 3.003 1.716 1.075 3.649 3.008 5.153 3.008a4.96 4.96 0 0 0 2.79-1.075s-1.72-2.362-2.361-3.003a3.554 3.554 0 0 1-.453-.771Z" fill="#CBCBCB" stroke="#263238" stroke-linecap="round" stroke-linejoin="round"/>
  <path d="M102.863 207.891c-1.696-1.171-3.229-3.774-5.99-5.398-2.512-1.475-3.804-1.533-4.339-1.422a2.334 2.334 0 0 0 1.572 1.422c3.436 1.287 3.648 1.928 5.364 3.003 1.085.694 2.28 1.764 3.393 2.395ZM104.593 208.504a2.401 2.401 0 0 1 0 0Z" fill="#CBCBCB" stroke="#263238" stroke-linecap="round" stroke-linejoin="round"/>
  <path d="M74.526 143.154s10.315-3.653 11.279-1.243c.964 2.41 5.38 11.399 3.77 15.091-1.61 3.692-12.928-10.604-14.538-10.912-1.61-.309-.699-1.856-.51-2.936Z" fill="#fff" stroke="#263238" stroke-linecap="round" stroke-linejoin="round"/>
  <path d="M84.635 147.863s11.727-.964 13.978 1.128c2.251 2.092-5.461 27.151-9.64 35.022-6.55 12.311-4.57 15.535-4.57 15.535s.482 1.928 3.697 4.984 4.18 3.533 3.051 4.015c-1.127.482-5.943 0-6.425-.323-.482-.323-4.015-3.21-7.23-4.174-3.215-.964-2.733-1.61-1.287-4.502 1.446-2.892 1.287-.482 2.892-5.461a147.2 147.2 0 0 0 4.55-18.726c.854-5.162 2.155-10.83 1.789-16.079l-.805-11.419Z" fill="#fff" stroke="#263238" stroke-linecap="round" stroke-linejoin="round"/>
  <path d="M93.224 155.71a15.573 15.573 0 0 0-6.05-7.191c-5.128-3.273-9.476-6.329-9.476-6.329l-8.464 3.61s2.063 3.499-8.54 5.268c-8.166 1.36-15.66-.612-19.705-2.988-.564 2.8-1.152 5.914-1.446 8.194-.564 4.738 4.4 9.476 7.447 10.946 3.046 1.47 27.59 4.512 34.198.265 12.035-7.697 12.035-11.775 12.035-11.775Z" fill="#263238" stroke="#263238" stroke-linecap="round" stroke-linejoin="round"/>
  <path d="M68.275 148.456c-1.132.93-3.34 1.928-7.581 2.617-8.166 1.36-15.66-.612-19.705-2.988-.144.718-.289 1.446-.433 2.193 2.771 1.668 8.594 4.492 15.159 3.687 7.832-.959 11.312-3.099 12.56-5.509Z" fill="#CBCBCB" stroke="#263238" stroke-linecap="round" stroke-linejoin="round"/>
  <path d="M62.019 158.78c-.376.482-.766.964-1.162 1.446M67.923 149.632a73.336 73.336 0 0 1-4.955 7.876M64.391 152.683s-2.892 3.856-5.943 6.107" stroke="#fff" stroke-linecap="round" stroke-linejoin="round"/>
  <path d="M88.1 204.522c-3.215-3.046-3.697-4.974-3.697-4.974a1.04 1.04 0 0 1-.25-.357c-.217.227-.873.656-2.478.039-1.393-.535-2.713-1.446-4.106-2.058-.333.593-.656.964-1.36 2.376-1.446 2.892-1.928 3.538 1.287 4.502s6.748 3.856 7.23 4.174c.482.318 5.302.805 6.425.323 1.124-.482.164-.974-3.05-4.025Z" fill="#CBCBCB" stroke="#263238" stroke-linecap="round" stroke-linejoin="round"/>
  <path d="m91.06 157.344 5.465-3.374" stroke="#263238" stroke-linecap="round" stroke-linejoin="round"/>
  <path d="M25.763 126.795s17.41-2.179 28.534.964l1.692 42.324H29.884s1.682-22.736-4.121-43.288Z" fill="#919191" stroke="#263238" stroke-linecap="round" stroke-linejoin="round"/>
  <path d="M54.297 127.759c-11.124-3.143-28.534-.964-28.534-.964 1.863 6.85 3.1 13.855 3.697 20.928a104.404 104.404 0 0 1 26.39 18.798l-1.553-38.762Z" fill="#757575" stroke="#263238" stroke-linecap="round" stroke-linejoin="round"/>
  <path d="M87.125 209.67a.961.961 0 0 1-.906-.626c-3.856-10.392-4.82-37.37-4.878-38.512a.967.967 0 0 1 .93-.998.963.963 0 0 1 .998.931c0 .279 1.003 27.806 4.758 37.904a.963.963 0 0 1-.569 1.239.88.88 0 0 1-.333.062ZM66.136 209.67a.96.96 0 0 1-.901-.626c-3.856-10.392-4.82-37.37-4.883-38.512a.967.967 0 0 1 .93-.998.963.963 0 0 1 .998.931c0 .279 1.003 27.806 4.762 37.904a.963.963 0 0 1-.568 1.239.905.905 0 0 1-.338.062Z" fill="#fff" stroke="#263238" stroke-linecap="round" stroke-linejoin="round"/>
  <path d="M86.866 170.064h-57.44v-1.928h55.521a1.927 1.927 0 0 1 1.928 1.928h-.01Z" fill="#919191" stroke="#263238" stroke-linecap="round" stroke-linejoin="round"/>
  <path d="M86.86 169.597H29.427v1.913H86.86v-1.913Z" fill="#fff" stroke="#263238" stroke-linecap="round" stroke-linejoin="round"/>
  <path d="M53.867 209.67a.97.97 0 0 1-.762-.348.966.966 0 0 1-.202-.814c5.452-25.825.482-80.132.415-80.677a.964.964 0 0 1 .513-.945.967.967 0 0 1 1.415.767c.053.549 5.06 55.141-.448 81.251a.963.963 0 0 1-.93.766ZM23.984 208.966a.967.967 0 0 1-.93-1.224c12.532-44.488 1.894-80.311 1.788-80.667a.965.965 0 0 1 1.841-.564c.111.361 10.932 36.694-1.773 81.752a.964.964 0 0 1-.926.703Z" fill="#fff" stroke="#263238" stroke-linecap="round" stroke-linejoin="round"/>
  <path d="M200.212 129.49s-5.923-3.293-6.362 4.169c-.438 7.461-1.533 55.955-1.533 55.955" stroke="#263238" stroke-width="2" stroke-linecap="round" stroke-linejoin="round"/>
  <path d="M190.775 134.314s4.82 10.753 2.637 54.644" stroke="#263238" stroke-width="2" stroke-linecap="round" stroke-linejoin="round"/>
  <path d="M195.523 130.993s-2.27 1.446-3.557-.212.872-4.704-1.032-6.006c-1.904-1.301-5.196.685-5.196.685s2.531.742 2.449 2.125c-.082 1.384-1.302 1.904-1.446 1.302-.145-.603-1.374-3.649-3.427-2.381a5.078 5.078 0 0 0-2.372 3.229s4.787-.511 5.076 1.287c.289 1.798-1.962-.313-3.938-.429-1.976-.116-3.779.173-3.649 1.369a15.717 15.717 0 0 1-.188 3.162 5.896 5.896 0 0 1 3.856-1.36c2.174.131 2.092 1.514.116 1.398-1.976-.115-3.673 1.764-3.673 1.764s1.803 3.08 4.092 4.603c2.29 1.524 3.114.964 3.374-.197.26-1.162-.347-4.184 1.036-4.102 1.384.082-2.289 5.215-.525 5.519 1.764.304 3.186-.207 3.649-1.369l.482-1.162s-.617-3.012-.347-4.183c.27-1.172.593.033.906 1.446.313 1.412.511 4.786 1.113 4.622.603-.164 2.536-2.622 2.989-3.591.453-.969-2.545-3.914-2.511-4.507.033-.592 2.347.535 2.708 1.152.263.469.5.952.709 1.446 0 0 1.446-.906 1.407-3.682-.038-2.776-2.101-1.928-2.101-1.928Z" fill="#CBCBCB"/>
  <path opacity=".3" d="M195.523 130.993s-2.27 1.446-3.557-.212.872-4.704-1.032-6.006c-1.904-1.301-5.196.685-5.196.685s2.531.742 2.449 2.125c-.082 1.384-1.302 1.904-1.446 1.302-.145-.603-1.374-3.649-3.427-2.381a5.078 5.078 0 0 0-2.372 3.229s4.787-.511 5.076 1.287c.289 1.798-1.962-.313-3.938-.429-1.976-.116-3.779.173-3.649 1.369a15.717 15.717 0 0 1-.188 3.162 5.896 5.896 0 0 1 3.856-1.36c2.174.131 2.092 1.514.116 1.398-1.976-.115-3.673 1.764-3.673 1.764s1.803 3.08 4.092 4.603c2.29 1.524 3.114.964 3.374-.197.26-1.162-.347-4.184 1.036-4.102 1.384.082-2.289 5.215-.525 5.519 1.764.304 3.186-.207 3.649-1.369l.482-1.162s-.617-3.012-.347-4.183c.27-1.172.593.033.906 1.446.313 1.412.511 4.786 1.113 4.622.603-.164 2.536-2.622 2.989-3.591.453-.969-2.545-3.914-2.511-4.507.033-.592 2.347.535 2.708 1.152.263.469.5.952.709 1.446 0 0 1.446-.906 1.407-3.682-.038-2.776-2.101-1.928-2.101-1.928Z" fill="#263238"/>
  <path d="M184.031 137.505c1.48-1.827 3.654-4.3 5.481-5.481M182.321 139.727s.376-.525.993-1.316M190.477 132.478s2.198 3.104 2.602 6.3M187.98 134.314s.617-.362.386 3.591M189.595 130.622s1.258-1.113.593-3.335M187.898 132.526l-.897-1.639M186.013 134.198s-2.844-2.15-4.622-2.256" stroke="#263238" stroke-linecap="round" stroke-linejoin="round"/>
  <path d="M203.601 125.137s-.092 3.258-2.637 3.417c-2.545.159-4.116-4.082-6.719-3.06-2.603 1.021-2.853 5.668-2.853 5.668s2.467-2.029 3.798-1.008c1.33 1.022 1.022 2.603.303 2.353-.718-.251-4.583-1.114-4.718 1.807a6.188 6.188 0 0 0 1.614 4.579s2.753-5.143 4.758-4.208c2.005.935-1.654 1.755-3.119 3.654-1.465 1.899-2.41 3.899-1.113 4.588a18.915 18.915 0 0 1 3.036 2.338s-.347-2.689 1.263-4.776c1.61-2.088 2.936-1.066 1.475.833-1.46 1.899-.737 4.883-.737 4.883s4.309.294 7.394-.964c3.084-1.258 3.104-2.453 2.111-3.519-.993-1.065-4.425-2.501-3.403-3.856 1.022-1.354 3.663 5.847 5.172 4.285 1.508-1.561 1.961-3.33 1.113-4.588l-.848-1.253s-3.432-1.446-4.425-2.507c-.993-1.06.439-.569 2.063.077 1.624.646 5.138 2.753 5.389 2.034.25-.718-.902-4.338-1.557-5.437-.656-1.099-5.659-.12-6.228-.559-.568-.438 2.136-1.986 2.998-1.928.647.054 1.291.142 1.928.265 0 0 .078-2.063-2.728-3.918-2.805-1.856-3.33.8-3.33.8Z" fill="#CBCBCB"/>
  <path opacity=".2" d="M203.601 125.137s-.092 3.258-2.637 3.417c-2.545.159-4.116-4.082-6.719-3.06-2.603 1.021-2.853 5.668-2.853 5.668s2.467-2.029 3.798-1.008c1.33 1.022 1.022 2.603.303 2.353-.718-.251-4.583-1.114-4.718 1.807a6.188 6.188 0 0 0 1.614 4.579s2.753-5.143 4.758-4.208c2.005.935-1.654 1.755-3.119 3.654-1.465 1.899-2.41 3.899-1.113 4.588a18.915 18.915 0 0 1 3.036 2.338s-.347-2.689 1.263-4.776c1.61-2.088 2.936-1.066 1.475.833-1.46 1.899-.737 4.883-.737 4.883s4.309.294 7.394-.964c3.084-1.258 3.104-2.453 2.111-3.519-.993-1.065-4.425-2.501-3.403-3.856 1.022-1.354 3.663 5.847 5.172 4.285 1.508-1.561 1.961-3.33 1.113-4.588l-.848-1.253s-3.432-1.446-4.425-2.507c-.993-1.06.439-.569 2.063.077 1.624.646 5.138 2.753 5.389 2.034.25-.718-.902-4.338-1.557-5.437-.656-1.099-5.659-.12-6.228-.559-.568-.438 2.136-1.986 2.998-1.928.647.054 1.291.142 1.928.265 0 0 .078-2.063-2.728-3.918-2.805-1.856-3.33.8-3.33.8Z" fill="#263238"/>
  <path d="M202.29 141.077c-.815-2.743-1.817-6.599-1.75-9.221M203.346 144.311s-.27-.742-.641-1.894M201.648 131.2s4.604-.086 8.079 1.687M201.793 134.961s.058-.863 3.856 2.062M199.21 130.829s-.26-2.014-2.936-2.863M199.937 133.813l-2.25-.222M200.328 136.84s-4.092 1.383-5.408 3.094" stroke="#263238" stroke-linecap="round" stroke-linejoin="round"/>
  <path d="M176.296 146.827s12.946 8.555 12.73 41.693" stroke="#263238" stroke-width="2" stroke-linecap="round" stroke-linejoin="round"/>
  <path d="M192.259 144.566s-.414 3.75-3.374 3.692c-2.959-.058-4.338-5.099-7.461-4.164-3.124.935-3.832 6.266-3.832 6.266s3.046-2.111 4.482-.8c1.437 1.311.931 3.099.126 2.742-.805-.356-5.187-1.721-5.616 1.639a7.137 7.137 0 0 0 1.446 5.432s3.664-5.673 5.886-4.401c2.222 1.273-2.073 1.866-3.943 3.919s-3.138 4.271-1.721 5.186a21.773 21.773 0 0 1 3.287 2.989s-.149-3.133 1.904-5.394c2.054-2.26 3.495-.964 1.625 1.104s-1.311 5.562-1.311 5.562 4.95.747 8.627-.409c3.678-1.157 3.808-2.536 2.762-3.856-1.046-1.321-4.868-3.307-3.562-4.743 1.307-1.437 3.673 7.095 5.563 5.432 1.889-1.663 2.574-3.654 1.716-5.186l-.858-1.533s-3.823-1.981-4.869-3.307c-1.046-1.325.559-.612 2.372.285 1.812.896 5.673 3.658 6.025 2.858.352-.8-.632-5.08-1.282-6.425-.651-1.345-6.517-.675-7.134-1.234-.617-.559 2.656-2.087 3.644-1.928.736.123 1.465.283 2.183.482 0 0 .28-2.371-2.781-4.781-3.06-2.41-3.904.573-3.904.573Z" fill="#CBCBCB"/>
  <path opacity=".3" d="M192.259 144.566s-.414 3.75-3.374 3.692c-2.959-.058-4.338-5.099-7.461-4.164-3.124.935-3.832 6.266-3.832 6.266s3.046-2.111 4.482-.8c1.437 1.311.931 3.099.126 2.742-.805-.356-5.187-1.721-5.616 1.639a7.137 7.137 0 0 0 1.446 5.432s3.664-5.673 5.886-4.401c2.222 1.273-2.073 1.866-3.943 3.919s-3.138 4.271-1.721 5.186a21.773 21.773 0 0 1 3.287 2.989s-.149-3.133 1.904-5.394c2.054-2.26 3.495-.964 1.625 1.104s-1.311 5.562-1.311 5.562 4.95.747 8.627-.409c3.678-1.157 3.808-2.536 2.762-3.856-1.046-1.321-4.868-3.307-3.562-4.743 1.307-1.437 3.673 7.095 5.563 5.432 1.889-1.663 2.574-3.654 1.716-5.186l-.858-1.533s-3.823-1.981-4.869-3.307c-1.046-1.325.559-.612 2.372.285 1.812.896 5.673 3.658 6.025 2.858.352-.8-.632-5.08-1.282-6.425-.651-1.345-6.517-.675-7.134-1.234-.617-.559 2.656-2.087 3.644-1.928.736.123 1.465.283 2.183.482 0 0 .28-2.371-2.781-4.781-3.06-2.41-3.904.573-3.904.573Z" fill="#263238"/>
  <path d="M189.243 162.834c-.694-3.219-1.47-7.774-1.152-10.806M190.159 166.666s-.241-.883-.564-2.247M189.426 151.376s5.302.338 9.158 2.709M189.247 155.686s.149-.988 4.256 2.747M186.655 150.721s-.111-2.352-3.114-3.586M187.214 154.23l-2.574-.467M187.382 157.759s-4.854 1.214-6.536 3.06" stroke="#263238" stroke-linecap="round" stroke-linejoin="round"/>
  <path d="M181.343 172.937s8.338 6.363 9.216 15.8l-1.755-31.605M201.529 168.329c-10.97-1.977-10.97 20.408-10.97 20.408" stroke="#263238" stroke-width="2" stroke-linecap="round" stroke-linejoin="round"/>
  <path d="M191.874 188.52s-6.362-46.301 12.05-46.301" stroke="#263238" stroke-width="2" stroke-linecap="round" stroke-linejoin="round"/>
  <path d="M197.35 166.999c-1.499-1.687-4.685-1.687-6.555 2.622s-.188 3.562-.188 3.562 3.557-1.128 5.808-1.875c2.251-.747 5.244-2.622 5.432-1.499.188 1.123-1.499 2.246-3.562 2.622-2.063.376-7.49 1.875-6.931 3.017.559 1.143 1.875 4.497 1.875 4.497a47.282 47.282 0 0 1 5.056-3.745c2.439-1.499 3.938-.94 2.627.747-1.311 1.687-5.061 3.557-4.309 5.808.752 2.251 5.244 5.057 5.244 5.057s.564-4.681 1.875-6.18c1.311-1.499 1.311.188.935 2.81a30.594 30.594 0 0 0-.376 3.374l5.245 1.875a37.47 37.47 0 0 1 2.81-3.745l.964-.964s-4.122-3.557-4.309-5.784c-.188-2.227 2.81 0 3.745.376s2.434 2.998 2.434 2.998.94-4.309 1.128-5.808l.188-1.499s-3.938-1.499-5.437-1.499-2.246 1.123-2.246-.371 1.499-2.439 3.186-2.251c1.526.255 3.03.631 4.497 1.123 0 0 1.123-.935.747-3.745s-1.311-2.81-3.557-2.063c-2.247.747-3.75 2.439-5.437 2.439-1.687 0-.748-2.063.376-2.622 1.123-.559 3.933-1.687 4.497-1.875.564-.188-2.998-2.81-4.873-3.186-1.875-.376-4.3.964-4.122 2.81.352 3.909-5.268 4.675-6.767 2.974Z" fill="#CBCBCB"/>
  <path d="M209.409 186.288c.058.562.097 1.126.116 1.692M205.646 172.84a49.622 49.622 0 0 1 3.542 11.607M204.97 171.337c-.925-1.996-1.624-3.215-1.624-3.215a5.517 5.517 0 0 0 2.434-2.247 6.263 6.263 0 0 1 1.875-2.25M196.79 174.484s6.748-2.81 6.748-2.251M207.259 170.932s2.998-1.499 5.62-1.499M206.156 175.448a25.842 25.842 0 0 0-3.562 3.562 16.216 16.216 0 0 0-2.622 4.305M208.223 176.181s3.938-1.128 5.996.747" stroke="#263238" stroke-linecap="round" stroke-linejoin="round"/>
  <path d="M215.341 150.866c-2.038-1.205-4.294-1.234-5.403-2.507-1.108-1.272 1.065-1.928 2.227-1.446s3.856 1.866 4.362 2.164c.506.299.159-4.101-.786-5.784-.944-1.682-3.533-2.626-4.82-1.267-2.723 2.858-6.974-.892-6.685-3.128.289-2.237-1.798-4.642-6.266-3.235-4.468 1.408-2.81 2.193-2.81 2.193s3.181 1.953 5.225 3.158c2.044 1.205 5.418 2.241 4.69 3.118-.728.877-2.68.342-4.314-.964s-6.324-4.429-6.806-3.268c-.482 1.162-2.169 4.362-2.169 4.362 2.076.319 4.129.774 6.146 1.364 2.728.858 3.287 2.357 1.156 2.473-2.13.116-6.005-1.485-7.23.554-1.224 2.039-.38 7.274-.38 7.274s3.904-2.642 5.894-2.637c1.991.005.719 1.114-1.508 2.55a30.017 30.017 0 0 0-2.791 1.928l2.024 5.191a37.444 37.444 0 0 1 4.671-.337l1.321.096s0-5.447 1.561-7.061c1.562-1.615 1.842 2.121 2.174 3.075.333.954-.665 3.803-.665 3.803s3.856-2.116 5.119-2.96l1.258-.838s-1.446-3.957-2.434-5.085c-.988-1.128-2.319-.964-1.191-1.928s2.825-.482 3.789.935a28.905 28.905 0 0 1 2.096 4.13s1.446.237 3.321-1.889c1.875-2.126 1.263-2.829-.776-4.034Zm-17.723 5.996c-1.499-.752 2.058-2.251 2.058-2.251 1.316-.183-.564 3.003-2.058 2.251Zm2.521-6.994c-.636-.318 1.277-.964 1.277-.964 2.767.516-.641 1.282-1.282.964h.005Z" fill="#CBCBCB"/>
  <path d="M197.571 160.68c-.385.409-.79.809-1.2 1.195M205.26 149.02a49.486 49.486 0 0 1-6.454 10.271M205.954 147.525c.901-2.01 1.359-3.335 1.359-3.335a5.56 5.56 0 0 0 3.297.366 6.226 6.226 0 0 1 2.926-.062M204.324 147.034c.424-.371-6.117-3.62-6.117-3.62M207.77 149.001s3.099 1.282 4.82 3.263M203.64 151.102c-1.658-.281-3.34-.4-5.022-.356-1.692.021-3.37.305-4.974.843M204.426 153.151s3.427 2.232 3.374 5.018" stroke="#263238" stroke-linecap="round" stroke-linejoin="round"/>
  <path d="M186.229 176.822c-1.638-.964-3.456-.988-4.338-2.015-.882-1.027.854-1.543 1.789-1.157.935.386 3.104 1.504 3.513 1.745.41.241.126-3.307-.636-4.642-.761-1.335-2.844-2.111-3.88-1.022-2.193 2.304-5.615-.718-5.379-2.516.236-1.797-1.446-3.735-5.056-2.602-3.61 1.132-2.261 1.764-2.261 1.764s2.56 1.571 4.203 2.54c1.644.969 4.362 1.807 3.774 2.511-.588.704-2.154.28-3.47-.776-1.316-1.056-5.09-3.567-5.476-2.632-.385.935-1.744 3.509-1.744 3.509 1.67.258 3.322.625 4.945 1.099 2.193.69 2.641 1.895.925 1.986-1.716.092-4.82-1.195-5.784.448-.964 1.644-.308 5.857-.308 5.857s3.142-2.131 4.743-2.126c1.6.005.578.897-1.21 2.053-.777.475-1.527.993-2.246 1.552l1.624 4.175a29.92 29.92 0 0 1 3.76-.266l1.065.073s0-4.382 1.258-5.683c1.258-1.301 1.48 1.706 1.745 2.477.265.772-.535 3.061-.535 3.061s3.113-1.706 4.121-2.381l1.012-.68s-1.166-3.181-1.957-4.092c-.79-.911-1.87-.771-.964-1.561.906-.791 2.27-.376 3.046.747a23.561 23.561 0 0 1 1.692 3.325s1.162.188 2.67-1.518c1.509-1.706 1.003-2.28-.641-3.253Zm-14.267 4.82c-1.205-.603 1.658-1.808 1.658-1.808 1.056-.144-.453 2.42-1.658 1.812v-.004Zm2.039-5.62c-.516-.261 1.027-.772 1.027-.772 2.222.429-.521 1.027-1.027.772Z" fill="#CBCBCB"/>
  <path d="M171.934 184.722c-.314.327-.637.65-.964.964M178.117 175.337a39.77 39.77 0 0 1-5.191 8.266M178.677 174.132a37.409 37.409 0 0 0 1.094-2.68 4.482 4.482 0 0 0 2.651.294 4.989 4.989 0 0 1 2.352-.048M172.439 170.826s5.269 2.617 4.926 2.892M180.138 175.323s2.492 1.031 3.856 2.627M176.811 177.015a20.853 20.853 0 0 0-4.039-.285 12.851 12.851 0 0 0-4.001.68M177.447 178.663s2.757 1.797 2.704 4.034" stroke="#263238" stroke-linecap="round" stroke-linejoin="round"/>
  <path d="M179.54 145.887s-2.063 1.499-3.374 0 .564-4.497-1.311-5.62c-1.875-1.123-4.869.935-4.869.935s2.435.564 2.435 1.875-1.123 1.875-1.311 1.311c-.188-.564-1.499-3.374-3.374-2.058a4.814 4.814 0 0 0-2.059 3.181s4.493-.747 4.869.94c.376 1.687-1.871-.188-3.746-.188s-3.562.376-3.374 1.499c.102.997.102 2.001 0 2.998a5.573 5.573 0 0 1 3.562-1.499c2.059 0 2.059 1.311.188 1.311-1.87 0-3.374 1.875-3.374 1.875s1.875 2.81 4.122 4.121c2.246 1.311 2.998.747 3.186-.376.188-1.123-.564-3.933.747-3.933s-1.871 5.056-.188 5.244c1.682.188 2.998-.376 3.374-1.499l.376-1.123s-.752-2.81-.564-3.933c.188-1.123.564 0 .935 1.311.371 1.311.752 4.492 1.316 4.309.564-.183 2.246-2.627 2.622-3.562.376-.935-2.622-3.557-2.622-4.121 0-.564 2.246.376 2.622.935.376.559.747 1.311.747 1.311s1.311-.935 1.123-3.557c-.188-2.622-2.058-1.687-2.058-1.687Z" fill="#CBCBCB"/>
  <path d="M169.043 152.683c1.297-1.807 3.22-4.265 4.878-5.485M167.548 154.881s.332-.521.867-1.301M174.855 147.574s2.251 2.81 2.811 5.808M172.608 149.449s.559-.376.559 3.374M173.919 145.887s1.123-1.123.376-3.186M172.419 147.762l-.935-1.499M170.733 149.449s-2.81-1.875-4.497-1.875" stroke="#263238" stroke-linecap="round" stroke-linejoin="round"/>
  <path d="M198.459 187.859h-14.484v20.847h14.484v-20.847Z" fill="#263238" stroke="#263238" stroke-width="2" stroke-linecap="round" stroke-linejoin="round"/>
</svg>
