<svg width="204" height="204" fill="none" xmlns="http://www.w3.org/2000/svg">
  <path d="m174.191 132.074-.318 2.856 5.553-6.492c.664.07 1.331.105 1.999.106M167.235 112.375a8.334 8.334 0 0 0-1.334 3.672c-.526 4.745 3.195 9.233 8.817 11.31l-.286 2.55M169.394 110.013c-.361.293-.705.608-1.028.943M190.218 110.013a18.326 18.326 0 0 0-8.523-3.117 18.12 18.12 0 0 0-9.49 1.395M185.29 128.161c5.304-1.098 9.323-4.488 9.792-8.886.343-3.077-1.097-6.043-3.672-8.32" stroke="#263238" stroke-linecap="round" stroke-linejoin="round"/>
  <path d="M172.209 113.167c.449.084.91.078 1.357-.018a3.45 3.45 0 0 0 1.246-.537l1.983 1.538c-.139.045-.127-.249.02-.257.147-.008.257.127.359.233.465.493 1.249.51 1.914.367.665-.143 1.314-.408 1.991-.384a4.87 4.87 0 0 1 1.179.274c2.725.844 5.561 1.269 8.384 1.685M169.867 116.068c.408-.025 2.681 0 3.007-.274l.555.967.612-.591c.106.408.212.816.314 1.199.461.11.408-.779.816-1.044a.555.555 0 0 1 .722.216 1.6 1.6 0 0 1 .188.816l2.791.228.542.045c.194-.296.481-.518.816-.632-.102.645.71 1.012 1.355 1.142 3.174.648 6.365 1.207 9.572 1.677M171.107 120.499c.257.179.572-.155.886-.196.314-.041.571.196.848.338.278.143.735.082.751-.228.065.408.571.555.983.612l10.715 1.505M27.744 106.561l4.292 5.778-.86-7.56a19.915 19.915 0 0 0 2.933-1.751c4.398-3.182 6.169-8.303 4.557-12.428-1.13-2.88-3.778-4.838-7.123-5.65M10.792 97.447a8.3 8.3 0 0 0 .522 3.855c1.738 4.447 7.116 6.691 13.056 5.916M11.604 94.35c-.182.428-.339.867-.47 1.314M30.045 84.672a18.306 18.306 0 0 0-9 1.192 18.108 18.108 0 0 0-7.752 5.646" stroke="#263238" stroke-linecap="round" stroke-linejoin="round"/>
  <path d="M15.56 95.831a3.476 3.476 0 0 0 2.04-1.697l2.448.44c-.105.102-.228-.163-.101-.24.126-.078.285 0 .408.04.644.22 1.342-.126 1.864-.563.522-.436.971-.979 1.587-1.264.377-.15.77-.255 1.171-.31 2.807-.515 5.512-1.461 8.21-2.404M14.835 99.49c.363-.215 2.374-1.248 2.538-1.631l.942.6c.09-.27.18-.543.265-.816l.837.918c.46-.115 0-.878.22-1.294a.55.55 0 0 1 .739-.143c.233.157.42.372.542.625l2.575-1.094.506-.212c.029-.35.172-.681.408-.942.212.624 1.101.567 1.73.383 3.114-.897 6.2-1.885 9.257-2.962M17.993 102.836c.314.041.437-.408.694-.587.257-.18.6-.086.91-.094.31-.008.69-.265.559-.547.248.331.767.225 1.154.086l10.2-3.652" stroke="#263238" stroke-linecap="round" stroke-linejoin="round"/>
  <path d="M152.155 36.565H50.425a3.586 3.586 0 0 0-3.587 3.586v91.645a3.587 3.587 0 0 0 3.586 3.587h101.731a3.586 3.586 0 0 0 3.586-3.587V40.151a3.586 3.586 0 0 0-3.586-3.586Z" fill="#fff"/>
  <path opacity=".2" d="M155.741 90.694v41.208a3.48 3.48 0 0 1-3.476 3.48H50.318a3.479 3.479 0 0 1-3.48-3.48v-8.16h.216v5.5a3.977 3.977 0 0 0 3.982 3.978h98.487a3.964 3.964 0 0 0 1.524-.302 3.962 3.962 0 0 0 2.155-2.153c.2-.483.303-1 .303-1.523V96.806a2.768 2.768 0 0 0-2.77-2.77H46.838v-3.342H155.74Z" fill="#000"/>
  <path d="M152.155 36.565H50.425a3.586 3.586 0 0 0-3.587 3.586v91.645a3.587 3.587 0 0 0 3.586 3.587h101.731a3.586 3.586 0 0 0 3.586-3.587V40.151a3.586 3.586 0 0 0-3.586-3.586Z" stroke="#263238" stroke-linecap="round" stroke-linejoin="round"/>
  <path d="M146.26 102.428v-4.72a1.737 1.737 0 0 0-1.746-1.746H58.067a1.747 1.747 0 0 0-1.746 1.746v4.72a1.744 1.744 0 0 1-1.746 1.747 1.75 1.75 0 0 0-1.75 1.75v9.315a8.096 8.096 0 0 0 8.098 8.098 1.303 1.303 0 0 1 1.301 1.302v2.791a3.883 3.883 0 0 0 3.885 3.884h70.363a3.883 3.883 0 0 0 3.885-3.884v-2.791a1.301 1.301 0 0 1 1.301-1.302 8.093 8.093 0 0 0 7.482-4.999 8.102 8.102 0 0 0 .617-3.099v-9.315a1.752 1.752 0 0 0-1.746-1.75 1.753 1.753 0 0 1-1.751-1.747Z" fill="#263238"/>
  <path d="M62.942 98.634H59.92a1.395 1.395 0 0 0-1.396 1.395v.775c0 1.608 1.302 3.648 2.91 3.648 1.607 0 2.908-2.04 2.908-3.648v-.775a1.4 1.4 0 0 0-1.399-1.395ZM70.176 98.634h-3.024a1.4 1.4 0 0 0-1.4 1.395v.775c0 1.608 1.302 3.648 2.91 3.648 1.607 0 2.909-2.04 2.909-3.648v-.775a1.395 1.395 0 0 0-1.395-1.395ZM77.44 98.634h-3.024a1.395 1.395 0 0 0-1.395 1.395v.775c0 1.608 1.301 3.648 2.904 3.648 1.604 0 2.91-2.04 2.91-3.648v-.775a1.395 1.395 0 0 0-1.396-1.395ZM84.685 98.634h-3.023a1.395 1.395 0 0 0-1.395 1.395v.775c0 1.608 1.301 3.648 2.909 3.648 1.607 0 2.905-2.04 2.905-3.648v-.775a1.395 1.395 0 0 0-1.396-1.395ZM91.93 98.634h-3.023a1.395 1.395 0 0 0-1.395 1.395v.775c0 1.608 1.301 3.648 2.909 3.648 1.607 0 2.909-2.04 2.909-3.648v-.775a1.4 1.4 0 0 0-1.4-1.395ZM99.181 98.634h-3.023a1.4 1.4 0 0 0-1.4 1.395v.775c0 1.608 1.302 3.648 2.91 3.648 1.607 0 2.909-2.04 2.909-3.648v-.775a1.394 1.394 0 0 0-1.395-1.395ZM106.427 98.634h-3.023a1.397 1.397 0 0 0-1.395 1.395v.775c0 1.608 1.301 3.648 2.905 3.648 1.603 0 2.909-2.04 2.909-3.648v-.775a1.394 1.394 0 0 0-1.396-1.395ZM113.674 98.634h-3.024a1.393 1.393 0 0 0-1.395 1.395v.776c0 1.607 1.301 3.647 2.909 3.647 1.607 0 2.905-2.04 2.905-3.647v-.776a1.394 1.394 0 0 0-1.395-1.395ZM120.92 98.634h-3.007a1.396 1.396 0 0 0-1.395 1.395v.775c0 1.608 1.301 3.648 2.909 3.648 1.607 0 2.909-2.04 2.909-3.648v-.775a1.4 1.4 0 0 0-1.416-1.395ZM128.169 98.634h-3.023a1.402 1.402 0 0 0-1.4 1.395v.775c0 1.608 1.302 3.648 2.909 3.648 1.608 0 2.909-2.04 2.909-3.648v-.775a1.394 1.394 0 0 0-1.395-1.395ZM135.416 98.634h-3.024a1.393 1.393 0 0 0-1.395 1.395v.775c0 1.608 1.302 3.648 2.905 3.648 1.603 0 2.909-2.04 2.909-3.648v-.775a1.394 1.394 0 0 0-1.395-1.395ZM142.662 98.634h-3.023a1.395 1.395 0 0 0-1.396 1.395v.776c0 1.603 1.294 3.643 2.925 3.643 1.632 0 2.905-2.04 2.905-3.648v-.775a1.391 1.391 0 0 0-1.411-1.391ZM62.942 113.991H59.92a1.394 1.394 0 0 0-1.396 1.395v.776c0 1.607 1.302 3.647 2.91 3.647 1.607 0 2.908-2.04 2.908-3.647v-.776a1.397 1.397 0 0 0-1.399-1.395ZM70.176 113.991h-3.024a1.398 1.398 0 0 0-1.4 1.395v.776c0 1.607 1.302 3.647 2.91 3.647 1.607 0 2.909-2.04 2.909-3.647v-.776a1.393 1.393 0 0 0-1.395-1.395ZM77.44 113.991h-3.024a1.394 1.394 0 0 0-1.395 1.395v.776c0 1.607 1.301 3.647 2.904 3.647 1.604 0 2.91-2.04 2.91-3.647v-.776a1.393 1.393 0 0 0-1.396-1.395ZM84.685 113.991h-3.023a1.394 1.394 0 0 0-1.395 1.395v.776c0 1.607 1.301 3.647 2.909 3.647 1.607 0 2.905-2.04 2.905-3.647v-.776a1.4 1.4 0 0 0-.862-1.289c-.17-.07-.35-.106-.534-.106ZM91.93 113.991h-3.023a1.394 1.394 0 0 0-1.395 1.395v.776c0 1.607 1.301 3.647 2.909 3.647 1.607 0 2.909-2.04 2.909-3.647v-.776a1.397 1.397 0 0 0-1.4-1.395ZM99.181 113.991h-3.023a1.398 1.398 0 0 0-1.4 1.395v.776c0 1.607 1.302 3.647 2.91 3.647 1.607 0 2.909-2.04 2.909-3.647v-.776a1.394 1.394 0 0 0-1.395-1.395ZM106.427 113.991h-3.023a1.396 1.396 0 0 0-1.395 1.395v.776c0 1.607 1.301 3.647 2.905 3.647 1.603 0 2.909-2.04 2.909-3.647v-.776a1.394 1.394 0 0 0-1.396-1.395ZM113.674 113.991h-3.024c-.37 0-.725.147-.986.409a1.392 1.392 0 0 0-.409.986v.776c0 1.607 1.301 3.647 2.909 3.647 1.607 0 2.905-2.04 2.905-3.647v-.776a1.393 1.393 0 0 0-1.395-1.395ZM120.92 113.991h-3.007a1.397 1.397 0 0 0-1.289.862c-.07.169-.106.35-.106.534v.775c0 1.607 1.301 3.647 2.909 3.647 1.607 0 2.909-2.04 2.909-3.647v-.775a1.408 1.408 0 0 0-.417-.993 1.4 1.4 0 0 0-.999-.403ZM128.169 113.991h-3.023a1.4 1.4 0 0 0-1.4 1.396v.775c0 1.607 1.302 3.647 2.909 3.647 1.608 0 2.909-2.04 2.909-3.647v-.775a1.394 1.394 0 0 0-1.395-1.396ZM135.416 113.991h-3.024c-.37 0-.725.147-.986.409a1.392 1.392 0 0 0-.409.986v.776c0 1.607 1.302 3.647 2.905 3.647 1.603 0 2.909-2.04 2.909-3.647v-.776c0-.37-.147-.725-.409-.986a1.392 1.392 0 0 0-.986-.409ZM142.662 113.991h-3.023a1.394 1.394 0 0 0-1.396 1.396v.775c0 1.607 1.302 3.647 2.909 3.647 1.608 0 2.905-2.04 2.905-3.647v-.775a1.394 1.394 0 0 0-1.395-1.396ZM59.319 106.561h-3.015a1.394 1.394 0 0 0-1.396 1.396v.775c0 1.603 1.302 3.648 2.91 3.648 1.607 0 2.904-2.04 2.904-3.648v-.775a1.397 1.397 0 0 0-1.403-1.396ZM66.566 106.561h-3.023a1.394 1.394 0 0 0-1.395 1.396v.775c0 1.603 1.301 3.647 2.908 3.647 1.608 0 2.91-2.04 2.91-3.647v-.775a1.397 1.397 0 0 0-1.4-1.396ZM73.816 106.561h-3.023a1.398 1.398 0 0 0-1.4 1.396v.775c0 1.603 1.306 3.647 2.91 3.647 1.603 0 2.909-2.04 2.909-3.647v-.775a1.397 1.397 0 0 0-1.396-1.396ZM81.061 106.561h-3.023a1.394 1.394 0 0 0-1.395 1.396v.775c0 1.603 1.301 3.647 2.904 3.647 1.604 0 2.91-2.04 2.91-3.647v-.775a1.394 1.394 0 0 0-1.396-1.396ZM88.308 106.561h-3.036a1.394 1.394 0 0 0-1.395 1.396v.775c0 1.603 1.302 3.647 2.909 3.647 1.608 0 2.905-2.04 2.905-3.647v-.775a1.398 1.398 0 0 0-1.383-1.396ZM95.553 106.561H92.53a1.394 1.394 0 0 0-1.395 1.396v.775c0 1.603 1.301 3.647 2.909 3.647 1.607 0 2.909-2.04 2.909-3.647v-.775a1.398 1.398 0 0 0-1.4-1.396ZM102.815 106.561h-3.023a1.398 1.398 0 0 0-1.4 1.396v.775c0 1.603 1.306 3.647 2.91 3.647 1.603 0 2.909-2.04 2.909-3.647v-.775a1.396 1.396 0 0 0-1.396-1.396ZM110.05 106.561h-3.023a1.396 1.396 0 0 0-1.395 1.396v.775c0 1.603 1.301 3.647 2.905 3.647 1.603 0 2.909-2.04 2.909-3.647v-.775a1.396 1.396 0 0 0-1.396-1.396ZM117.297 106.561h-3.024a1.396 1.396 0 0 0-1.395 1.396v.775c0 1.603 1.301 3.647 2.909 3.647 1.608 0 2.905-2.04 2.905-3.647v-.775a1.396 1.396 0 0 0-1.395-1.396ZM124.543 106.561h-3.024a1.396 1.396 0 0 0-1.395 1.396v.775c0 1.603 1.302 3.647 2.909 3.647 1.608 0 2.909-2.04 2.909-3.647v-.775a1.398 1.398 0 0 0-1.399-1.396ZM131.784 106.561h-3.023c-.371 0-.726.147-.988.409a1.395 1.395 0 0 0-.412.987v.775c0 1.603 1.306 3.647 2.909 3.647 1.604 0 2.909-2.04 2.909-3.647v-.775a1.396 1.396 0 0 0-1.395-1.396ZM139.038 106.561h-3.023a1.398 1.398 0 0 0-1.375 1.396v.775c0 1.603 1.301 3.647 2.905 3.647 1.603 0 2.909-2.04 2.909-3.647v-.775a1.388 1.388 0 0 0-.416-.994 1.395 1.395 0 0 0-1-.402ZM146.284 106.561h-3.023a1.396 1.396 0 0 0-1.396 1.396v.775c0 1.603 1.302 3.647 2.909 3.647 1.608 0 2.905-2.04 2.905-3.647v-.775a1.396 1.396 0 0 0-1.395-1.396ZM128.97 121.727H73.612a1.31 1.31 0 0 0-1.31 1.309v3.974c0 .724.587 1.31 1.31 1.31h55.358a1.31 1.31 0 0 0 1.31-1.31v-3.974a1.31 1.31 0 0 0-1.31-1.309ZM136.382 122.114h-3.024a1.396 1.396 0 0 0-1.395 1.396v.775c0 1.607 1.301 3.647 2.909 3.647 1.607 0 2.905-2.04 2.905-3.647v-.775a1.396 1.396 0 0 0-1.395-1.396ZM69.221 122.114h-3.023a1.394 1.394 0 0 0-1.395 1.396v.775c0 1.607 1.301 3.647 2.909 3.647 1.607 0 2.909-2.04 2.909-3.647v-.775a1.398 1.398 0 0 0-1.4-1.396Z" fill="#fff" stroke="#263238" stroke-linecap="round" stroke-linejoin="round"/>
  <path opacity=".2" d="M63.109 100.849c.146.001.293.015.437.041v-.861a.608.608 0 0 0-.608-.603h-3.024a.608.608 0 0 0-.604.603v.776c0 1.113.816 2.517 1.78 2.798-.298-1.236.37-2.754 2.019-2.754ZM70.518 100.641c.093-.006.185-.006.278 0v-.628a.608.608 0 0 0-.604-.604h-3.023a.608.608 0 0 0-.608.604v.775c0 1.224.966 2.754 2.04 2.856-.494-1.265.155-3.003 1.917-3.003ZM77.981 100.535h.062v-.51a.604.604 0 0 0-.604-.604h-3.023a.608.608 0 0 0-.608.604v.775c0 1.245 1.028 2.856 2.117 2.856.053.004.106.004.16 0-.547-1.289.085-3.121 1.897-3.121ZM84.766 100.327c.17-.005.34.009.506.041v-.355a.604.604 0 0 0-.604-.604h-3.023a.604.604 0 0 0-.604.604v.775c0 1.167.898 2.652 1.91 2.856-.694-1.281-.094-3.317 1.815-3.317ZM92.384 100.327h.155v-.306a.608.608 0 0 0-.608-.604h-3.023a.608.608 0 0 0-.604.604v.775c0 1.245 1.028 2.856 2.117 2.856.056.004.112.004.167 0-.713-1.285-.114-3.325 1.796-3.325ZM99.691 100.368h.094v-.355a.608.608 0 0 0-.604-.604h-3.023a.608.608 0 0 0-.608.604v.775c0 1.245 1.028 2.856 2.117 2.856.067.006.134.006.2 0-.669-1.285-.061-3.276 1.824-3.276ZM106.684 100.327c.116.002.232.01.347.025v-.323a.605.605 0 0 0-.604-.603h-3.023a.602.602 0 0 0-.604.603v.776c0 1.224 1.012 2.831 2.093 2.856-.722-1.282-.127-3.334 1.791-3.334ZM114.276 100.433v-.408a.605.605 0 0 0-.604-.604h-3.023a.604.604 0 0 0-.604.604v.775c0 1.245 1.024 2.856 2.117 2.856.11-.001.219-.019.323-.053-.588-1.256.012-3.113 1.791-3.17ZM120.931 100.274c.201 0 .401.026.595.078v-.323a.607.607 0 0 0-.608-.603h-3.007a.608.608 0 0 0-.603.603v.776c0 1.15.873 2.603 1.864 2.823-.763-1.277-.171-3.354 1.759-3.354ZM128.342 100.274c.145.001.289.014.432.041v-.286a.607.607 0 0 0-.604-.603h-3.023a.605.605 0 0 0-.608.603v.776c0 1.224.979 2.778 2.04 2.856-.767-1.282-.179-3.387 1.763-3.387ZM135.701 100.482c.106.002.213.01.318.025v-.478a.605.605 0 0 0-.604-.603h-3.023a.604.604 0 0 0-.604.603v.776c0 1.224.979 2.774 2.04 2.856-.592-1.29.033-3.179 1.873-3.179ZM143.265 100.388v-.359a.6.6 0 0 0-.604-.603h-3.023a.604.604 0 0 0-.604.603v.776c0 1.244 1.024 2.856 2.118 2.856a1.22 1.22 0 0 0 .457-.098c-.58-1.233-.033-3.036 1.656-3.175ZM63.318 115.464c.077-.004.155-.004.233 0v-.086a.608.608 0 0 0-.608-.603h-3.024a.607.607 0 0 0-.604.603v.776c0 1.244 1.029 2.856 2.118 2.856.075-.002.15-.011.224-.025-.914-1.24-.359-3.521 1.66-3.521ZM70.416 115.464c.127 0 .254.011.38.033v-.106a.608.608 0 0 0-.604-.604h-3.023a.608.608 0 0 0-.608.604v.775c0 1.244 1.028 2.856 2.117 2.856h.09c-.934-1.257-.384-3.558 1.648-3.558ZM77.619 115.566c.137 0 .273.013.408.037v-.217a.608.608 0 0 0-.177-.427.598.598 0 0 0-.427-.176H74.4a.608.608 0 0 0-.608.603v.776c0 1.224 1.012 2.827 2.093 2.856-.812-1.269-.245-3.452 1.734-3.452ZM84.974 115.619c.105 0 .21.007.315.02v-.253a.606.606 0 0 0-.373-.557.592.592 0 0 0-.231-.046h-3.023a.597.597 0 0 0-.604.603v.776c0 1.244 1.024 2.856 2.117 2.856h.05c-.784-1.277-.2-3.399 1.75-3.399ZM92.074 115.464c.156 0 .311.015.465.045v-.118a.609.609 0 0 0-.608-.604h-3.023a.607.607 0 0 0-.604.604v.775c0 1.244 1.028 2.856 2.117 2.856-.93-1.249-.383-3.558 1.653-3.558ZM99.43 115.513c.119.001.237.01.355.028v-.155a.607.607 0 0 0-.604-.603h-3.023a.608.608 0 0 0-.608.603v.776c0 1.244 1.028 2.856 2.117 2.856h.078c-.881-1.265-.318-3.505 1.685-3.505ZM106.945 115.668h.086v-.286a.607.607 0 0 0-.604-.603h-3.023a.602.602 0 0 0-.604.603v.776c0 1.244 1.024 2.856 2.113 2.856.08-.002.159-.011.237-.029-.702-1.273-.118-3.317 1.795-3.317ZM114.239 115.513h.025v-.127a.614.614 0 0 0-.177-.427.6.6 0 0 0-.427-.176h-3.011a.588.588 0 0 0-.231.046.59.59 0 0 0-.327.326.614.614 0 0 0-.046.231v.776c0 1.244 1.024 2.856 2.117 2.856a1.15 1.15 0 0 0 .368-.066c-.829-1.264-.253-3.439 1.709-3.439ZM121.294 115.358h.228a.606.606 0 0 0-.604-.583h-3.007a.607.607 0 0 0-.603.603v.776c0 1.244 1.028 2.856 2.117 2.856.1-.003.198-.018.294-.045-1.024-1.216-.494-3.607 1.575-3.607ZM128.76 115.464v-.073a.608.608 0 0 0-.603-.604h-3.024a.608.608 0 0 0-.608.604v.775c0 1.244 1.029 2.856 2.118 2.856.139-.002.277-.027.408-.074-.853-1.264-.29-3.484 1.709-3.484ZM135.864 115.464h.163v-.082a.614.614 0 0 0-.177-.427.6.6 0 0 0-.427-.176H132.4a.604.604 0 0 0-.604.603v.776c0 1.244 1.024 2.856 2.113 2.856.097-.002.193-.015.286-.041-.91-1.249-.351-3.509 1.669-3.509ZM143.004 115.774h.261v-.408a.6.6 0 0 0-.604-.604h-3.023a.605.605 0 0 0-.604.604v.775c0 1.245 1.024 2.856 2.118 2.856-.633-1.265-.021-3.223 1.852-3.223ZM59.875 108.157h.053v-.2a.607.607 0 0 0-.608-.604h-3.015a.605.605 0 0 0-.604.604v.775c0 1.244 1.024 2.856 2.118 2.856.105-.003.209-.019.31-.049-.784-1.273-.192-3.382 1.746-3.382ZM66.97 108.157h.204v-.208a.609.609 0 0 0-.608-.604h-3.024a.608.608 0 0 0-.604.604v.775c0 1.244 1.029 2.856 2.118 2.856.06.004.12.004.18 0-.804-1.277-.225-3.423 1.733-3.423ZM74.382 108.157h.037v-.2a.608.608 0 0 0-.604-.604h-3.023a.614.614 0 0 0-.616.604v.775c0 1.244 1.028 2.856 2.117 2.856a1.07 1.07 0 0 0 .323-.053c-.763-1.269-.18-3.378 1.766-3.378ZM81.478 108.12h.188v-.155a.604.604 0 0 0-.604-.604h-3.024a.605.605 0 0 0-.603.604v.775c0 1.245 1.024 2.856 2.113 2.856.074-.001.148-.01.22-.024-.844-1.269-.273-3.452 1.71-3.452ZM88.536 108.157c.13 0 .26.011.387.032v-.232a.604.604 0 0 0-.603-.604h-3.048a.605.605 0 0 0-.604.604v.775c0 1.244 1.024 2.856 2.117 2.856-.807-1.269-.232-3.431 1.75-3.431ZM95.831 107.896c.11 0 .218.007.327.02a.609.609 0 0 0-.604-.563H92.53a.608.608 0 0 0-.604.604v.775c0 1.244 1.028 2.856 2.117 2.856.079-.002.157-.011.233-.029-1.061-1.211-.543-3.663 1.554-3.663ZM103.135 108.206h.273v-.265a.608.608 0 0 0-.604-.604h-3.023a.608.608 0 0 0-.608.604v.775c0 1.244 1.028 2.856 2.117 2.856h.082c-.763-1.265-.188-3.366 1.763-3.366ZM110.654 107.957a.605.605 0 0 0-.604-.604h-3.023a.606.606 0 0 0-.604.604v.775c0 1.244 1.024 2.856 2.113 2.856a1.32 1.32 0 0 0 .62-.171c-.824-1.216-.326-3.297 1.498-3.46ZM117.913 108.12v-.155a.605.605 0 0 0-.604-.604h-3.024a.607.607 0 0 0-.603.604v.775c0 1.245 1.024 2.856 2.117 2.856a1.23 1.23 0 0 0 .506-.118c-.747-1.244-.212-3.256 1.608-3.358ZM124.896 107.998h.253v-.053a.607.607 0 0 0-.608-.604h-3.023a.608.608 0 0 0-.604.604v.775c0 1.244 1.028 2.856 2.118 2.856.077-.001.153-.011.228-.029-.946-1.228-.404-3.549 1.636-3.549ZM132.397 108.263v-.306a.608.608 0 0 0-.604-.604h-3.023a.605.605 0 0 0-.608.604v.775c0 1.244 1.028 2.856 2.118 2.856a1.25 1.25 0 0 0 .363-.061c-.665-1.265-.082-3.215 1.754-3.264ZM139.3 108.051c.115.001.229.01.343.024v-.118a.605.605 0 0 0-.604-.604h-3.023a.61.61 0 0 0-.427.177.602.602 0 0 0-.177.427v.775c0 1.244 1.024 2.856 2.114 2.856.038.002.076.002.114 0-.914-1.261-.359-3.537 1.66-3.537ZM146.608 108.365c.093-.007.187-.007.281 0v-.408a.6.6 0 0 0-.604-.604h-3.023a.605.605 0 0 0-.604.604v.775c0 1.224 1.016 2.856 2.105 2.856-.636-1.285-.02-3.223 1.845-3.223ZM129.487 127.035v-4.023a.494.494 0 0 0-.493-.494H73.587a.494.494 0 0 0-.493.494v4.023c0 .273.22.494.493.494h55.407a.494.494 0 0 0 .493-.494ZM136.987 123.914v-.408a.606.606 0 0 0-.604-.604h-3.023a.592.592 0 0 0-.558.373.588.588 0 0 0-.046.231v.775c0 1.244 1.024 2.856 2.117 2.856.091-.002.182-.015.27-.037-.604-1.273.012-3.174 1.844-3.186ZM69.474 123.653c.119.001.237.01.355.028v-.171a.606.606 0 0 0-.608-.604h-3.023a.608.608 0 0 0-.604.604v.775c0 1.244 1.028 2.856 2.117 2.856h.07c-.87-1.265-.298-3.488 1.693-3.488ZM51.286 38.556h100.009a2.592 2.592 0 0 1 2.591 2.59v22.849H48.696V41.147a2.591 2.591 0 0 1 2.59-2.591Z" fill="#000"/>
  <path d="M143.118 42.864h-83.64a95.07 95.07 0 0 0-3.672-17.074h91a91.175 91.175 0 0 0-3.688 17.075Z" fill="#fff"/>
  <path opacity=".2" d="M143.942 37.36c-.608 3.322-.816 5.504-.816 5.504h-83.64s-.212-2.142-.837-5.503h85.293Z" fill="#000"/>
  <path d="M143.118 42.864h-83.64a95.07 95.07 0 0 0-3.672-17.074h91a91.175 91.175 0 0 0-3.688 17.075v0Z" stroke="#263238" stroke-linecap="round" stroke-linejoin="round"/>
  <path d="M141.98 57.242H59.927V91h82.053V57.242Z" fill="#263238"/>
  <g opacity=".4" fill="#fff">
    <path opacity=".4" d="m98.91 88.014.432.02 1.632-25.296a28610.94 28610.94 0 0 0-2.065 25.276ZM97.514 87.908l.432.036c.944-8.364 1.886-16.764 2.828-25.202-1.086 8.443-2.172 16.831-3.26 25.166ZM96.154 87.752c.143 0 .29.033.433.05 1.338-8.275 2.684-16.63 4.039-25.064a8234.847 8234.847 0 0 1-4.472 25.014ZM94.78 87.544l.436.07c1.735-8.16 3.484-16.456 5.247-24.888a3866.712 3866.712 0 0 1-5.684 24.819ZM93.408 87.287l.44.09c2.122-8.005 4.273-16.22 6.451-24.643a2360.03 2360.03 0 0 1-6.89 24.553ZM92.046 86.977l.44.11c2.502-7.825 5.072-15.94 7.651-24.357-2.73 8.417-5.451 16.495-8.091 24.247ZM90.688 86.61l.444.13c2.856-7.604 5.847-15.61 8.842-24.018-3.146 8.409-6.28 16.369-9.287 23.888ZM89.352 86.194l.444.143c3.228-7.344 6.614-15.223 10.025-23.62-3.578 8.397-7.12 16.219-10.47 23.477ZM87.999 85.717l.449.163c3.574-7.067 7.372-14.786 11.2-23.17-3.987 8.384-7.944 16.034-11.649 23.007ZM86.677 85.178l.449.188c3.9-6.748 8.11-14.28 12.358-22.665-4.419 8.369-8.78 15.86-12.807 22.477ZM85.366 84.574l.449.216c4.21-6.385 8.833-13.75 13.505-22.097-4.84 8.348-9.62 15.643-13.954 21.881ZM84.077 83.905l.449.245c4.488-5.986 9.535-13.142 14.63-21.47a245.528 245.528 0 0 1-15.079 21.225Z"/>
    <path opacity=".4" d="M82.824 83.17c.147.095.302.18.453.27A213.297 213.297 0 0 0 99.01 62.673 194.075 194.075 0 0 1 82.824 83.17Z"/>
    <path opacity=".4" d="m81.572 82.359.445.306a169.64 169.64 0 0 0 16.814-19.992 155.15 155.15 0 0 1-17.259 19.686Z"/>
    <path opacity=".4" d="M98.667 62.648C92.102 70.87 85.68 77.141 80.376 81.474l.436.338a137.351 137.351 0 0 0 17.855-19.164Z"/>
    <path opacity=".4" d="M98.504 62.636c-6.993 8.16-13.827 14.125-19.29 17.879l.432.37c5.39-3.99 12.049-10.069 18.858-18.249Z"/>
    <path opacity=".4" d="M98.329 62.624c-7.413 8.099-14.635 13.713-20.22 16.846.134.139.269.278.407.408 5.533-3.386 12.595-9.135 19.813-17.254Z"/>
    <path opacity=".4" d="M98.178 62.608c-7.817 8.017-15.414 13.26-21.09 15.748l.409.445c5.618-2.762 13.044-8.152 20.681-16.194Z"/>
    <path opacity=".4" d="M76.15 77.165c.118.163.24.326.362.485 5.692-2.1 13.465-7.115 21.506-15.055-8.205 7.903-16.144 12.754-21.869 14.57Z"/>
    <path opacity=".4" d="M75.317 75.925c.107.171.217.342.327.514 5.712-1.436 13.823-6.05 22.211-13.872-8.551 7.776-16.805 12.22-22.538 13.358Z"/>
    <path opacity=".4" d="M74.607 74.664c.09.18.184.355.278.534 5.712-.775 14.1-4.981 22.807-12.627-8.85 7.572-17.373 11.603-23.085 12.093Z"/>
    <path opacity=".4" d="M74.028 73.375c.074.18.151.363.229.542 5.68-.138 14.28-3.929 23.256-11.375-9.078 7.369-17.814 10.975-23.485 10.833ZM100.291 88.07h.428c.131-8.431.267-16.874.408-25.328-.285 8.449-.564 16.891-.836 25.329ZM101.67 88.079h.432l-.816-25.329.384 25.329ZM103.049 88.042h.432c-.68-8.405-1.36-16.837-2.04-25.296.536 8.449 1.072 16.88 1.608 25.296ZM104.449 87.957l.432-.033c-1.088-8.342-2.176-16.736-3.264-25.182.936 8.446 1.88 16.85 2.832 25.215ZM105.807 87.826l.433-.053c-1.48-8.244-2.976-16.59-4.488-25.035 1.363 8.446 2.714 16.808 4.055 25.088ZM107.182 87.642l.436-.065a6822.543 6822.543 0 0 1-5.691-24.839 5700.258 5700.258 0 0 0 5.255 24.904ZM108.554 87.41l.436-.082a3407.293 3407.293 0 0 1-6.899-24.594 2832.91 2832.91 0 0 0 6.463 24.676ZM109.916 87.124l.445-.102a1727.386 1727.386 0 0 1-8.107-24.292 1834.273 1834.273 0 0 0 7.662 24.394ZM111.279 86.79l.44-.127c-3.011-7.535-6.148-15.504-9.302-23.941 2.999 8.43 5.985 16.43 8.862 24.068ZM112.629 86.394l.449-.147c-3.374-7.27-6.936-15.096-10.498-23.53 3.419 8.418 6.814 16.304 10.049 23.677ZM113.971 85.941l.449-.167c-3.713-6.973-7.678-14.656-11.677-23.064 3.839 8.408 7.646 16.144 11.228 23.231ZM115.302 85.431c.151-.065.306-.122.453-.188-4.039-6.634-8.421-14.145-12.848-22.542 4.264 8.397 8.478 15.965 12.395 22.73ZM116.619 84.864l.453-.216c-4.345-6.255-9.147-13.57-14.003-21.95 4.688 8.371 9.323 15.76 13.55 22.166ZM117.913 84.223c.151-.077.302-.163.448-.245a246.562 246.562 0 0 1-15.136-21.297c5.124 8.364 10.2 15.54 14.688 21.542ZM119.194 83.517l.457-.269a194.61 194.61 0 0 1-16.255-20.575 213.37 213.37 0 0 0 15.798 20.844Z"/>
    <path opacity=".4" d="M103.56 62.66a169.7 169.7 0 0 0 16.887 20.082l.453-.306a155.27 155.27 0 0 1-17.34-19.775Z"/>
    <path opacity=".4" d="M103.723 62.648a136.881 136.881 0 0 0 17.952 19.242c.151-.11.293-.225.44-.339-5.32-4.333-11.791-10.633-18.392-18.903Z"/>
    <path opacity=".4" d="M103.886 62.636c6.854 8.23 13.553 14.333 18.959 18.323.147-.122.298-.244.441-.37-5.483-3.746-12.362-9.728-19.4-17.953Z"/>
    <path opacity=".4" d="M104.04 62.624c7.283 8.16 14.382 13.95 19.931 17.332.143-.135.277-.278.408-.408-5.59-3.13-12.864-8.764-20.339-16.924Z"/>
    <path opacity=".4" d="M104.212 62.608c7.699 8.102 15.182 13.517 20.808 16.258l.408-.448c-5.675-2.46-13.334-7.724-21.216-15.81Z"/>
    <path opacity=".4" d="M126.028 77.708c.127-.164.245-.327.367-.494-5.732-1.775-13.745-6.642-22.032-14.619 8.111 8.01 15.961 13.04 21.665 15.113Z"/>
    <path opacity=".4" d="m126.914 76.48.335-.523c-5.741-1.081-14.072-5.536-22.714-13.378 8.482 7.887 16.642 12.513 22.379 13.9Z"/>
    <path opacity=".4" d="M127.705 75.21c.098-.179.192-.358.285-.542-5.712-.408-14.325-4.443-23.256-12.105 8.764 7.727 17.259 11.942 22.971 12.648Z"/>
    <path opacity=".4" d="M104.856 62.542c9.074 7.532 17.789 11.322 23.46 11.38.082-.184.16-.368.237-.551-5.663.232-14.492-3.379-23.697-10.829Z"/>
  </g>
  <path opacity=".2" d="M89.352 63.35c-1.546 3.966.127 15.504 11.286 15.504 11.158 0 15.21-8.107 14.757-13.117l14.896-2.4s4.566 12.616-5.129 21.441c-9.694 8.825-43.297 8.254-50.4 1.547-7.103-6.708-3.162-19.96-3.162-19.96l17.752-3.015Z" fill="#000"/>
  <path d="M154.73 46.239v-2.783a.484.484 0 0 1 .339-.461l2.04-.636v-2.783a1.26 1.26 0 0 1 1.257-1.257h2.448a.464.464 0 0 1 .473.44v.898a.463.463 0 0 1-.461.466h-3.113v2.721a.493.493 0 0 1-.233.408l-1.738 1.053v1.938l-1.012-.004Z" fill="#999" stroke="#263238" stroke-linecap="round" stroke-linejoin="round"/>
  <path d="M157.415 46.239h-2.685v8.03h2.685v-8.03Z" fill="#263238"/>
  <path d="M160.772 45.557h-3.358v9.392h3.358v-9.392Z" fill="#757575"/>
  <path opacity=".2" d="M160.764 51.277h-3.35v3.672h3.35v-3.672Z" fill="#000"/>
  <path d="M160.772 45.557h-3.358v9.392h3.358v-9.392Z" stroke="#263238" stroke-linecap="round" stroke-linejoin="round"/>
  <path d="M45.166 54.264h2.685v-8.03h-2.685v8.03Z" fill="#263238"/>
  <path d="M41.808 54.945h3.358v-9.392h-3.358v9.392Z" fill="#757575"/>
  <path opacity=".2" d="M45.17 51.277h-3.358v3.583h3.358v-3.583Z" fill="#000"/>
  <path d="M41.808 54.945h3.358v-9.392h-3.358v9.392Z" stroke="#263238" stroke-linecap="round" stroke-linejoin="round"/>
  <path d="M47.447 50.73a3.264 3.264 0 0 0-.963-3.671l-1.975-1.632a1.197 1.197 0 0 0-1.738.212l-7.83 10.8a1.17 1.17 0 0 0-.228.697v11.6a1.175 1.175 0 0 0 1.191 1.175 1.175 1.175 0 0 0 1.175-1.175v-9.42c.001-.233.074-.46.208-.65l5.855-8.16a.636.636 0 0 1 .93-.114l1.078.914a1.448 1.448 0 0 0 2.297-.575Z" fill="#fff" stroke="#263238" stroke-linecap="round" stroke-linejoin="round"/>
  <path d="M45.83 49.674a.559.559 0 1 0 0-1.118.559.559 0 0 0 0 1.118Z" fill="#999" stroke="#263238" stroke-linecap="round" stroke-linejoin="round"/>
  <path d="M152.242 42.359H50.344V58.14h101.898V42.36Z" fill="#263238"/>
  <path opacity=".2" d="M150.768 43.546H51.775a.563.563 0 0 0-.563.563v2.554c0 .311.252.563.563.563h98.993a.563.563 0 0 0 .563-.563v-2.554a.563.563 0 0 0-.563-.563Z" fill="#fff"/>
  <path d="M143.118 61.314h-83.64a43.829 43.829 0 0 1-3.672-17.075h91c0 7.907-3.688 17.075-3.688 17.075Z" fill="#fff"/>
  <g opacity=".7" stroke="#263238" stroke-linecap="round" stroke-linejoin="round">
    <path opacity=".7" d="M66.244 60.033s1.832-.098 2.856-.714c1.024-.616.95.555 1.538.633.588.077 1.975-.408 2.71-.408.734 0 .175.449 1.003.408.828-.041.384.04.816-.041l3.546-.592s1.799-.347 2.162-.171c.363.175.84 1.04 1.37.816.531-.224.25-.408 1.05-.408.494.002.986.074 1.46.212 0 0 .074-.208.44-.212h.658s1.39.367 1.611.367c.22 0 1.865-.363 1.922-.367.057-.004 1.632-.408 1.632-.408.334.35.757.6 1.224.726.596.078 1.224-.081 1.673.118.448.2 1.925-.081 1.925-.081.353.002.705.03 1.053.081.457.105.933.09 1.383-.04a5.273 5.273 0 0 1 2.53-.041c1.326.24 2.546-.363 3.109-.367.563-.004 2.815.249 3.59.249.775 0 2.828.277 4.256.118 1.428-.16 2.362.2 3.321.2.959 0 1.983-.041 2.203-.041.22 0 1.281-.694 2.799-.526 1.518.167.167-.208 1.101 0 .935.208 1.673.408 2.069.449.317.018.636.004.951-.041l1.632-.119h8.135M64.55 56.883s5.04 0 5.95-.081c.91-.082 1.395-.547 1.88-.547.486 0 2.938.465 2.938.465a.816.816 0 0 1 .816-.465c.665 0 .326.061.938.306.612.245.294 0 .616.24.48.217.989.365 1.51.441 0 0 2.273.107 2.358-.44.086-.547 1.224.44 1.224.44s3.085-.44 4.276-.44c1.191 0 4.178-.24 4.178-.24s2.448.322 2.562.322c.114 0 .518.64.955.358.436-.281.857-.603 1.375-.522.481.12.947.295 1.387.523l1.138-.604 1.306.081s1.33.886 2.281.523c.723-.29 1.43-.62 2.117-.988l1.171.987h.767l2.273-.44a1.374 1.374 0 0 0 1.489.44c.963-.277 10.163 0 12.505 0 2.342 0 2.856-.603 2.856-.603l1.804.603h8.976"/>
  </g>
  <path opacity=".2" d="M143.971 58.956a46.47 46.47 0 0 1-.852 2.358h-83.64s-.408-.856-.967-2.358h85.459ZM145.714 52.779a65.964 65.964 0 0 1-.898 3.476H57.602a48.213 48.213 0 0 1-.881-3.476h88.993Z" fill="#000"/>
  <path d="M143.118 61.314h-83.64a43.829 43.829 0 0 1-3.672-17.075h91c0 7.907-3.688 17.075-3.688 17.075Z" stroke="#263238" stroke-linecap="round" stroke-linejoin="round"/>
  <path d="M50.324 41.547H47.83V58.96h2.493V41.547Z" fill="#757575"/>
  <path opacity=".2" d="M50.273 53.795h-2.427v5.165h2.427v-5.165Z" fill="#000"/>
  <path d="M50.324 41.547H47.83V58.96h2.493V41.547Z" stroke="#263238" stroke-linecap="round" stroke-linejoin="round"/>
  <path d="M154.751 41.547h-2.493V58.96h2.493V41.547Z" fill="#757575"/>
  <path opacity=".2" d="M154.75 53.795h-2.514v5.165h2.514v-5.165Z" fill="#000"/>
  <path d="M154.751 41.547h-2.493V58.96h2.493V41.547Z" stroke="#263238" stroke-linecap="round" stroke-linejoin="round"/>
  <path d="M152.278 40.816v12.701H50.302v-12.7h-.979V54.37h103.934V40.816h-.979Z" fill="#999" stroke="#263238" stroke-linecap="round" stroke-linejoin="round"/>
  <path d="M158.305 62.212v28.482a1.81 1.81 0 0 1-1.812 1.812H46.076a1.812 1.812 0 0 1-1.811-1.812V62.212a1.812 1.812 0 0 1 1.811-1.812h50.878v1.812s-8.686 7.536-23.664 10.314c2.146 9.715 13.872 17.136 28.021 17.136 14.15 0 25.876-7.43 28.026-17.136-14.998-2.778-23.685-10.314-23.685-10.314v-1.828h50.854a1.813 1.813 0 0 1 1.799 1.828Z" fill="#fff" stroke="#263238" stroke-linecap="round" stroke-linejoin="round"/>
  <path d="M158.304 62.212v28.482a1.817 1.817 0 0 1-.532 1.283 1.817 1.817 0 0 1-1.284.529H46.075a1.81 1.81 0 0 1-1.815-1.812V62.212a1.82 1.82 0 0 1 1.815-1.816h50.878v1.816s-8.69 7.531-23.664 10.314c2.146 9.715 13.872 17.136 28.025 17.136 14.154 0 25.872-7.43 28.022-17.136-14.998-2.783-23.684-10.314-23.684-10.314v-1.828h50.853a1.815 1.815 0 0 1 1.799 1.828Z" fill="#fff"/>
  <path opacity=".2" d="M155.856 62.648v26.296a1.328 1.328 0 0 1-.824 1.227c-.162.066-.335.1-.51.099H47.161a1.322 1.322 0 0 1-1.326-1.326V62.648a1.327 1.327 0 0 1 1.326-1.334h49.776v.898s-8.69 7.531-23.664 10.314c2.146 9.715 13.872 17.136 28.025 17.136 14.154 0 25.872-7.43 28.022-17.136-14.998-2.782-23.684-10.314-23.684-10.314v-.898h48.898a1.335 1.335 0 0 1 1.322 1.334Z" fill="#fff"/>
  <path d="M158.304 62.212v28.482a1.817 1.817 0 0 1-.532 1.283 1.817 1.817 0 0 1-1.284.529H46.075a1.81 1.81 0 0 1-1.815-1.812V62.212a1.82 1.82 0 0 1 1.815-1.816h50.878v1.816s-8.69 7.531-23.664 10.314c2.146 9.715 13.872 17.136 28.025 17.136 14.154 0 25.872-7.43 28.022-17.136-14.998-2.783-23.684-10.314-23.684-10.314v-1.828h50.853a1.815 1.815 0 0 1 1.799 1.828v0Z" stroke="#263238" stroke-linecap="round" stroke-linejoin="round"/>
  <path opacity=".2" d="m121.829 100.947 5.422 15.125s2.346-16.647 3.745-16.647c1.4 0 4.415 9.103 4.415 9.103s1.86-4.749 3.623-4.92c1.762-.172 3.358 11.66 3.358 11.66l.273 26.263-2.224 39.719s-14.186-15.626-18.323-19.653c-4.137-4.027-8.09-12.889-9.233-14.688-1.142-1.8-1.432-11.22-1.432-11.22a10.105 10.105 0 0 0 2.138-6.496s3.329-5.573 3.125-9.686c-.204-4.112-.718-20.094 5.113-18.56Z" fill="#000" fill-opacity=".7"/>
  <path d="m164.51 174.216-21.477 11.298c0-.115-2.823-4.688-6.234-9.862a254.482 254.482 0 0 0-4.786-7.03c-2.587-3.643-5.875-6.789-6.157-7.474-.816-2.04-7.107-9.678-8.515-12.648-1.407-2.97-1.73-12.212-2.35-14.386-.62-2.175 1.159-4.252 2.587-5.263 1.428-1.012 2.925-3.672 2.925-3.672s-1.579-6.153-1.595-9.282c-.016-3.13-1.081-14.052.192-15.072 1.273-1.02 2.411-.592 2.729.11 1.045 2.314 1.983 8.132 2.787 10.812.804 2.681 2.313 10.457 3.056 11.016.742.559 2.064-1.538 2.064-1.538s.127-6.528.408-9.233l-.408-8.568s-.763-5.149 1.012-5.639c2.448-.673 3.342.865 3.619 1.514.278.649 1.42 4.386 1.42 4.386l.065.257v.123a35.382 35.382 0 0 1 .216.84c.543 2.126 1.588 6.381 1.543 7.43-.061 1.415-.555 9.257.143 10.885l1.085-10.832s-1.751-8.348-1.241-9.552c.51-1.203 2.914.127 3.199.6.286.474 2.62 3.338 3.036 4.431l.408 1.094s.575-2.587 1.925-1.914c1.351.673 1.518 3.962 1.612 5.398.094 1.436 1.073 10.673 1.224 10.689.151.017 1.71 4.815 1.497 7.985-.444 6.785.731 11.832.772 14.435.04 2.603-1.922 8.633-1.922 8.633.069.119 1.35 2.297 1.701 4.211.257 1.403 4.831 6.475 8.568 10.51 2.599 2.783 4.778 5.059 4.892 5.308Z" fill="#fff"/>
  <path opacity=".4" d="M136.802 175.66a255.13 255.13 0 0 0-4.786-7.029c-2.587-3.644-5.875-6.79-6.157-7.475-.816-2.04-7.107-9.678-8.515-12.648-1.407-2.97-1.73-12.211-2.35-14.386-.62-2.175 1.159-4.251 2.587-5.263 1.428-1.012 2.925-3.672 2.925-3.672s-1.579-6.153-1.595-9.282c-.016-3.13-1.081-14.052.192-15.072 1.273-1.02 2.411-.591 2.729.11 1.045 2.314 1.983 8.132 2.787 10.812.804 2.681 2.313 10.457 3.056 11.016.742.559 2.064-1.538 2.064-1.538s.127-6.528.408-9.233l-.408-8.568s-.763-5.149 1.012-5.638c2.448-.674 3.342.865 3.619 1.513.277.649 1.42 4.386 1.42 4.386l.065.257v.123a40.869 40.869 0 0 1 .216.84c-.632-.999-1.501-1.852-2.664-2.077-3.264-.636-2.558 2.995-2.248 5.174a15.066 15.066 0 0 1-.102 4.345l.816-.469c-.587 1.048-1.428 9.763-1.428 11.701 0 1.938-1.534 2.583-2.909 2.016-1.375-.567-1.865-9.462-2.909-11.057-1.044-1.595-3.949 1.453-4.08 4.239-.131 2.787 2.468 11.098 1.852 13.056-.616 1.959-.608 9.384-.608 9.384l-.75-1.913c.049.261 0 1.138-1.571 3.721a7.682 7.682 0 0 0-.853 6.348c.959 2.118 5.822 7.699 6.638 8.274 0 0 .592-2.423 2.448-1.779a10.704 10.704 0 0 0-1.362 3.264c-.384 1.779 3.488 2.918 4.7 4.611.742 1.032 1.24 4.178 5.761 11.909ZM159.642 168.912c-3.818-3.847-10.538-7.511-10.13-8.47.547-1.289-.147-4.035-1.322-6.263-1.175-2.228.408-5.842.408-5.842l.726 2.101c.581-2.424.649-4.942.2-7.393-.742-4.166-1.322-2.701-1.322-2.701s.151-3.754.816-5.802c.665-2.048 1.224-7.022.306-9.963-.918-2.942-2.856-2.387-3.374-1.375-.518 1.012.037 4.957.465 6.25.429 1.294-1.395 3.468-1.432 1.853-.037-1.616-.726-6.12-.726-6.12l1.383-9.046-1.383-7.185s.575-2.586 1.926-1.913c1.35.673 1.517 3.962 1.611 5.398.094 1.436 1.073 10.673 1.224 10.689.151.017 1.71 4.815 1.498 7.985-.445 6.785.73 11.832.771 14.435.04 2.603-1.922 8.633-1.922 8.633.069.118 1.35 2.297 1.701 4.211.257 1.403 4.831 6.475 8.568 10.51l.008.008ZM143.832 107.867c.078.204.143.371.192.506-1.297-3.015-3.509-2.081-3.9-1.224-.392.857.926 6.173 1.224 6.997.298.824-1.183 7.405-1.4 9.584-.216 2.179-.791 2.623-.791 2.623-1.465.111-1.632-3.933-1.632-4.488.028.465.119.923.269 1.363l1.085-10.832s-1.791-8.356-1.281-9.56c.51-1.203 2.913.127 3.199.6.286.473 2.619 3.338 3.035 4.431Z" fill="#fff"/>
  <path d="M164.509 174.216c-.277-.628-13.019-13.464-13.464-15.822-.359-1.967-1.705-4.215-1.705-4.215s1.962-6.018 1.921-8.633c-.041-2.615-1.224-7.65-.771-14.435.212-3.17-1.342-7.968-1.497-7.985-.155-.016-1.134-9.253-1.224-10.689-.09-1.437-.257-4.725-1.612-5.398-1.354-.673-1.926 1.913-1.926 1.913l-.408-1.093c-.408-1.094-2.749-3.958-3.035-4.431-.286-.473-2.685-1.807-3.199-.6-.514 1.208 1.277 9.543 1.277 9.543l-1.077 10.845c-.698-1.632-.204-9.47-.143-10.885.062-1.416-1.856-8.65-1.856-8.65s-1.151-3.721-1.42-4.39c-.269-.67-1.171-2.187-3.619-1.514-1.775.49-1.012 5.639-1.012 5.639l.408 8.568c-.273 2.717-.408 9.233-.408 9.233s-1.322 2.093-2.064 1.538c-.743-.555-2.252-8.327-3.056-11.016-.804-2.689-1.742-8.499-2.787-10.812-.318-.702-1.456-1.13-2.729-.11-1.273 1.02-.212 11.938-.192 15.071.02 3.134 1.595 9.282 1.595 9.282s-1.497 2.644-2.925 3.672c-1.428 1.028-3.207 3.085-2.587 5.264.62 2.178.943 11.424 2.35 14.386 1.408 2.962 7.683 10.608 8.515 12.648.282.685 3.57 3.831 6.157 7.474 5.08 7.152 11.016 16.728 11.016 16.891" stroke="#263238" stroke-linecap="round" stroke-linejoin="round"/>
  <path d="M120.502 125.191s1.012 5.014.975 5.854c0 0-.886 3.872-.894 6.382a25.578 25.578 0 0 0-1.664 2.949c-.343.906-.955 3.134-.702 4.374" stroke="#263238" stroke-linecap="round" stroke-linejoin="round"/>
  <path d="M118.653 132.6s2.481.02 2.322 1.065M120.584 137.427s-1.591-.69-2.15.236M129.743 121.233s-.114 3.843-1.126 3.537M137.789 123.216s-.294 2.101.497 2.75M144.244 108.96s1.102 5.304 1.355 6.561c.253 1.257-1.253 7.67-1.224 9.339.028 1.669.742 4.056.644 5.178M148.643 149.242s-.355 3.464.71 4.945M127.25 156.097s-2.374 2.162-1.505 4.822M142.857 129.136c.037 1.526-.857 3.305-.951 5.414M135.293 127.773c.506 1.249-.596 3.966-.763 4.986-.067.798.02 1.601.257 2.366M149.511 132.074c-.204 1.326-1.142 2.272-1.322 6.352M126.344 127.386c.685.747.224 4.312.408 4.896M139.127 106.843s2.334-1.71 4.341.306M131.091 102.914s.408-.681 2.378-.514c1.971.167 2.322 1.277 2.322 1.277" stroke="#263238" stroke-linecap="round" stroke-linejoin="round"/>
  <path d="M125.333 114.562s-.661-.975-2.404-.653c-1.742.323-2.517 2.787-2.517 2.787" fill="#fff"/>
  <path d="M125.333 114.562s-.661-.975-2.404-.653c-1.742.323-2.517 2.787-2.517 2.787M149.005 123.134s-1.452-2.105-3.198-1.203" stroke="#263238" stroke-linecap="round" stroke-linejoin="round"/>
  <path opacity=".2" d="M87.128 107.712c2.448 1.897.384 13.542.384 13.542l.216 3.79 4.198-1.828 1.914 8.099s-.05 2.966 1.505 4.08c0 0 .384 6.654 0 11.518-.383 4.863-8.16 10.579-10.84 15.683-2.68 5.104-20.164 20.106-20.164 20.106L49.54 175.66l10.702-43.223 9.588-12.326 5.683-14.178s.975 9.262.408 15.504l11.208-13.725Z" fill="#000" fill-opacity=".7"/>
  <path d="M91.25 133.579c-.372 1.787.522 11.583.367 12.905-.156 1.322-7.948 10.2-8.34 10.873-.392.674-5.602 3.672-6.814 5.104-5.663 6.606-8.755 12.689-11.24 18.789a162.712 162.712 0 0 0-1.383 3.537l-22.473-13.056c1.89-2.342 3.672-4.423 5.304-6.316 3.264-3.839 5.863-6.911 7.136-9.812.39-.741.838-1.45 1.338-2.122.506-.718.96-1.309.96-1.309s-1.633-4.599-1.253-6.043c.379-1.444-.47-13.317-.47-13.317s-1.105-8.082-2.195-10.122a3.362 3.362 0 0 1-.35-1.722c.052-1.865 1.134-4.215 1.664-6.936.71-3.672.367-5.488 2.595-4.219 2.228 1.269 1.187 8.976 1.187 8.976l3.366 7.458c.886-1.803 0-7.066-.045-8.311 0-.204 0-.542-.032-.983-.07-2.146-.212-6.614-.029-8.376 0-.098 0-.188.033-.269.273-1.82 1.248-7.61 1.868-8.254.923-.955 2.387-1.759 3.766.408.771 1.224.441 10.93.441 10.93s3.199-3.86 4.17-4.802c.97-.943 3.916-2.664 4.704-.669.787 1.995-2.118 8.16-2.118 8.16.608 1.428.682 5.381.682 5.381s1.375 4.941 2.22 4.896h.036c.245-.053.514-.95.796-2.211.693-3.089 1.448-8.372 2.04-8.833l.408-.327a.318.318 0 0 1 .065-.061l.15-.135c1.445-1.285 4.489-4.141 4.489-4.141s.216-1.367 2.88-.946c2.665.42-1.183 8.282-1.183 8.282-.534 2.501-1.354 8.935-1.354 8.935-.25 2.677-.102 9.87-.102 9.87s1.26-4.186 1.179-5.712c-.082-1.526 2.505-5.263 3.264-6.226.759-.963 4.145-.624 3.203 1.224-.943 1.848-.56 7.707-.93 9.502Z" fill="#fff"/>
  <path opacity=".4" d="M53.795 155.619c.39-.74.838-1.45 1.338-2.121 0 0-1.326 3.672-1.456 5.626-.086 1.289-3.48 3.521-7.018 6.308 3.285-3.84 5.863-6.912 7.136-9.813ZM55.134 153.498c.506-.718.959-1.31.959-1.31s-1.632-4.598-1.253-6.042c.38-1.445-.47-13.317-.47-13.317s-1.105-8.083-2.194-10.123l2.538 4.435s-.25 3.505.473 5.426c.722 1.922 1.632 7.785 1.632 7.785s-1.07 4.929-.706 6.703c.363 1.775 2 1.131 2 1.131s.803 3.247-2.98 5.312ZM61.053 120.111c1.75 10.249-1.265 7.413-2.354 5.202-1.09-2.211-3.648-6.397-5.573-5.504-.541.254-.994.663-1.302 1.175.053-1.864 1.135-4.215 1.665-6.936.71-3.672.367-5.487 2.595-4.219 2.227 1.269 1.187 8.976 1.187 8.976l3.366 7.459c.885-1.804 0-7.067-.045-8.311 0-.204 0-.543-.032-.984.134.943.297 1.991.493 3.142ZM65.338 109.985s-1.89-2.473-3.53-2.346a1.438 1.438 0 0 0-1.277.942c0-.098 0-.188.033-.269.273-1.82 1.248-7.609 1.868-8.254.923-.955 2.387-1.759 3.766.408.772 1.224.441 10.93.441 10.93s3.199-3.859 4.17-4.802c.97-.942 3.917-2.664 4.704-.669.787 1.995-2.118 8.16-2.118 8.16.608 1.428.682 5.382.682 5.382s1.375 4.94 2.22 4.896c-1.861 3.5-3.101-4.24-3.101-4.24.277-1.599-.71-5.067-.612-5.981.097-.914-1.714-4.145-4.766-3.264-3.052.881-.849 12.942-.849 12.942a6.74 6.74 0 0 0-1.02 3.19c-.942-1.162 0-4.488 0-4.488-.836-3.182-.611-12.537-.611-12.537ZM79.56 112.975c-1.301 1.367-1.122 4.823-2.448 9.16.694-3.089 1.449-8.372 2.04-8.833l.408-.327ZM91.25 133.579c-.371 1.787.522 11.583.367 12.905-.155 1.322-7.948 10.2-8.34 10.873-.391.674-5.601 3.672-6.813 5.104-5.663 6.606-8.756 12.689-11.24 18.789a80.407 80.407 0 0 1 3.382-9.286c2.68-6.026 3.774-7.099 5.382-8.821 1.607-1.722 1.432-5.382 1.432-5.382a15.458 15.458 0 0 1 3.623-.428c2.04 0 8.078-8.609 10.155-10.119 2.076-1.509 2.448-1.509 0-4.838-2.448-3.33-1.755.534-2.49.408-.733-.127-1.133 1.481-1.133 1.481-.257-3.395-2.448-7.344-2.91-8.332-.46-.987 1.119-6.777.792-8.388-.326-1.612 1.404-11.424 1.404-11.424s-.217-3.766-3.627-3.778a2.238 2.238 0 0 0-1.461.44c1.444-1.285 4.488-4.141 4.488-4.141s.216-1.367 2.88-.946c2.665.42-1.183 8.282-1.183 8.282-.534 2.501-1.354 8.935-1.354 8.935-.25 2.677-.102 9.87-.102 9.87s1.26-4.186 1.179-5.712c-.082-1.526 2.505-5.263 3.264-6.226.759-.963 4.145-.625 3.203 1.224-.943 1.848-.527 7.715-.898 9.51Z" fill="#fff"/>
  <path d="M63.836 184.824c2.77-7.315 5.867-14.455 12.627-22.342 1.225-1.412 6.418-4.411 6.814-5.104.396-.694 8.189-9.556 8.34-10.873.15-1.318-.739-11.118-.368-12.905.372-1.787-.06-7.679.878-9.515.938-1.836-2.448-2.17-3.203-1.224-.755.947-3.334 4.717-3.264 6.226.07 1.51-1.18 5.712-1.18 5.712s-.146-7.193.103-9.869c0 0 .816-6.435 1.354-8.936 0 0 3.844-7.866 1.184-8.282-2.66-.416-2.881.947-2.881.947s-4.247 3.99-5.088 4.643c-.84.652-1.987 10.852-2.831 11.044-.845.192-2.257-4.896-2.257-4.896s-.073-3.953-.68-5.381c0 0 2.9-6.149 2.117-8.16-.784-2.012-3.73-.27-4.705.669-.975.938-4.17 4.802-4.17 4.802s.331-9.715-.44-10.93c-1.379-2.175-2.856-1.371-3.766-.408-.62.644-1.595 6.434-1.869 8.253-.273 1.82 0 8.381.03 9.629.028 1.249.93 6.508.044 8.311l-3.366-7.458s1.044-7.715-1.187-8.976c-2.232-1.261-1.885.559-2.595 4.219-.71 3.659-2.4 6.634-1.314 8.678 1.085 2.044 2.195 10.122 2.195 10.122s.84 11.873.47 13.317c-.372 1.445 1.264 6.047 1.264 6.047s-1.885 2.485-2.297 3.431c-1.901 4.321-6.712 9.046-12.432 16.153" stroke="#263238" stroke-linecap="round" stroke-linejoin="round"/>
  <path d="M66.638 111.404a4.01 4.01 0 0 0-.686 2.379c0 1.55 1.016 10.037 1.016 10.037s-.738.873-.775 1.632M84.488 134.779c.112 1.433.48 2.834 1.09 4.137.954 1.885.644 2.925.318 4.039a14.4 14.4 0 0 0-.347 2.974M60.997 124.575s.71 2.252-.608 3.321M76.334 124.346s.138.885-1.114.967M84.746 114.146s-3.142-3.427-5.582-.844" stroke="#263238" stroke-linecap="round" stroke-linejoin="round"/>
  <path d="M72.017 112.22s-1.449-1.831-2.705-1.721c-1.257.11-2.954.877-3.146 1.885M86.166 141.854a7.212 7.212 0 0 1 1.09 2.394M78.007 127.924c-.975 1.816-.51 4.896-.87 5.741M67.676 124.909c.228 1.045-.494 2.746-.604 3.999-.11 1.252.914 3.186.726 4.945M61.053 129.185s-.852 1.967-.816 3.264c.037 1.297.498 4.141.498 4.141M54.781 129.091s-.31 2.04.408 3.476c.718 1.437 1.416 4.488 1.416 4.488M56.09 152.184a1.943 1.943 0 0 0 1.417-1.669M76.603 158.402s.779 2.885-.714 4.741M51.844 120.642s2.195-2.142 3.855-.335M60.563 108.312s1.633-1.71 3.542.118" stroke="#263238" stroke-linecap="round" stroke-linejoin="round"/>
</svg>
